<svg viewBox="0 0 1728 1117" fill="none" xmlns="http://www.w3.org/2000/svg">
<rect fill="var(--doc-bg)"/>
<path d="M1657.71 1061.71C1658.1 1061.32 1658.1 1060.68 1657.71 1060.29L1651.34 1053.93C1650.95 1053.54 1650.32 1053.54 1649.93 1053.93C1649.54 1054.32 1649.54 1054.95 1649.93 1055.34L1655.59 1061L1649.93 1066.66C1649.54 1067.05 1649.54 1067.68 1649.93 1068.07C1650.32 1068.46 1650.95 1068.46 1651.34 1068.07L1657.71 1061.71ZM73 1061V1062H1657V1061V1060H73V1061Z" fill="currentColor"/>
<path d="M805.842 1018H803.024C802.857 1017.19 802.566 1016.48 802.149 1015.86C801.74 1015.25 801.24 1014.73 800.649 1014.32C800.066 1013.89 799.418 1013.58 798.706 1013.36C797.994 1013.15 797.251 1013.05 796.479 1013.05C795.07 1013.05 793.793 1013.4 792.649 1014.11C791.513 1014.83 790.607 1015.88 789.933 1017.26C789.267 1018.65 788.933 1020.35 788.933 1022.36C788.933 1024.38 789.267 1026.08 789.933 1027.47C790.607 1028.85 791.513 1029.9 792.649 1030.61C793.793 1031.33 795.07 1031.68 796.479 1031.68C797.251 1031.68 797.994 1031.58 798.706 1031.36C799.418 1031.15 800.066 1030.84 800.649 1030.42C801.24 1030 801.74 1029.48 802.149 1028.86C802.566 1028.24 802.857 1027.53 803.024 1026.73H805.842C805.63 1027.92 805.244 1028.98 804.683 1029.92C804.123 1030.86 803.426 1031.66 802.592 1032.32C801.759 1032.97 800.823 1033.47 799.786 1033.81C798.755 1034.15 797.653 1034.32 796.479 1034.32C794.494 1034.32 792.729 1033.83 791.183 1032.86C789.638 1031.89 788.422 1030.52 787.536 1028.73C786.649 1026.94 786.206 1024.82 786.206 1022.36C786.206 1019.91 786.649 1017.79 787.536 1016C788.422 1014.21 789.638 1012.83 791.183 1011.86C792.729 1010.89 794.494 1010.41 796.479 1010.41C797.653 1010.41 798.755 1010.58 799.786 1010.92C800.823 1011.26 801.759 1011.76 802.592 1012.42C803.426 1013.07 804.123 1013.87 804.683 1014.81C805.244 1015.74 805.63 1016.8 805.842 1018ZM810.033 1034V1016.55H812.624V1019.18H812.805C813.124 1018.32 813.699 1017.62 814.533 1017.08C815.366 1016.54 816.305 1016.27 817.351 1016.27C817.548 1016.27 817.794 1016.28 818.089 1016.28C818.385 1016.29 818.608 1016.3 818.76 1016.32V1019.05C818.669 1019.02 818.461 1018.99 818.135 1018.94C817.817 1018.89 817.48 1018.86 817.124 1018.86C816.275 1018.86 815.518 1019.04 814.851 1019.4C814.192 1019.75 813.669 1020.23 813.283 1020.85C812.904 1021.47 812.714 1022.17 812.714 1022.95V1034H810.033ZM828.499 1034.36C826.923 1034.36 825.54 1033.99 824.351 1033.24C823.169 1032.49 822.245 1031.44 821.578 1030.09C820.919 1028.74 820.589 1027.17 820.589 1025.36C820.589 1023.55 820.919 1021.96 821.578 1020.6C822.245 1019.25 823.169 1018.19 824.351 1017.44C825.54 1016.69 826.923 1016.32 828.499 1016.32C830.074 1016.32 831.453 1016.69 832.635 1017.44C833.824 1018.19 834.749 1019.25 835.408 1020.6C836.074 1021.96 836.408 1023.55 836.408 1025.36C836.408 1027.17 836.074 1028.74 835.408 1030.09C834.749 1031.44 833.824 1032.49 832.635 1033.24C831.453 1033.99 830.074 1034.36 828.499 1034.36ZM828.499 1031.95C829.696 1031.95 830.68 1031.65 831.453 1031.03C832.226 1030.42 832.798 1029.61 833.169 1028.61C833.54 1027.61 833.726 1026.53 833.726 1025.36C833.726 1024.2 833.54 1023.11 833.169 1022.1C832.798 1021.09 832.226 1020.28 831.453 1019.66C830.68 1019.04 829.696 1018.73 828.499 1018.73C827.302 1018.73 826.317 1019.04 825.544 1019.66C824.771 1020.28 824.199 1021.09 823.828 1022.1C823.457 1023.11 823.271 1024.2 823.271 1025.36C823.271 1026.53 823.457 1027.61 823.828 1028.61C824.199 1029.61 824.771 1030.42 825.544 1031.03C826.317 1031.65 827.302 1031.95 828.499 1031.95ZM852.865 1020.45L850.456 1021.14C850.304 1020.73 850.081 1020.34 849.786 1019.97C849.498 1019.58 849.104 1019.26 848.604 1019.01C848.104 1018.76 847.464 1018.64 846.683 1018.64C845.615 1018.64 844.725 1018.88 844.013 1019.38C843.308 1019.86 842.956 1020.48 842.956 1021.23C842.956 1021.89 843.198 1022.42 843.683 1022.81C844.168 1023.19 844.926 1023.52 845.956 1023.77L848.547 1024.41C850.107 1024.79 851.27 1025.37 852.036 1026.15C852.801 1026.92 853.183 1027.92 853.183 1029.14C853.183 1030.14 852.895 1031.03 852.32 1031.82C851.751 1032.61 850.956 1033.23 849.933 1033.68C848.911 1034.14 847.721 1034.36 846.365 1034.36C844.585 1034.36 843.111 1033.98 841.945 1033.2C840.778 1032.43 840.039 1031.3 839.729 1029.82L842.274 1029.18C842.517 1030.12 842.975 1030.83 843.649 1031.3C844.331 1031.77 845.221 1032 846.32 1032C847.57 1032 848.562 1031.73 849.297 1031.2C850.039 1030.67 850.411 1030.02 850.411 1029.27C850.411 1028.67 850.198 1028.16 849.774 1027.75C849.35 1027.33 848.698 1027.02 847.82 1026.82L844.911 1026.14C843.312 1025.76 842.138 1025.17 841.388 1024.38C840.645 1023.57 840.274 1022.57 840.274 1021.36C840.274 1020.38 840.551 1019.51 841.104 1018.75C841.664 1017.99 842.426 1017.4 843.388 1016.97C844.357 1016.53 845.456 1016.32 846.683 1016.32C848.411 1016.32 849.767 1016.7 850.751 1017.45C851.744 1018.21 852.448 1019.21 852.865 1020.45ZM869.584 1020.45L867.175 1021.14C867.023 1020.73 866.8 1020.34 866.504 1019.97C866.216 1019.58 865.822 1019.26 865.322 1019.01C864.822 1018.76 864.182 1018.64 863.402 1018.64C862.334 1018.64 861.444 1018.88 860.732 1019.38C860.027 1019.86 859.675 1020.48 859.675 1021.23C859.675 1021.89 859.917 1022.42 860.402 1022.81C860.887 1023.19 861.644 1023.52 862.675 1023.77L865.266 1024.41C866.826 1024.79 867.989 1025.37 868.754 1026.15C869.519 1026.92 869.902 1027.92 869.902 1029.14C869.902 1030.14 869.614 1031.03 869.038 1031.82C868.47 1032.61 867.675 1033.23 866.652 1033.68C865.629 1034.14 864.44 1034.36 863.084 1034.36C861.304 1034.36 859.83 1033.98 858.663 1033.2C857.497 1032.43 856.758 1031.3 856.447 1029.82L858.993 1029.18C859.235 1030.12 859.694 1030.83 860.368 1031.3C861.05 1031.77 861.94 1032 863.038 1032C864.288 1032 865.281 1031.73 866.016 1031.2C866.758 1030.67 867.129 1030.02 867.129 1029.27C867.129 1028.67 866.917 1028.16 866.493 1027.75C866.069 1027.33 865.417 1027.02 864.538 1026.82L861.629 1026.14C860.031 1025.76 858.857 1025.17 858.107 1024.38C857.364 1023.57 856.993 1022.57 856.993 1021.36C856.993 1020.38 857.269 1019.51 857.822 1018.75C858.383 1017.99 859.144 1017.4 860.107 1016.97C861.076 1016.53 862.175 1016.32 863.402 1016.32C865.129 1016.32 866.485 1016.7 867.47 1017.45C868.463 1018.21 869.167 1019.21 869.584 1020.45ZM884.257 1034H881.303L889.848 1010.73H892.757L901.303 1034H898.348L891.393 1014.41H891.212L884.257 1034ZM885.348 1024.91H897.257V1027.41H885.348V1024.91ZM906.564 1016.55L910.746 1023.68L914.928 1016.55H918.018L912.382 1025.27L918.018 1034H914.928L910.746 1027.23L906.564 1034H903.473L909.018 1025.27L903.473 1016.55H906.564ZM921.845 1034V1016.55H924.527V1034H921.845ZM923.209 1013.64C922.686 1013.64 922.235 1013.46 921.857 1013.1C921.485 1012.75 921.3 1012.32 921.3 1011.82C921.3 1011.32 921.485 1010.89 921.857 1010.53C922.235 1010.18 922.686 1010 923.209 1010C923.732 1010 924.179 1010.18 924.55 1010.53C924.929 1010.89 925.118 1011.32 925.118 1011.82C925.118 1012.32 924.929 1012.75 924.55 1013.1C924.179 1013.46 923.732 1013.64 923.209 1013.64ZM941.803 1020.45L939.393 1021.14C939.242 1020.73 939.018 1020.34 938.723 1019.97C938.435 1019.58 938.041 1019.26 937.541 1019.01C937.041 1018.76 936.401 1018.64 935.621 1018.64C934.553 1018.64 933.662 1018.88 932.95 1019.38C932.246 1019.86 931.893 1020.48 931.893 1021.23C931.893 1021.89 932.136 1022.42 932.621 1022.81C933.106 1023.19 933.863 1023.52 934.893 1023.77L937.484 1024.41C939.045 1024.79 940.208 1025.37 940.973 1026.15C941.738 1026.92 942.121 1027.92 942.121 1029.14C942.121 1030.14 941.833 1031.03 941.257 1031.82C940.689 1032.61 939.893 1033.23 938.871 1033.68C937.848 1034.14 936.659 1034.36 935.303 1034.36C933.522 1034.36 932.049 1033.98 930.882 1033.2C929.715 1032.43 928.977 1031.3 928.666 1029.82L931.212 1029.18C931.454 1030.12 931.912 1030.83 932.587 1031.3C933.268 1031.77 934.159 1032 935.257 1032C936.507 1032 937.5 1031.73 938.234 1031.2C938.977 1030.67 939.348 1030.02 939.348 1029.27C939.348 1028.67 939.136 1028.16 938.712 1027.75C938.287 1027.33 937.636 1027.02 936.757 1026.82L933.848 1026.14C932.25 1025.76 931.075 1025.17 930.325 1024.38C929.583 1023.57 929.212 1022.57 929.212 1021.36C929.212 1020.38 929.488 1019.51 930.041 1018.75C930.602 1017.99 931.363 1017.4 932.325 1016.97C933.295 1016.53 934.393 1016.32 935.621 1016.32C937.348 1016.32 938.704 1016.7 939.689 1017.45C940.681 1018.21 941.386 1019.21 941.803 1020.45Z" fill="currentColor"/>
<path d="M73.2068 30.2923C72.816 29.902 72.1829 29.9023 71.7926 30.293L65.4317 36.66C65.0413 37.0508 65.0417 37.6839 65.4324 38.0743C65.8231 38.4646 66.4562 38.4643 66.8466 38.0736L72.5007 32.414L78.1603 38.0681C78.551 38.4584 79.1842 38.4581 79.5745 38.0674C79.9648 37.6767 79.9645 37.0435 79.5738 36.6532L73.2068 30.2923ZM73 1061L74 1061L73.5 30.9993L72.5 30.9998L71.5 31.0002L72 1061L73 1061Z" fill="currentColor"/>
<path d="M35.7273 628.697L35.7273 625.334L55.0455 617.425V617.152L35.7273 609.243V605.879H59V608.516H41.3182V608.743L59 616.016L59 618.561L41.3182 625.834V626.061H59V628.697H35.7273ZM59.4091 595.456C59.4091 596.562 59.2008 597.566 58.7841 598.467C58.3598 599.369 57.75 600.085 56.9545 600.615C56.1515 601.145 55.1818 601.411 54.0455 601.411C53.0455 601.411 52.2348 601.214 51.6136 600.82C50.9848 600.426 50.4924 599.899 50.1364 599.24C49.7803 598.581 49.5152 597.854 49.3409 597.058C49.1591 596.255 49.0152 595.448 48.9091 594.638C48.7727 593.577 48.6705 592.717 48.6023 592.058C48.5265 591.392 48.4015 590.907 48.2273 590.604C48.053 590.293 47.75 590.138 47.3182 590.138H47.2273C46.1061 590.138 45.2348 590.445 44.6136 591.058C43.9924 591.664 43.6818 592.585 43.6818 593.82C43.6818 595.1 43.9621 596.104 44.5227 596.831C45.0833 597.558 45.6818 598.07 46.3182 598.365L45.4091 600.911C44.3485 600.456 43.5227 599.85 42.9318 599.092C42.3333 598.327 41.9167 597.494 41.6818 596.592C41.4394 595.683 41.3182 594.789 41.3182 593.911C41.3182 593.35 41.3864 592.706 41.5227 591.979C41.6515 591.244 41.9205 590.536 42.3295 589.854C42.7386 589.164 43.3561 588.592 44.1818 588.138C45.0076 587.683 46.1136 587.456 47.5 587.456H59V590.138H56.6364V590.274C57.0152 590.456 57.4205 590.759 57.8523 591.183C58.2841 591.607 58.6515 592.172 58.9545 592.876C59.2576 593.581 59.4091 594.441 59.4091 595.456ZM57 595.047C57 593.986 56.7917 593.092 56.375 592.365C55.9583 591.63 55.4205 591.077 54.7614 590.706C54.1023 590.327 53.4091 590.138 52.6818 590.138H50.2273C50.3636 590.251 50.4886 590.501 50.6023 590.888C50.7083 591.267 50.803 591.706 50.8864 592.206C50.9621 592.698 51.0303 593.179 51.0909 593.649C51.1439 594.111 51.1894 594.486 51.2273 594.774C51.3182 595.471 51.4659 596.123 51.6705 596.729C51.8674 597.327 52.1667 597.812 52.5682 598.183C52.9621 598.547 53.5 598.729 54.1818 598.729C55.1136 598.729 55.8182 598.384 56.2955 597.695C56.7652 596.998 57 596.115 57 595.047ZM59 582.561H41.5455V579.879H59V582.561ZM38.6364 581.197C38.6364 581.72 38.4583 582.171 38.1023 582.55C37.7462 582.921 37.3182 583.107 36.8182 583.107C36.3182 583.107 35.8902 582.921 35.5341 582.55C35.178 582.171 35 581.72 35 581.197C35 580.675 35.178 580.228 35.5341 579.857C35.8902 579.478 36.3182 579.288 36.8182 579.288C37.3182 579.288 37.7462 579.478 38.1023 579.857C38.4583 580.228 38.6364 580.675 38.6364 581.197ZM48.5 572.286H59V574.967H41.5455V572.376H44.2727V572.149C43.3864 571.74 42.6742 571.119 42.1364 570.286C41.5909 569.452 41.3182 568.376 41.3182 567.058C41.3182 565.876 41.5606 564.842 42.0455 563.956C42.5227 563.07 43.25 562.38 44.2273 561.888C45.197 561.395 46.4242 561.149 47.9091 561.149H59V563.831H48.0909C46.7197 563.831 45.6515 564.187 44.8864 564.899C44.1136 565.611 43.7273 566.589 43.7273 567.831C43.7273 568.687 43.9129 569.452 44.2841 570.126C44.6553 570.793 45.197 571.32 45.9091 571.706C46.6212 572.092 47.4848 572.286 48.5 572.286ZM59 545.93V548.885L35.7273 540.339V537.43L59 528.885V531.839L39.4091 538.794V538.976L59 545.93ZM49.9091 544.839V532.93H52.4091V544.839H49.9091ZM41.5455 523.624L48.6818 519.442L41.5455 515.26V512.169L50.2727 517.805L59 512.169L59 515.26L52.2273 519.442L59 523.624V526.714L50.2727 521.169L41.5455 526.714V523.624ZM59 508.342H41.5455V505.661H59V508.342ZM38.6364 506.979C38.6364 507.501 38.4583 507.952 38.1023 508.331C37.7462 508.702 37.3182 508.888 36.8182 508.888C36.3182 508.888 35.8902 508.702 35.5341 508.331C35.178 507.952 35 507.501 35 506.979C35 506.456 35.178 506.009 35.5341 505.638C35.8902 505.259 36.3182 505.07 36.8182 505.07C37.3182 505.07 37.7462 505.259 38.1023 505.638C38.4583 506.009 38.6364 506.456 38.6364 506.979ZM45.4545 488.385L46.1364 490.794C45.7348 490.946 45.3447 491.169 44.9659 491.464C44.5795 491.752 44.2614 492.146 44.0114 492.646C43.7614 493.146 43.6364 493.786 43.6364 494.567C43.6364 495.635 43.8826 496.525 44.375 497.237C44.8598 497.942 45.4773 498.294 46.2273 498.294C46.8939 498.294 47.4205 498.052 47.8068 497.567C48.1932 497.082 48.5152 496.324 48.7727 495.294L49.4091 492.703C49.7879 491.143 50.3674 489.98 51.1477 489.214C51.9205 488.449 52.9167 488.067 54.1364 488.067C55.1364 488.067 56.0303 488.355 56.8182 488.93C57.6061 489.499 58.2273 490.294 58.6818 491.317C59.1364 492.339 59.3636 493.529 59.3636 494.885C59.3636 496.665 58.9773 498.139 58.2045 499.305C57.4318 500.472 56.303 501.211 54.8182 501.521L54.1818 498.976C55.1212 498.733 55.8258 498.275 56.2955 497.601C56.7652 496.919 57 496.029 57 494.93C57 493.68 56.7348 492.688 56.2045 491.953C55.6667 491.211 55.0227 490.839 54.2727 490.839C53.6667 490.839 53.1591 491.052 52.75 491.476C52.3333 491.9 52.0227 492.552 51.8182 493.43L51.1364 496.339C50.7576 497.938 50.1705 499.112 49.375 499.862C48.572 500.605 47.5682 500.976 46.3636 500.976C45.3788 500.976 44.5076 500.699 43.75 500.146C42.9924 499.586 42.3977 498.824 41.9659 497.862C41.5341 496.893 41.3182 495.794 41.3182 494.567C41.3182 492.839 41.697 491.483 42.4545 490.499C43.2121 489.506 44.2121 488.802 45.4545 488.385Z" fill="currentColor"/>
<path d="M757.115 490V466.727H771.07V469.227H759.933V477.091H770.024V479.591H759.933V490H757.115ZM778.214 466.727V490H775.533V466.727H778.214ZM790.445 490.364C788.763 490.364 787.312 489.992 786.092 489.25C784.88 488.5 783.945 487.455 783.286 486.114C782.634 484.765 782.308 483.197 782.308 481.409C782.308 479.621 782.634 478.045 783.286 476.682C783.945 475.311 784.861 474.242 786.036 473.477C787.217 472.705 788.596 472.318 790.172 472.318C791.081 472.318 791.979 472.47 792.865 472.773C793.751 473.076 794.558 473.568 795.286 474.25C796.013 474.924 796.592 475.818 797.024 476.932C797.456 478.045 797.672 479.417 797.672 481.045V482.182H784.217V479.864H794.945C794.945 478.879 794.748 478 794.354 477.227C793.967 476.455 793.414 475.845 792.695 475.398C791.982 474.951 791.142 474.727 790.172 474.727C789.104 474.727 788.179 474.992 787.399 475.523C786.626 476.045 786.032 476.727 785.615 477.568C785.198 478.409 784.99 479.311 784.99 480.273V481.818C784.99 483.136 785.217 484.254 785.672 485.17C786.134 486.08 786.774 486.773 787.592 487.25C788.411 487.72 789.361 487.955 790.445 487.955C791.149 487.955 791.786 487.856 792.354 487.659C792.929 487.455 793.426 487.152 793.842 486.75C794.259 486.341 794.581 485.833 794.808 485.227L797.399 485.955C797.126 486.833 796.668 487.606 796.024 488.273C795.38 488.932 794.585 489.447 793.638 489.818C792.691 490.182 791.626 490.364 790.445 490.364ZM803.283 472.545L807.464 479.682L811.646 472.545H814.737L809.101 481.273L814.737 490H811.646L807.464 483.227L803.283 490H800.192L805.737 481.273L800.192 472.545H803.283ZM846.655 474H843.837C843.67 473.189 843.378 472.477 842.962 471.864C842.553 471.25 842.053 470.735 841.462 470.318C840.878 469.894 840.231 469.576 839.518 469.364C838.806 469.152 838.064 469.045 837.291 469.045C835.882 469.045 834.606 469.402 833.462 470.114C832.325 470.826 831.42 471.875 830.746 473.261C830.079 474.648 829.746 476.348 829.746 478.364C829.746 480.379 830.079 482.08 830.746 483.466C831.42 484.852 832.325 485.902 833.462 486.614C834.606 487.326 835.882 487.682 837.291 487.682C838.064 487.682 838.806 487.576 839.518 487.364C840.231 487.152 840.878 486.837 841.462 486.42C842.053 485.996 842.553 485.477 842.962 484.864C843.378 484.242 843.67 483.53 843.837 482.727H846.655C846.443 483.917 846.056 484.981 845.496 485.92C844.935 486.86 844.238 487.659 843.405 488.318C842.571 488.97 841.636 489.466 840.598 489.807C839.568 490.148 838.465 490.318 837.291 490.318C835.306 490.318 833.541 489.833 831.996 488.864C830.45 487.894 829.234 486.515 828.348 484.727C827.462 482.939 827.018 480.818 827.018 478.364C827.018 475.909 827.462 473.788 828.348 472C829.234 470.212 830.45 468.833 831.996 467.864C833.541 466.894 835.306 466.409 837.291 466.409C838.465 466.409 839.568 466.58 840.598 466.92C841.636 467.261 842.571 467.761 843.405 468.42C844.238 469.072 844.935 469.867 845.496 470.807C846.056 471.739 846.443 472.803 846.655 474ZM857.936 490.364C856.36 490.364 854.978 489.989 853.788 489.239C852.607 488.489 851.682 487.439 851.016 486.091C850.357 484.742 850.027 483.167 850.027 481.364C850.027 479.545 850.357 477.958 851.016 476.602C851.682 475.246 852.607 474.193 853.788 473.443C854.978 472.693 856.36 472.318 857.936 472.318C859.512 472.318 860.891 472.693 862.072 473.443C863.262 474.193 864.186 475.246 864.845 476.602C865.512 477.958 865.845 479.545 865.845 481.364C865.845 483.167 865.512 484.742 864.845 486.091C864.186 487.439 863.262 488.489 862.072 489.239C860.891 489.989 859.512 490.364 857.936 490.364ZM857.936 487.955C859.133 487.955 860.118 487.648 860.891 487.034C861.663 486.42 862.235 485.614 862.607 484.614C862.978 483.614 863.163 482.53 863.163 481.364C863.163 480.197 862.978 479.11 862.607 478.102C862.235 477.095 861.663 476.28 860.891 475.659C860.118 475.038 859.133 474.727 857.936 474.727C856.739 474.727 855.754 475.038 854.982 475.659C854.209 476.28 853.637 477.095 853.266 478.102C852.894 479.11 852.709 480.197 852.709 481.364C852.709 482.53 852.894 483.614 853.266 484.614C853.637 485.614 854.209 486.42 854.982 487.034C855.754 487.648 856.739 487.955 857.936 487.955ZM872.621 479.5V490H869.939V472.545H872.53V475.273H872.757C873.166 474.386 873.787 473.674 874.621 473.136C875.454 472.591 876.53 472.318 877.848 472.318C879.03 472.318 880.064 472.561 880.95 473.045C881.837 473.523 882.526 474.25 883.018 475.227C883.511 476.197 883.757 477.424 883.757 478.909V490H881.075V479.091C881.075 477.72 880.719 476.652 880.007 475.886C879.295 475.114 878.318 474.727 877.075 474.727C876.219 474.727 875.454 474.913 874.78 475.284C874.113 475.655 873.587 476.197 873.2 476.909C872.814 477.621 872.621 478.485 872.621 479.5ZM896.249 472.545V474.818H887.203V472.545H896.249ZM889.839 468.364H892.521V485C892.521 485.758 892.631 486.326 892.851 486.705C893.078 487.076 893.366 487.326 893.714 487.455C894.071 487.576 894.446 487.636 894.839 487.636C895.135 487.636 895.377 487.621 895.567 487.591C895.756 487.553 895.908 487.523 896.021 487.5L896.567 489.909C896.385 489.977 896.131 490.045 895.805 490.114C895.48 490.189 895.067 490.227 894.567 490.227C893.809 490.227 893.067 490.064 892.339 489.739C891.62 489.413 891.021 488.917 890.544 488.25C890.074 487.583 889.839 486.742 889.839 485.727V468.364ZM905.419 490.409C904.313 490.409 903.309 490.201 902.408 489.784C901.506 489.36 900.79 488.75 900.26 487.955C899.73 487.152 899.464 486.182 899.464 485.045C899.464 484.045 899.661 483.235 900.055 482.614C900.449 481.985 900.976 481.492 901.635 481.136C902.294 480.78 903.021 480.515 903.817 480.341C904.62 480.159 905.427 480.015 906.237 479.909C907.298 479.773 908.158 479.67 908.817 479.602C909.483 479.527 909.968 479.402 910.271 479.227C910.582 479.053 910.737 478.75 910.737 478.318V478.227C910.737 477.106 910.43 476.235 909.817 475.614C909.211 474.992 908.29 474.682 907.055 474.682C905.775 474.682 904.771 474.962 904.044 475.523C903.317 476.083 902.805 476.682 902.51 477.318L899.964 476.409C900.419 475.348 901.025 474.523 901.783 473.932C902.548 473.333 903.381 472.917 904.283 472.682C905.192 472.439 906.086 472.318 906.964 472.318C907.525 472.318 908.169 472.386 908.896 472.523C909.631 472.652 910.339 472.92 911.021 473.33C911.711 473.739 912.283 474.356 912.737 475.182C913.192 476.008 913.419 477.114 913.419 478.5V490H910.737V487.636H910.601C910.419 488.015 910.116 488.42 909.692 488.852C909.268 489.284 908.703 489.652 907.999 489.955C907.294 490.258 906.434 490.409 905.419 490.409ZM905.828 488C906.889 488 907.783 487.792 908.51 487.375C909.245 486.958 909.798 486.42 910.169 485.761C910.548 485.102 910.737 484.409 910.737 483.682V481.227C910.624 481.364 910.374 481.489 909.987 481.602C909.608 481.708 909.169 481.803 908.669 481.886C908.177 481.962 907.696 482.03 907.226 482.091C906.764 482.144 906.389 482.189 906.101 482.227C905.404 482.318 904.752 482.466 904.146 482.67C903.548 482.867 903.063 483.167 902.692 483.568C902.328 483.962 902.146 484.5 902.146 485.182C902.146 486.114 902.491 486.818 903.18 487.295C903.877 487.765 904.76 488 905.828 488ZM918.314 490V472.545H920.996V490H918.314ZM919.678 469.636C919.155 469.636 918.704 469.458 918.325 469.102C917.954 468.746 917.768 468.318 917.768 467.818C917.768 467.318 917.954 466.89 918.325 466.534C918.704 466.178 919.155 466 919.678 466C920.2 466 920.647 466.178 921.018 466.534C921.397 466.89 921.587 467.318 921.587 467.818C921.587 468.318 921.397 468.746 921.018 469.102C920.647 469.458 920.2 469.636 919.678 469.636ZM928.589 479.5V490H925.908V472.545H928.499V475.273H928.726C929.135 474.386 929.756 473.674 930.589 473.136C931.423 472.591 932.499 472.318 933.817 472.318C934.999 472.318 936.033 472.561 936.919 473.045C937.805 473.523 938.495 474.25 938.987 475.227C939.48 476.197 939.726 477.424 939.726 478.909V490H937.044V479.091C937.044 477.72 936.688 476.652 935.976 475.886C935.264 475.114 934.286 474.727 933.044 474.727C932.188 474.727 931.423 474.913 930.749 475.284C930.082 475.655 929.555 476.197 929.169 476.909C928.783 477.621 928.589 478.485 928.589 479.5ZM951.945 490.364C950.263 490.364 948.812 489.992 947.592 489.25C946.38 488.5 945.445 487.455 944.786 486.114C944.134 484.765 943.808 483.197 943.808 481.409C943.808 479.621 944.134 478.045 944.786 476.682C945.445 475.311 946.361 474.242 947.536 473.477C948.717 472.705 950.096 472.318 951.672 472.318C952.581 472.318 953.479 472.47 954.365 472.773C955.251 473.076 956.058 473.568 956.786 474.25C957.513 474.924 958.092 475.818 958.524 476.932C958.956 478.045 959.172 479.417 959.172 481.045V482.182H945.717V479.864H956.445C956.445 478.879 956.248 478 955.854 477.227C955.467 476.455 954.914 475.845 954.195 475.398C953.482 474.951 952.642 474.727 951.672 474.727C950.604 474.727 949.679 474.992 948.899 475.523C948.126 476.045 947.532 476.727 947.115 477.568C946.698 478.409 946.49 479.311 946.49 480.273V481.818C946.49 483.136 946.717 484.254 947.172 485.17C947.634 486.08 948.274 486.773 949.092 487.25C949.911 487.72 950.861 487.955 951.945 487.955C952.649 487.955 953.286 487.856 953.854 487.659C954.429 487.455 954.926 487.152 955.342 486.75C955.759 486.341 956.081 485.833 956.308 485.227L958.899 485.955C958.626 486.833 958.168 487.606 957.524 488.273C956.88 488.932 956.085 489.447 955.138 489.818C954.191 490.182 953.126 490.364 951.945 490.364ZM963.251 490V472.545H965.842V475.182H966.024C966.342 474.318 966.918 473.617 967.751 473.08C968.585 472.542 969.524 472.273 970.57 472.273C970.767 472.273 971.013 472.277 971.308 472.284C971.604 472.292 971.827 472.303 971.979 472.318V475.045C971.888 475.023 971.679 474.989 971.354 474.943C971.036 474.89 970.698 474.864 970.342 474.864C969.494 474.864 968.736 475.042 968.07 475.398C967.411 475.746 966.888 476.231 966.501 476.852C966.123 477.466 965.933 478.167 965.933 478.955V490H963.251ZM684.684 550.2H681.516V548.376H684.684V547.16C684.684 545.859 684.908 544.792 685.356 543.96C685.825 543.128 686.465 542.52 687.276 542.136C688.087 541.731 689.015 541.528 690.06 541.528C690.977 541.528 691.831 541.699 692.62 542.04C693.431 542.36 694.103 542.861 694.636 543.544L693.42 545.24L693.228 545.496L693.036 545.368C693.015 545.197 692.972 545.027 692.908 544.856C692.844 544.685 692.695 544.472 692.46 544.216C692.119 543.917 691.777 543.704 691.436 543.576C691.095 543.448 690.657 543.384 690.124 543.384C689.505 543.384 688.951 543.512 688.46 543.768C687.969 544.003 687.585 544.397 687.308 544.952C687.031 545.485 686.892 546.221 686.892 547.16V548.376H691.692V550.2H686.892V563H684.684V550.2ZM698.028 563V561.144H702.348V543.576H698.22V541.72H704.684V561.144H708.972V563H698.028ZM720.204 563.32C719.137 563.32 718.167 563.16 717.292 562.84C716.417 562.499 715.66 562.008 715.02 561.368C714.401 560.728 713.921 559.939 713.58 559C713.239 558.04 713.068 556.952 713.068 555.736C713.068 554.499 713.239 553.4 713.58 552.44C713.943 551.48 714.423 550.68 715.02 550.04C715.639 549.379 716.353 548.877 717.164 548.536C717.996 548.195 718.871 548.024 719.788 548.024C720.62 548.024 721.399 548.163 722.124 548.44C722.849 548.717 723.479 549.144 724.012 549.72C724.545 550.275 724.961 550.989 725.26 551.864C725.58 552.739 725.74 553.773 725.74 554.968C725.74 555.139 725.729 555.32 725.708 555.512C725.708 555.683 725.697 555.853 725.676 556.024H715.276C715.319 556.963 715.479 557.784 715.756 558.488C716.033 559.171 716.396 559.736 716.844 560.184C717.292 560.611 717.804 560.931 718.38 561.144C718.977 561.357 719.607 561.464 720.268 561.464C720.78 561.464 721.26 561.411 721.708 561.304C722.156 561.176 722.572 560.995 722.956 560.76C723.361 560.504 723.724 560.195 724.044 559.832L725.324 561.08C724.919 561.571 724.449 561.987 723.916 562.328C723.404 562.669 722.839 562.915 722.22 563.064C721.601 563.235 720.929 563.32 720.204 563.32ZM715.372 554.232H723.404C723.404 553.549 723.308 552.941 723.116 552.408C722.945 551.853 722.689 551.384 722.348 551C722.028 550.595 721.633 550.296 721.164 550.104C720.716 549.891 720.204 549.784 719.628 549.784C719.116 549.784 718.625 549.869 718.156 550.04C717.708 550.211 717.292 550.488 716.908 550.872C716.524 551.235 716.193 551.693 715.916 552.248C715.66 552.803 715.479 553.464 715.372 554.232ZM729.004 563L734.156 555.576L729.1 548.376H731.628L735.436 553.784L739.084 548.376H741.452L736.716 555.48L742.092 563H739.468L735.436 557.304L731.628 563H729.004ZM747.052 554.008V551.864H756.012V554.008H747.052ZM766.988 563.32C766.241 563.32 765.505 563.16 764.78 562.84C764.076 562.52 763.425 562.04 762.828 561.4C762.252 560.76 761.793 559.949 761.452 558.968C761.111 557.987 760.94 556.845 760.94 555.544C760.94 554.2 761.121 553.059 761.484 552.12C761.847 551.16 762.327 550.381 762.924 549.784C763.521 549.165 764.183 548.717 764.908 548.44C765.633 548.141 766.369 547.992 767.116 547.992C767.799 547.992 768.407 548.099 768.94 548.312C769.495 548.525 769.975 548.824 770.38 549.208C770.807 549.571 771.137 550.008 771.372 550.52V541.72H773.484H773.804V541.944C773.676 542.072 773.591 542.211 773.548 542.36C773.527 542.509 773.516 542.765 773.516 543.128L773.548 560.728C773.548 561.112 773.559 561.496 773.58 561.88C773.623 562.243 773.719 562.616 773.868 563H771.596C771.489 562.744 771.415 562.488 771.372 562.232C771.329 561.976 771.297 561.731 771.276 561.496C771.276 561.24 771.276 560.984 771.276 560.728C770.977 561.24 770.615 561.699 770.188 562.104C769.761 562.488 769.281 562.787 768.748 563C768.215 563.213 767.628 563.32 766.988 563.32ZM767.34 561.304C768.044 561.304 768.641 561.165 769.132 560.888C769.623 560.589 770.017 560.184 770.316 559.672C770.615 559.139 770.828 558.531 770.956 557.848C771.105 557.144 771.18 556.397 771.18 555.608C771.18 554.52 771.041 553.549 770.764 552.696C770.487 551.821 770.049 551.139 769.452 550.648C768.855 550.136 768.087 549.88 767.148 549.88C766.508 549.88 765.932 550.008 765.42 550.264C764.929 550.499 764.513 550.851 764.172 551.32C763.852 551.789 763.607 552.355 763.436 553.016C763.265 553.656 763.18 554.381 763.18 555.192C763.18 556.408 763.34 557.475 763.66 558.392C763.98 559.309 764.449 560.024 765.068 560.536C765.687 561.048 766.444 561.304 767.34 561.304ZM778.7 563V561.144H782.444V550.232H778.892V548.376H784.748V561.144H788.172V563H778.7ZM783.468 545.304C783.02 545.304 782.636 545.144 782.316 544.824C781.996 544.504 781.836 544.12 781.836 543.672C781.836 543.203 781.985 542.808 782.284 542.488C782.604 542.168 782.999 542.008 783.468 542.008C783.916 542.008 784.3 542.179 784.62 542.52C784.961 542.84 785.132 543.224 785.132 543.672C785.132 544.12 784.961 544.504 784.62 544.824C784.3 545.144 783.916 545.304 783.468 545.304ZM795.308 548.376H797.708L797.612 552.632L797.324 552.152C797.452 551.491 797.676 550.904 797.996 550.392C798.316 549.88 798.7 549.453 799.148 549.112C799.596 548.749 800.087 548.483 800.62 548.312C801.153 548.12 801.708 548.024 802.284 548.024C803.052 548.024 803.756 548.163 804.396 548.44C805.057 548.696 805.644 549.091 806.156 549.624L805.132 551.416L805.004 551.704L804.78 551.576C804.737 551.405 804.673 551.245 804.588 551.096C804.503 550.947 804.321 550.765 804.044 550.552C803.703 550.339 803.383 550.2 803.084 550.136C802.807 550.051 802.487 550.008 802.124 550.008C801.591 550.008 801.057 550.115 800.524 550.328C799.991 550.52 799.5 550.829 799.052 551.256C798.625 551.683 798.284 552.227 798.028 552.888C797.772 553.549 797.644 554.339 797.644 555.256V563.032H795.308V548.376ZM816.204 563.32C815.137 563.32 814.167 563.16 813.292 562.84C812.417 562.499 811.66 562.008 811.02 561.368C810.401 560.728 809.921 559.939 809.58 559C809.239 558.04 809.068 556.952 809.068 555.736C809.068 554.499 809.239 553.4 809.58 552.44C809.943 551.48 810.423 550.68 811.02 550.04C811.639 549.379 812.353 548.877 813.164 548.536C813.996 548.195 814.871 548.024 815.788 548.024C816.62 548.024 817.399 548.163 818.124 548.44C818.849 548.717 819.479 549.144 820.012 549.72C820.545 550.275 820.961 550.989 821.26 551.864C821.58 552.739 821.74 553.773 821.74 554.968C821.74 555.139 821.729 555.32 821.708 555.512C821.708 555.683 821.697 555.853 821.676 556.024H811.276C811.319 556.963 811.479 557.784 811.756 558.488C812.033 559.171 812.396 559.736 812.844 560.184C813.292 560.611 813.804 560.931 814.38 561.144C814.977 561.357 815.607 561.464 816.268 561.464C816.78 561.464 817.26 561.411 817.708 561.304C818.156 561.176 818.572 560.995 818.956 560.76C819.361 560.504 819.724 560.195 820.044 559.832L821.324 561.08C820.919 561.571 820.449 561.987 819.916 562.328C819.404 562.669 818.839 562.915 818.22 563.064C817.601 563.235 816.929 563.32 816.204 563.32ZM811.372 554.232H819.404C819.404 553.549 819.308 552.941 819.116 552.408C818.945 551.853 818.689 551.384 818.348 551C818.028 550.595 817.633 550.296 817.164 550.104C816.716 549.891 816.204 549.784 815.628 549.784C815.116 549.784 814.625 549.869 814.156 550.04C813.708 550.211 813.292 550.488 812.908 550.872C812.524 551.235 812.193 551.693 811.916 552.248C811.66 552.803 811.479 553.464 811.372 554.232ZM832.62 563.352C831.553 563.352 830.572 563.16 829.676 562.776C828.78 562.392 828.001 561.859 827.34 561.176C826.7 560.493 826.199 559.693 825.836 558.776C825.473 557.837 825.292 556.813 825.292 555.704C825.292 554.616 825.473 553.613 825.836 552.696C826.199 551.757 826.7 550.947 827.34 550.264C828.001 549.581 828.78 549.048 829.676 548.664C830.572 548.28 831.543 548.088 832.588 548.088C833.783 548.088 834.849 548.333 835.788 548.824C836.748 549.293 837.527 549.955 838.124 550.808L836.684 552.216L836.46 552.44L836.3 552.28C836.3 552.109 836.257 551.949 836.172 551.8C836.108 551.651 835.948 551.448 835.692 551.192C835.223 550.765 834.721 550.467 834.188 550.296C833.655 550.125 833.036 550.04 832.332 550.04C831.713 550.04 831.127 550.168 830.572 550.424C830.017 550.68 829.516 551.053 829.068 551.544C828.641 552.013 828.3 552.589 828.044 553.272C827.788 553.955 827.66 554.712 827.66 555.544C827.66 556.376 827.788 557.144 828.044 557.848C828.3 558.531 828.652 559.128 829.1 559.64C829.548 560.152 830.081 560.557 830.7 560.856C831.34 561.133 832.023 561.272 832.748 561.272C833.239 561.272 833.708 561.208 834.156 561.08C834.604 560.931 835.031 560.728 835.436 560.472C835.841 560.195 836.215 559.864 836.556 559.48L837.9 561.048C837.175 561.816 836.364 562.392 835.468 562.776C834.593 563.16 833.644 563.352 832.62 563.352ZM849.068 563.224C848.129 563.224 847.361 563.064 846.764 562.744C846.167 562.424 845.708 561.933 845.388 561.272C845.068 560.589 844.855 559.736 844.748 558.712C844.663 557.688 844.641 556.472 844.684 555.064L845.068 544.632L847.468 544.344L847.788 544.312L847.82 544.536C847.713 544.685 847.617 544.835 847.532 544.984C847.468 545.133 847.415 545.389 847.372 545.752L847.084 549.368L847.18 549.944L846.956 555.224C846.892 556.845 846.935 558.104 847.084 559C847.233 559.875 847.5 560.483 847.884 560.824C848.268 561.144 848.78 561.304 849.42 561.304C850.124 561.304 850.743 561.165 851.276 560.888C851.831 560.611 852.407 560.259 853.004 559.832L853.708 561.656C852.983 562.189 852.236 562.584 851.468 562.84C850.7 563.096 849.9 563.224 849.068 563.224ZM841.74 548.376H852.268V550.264H841.74V548.376ZM858.7 563V561.144H862.444V550.232H858.892V548.376H864.748V561.144H868.172V563H858.7ZM863.468 545.304C863.02 545.304 862.636 545.144 862.316 544.824C861.996 544.504 861.836 544.12 861.836 543.672C861.836 543.203 861.985 542.808 862.284 542.488C862.604 542.168 862.999 542.008 863.468 542.008C863.916 542.008 864.3 542.179 864.62 542.52C864.961 542.84 865.132 543.224 865.132 543.672C865.132 544.12 864.961 544.504 864.62 544.824C864.3 545.144 863.916 545.304 863.468 545.304ZM879.5 563.256C878.177 563.256 877.004 562.936 875.98 562.296C874.977 561.635 874.188 560.739 873.612 559.608C873.036 558.456 872.748 557.144 872.748 555.672C872.748 554.179 873.036 552.867 873.612 551.736C874.188 550.584 874.977 549.688 875.98 549.048C877.004 548.387 878.177 548.056 879.5 548.056C880.823 548.056 881.985 548.387 882.988 549.048C884.012 549.688 884.812 550.584 885.388 551.736C885.964 552.867 886.252 554.179 886.252 555.672C886.252 557.144 885.964 558.456 885.388 559.608C884.812 560.739 884.012 561.635 882.988 562.296C881.985 562.936 880.823 563.256 879.5 563.256ZM879.5 561.336C880.353 561.336 881.1 561.091 881.74 560.6C882.38 560.109 882.881 559.437 883.244 558.584C883.628 557.731 883.82 556.749 883.82 555.64C883.82 554.531 883.628 553.549 883.244 552.696C882.881 551.843 882.38 551.181 881.74 550.712C881.1 550.221 880.353 549.976 879.5 549.976C878.668 549.976 877.921 550.221 877.26 550.712C876.62 551.181 876.108 551.843 875.724 552.696C875.361 553.549 875.18 554.531 875.18 555.64C875.18 556.749 875.361 557.731 875.724 558.584C876.108 559.437 876.62 560.109 877.26 560.6C877.921 561.091 878.668 561.336 879.5 561.336ZM889.804 563V548.376H892.044V550.968C892.428 550.371 892.876 549.859 893.388 549.432C893.9 548.984 894.465 548.643 895.084 548.408C895.703 548.152 896.343 548.024 897.004 548.024C897.815 548.024 898.54 548.227 899.18 548.632C899.82 549.037 900.332 549.688 900.716 550.584C901.1 551.48 901.292 552.664 901.292 554.136V563H899.052V554.2C899.052 553.176 898.935 552.365 898.7 551.768C898.465 551.149 898.145 550.712 897.74 550.456C897.335 550.179 896.876 550.04 896.364 550.04C895.873 550.04 895.372 550.147 894.86 550.36C894.369 550.573 893.911 550.883 893.484 551.288C893.057 551.672 892.705 552.141 892.428 552.696C892.172 553.251 892.044 553.88 892.044 554.584V563H889.804ZM911.116 553.144C910.625 553.144 910.188 552.963 909.804 552.6C909.42 552.237 909.228 551.811 909.228 551.32C909.228 550.808 909.42 550.371 909.804 550.008C910.188 549.645 910.625 549.464 911.116 549.464C911.607 549.464 912.044 549.645 912.428 550.008C912.833 550.371 913.036 550.808 913.036 551.32C913.036 551.811 912.844 552.237 912.46 552.6C912.076 552.963 911.628 553.144 911.116 553.144ZM911.116 563.352C910.583 563.352 910.135 563.181 909.772 562.84C909.409 562.477 909.228 562.04 909.228 561.528C909.228 561.016 909.42 560.579 909.804 560.216C910.188 559.853 910.625 559.672 911.116 559.672C911.607 559.672 912.044 559.853 912.428 560.216C912.833 560.579 913.036 561.016 913.036 561.528C913.036 562.019 912.844 562.445 912.46 562.808C912.097 563.171 911.649 563.352 911.116 563.352ZM944.62 563.352C943.553 563.352 942.572 563.16 941.676 562.776C940.78 562.392 940.001 561.859 939.34 561.176C938.7 560.493 938.199 559.693 937.836 558.776C937.473 557.837 937.292 556.813 937.292 555.704C937.292 554.616 937.473 553.613 937.836 552.696C938.199 551.757 938.7 550.947 939.34 550.264C940.001 549.581 940.78 549.048 941.676 548.664C942.572 548.28 943.543 548.088 944.588 548.088C945.783 548.088 946.849 548.333 947.788 548.824C948.748 549.293 949.527 549.955 950.124 550.808L948.684 552.216L948.46 552.44L948.3 552.28C948.3 552.109 948.257 551.949 948.172 551.8C948.108 551.651 947.948 551.448 947.692 551.192C947.223 550.765 946.721 550.467 946.188 550.296C945.655 550.125 945.036 550.04 944.332 550.04C943.713 550.04 943.127 550.168 942.572 550.424C942.017 550.68 941.516 551.053 941.068 551.544C940.641 552.013 940.3 552.589 940.044 553.272C939.788 553.955 939.66 554.712 939.66 555.544C939.66 556.376 939.788 557.144 940.044 557.848C940.3 558.531 940.652 559.128 941.1 559.64C941.548 560.152 942.081 560.557 942.7 560.856C943.34 561.133 944.023 561.272 944.748 561.272C945.239 561.272 945.708 561.208 946.156 561.08C946.604 560.931 947.031 560.728 947.436 560.472C947.841 560.195 948.215 559.864 948.556 559.48L949.9 561.048C949.175 561.816 948.364 562.392 947.468 562.776C946.593 563.16 945.644 563.352 944.62 563.352ZM959.5 563.256C958.177 563.256 957.004 562.936 955.98 562.296C954.977 561.635 954.188 560.739 953.612 559.608C953.036 558.456 952.748 557.144 952.748 555.672C952.748 554.179 953.036 552.867 953.612 551.736C954.188 550.584 954.977 549.688 955.98 549.048C957.004 548.387 958.177 548.056 959.5 548.056C960.823 548.056 961.985 548.387 962.988 549.048C964.012 549.688 964.812 550.584 965.388 551.736C965.964 552.867 966.252 554.179 966.252 555.672C966.252 557.144 965.964 558.456 965.388 559.608C964.812 560.739 964.012 561.635 962.988 562.296C961.985 562.936 960.823 563.256 959.5 563.256ZM959.5 561.336C960.353 561.336 961.1 561.091 961.74 560.6C962.38 560.109 962.881 559.437 963.244 558.584C963.628 557.731 963.82 556.749 963.82 555.64C963.82 554.531 963.628 553.549 963.244 552.696C962.881 551.843 962.38 551.181 961.74 550.712C961.1 550.221 960.353 549.976 959.5 549.976C958.668 549.976 957.921 550.221 957.26 550.712C956.62 551.181 956.108 551.843 955.724 552.696C955.361 553.549 955.18 554.531 955.18 555.64C955.18 556.749 955.361 557.731 955.724 558.584C956.108 559.437 956.62 560.109 957.26 560.6C957.921 561.091 958.668 561.336 959.5 561.336ZM970.028 563V561.144H974.348V543.576H970.22V541.72H976.684V561.144H980.972V563H970.028ZM990.572 563.352C989.996 563.352 989.452 563.267 988.94 563.096C988.428 562.925 987.959 562.669 987.532 562.328C987.127 561.965 986.775 561.517 986.476 560.984C986.177 560.451 985.943 559.811 985.772 559.064C985.623 558.317 985.548 557.475 985.548 556.536L985.58 548.376H987.82V556.536C987.82 557.453 987.905 558.232 988.076 558.872C988.247 559.512 988.481 560.024 988.78 560.408C989.1 560.792 989.463 561.069 989.868 561.24C990.273 561.411 990.7 561.496 991.148 561.496C991.66 561.496 992.151 561.4 992.62 561.208C993.089 560.995 993.505 560.685 993.868 560.28C994.252 559.875 994.551 559.352 994.764 558.712C994.977 558.072 995.084 557.315 995.084 556.44V548.376H997.324V560.728C997.324 561.112 997.335 561.496 997.356 561.88C997.399 562.243 997.495 562.616 997.644 563H995.436C995.329 562.744 995.255 562.499 995.212 562.264C995.169 562.008 995.137 561.752 995.116 561.496C995.116 561.24 995.116 560.995 995.116 560.76C994.881 561.165 994.604 561.528 994.284 561.848C993.964 562.168 993.601 562.445 993.196 562.68C992.812 562.893 992.396 563.053 991.948 563.16C991.521 563.288 991.063 563.352 990.572 563.352ZM1000.72 563V548.376H1002.83V549.816C1003.06 549.453 1003.33 549.144 1003.63 548.888C1003.95 548.611 1004.29 548.397 1004.65 548.248C1005.04 548.099 1005.42 548.024 1005.8 548.024C1006.23 548.024 1006.63 548.12 1006.99 548.312C1007.35 548.483 1007.65 548.728 1007.88 549.048C1008.14 549.368 1008.31 549.741 1008.4 550.168C1008.59 549.741 1008.84 549.368 1009.16 549.048C1009.51 548.728 1009.89 548.483 1010.32 548.312C1010.76 548.12 1011.22 548.024 1011.69 548.024C1012.18 548.024 1012.61 548.12 1012.97 548.312C1013.33 548.504 1013.63 548.771 1013.87 549.112C1014.1 549.432 1014.27 549.827 1014.38 550.296C1014.49 550.744 1014.53 551.235 1014.51 551.768V563H1012.4V552.632C1012.4 551.736 1012.33 551.085 1012.2 550.68C1012.1 550.275 1011.94 550.019 1011.72 549.912C1011.51 549.784 1011.28 549.72 1011.02 549.72C1010.61 549.72 1010.23 549.912 1009.87 550.296C1009.53 550.659 1009.24 551.117 1009 551.672C1008.79 552.227 1008.68 552.781 1008.68 553.336V563H1006.54V552.824C1006.54 551.608 1006.42 550.797 1006.19 550.392C1005.97 549.987 1005.56 549.784 1004.94 549.784C1004.71 549.784 1004.46 549.869 1004.2 550.04C1003.97 550.189 1003.75 550.413 1003.53 550.712C1003.32 550.989 1003.15 551.341 1003.02 551.768C1002.89 552.195 1002.83 552.685 1002.83 553.24V563H1000.72ZM1017.8 563V548.376H1020.04V550.968C1020.43 550.371 1020.88 549.859 1021.39 549.432C1021.9 548.984 1022.47 548.643 1023.08 548.408C1023.7 548.152 1024.34 548.024 1025 548.024C1025.81 548.024 1026.54 548.227 1027.18 548.632C1027.82 549.037 1028.33 549.688 1028.72 550.584C1029.1 551.48 1029.29 552.664 1029.29 554.136V563H1027.05V554.2C1027.05 553.176 1026.93 552.365 1026.7 551.768C1026.47 551.149 1026.15 550.712 1025.74 550.456C1025.33 550.179 1024.88 550.04 1024.36 550.04C1023.87 550.04 1023.37 550.147 1022.86 550.36C1022.37 550.573 1021.91 550.883 1021.48 551.288C1021.06 551.672 1020.71 552.141 1020.43 552.696C1020.17 553.251 1020.04 553.88 1020.04 554.584V563H1017.8ZM1037.87 568.376L1036.78 567.416C1037.38 566.861 1037.87 566.264 1038.25 565.624C1038.66 564.984 1038.86 564.461 1038.86 564.056C1038.86 563.843 1038.77 563.64 1038.6 563.448C1038.45 563.277 1038.26 563.107 1038.03 562.936C1037.81 562.765 1037.62 562.573 1037.45 562.36C1037.3 562.125 1037.23 561.869 1037.23 561.592C1037.23 561.229 1037.3 560.909 1037.45 560.632C1037.62 560.355 1037.85 560.131 1038.12 559.96C1038.42 559.789 1038.75 559.704 1039.12 559.704C1039.67 559.704 1040.17 559.949 1040.62 560.44C1041.07 560.931 1041.29 561.571 1041.29 562.36C1041.29 562.915 1041.16 563.512 1040.91 564.152C1040.65 564.792 1040.27 565.453 1039.76 566.136C1039.27 566.84 1038.64 567.587 1037.87 568.376ZM1039.12 553.144C1038.63 553.144 1038.19 552.963 1037.8 552.6C1037.42 552.237 1037.23 551.811 1037.23 551.32C1037.23 550.808 1037.42 550.371 1037.8 550.008C1038.19 549.645 1038.63 549.464 1039.12 549.464C1039.61 549.464 1040.04 549.645 1040.43 550.008C1040.83 550.371 1041.04 550.808 1041.04 551.32C1041.04 551.811 1040.84 552.237 1040.46 552.6C1040.08 552.963 1039.63 553.144 1039.12 553.144Z" fill="currentColor" fill-opacity="0.5"/>
</svg>
