<svg viewBox="0 0 1211 774" fill="none" xmlns="http://www.w3.org/2000/svg">
<line x1="337.853" y1="108.532" x2="121.286" y2="290.254" stroke="currentColor" stroke-width="4"/>
<line x1="583.064" y1="112.528" x2="729.507" y2="235.408" stroke="currentColor" stroke-width="4"/>
<line x1="704.258" y1="343.689" x2="487.412" y2="444.806" stroke="currentColor" stroke-width="4"/>
<line x1="766.845" y1="345.187" x2="989.845" y2="449.187" stroke="currentColor" stroke-width="4"/>
<rect x="236" width="445" height="116" fill="hsl(var(--nextra-primary-hue), var(--nextra-primary-saturation),20%)"/>
<path d="M416.474 69V45.7273H419.293V56.0909H431.702V45.7273H434.52V69H431.702V58.5909H419.293V69H416.474ZM438.889 48.2273V45.7273H456.344V48.2273H449.026V69H446.207V48.2273H438.889ZM460.693 45.7273H464.057L471.966 65.0455H472.239L480.148 45.7273H483.511V69H480.875V51.3182H480.648L473.375 69H470.83L463.557 51.3182H463.33V69H460.693V45.7273ZM489.162 69V45.7273H491.98V66.5H502.798V69H489.162Z" fill="white"/>
<rect x="766" y="658" width="445" height="116" fill="hsl(var(--nextra-primary-hue), var(--nextra-primary-saturation),20%)"/>
<path d="M775.014 710V707.955C775.014 707.333 775.124 706.674 775.344 705.977C775.571 705.273 775.897 704.595 776.321 703.943C776.753 703.284 777.272 702.712 777.878 702.227L779.332 703.409C778.855 704.091 778.438 704.803 778.082 705.545C777.734 706.28 777.56 707.068 777.56 707.909V710H775.014ZM780.832 710V707.955C780.832 707.333 780.942 706.674 781.162 705.977C781.389 705.273 781.715 704.595 782.139 703.943C782.571 703.284 783.09 702.712 783.696 702.227L785.151 703.409C784.673 704.091 784.257 704.803 783.901 705.545C783.552 706.28 783.378 707.068 783.378 707.909V710H780.832ZM787.202 705.227V702.727H804.656V705.227H797.338V726H794.52V705.227H787.202ZM811.324 715.5V726H808.642V702.727H811.324V711.273H811.551C811.96 710.371 812.574 709.655 813.392 709.125C814.218 708.587 815.316 708.318 816.688 708.318C817.877 708.318 818.919 708.557 819.812 709.034C820.706 709.504 821.4 710.227 821.892 711.205C822.392 712.174 822.642 713.409 822.642 714.909V726H819.96V715.091C819.96 713.705 819.6 712.633 818.881 711.875C818.169 711.11 817.18 710.727 815.915 710.727C815.036 710.727 814.248 710.913 813.551 711.284C812.862 711.655 812.316 712.197 811.915 712.909C811.521 713.621 811.324 714.485 811.324 715.5ZM827.548 726V708.545H830.23V726H827.548ZM828.912 705.636C828.389 705.636 827.938 705.458 827.56 705.102C827.188 704.746 827.003 704.318 827.003 703.818C827.003 703.318 827.188 702.89 827.56 702.534C827.938 702.178 828.389 702 828.912 702C829.435 702 829.882 702.178 830.253 702.534C830.632 702.89 830.821 703.318 830.821 703.818C830.821 704.318 830.632 704.746 830.253 705.102C829.882 705.458 829.435 705.636 828.912 705.636ZM847.506 712.455L845.097 713.136C844.945 712.735 844.722 712.345 844.426 711.966C844.138 711.58 843.744 711.261 843.244 711.011C842.744 710.761 842.104 710.636 841.324 710.636C840.256 710.636 839.366 710.883 838.653 711.375C837.949 711.86 837.597 712.477 837.597 713.227C837.597 713.894 837.839 714.42 838.324 714.807C838.809 715.193 839.566 715.515 840.597 715.773L843.188 716.409C844.748 716.788 845.911 717.367 846.676 718.148C847.441 718.92 847.824 719.917 847.824 721.136C847.824 722.136 847.536 723.03 846.96 723.818C846.392 724.606 845.597 725.227 844.574 725.682C843.551 726.136 842.362 726.364 841.006 726.364C839.225 726.364 837.752 725.977 836.585 725.205C835.419 724.432 834.68 723.303 834.369 721.818L836.915 721.182C837.157 722.121 837.616 722.826 838.29 723.295C838.972 723.765 839.862 724 840.96 724C842.21 724 843.203 723.735 843.938 723.205C844.68 722.667 845.051 722.023 845.051 721.273C845.051 720.667 844.839 720.159 844.415 719.75C843.991 719.333 843.339 719.023 842.46 718.818L839.551 718.136C837.953 717.758 836.778 717.17 836.028 716.375C835.286 715.572 834.915 714.568 834.915 713.364C834.915 712.379 835.191 711.508 835.744 710.75C836.305 709.992 837.066 709.398 838.028 708.966C838.998 708.534 840.097 708.318 841.324 708.318C843.051 708.318 844.407 708.697 845.392 709.455C846.384 710.212 847.089 711.212 847.506 712.455ZM860.861 726V708.545H863.543V726H860.861ZM862.224 705.636C861.702 705.636 861.251 705.458 860.872 705.102C860.501 704.746 860.315 704.318 860.315 703.818C860.315 703.318 860.501 702.89 860.872 702.534C861.251 702.178 861.702 702 862.224 702C862.747 702 863.194 702.178 863.565 702.534C863.944 702.89 864.134 703.318 864.134 703.818C864.134 704.318 863.944 704.746 863.565 705.102C863.194 705.458 862.747 705.636 862.224 705.636ZM880.818 712.455L878.409 713.136C878.258 712.735 878.034 712.345 877.739 711.966C877.451 711.58 877.057 711.261 876.557 711.011C876.057 710.761 875.417 710.636 874.636 710.636C873.568 710.636 872.678 710.883 871.966 711.375C871.261 711.86 870.909 712.477 870.909 713.227C870.909 713.894 871.152 714.42 871.636 714.807C872.121 715.193 872.879 715.515 873.909 715.773L876.5 716.409C878.061 716.788 879.223 717.367 879.989 718.148C880.754 718.92 881.136 719.917 881.136 721.136C881.136 722.136 880.848 723.03 880.273 723.818C879.705 724.606 878.909 725.227 877.886 725.682C876.864 726.136 875.674 726.364 874.318 726.364C872.538 726.364 871.064 725.977 869.898 725.205C868.731 724.432 867.992 723.303 867.682 721.818L870.227 721.182C870.47 722.121 870.928 722.826 871.602 723.295C872.284 723.765 873.174 724 874.273 724C875.523 724 876.515 723.735 877.25 723.205C877.992 722.667 878.364 722.023 878.364 721.273C878.364 720.667 878.152 720.159 877.727 719.75C877.303 719.333 876.652 719.023 875.773 718.818L872.864 718.136C871.265 717.758 870.091 717.17 869.341 716.375C868.598 715.572 868.227 714.568 868.227 713.364C868.227 712.379 868.504 711.508 869.057 710.75C869.617 709.992 870.379 709.398 871.341 708.966C872.311 708.534 873.409 708.318 874.636 708.318C876.364 708.318 877.72 708.697 878.705 709.455C879.697 710.212 880.402 711.212 880.818 712.455ZM899.31 726.409C898.204 726.409 897.2 726.201 896.298 725.784C895.397 725.36 894.681 724.75 894.151 723.955C893.62 723.152 893.355 722.182 893.355 721.045C893.355 720.045 893.552 719.235 893.946 718.614C894.34 717.985 894.866 717.492 895.526 717.136C896.185 716.78 896.912 716.515 897.707 716.341C898.51 716.159 899.317 716.015 900.128 715.909C901.188 715.773 902.048 715.67 902.707 715.602C903.374 715.527 903.859 715.402 904.162 715.227C904.473 715.053 904.628 714.75 904.628 714.318V714.227C904.628 713.106 904.321 712.235 903.707 711.614C903.101 710.992 902.181 710.682 900.946 710.682C899.666 710.682 898.662 710.962 897.935 711.523C897.207 712.083 896.696 712.682 896.401 713.318L893.855 712.409C894.31 711.348 894.916 710.523 895.673 709.932C896.438 709.333 897.272 708.917 898.173 708.682C899.082 708.439 899.976 708.318 900.855 708.318C901.416 708.318 902.06 708.386 902.787 708.523C903.522 708.652 904.23 708.92 904.912 709.33C905.601 709.739 906.173 710.356 906.628 711.182C907.082 712.008 907.31 713.114 907.31 714.5V726H904.628V723.636H904.491C904.31 724.015 904.007 724.42 903.582 724.852C903.158 725.284 902.594 725.652 901.889 725.955C901.185 726.258 900.325 726.409 899.31 726.409ZM899.719 724C900.779 724 901.673 723.792 902.401 723.375C903.135 722.958 903.688 722.42 904.06 721.761C904.438 721.102 904.628 720.409 904.628 719.682V717.227C904.514 717.364 904.264 717.489 903.878 717.602C903.499 717.708 903.06 717.803 902.56 717.886C902.067 717.962 901.586 718.03 901.116 718.091C900.654 718.144 900.279 718.189 899.991 718.227C899.295 718.318 898.643 718.466 898.037 718.67C897.438 718.867 896.954 719.167 896.582 719.568C896.219 719.962 896.037 720.5 896.037 721.182C896.037 722.114 896.382 722.818 897.071 723.295C897.768 723.765 898.651 724 899.719 724ZM933.568 712.455L931.159 713.136C931.008 712.735 930.784 712.345 930.489 711.966C930.201 711.58 929.807 711.261 929.307 711.011C928.807 710.761 928.167 710.636 927.386 710.636C926.318 710.636 925.428 710.883 924.716 711.375C924.011 711.86 923.659 712.477 923.659 713.227C923.659 713.894 923.902 714.42 924.386 714.807C924.871 715.193 925.629 715.515 926.659 715.773L929.25 716.409C930.811 716.788 931.973 717.367 932.739 718.148C933.504 718.92 933.886 719.917 933.886 721.136C933.886 722.136 933.598 723.03 933.023 723.818C932.455 724.606 931.659 725.227 930.636 725.682C929.614 726.136 928.424 726.364 927.068 726.364C925.288 726.364 923.814 725.977 922.648 725.205C921.481 724.432 920.742 723.303 920.432 721.818L922.977 721.182C923.22 722.121 923.678 722.826 924.352 723.295C925.034 723.765 925.924 724 927.023 724C928.273 724 929.265 723.735 930 723.205C930.742 722.667 931.114 722.023 931.114 721.273C931.114 720.667 930.902 720.159 930.477 719.75C930.053 719.333 929.402 719.023 928.523 718.818L925.614 718.136C924.015 717.758 922.841 717.17 922.091 716.375C921.348 715.572 920.977 714.568 920.977 713.364C920.977 712.379 921.254 711.508 921.807 710.75C922.367 709.992 923.129 709.398 924.091 708.966C925.061 708.534 926.159 708.318 927.386 708.318C929.114 708.318 930.47 708.697 931.455 709.455C932.447 710.212 933.152 711.212 933.568 712.455ZM943.06 726.409C941.954 726.409 940.95 726.201 940.048 725.784C939.147 725.36 938.431 724.75 937.901 723.955C937.37 723.152 937.105 722.182 937.105 721.045C937.105 720.045 937.302 719.235 937.696 718.614C938.09 717.985 938.616 717.492 939.276 717.136C939.935 716.78 940.662 716.515 941.457 716.341C942.26 716.159 943.067 716.015 943.878 715.909C944.938 715.773 945.798 715.67 946.457 715.602C947.124 715.527 947.609 715.402 947.912 715.227C948.223 715.053 948.378 714.75 948.378 714.318V714.227C948.378 713.106 948.071 712.235 947.457 711.614C946.851 710.992 945.931 710.682 944.696 710.682C943.416 710.682 942.412 710.962 941.685 711.523C940.957 712.083 940.446 712.682 940.151 713.318L937.605 712.409C938.06 711.348 938.666 710.523 939.423 709.932C940.188 709.333 941.022 708.917 941.923 708.682C942.832 708.439 943.726 708.318 944.605 708.318C945.166 708.318 945.81 708.386 946.537 708.523C947.272 708.652 947.98 708.92 948.662 709.33C949.351 709.739 949.923 710.356 950.378 711.182C950.832 712.008 951.06 713.114 951.06 714.5V726H948.378V723.636H948.241C948.06 724.015 947.757 724.42 947.332 724.852C946.908 725.284 946.344 725.652 945.639 725.955C944.935 726.258 944.075 726.409 943.06 726.409ZM943.469 724C944.529 724 945.423 723.792 946.151 723.375C946.885 722.958 947.438 722.42 947.81 721.761C948.188 721.102 948.378 720.409 948.378 719.682V717.227C948.264 717.364 948.014 717.489 947.628 717.602C947.249 717.708 946.81 717.803 946.31 717.886C945.817 717.962 945.336 718.03 944.866 718.091C944.404 718.144 944.029 718.189 943.741 718.227C943.045 718.318 942.393 718.466 941.787 718.67C941.188 718.867 940.704 719.167 940.332 719.568C939.969 719.962 939.787 720.5 939.787 721.182C939.787 722.114 940.132 722.818 940.821 723.295C941.518 723.765 942.401 724 943.469 724ZM955.955 726V708.545H958.545V711.273H958.773C959.136 710.341 959.723 709.617 960.534 709.102C961.345 708.58 962.318 708.318 963.455 708.318C964.606 708.318 965.564 708.58 966.33 709.102C967.102 709.617 967.705 710.341 968.136 711.273H968.318C968.765 710.371 969.436 709.655 970.33 709.125C971.223 708.587 972.295 708.318 973.545 708.318C975.106 708.318 976.383 708.807 977.375 709.784C978.367 710.754 978.864 712.265 978.864 714.318V726H976.182V714.318C976.182 713.03 975.83 712.11 975.125 711.557C974.42 711.004 973.591 710.727 972.636 710.727C971.409 710.727 970.458 711.098 969.784 711.841C969.11 712.576 968.773 713.508 968.773 714.636V726H966.045V714.045C966.045 713.053 965.723 712.254 965.08 711.648C964.436 711.034 963.606 710.727 962.591 710.727C961.894 710.727 961.242 710.913 960.636 711.284C960.038 711.655 959.553 712.17 959.182 712.83C958.818 713.481 958.636 714.235 958.636 715.091V726H955.955ZM983.767 732.545V708.545H986.358V711.318H986.676C986.873 711.015 987.146 710.629 987.494 710.159C987.85 709.682 988.358 709.258 989.017 708.886C989.684 708.508 990.585 708.318 991.722 708.318C993.191 708.318 994.487 708.686 995.608 709.42C996.729 710.155 997.604 711.197 998.233 712.545C998.862 713.894 999.176 715.485 999.176 717.318C999.176 719.167 998.862 720.769 998.233 722.125C997.604 723.473 996.733 724.519 995.619 725.261C994.506 725.996 993.222 726.364 991.767 726.364C990.646 726.364 989.748 726.178 989.074 725.807C988.4 725.428 987.881 725 987.517 724.523C987.153 724.038 986.873 723.636 986.676 723.318H986.449V732.545H983.767ZM986.403 717.273C986.403 718.591 986.597 719.754 986.983 720.761C987.369 721.761 987.934 722.545 988.676 723.114C989.419 723.674 990.328 723.955 991.403 723.955C992.525 723.955 993.46 723.659 994.21 723.068C994.968 722.47 995.536 721.667 995.915 720.659C996.301 719.644 996.494 718.515 996.494 717.273C996.494 716.045 996.305 714.939 995.926 713.955C995.555 712.962 994.991 712.178 994.233 711.602C993.483 711.019 992.54 710.727 991.403 710.727C990.313 710.727 989.396 711.004 988.653 711.557C987.911 712.102 987.35 712.867 986.972 713.852C986.593 714.83 986.403 715.97 986.403 717.273ZM1005.95 702.727V726H1003.27V702.727H1005.95ZM1018.18 726.364C1016.5 726.364 1015.05 725.992 1013.83 725.25C1012.61 724.5 1011.68 723.455 1011.02 722.114C1010.37 720.765 1010.04 719.197 1010.04 717.409C1010.04 715.621 1010.37 714.045 1011.02 712.682C1011.68 711.311 1012.6 710.242 1013.77 709.477C1014.95 708.705 1016.33 708.318 1017.91 708.318C1018.82 708.318 1019.71 708.47 1020.6 708.773C1021.49 709.076 1022.29 709.568 1023.02 710.25C1023.75 710.924 1024.33 711.818 1024.76 712.932C1025.19 714.045 1025.41 715.417 1025.41 717.045V718.182H1011.95V715.864H1022.68C1022.68 714.879 1022.48 714 1022.09 713.227C1021.7 712.455 1021.15 711.845 1020.43 711.398C1019.72 710.951 1018.88 710.727 1017.91 710.727C1016.84 710.727 1015.91 710.992 1015.13 711.523C1014.36 712.045 1013.77 712.727 1013.35 713.568C1012.93 714.409 1012.72 715.311 1012.72 716.273V717.818C1012.72 719.136 1012.95 720.254 1013.41 721.17C1013.87 722.08 1014.51 722.773 1015.33 723.25C1016.14 723.72 1017.1 723.955 1018.18 723.955C1018.88 723.955 1019.52 723.856 1020.09 723.659C1020.66 723.455 1021.16 723.152 1021.58 722.75C1021.99 722.341 1022.32 721.833 1022.54 721.227L1025.13 721.955C1024.86 722.833 1024.4 723.606 1023.76 724.273C1023.11 724.932 1022.32 725.447 1021.37 725.818C1020.43 726.182 1019.36 726.364 1018.18 726.364ZM1038.49 732.545V708.545H1041.08V711.318H1041.39C1041.59 711.015 1041.86 710.629 1042.21 710.159C1042.57 709.682 1043.08 709.258 1043.74 708.886C1044.4 708.508 1045.3 708.318 1046.44 708.318C1047.91 708.318 1049.21 708.686 1050.33 709.42C1051.45 710.155 1052.32 711.197 1052.95 712.545C1053.58 713.894 1053.89 715.485 1053.89 717.318C1053.89 719.167 1053.58 720.769 1052.95 722.125C1052.32 723.473 1051.45 724.519 1050.34 725.261C1049.22 725.996 1047.94 726.364 1046.49 726.364C1045.36 726.364 1044.47 726.178 1043.79 725.807C1043.12 725.428 1042.6 725 1042.24 724.523C1041.87 724.038 1041.59 723.636 1041.39 723.318H1041.17V732.545H1038.49ZM1041.12 717.273C1041.12 718.591 1041.32 719.754 1041.7 720.761C1042.09 721.761 1042.65 722.545 1043.39 723.114C1044.14 723.674 1045.05 723.955 1046.12 723.955C1047.24 723.955 1048.18 723.659 1048.93 723.068C1049.69 722.47 1050.25 721.667 1050.63 720.659C1051.02 719.644 1051.21 718.515 1051.21 717.273C1051.21 716.045 1051.02 714.939 1050.64 713.955C1050.27 712.962 1049.71 712.178 1048.95 711.602C1048.2 711.019 1047.26 710.727 1046.12 710.727C1045.03 710.727 1044.11 711.004 1043.37 711.557C1042.63 712.102 1042.07 712.867 1041.69 713.852C1041.31 714.83 1041.12 715.97 1041.12 717.273ZM1063.12 726.409C1062.02 726.409 1061.01 726.201 1060.11 725.784C1059.21 725.36 1058.49 724.75 1057.96 723.955C1057.43 723.152 1057.17 722.182 1057.17 721.045C1057.17 720.045 1057.36 719.235 1057.76 718.614C1058.15 717.985 1058.68 717.492 1059.34 717.136C1060 716.78 1060.72 716.515 1061.52 716.341C1062.32 716.159 1063.13 716.015 1063.94 715.909C1065 715.773 1065.86 715.67 1066.52 715.602C1067.19 715.527 1067.67 715.402 1067.97 715.227C1068.29 715.053 1068.44 714.75 1068.44 714.318V714.227C1068.44 713.106 1068.13 712.235 1067.52 711.614C1066.91 710.992 1065.99 710.682 1064.76 710.682C1063.48 710.682 1062.47 710.962 1061.75 711.523C1061.02 712.083 1060.51 712.682 1060.21 713.318L1057.67 712.409C1058.12 711.348 1058.73 710.523 1059.49 709.932C1060.25 709.333 1061.08 708.917 1061.99 708.682C1062.89 708.439 1063.79 708.318 1064.67 708.318C1065.23 708.318 1065.87 708.386 1066.6 708.523C1067.33 708.652 1068.04 708.92 1068.72 709.33C1069.41 709.739 1069.99 710.356 1070.44 711.182C1070.89 712.008 1071.12 713.114 1071.12 714.5V726H1068.44V723.636H1068.3C1068.12 724.015 1067.82 724.42 1067.39 724.852C1066.97 725.284 1066.41 725.652 1065.7 725.955C1065 726.258 1064.14 726.409 1063.12 726.409ZM1063.53 724C1064.59 724 1065.49 723.792 1066.21 723.375C1066.95 722.958 1067.5 722.42 1067.87 721.761C1068.25 721.102 1068.44 720.409 1068.44 719.682V717.227C1068.33 717.364 1068.08 717.489 1067.69 717.602C1067.31 717.708 1066.87 717.803 1066.37 717.886C1065.88 717.962 1065.4 718.03 1064.93 718.091C1064.47 718.144 1064.09 718.189 1063.8 718.227C1063.11 718.318 1062.46 718.466 1061.85 718.67C1061.25 718.867 1060.77 719.167 1060.39 719.568C1060.03 719.962 1059.85 720.5 1059.85 721.182C1059.85 722.114 1060.19 722.818 1060.88 723.295C1061.58 723.765 1062.46 724 1063.53 724ZM1076.02 726V708.545H1078.61V711.182H1078.79C1079.11 710.318 1079.68 709.617 1080.52 709.08C1081.35 708.542 1082.29 708.273 1083.34 708.273C1083.53 708.273 1083.78 708.277 1084.07 708.284C1084.37 708.292 1084.59 708.303 1084.74 708.318V711.045C1084.65 711.023 1084.45 710.989 1084.12 710.943C1083.8 710.89 1083.46 710.864 1083.11 710.864C1082.26 710.864 1081.5 711.042 1080.84 711.398C1080.18 711.746 1079.65 712.231 1079.27 712.852C1078.89 713.466 1078.7 714.167 1078.7 714.955V726H1076.02ZM1093.06 726.409C1091.95 726.409 1090.95 726.201 1090.05 725.784C1089.15 725.36 1088.43 724.75 1087.9 723.955C1087.37 723.152 1087.11 722.182 1087.11 721.045C1087.11 720.045 1087.3 719.235 1087.7 718.614C1088.09 717.985 1088.62 717.492 1089.28 717.136C1089.93 716.78 1090.66 716.515 1091.46 716.341C1092.26 716.159 1093.07 716.015 1093.88 715.909C1094.94 715.773 1095.8 715.67 1096.46 715.602C1097.12 715.527 1097.61 715.402 1097.91 715.227C1098.22 715.053 1098.38 714.75 1098.38 714.318V714.227C1098.38 713.106 1098.07 712.235 1097.46 711.614C1096.85 710.992 1095.93 710.682 1094.7 710.682C1093.42 710.682 1092.41 710.962 1091.68 711.523C1090.96 712.083 1090.45 712.682 1090.15 713.318L1087.61 712.409C1088.06 711.348 1088.67 710.523 1089.42 709.932C1090.19 709.333 1091.02 708.917 1091.92 708.682C1092.83 708.439 1093.73 708.318 1094.61 708.318C1095.17 708.318 1095.81 708.386 1096.54 708.523C1097.27 708.652 1097.98 708.92 1098.66 709.33C1099.35 709.739 1099.92 710.356 1100.38 711.182C1100.83 712.008 1101.06 713.114 1101.06 714.5V726H1098.38V723.636H1098.24C1098.06 724.015 1097.76 724.42 1097.33 724.852C1096.91 725.284 1096.34 725.652 1095.64 725.955C1094.93 726.258 1094.07 726.409 1093.06 726.409ZM1093.47 724C1094.53 724 1095.42 723.792 1096.15 723.375C1096.89 722.958 1097.44 722.42 1097.81 721.761C1098.19 721.102 1098.38 720.409 1098.38 719.682V717.227C1098.26 717.364 1098.01 717.489 1097.63 717.602C1097.25 717.708 1096.81 717.803 1096.31 717.886C1095.82 717.962 1095.34 718.03 1094.87 718.091C1094.4 718.144 1094.03 718.189 1093.74 718.227C1093.04 718.318 1092.39 718.466 1091.79 718.67C1091.19 718.867 1090.7 719.167 1090.33 719.568C1089.97 719.962 1089.79 720.5 1089.79 721.182C1089.79 722.114 1090.13 722.818 1090.82 723.295C1091.52 723.765 1092.4 724 1093.47 724ZM1113 732.909C1111.7 732.909 1110.59 732.742 1109.66 732.409C1108.73 732.083 1107.95 731.652 1107.33 731.114C1106.72 730.583 1106.23 730.015 1105.86 729.409L1108 727.909C1108.24 728.227 1108.55 728.591 1108.92 729C1109.29 729.417 1109.8 729.777 1110.44 730.08C1111.09 730.39 1111.95 730.545 1113 730.545C1114.41 730.545 1115.57 730.205 1116.49 729.523C1117.41 728.841 1117.86 727.773 1117.86 726.318V722.773H1117.64C1117.44 723.091 1117.16 723.485 1116.8 723.955C1116.44 724.417 1115.92 724.83 1115.25 725.193C1114.58 725.549 1113.68 725.727 1112.55 725.727C1111.14 725.727 1109.87 725.394 1108.75 724.727C1107.64 724.061 1106.75 723.091 1106.1 721.818C1105.46 720.545 1105.14 719 1105.14 717.182C1105.14 715.394 1105.45 713.837 1106.08 712.511C1106.71 711.178 1107.58 710.148 1108.7 709.42C1109.83 708.686 1111.12 708.318 1112.59 708.318C1113.73 708.318 1114.63 708.508 1115.3 708.886C1115.97 709.258 1116.48 709.682 1116.84 710.159C1117.2 710.629 1117.48 711.015 1117.68 711.318H1117.95V708.545H1120.55V726.5C1120.55 728 1120.2 729.22 1119.52 730.159C1118.85 731.106 1117.94 731.799 1116.8 732.239C1115.66 732.686 1114.39 732.909 1113 732.909ZM1112.91 723.318C1113.98 723.318 1114.89 723.072 1115.64 722.58C1116.38 722.087 1116.94 721.379 1117.33 720.455C1117.72 719.53 1117.91 718.424 1117.91 717.136C1117.91 715.879 1117.72 714.769 1117.34 713.807C1116.96 712.845 1116.4 712.091 1115.66 711.545C1114.92 711 1114 710.727 1112.91 710.727C1111.77 710.727 1110.83 711.015 1110.07 711.591C1109.32 712.167 1108.75 712.939 1108.38 713.909C1108 714.879 1107.82 715.955 1107.82 717.136C1107.82 718.348 1108.01 719.42 1108.39 720.352C1108.77 721.277 1109.34 722.004 1110.09 722.534C1110.85 723.057 1111.79 723.318 1112.91 723.318ZM1125.45 726V708.545H1128.05V711.182H1128.23C1128.55 710.318 1129.12 709.617 1129.95 709.08C1130.79 708.542 1131.73 708.273 1132.77 708.273C1132.97 708.273 1133.22 708.277 1133.51 708.284C1133.81 708.292 1134.03 708.303 1134.18 708.318V711.045C1134.09 711.023 1133.88 710.989 1133.56 710.943C1133.24 710.89 1132.9 710.864 1132.55 710.864C1131.7 710.864 1130.94 711.042 1130.27 711.398C1129.61 711.746 1129.09 712.231 1128.7 712.852C1128.33 713.466 1128.14 714.167 1128.14 714.955V726H1125.45ZM1142.5 726.409C1141.39 726.409 1140.39 726.201 1139.49 725.784C1138.58 725.36 1137.87 724.75 1137.34 723.955C1136.81 723.152 1136.54 722.182 1136.54 721.045C1136.54 720.045 1136.74 719.235 1137.13 718.614C1137.53 717.985 1138.05 717.492 1138.71 717.136C1139.37 716.78 1140.1 716.515 1140.89 716.341C1141.7 716.159 1142.5 716.015 1143.32 715.909C1144.38 715.773 1145.24 715.67 1145.89 715.602C1146.56 715.527 1147.05 715.402 1147.35 715.227C1147.66 715.053 1147.82 714.75 1147.82 714.318V714.227C1147.82 713.106 1147.51 712.235 1146.89 711.614C1146.29 710.992 1145.37 710.682 1144.13 710.682C1142.85 710.682 1141.85 710.962 1141.12 711.523C1140.39 712.083 1139.88 712.682 1139.59 713.318L1137.04 712.409C1137.5 711.348 1138.1 710.523 1138.86 709.932C1139.63 709.333 1140.46 708.917 1141.36 708.682C1142.27 708.439 1143.16 708.318 1144.04 708.318C1144.6 708.318 1145.25 708.386 1145.97 708.523C1146.71 708.652 1147.42 708.92 1148.1 709.33C1148.79 709.739 1149.36 710.356 1149.82 711.182C1150.27 712.008 1150.5 713.114 1150.5 714.5V726H1147.82V723.636H1147.68C1147.5 724.015 1147.19 724.42 1146.77 724.852C1146.35 725.284 1145.78 725.652 1145.08 725.955C1144.37 726.258 1143.51 726.409 1142.5 726.409ZM1142.91 724C1143.97 724 1144.86 723.792 1145.59 723.375C1146.32 722.958 1146.88 722.42 1147.25 721.761C1147.63 721.102 1147.82 720.409 1147.82 719.682V717.227C1147.7 717.364 1147.45 717.489 1147.07 717.602C1146.69 717.708 1146.25 717.803 1145.75 717.886C1145.25 717.962 1144.77 718.03 1144.3 718.091C1143.84 718.144 1143.47 718.189 1143.18 718.227C1142.48 718.318 1141.83 718.466 1141.22 718.67C1140.63 718.867 1140.14 719.167 1139.77 719.568C1139.41 719.962 1139.22 720.5 1139.22 721.182C1139.22 722.114 1139.57 722.818 1140.26 723.295C1140.96 723.765 1141.84 724 1142.91 724ZM1155.39 732.545V708.545H1157.98V711.318H1158.3C1158.5 711.015 1158.77 710.629 1159.12 710.159C1159.48 709.682 1159.98 709.258 1160.64 708.886C1161.31 708.508 1162.21 708.318 1163.35 708.318C1164.82 708.318 1166.11 708.686 1167.23 709.42C1168.35 710.155 1169.23 711.197 1169.86 712.545C1170.49 713.894 1170.8 715.485 1170.8 717.318C1170.8 719.167 1170.49 720.769 1169.86 722.125C1169.23 723.473 1168.36 724.519 1167.24 725.261C1166.13 725.996 1164.85 726.364 1163.39 726.364C1162.27 726.364 1161.37 726.178 1160.7 725.807C1160.02 725.428 1159.51 725 1159.14 724.523C1158.78 724.038 1158.5 723.636 1158.3 723.318H1158.07V732.545H1155.39ZM1158.03 717.273C1158.03 718.591 1158.22 719.754 1158.61 720.761C1158.99 721.761 1159.56 722.545 1160.3 723.114C1161.04 723.674 1161.95 723.955 1163.03 723.955C1164.15 723.955 1165.09 723.659 1165.84 723.068C1166.59 722.47 1167.16 721.667 1167.54 720.659C1167.93 719.644 1168.12 718.515 1168.12 717.273C1168.12 716.045 1167.93 714.939 1167.55 713.955C1167.18 712.962 1166.62 712.178 1165.86 711.602C1165.11 711.019 1164.16 710.727 1163.03 710.727C1161.94 710.727 1161.02 711.004 1160.28 711.557C1159.54 712.102 1158.98 712.867 1158.6 713.852C1158.22 714.83 1158.03 715.97 1158.03 717.273ZM1177.57 715.5V726H1174.89V702.727H1177.57V711.273H1177.8C1178.21 710.371 1178.82 709.655 1179.64 709.125C1180.47 708.587 1181.57 708.318 1182.94 708.318C1184.13 708.318 1185.17 708.557 1186.06 709.034C1186.96 709.504 1187.65 710.227 1188.14 711.205C1188.64 712.174 1188.89 713.409 1188.89 714.909V726H1186.21V715.091C1186.21 713.705 1185.85 712.633 1185.13 711.875C1184.42 711.11 1183.43 710.727 1182.16 710.727C1181.29 710.727 1180.5 710.913 1179.8 711.284C1179.11 711.655 1178.57 712.197 1178.16 712.909C1177.77 713.621 1177.57 714.485 1177.57 715.5ZM1196.16 702.727V704.773C1196.16 705.394 1196.05 706.057 1195.82 706.761C1195.6 707.458 1195.28 708.136 1194.84 708.795C1194.42 709.447 1193.9 710.015 1193.3 710.5L1191.84 709.318C1192.32 708.636 1192.73 707.928 1193.08 707.193C1193.44 706.451 1193.62 705.659 1193.62 704.818V702.727H1196.16ZM1201.98 702.727V704.773C1201.98 705.394 1201.87 706.057 1201.64 706.761C1201.42 707.458 1201.09 708.136 1200.66 708.795C1200.24 709.447 1199.72 710.015 1199.12 710.5L1197.66 709.318C1198.14 708.636 1198.55 707.928 1198.9 707.193C1199.26 706.451 1199.43 705.659 1199.43 704.818V702.727H1201.98Z" fill="white"/>
<rect x="911" y="447" width="156.088" height="116" fill="hsl(var(--nextra-primary-hue), var(--nextra-primary-saturation),20%)"/>
<path d="M981.924 521.545V497.545H984.515V500.318H984.833C985.03 500.015 985.303 499.629 985.651 499.159C986.007 498.682 986.515 498.258 987.174 497.886C987.841 497.508 988.742 497.318 989.878 497.318C991.348 497.318 992.644 497.686 993.765 498.42C994.886 499.155 995.761 500.197 996.39 501.545C997.019 502.894 997.333 504.485 997.333 506.318C997.333 508.167 997.019 509.769 996.39 511.125C995.761 512.473 994.89 513.519 993.776 514.261C992.663 514.996 991.378 515.364 989.924 515.364C988.803 515.364 987.905 515.178 987.231 514.807C986.557 514.428 986.038 514 985.674 513.523C985.31 513.038 985.03 512.636 984.833 512.318H984.606V521.545H981.924ZM984.56 506.273C984.56 507.591 984.753 508.754 985.14 509.761C985.526 510.761 986.091 511.545 986.833 512.114C987.575 512.674 988.485 512.955 989.56 512.955C990.682 512.955 991.617 512.659 992.367 512.068C993.125 511.47 993.693 510.667 994.072 509.659C994.458 508.644 994.651 507.515 994.651 506.273C994.651 505.045 994.462 503.939 994.083 502.955C993.712 501.962 993.147 501.178 992.39 500.602C991.64 500.019 990.697 499.727 989.56 499.727C988.469 499.727 987.553 500.004 986.81 500.557C986.068 501.102 985.507 501.867 985.128 502.852C984.75 503.83 984.56 504.97 984.56 506.273Z" fill="white"/>
<line x1="991" y1="564" x2="991" y2="658" stroke="currentColor" stroke-width="4"/>
<rect x="410" y="443" width="154.754" height="116" fill="hsl(var(--nextra-primary-hue), var(--nextra-primary-saturation),20%)"/>
<path d="M476.437 500.5V511H473.756V487.727H476.437V496.273H476.665C477.074 495.371 477.687 494.655 478.506 494.125C479.331 493.587 480.43 493.318 481.801 493.318C482.99 493.318 484.032 493.557 484.926 494.034C485.82 494.504 486.513 495.227 487.006 496.205C487.506 497.174 487.756 498.409 487.756 499.909V511H485.074V500.091C485.074 498.705 484.714 497.633 483.994 496.875C483.282 496.11 482.293 495.727 481.028 495.727C480.15 495.727 479.362 495.913 478.665 496.284C477.975 496.655 477.43 497.197 477.028 497.909C476.634 498.621 476.437 499.485 476.437 500.5ZM499.517 487.727V511H496.699V490.682H496.562L490.881 494.455V491.591L496.699 487.727H499.517Z" fill="white"/>
<rect x="337" y="654" width="300" height="116" fill="hsl(var(--nextra-primary-hue), var(--nextra-primary-saturation),20%)"/>
<path d="M389.873 706V703.955C389.873 703.333 389.982 702.674 390.202 701.977C390.429 701.273 390.755 700.595 391.179 699.943C391.611 699.284 392.13 698.712 392.736 698.227L394.191 699.409C393.713 700.091 393.297 700.803 392.941 701.545C392.592 702.28 392.418 703.068 392.418 703.909V706H389.873ZM395.691 706V703.955C395.691 703.333 395.801 702.674 396.02 701.977C396.248 701.273 396.573 700.595 396.998 699.943C397.429 699.284 397.948 698.712 398.554 698.227L400.009 699.409C399.532 700.091 399.115 700.803 398.759 701.545C398.41 702.28 398.236 703.068 398.236 703.909V706H395.691ZM403.333 722V698.727H406.151V709.091H418.56V698.727H421.378V722H418.56V711.591H406.151V722H403.333ZM433.975 722.364C432.293 722.364 430.842 721.992 429.623 721.25C428.41 720.5 427.475 719.455 426.816 718.114C426.164 716.765 425.838 715.197 425.838 713.409C425.838 711.621 426.164 710.045 426.816 708.682C427.475 707.311 428.391 706.242 429.566 705.477C430.748 704.705 432.126 704.318 433.702 704.318C434.611 704.318 435.509 704.47 436.395 704.773C437.282 705.076 438.088 705.568 438.816 706.25C439.543 706.924 440.123 707.818 440.554 708.932C440.986 710.045 441.202 711.417 441.202 713.045V714.182H427.748V711.864H438.475C438.475 710.879 438.278 710 437.884 709.227C437.498 708.455 436.945 707.845 436.225 707.398C435.513 706.951 434.672 706.727 433.702 706.727C432.634 706.727 431.71 706.992 430.929 707.523C430.157 708.045 429.562 708.727 429.145 709.568C428.729 710.409 428.52 711.311 428.52 712.273V713.818C428.52 715.136 428.748 716.254 429.202 717.17C429.664 718.08 430.304 718.773 431.123 719.25C431.941 719.72 432.891 719.955 433.975 719.955C434.679 719.955 435.316 719.856 435.884 719.659C436.46 719.455 436.956 719.152 437.373 718.75C437.789 718.341 438.111 717.833 438.338 717.227L440.929 717.955C440.657 718.833 440.198 719.606 439.554 720.273C438.91 720.932 438.115 721.447 437.168 721.818C436.221 722.182 435.157 722.364 433.975 722.364ZM447.963 698.727V722H445.282V698.727H447.963ZM455.557 698.727V722H452.875V698.727H455.557ZM467.56 722.364C465.984 722.364 464.602 721.989 463.412 721.239C462.23 720.489 461.306 719.439 460.64 718.091C459.98 716.742 459.651 715.167 459.651 713.364C459.651 711.545 459.98 709.958 460.64 708.602C461.306 707.246 462.23 706.193 463.412 705.443C464.602 704.693 465.984 704.318 467.56 704.318C469.136 704.318 470.515 704.693 471.696 705.443C472.886 706.193 473.81 707.246 474.469 708.602C475.136 709.958 475.469 711.545 475.469 713.364C475.469 715.167 475.136 716.742 474.469 718.091C473.81 719.439 472.886 720.489 471.696 721.239C470.515 721.989 469.136 722.364 467.56 722.364ZM467.56 719.955C468.757 719.955 469.742 719.648 470.515 719.034C471.287 718.42 471.859 717.614 472.23 716.614C472.602 715.614 472.787 714.53 472.787 713.364C472.787 712.197 472.602 711.11 472.23 710.102C471.859 709.095 471.287 708.28 470.515 707.659C469.742 707.038 468.757 706.727 467.56 706.727C466.363 706.727 465.378 707.038 464.605 707.659C463.833 708.28 463.261 709.095 462.89 710.102C462.518 711.11 462.333 712.197 462.333 713.364C462.333 714.53 462.518 715.614 462.89 716.614C463.261 717.614 463.833 718.42 464.605 719.034C465.378 719.648 466.363 719.955 467.56 719.955ZM493.154 722L486.79 698.727H489.654L494.517 717.682H494.745L499.699 698.727H502.881L507.836 717.682H508.063L512.927 698.727H515.79L509.427 722H506.517L501.381 703.455H501.199L496.063 722H493.154ZM524.404 722.364C522.828 722.364 521.445 721.989 520.256 721.239C519.074 720.489 518.15 719.439 517.483 718.091C516.824 716.742 516.495 715.167 516.495 713.364C516.495 711.545 516.824 709.958 517.483 708.602C518.15 707.246 519.074 706.193 520.256 705.443C521.445 704.693 522.828 704.318 524.404 704.318C525.98 704.318 527.358 704.693 528.54 705.443C529.73 706.193 530.654 707.246 531.313 708.602C531.98 709.958 532.313 711.545 532.313 713.364C532.313 715.167 531.98 716.742 531.313 718.091C530.654 719.439 529.73 720.489 528.54 721.239C527.358 721.989 525.98 722.364 524.404 722.364ZM524.404 719.955C525.601 719.955 526.586 719.648 527.358 719.034C528.131 718.42 528.703 717.614 529.074 716.614C529.445 715.614 529.631 714.53 529.631 713.364C529.631 712.197 529.445 711.11 529.074 710.102C528.703 709.095 528.131 708.28 527.358 707.659C526.586 707.038 525.601 706.727 524.404 706.727C523.207 706.727 522.222 707.038 521.449 707.659C520.677 708.28 520.105 709.095 519.733 710.102C519.362 711.11 519.177 712.197 519.177 713.364C519.177 714.53 519.362 715.614 519.733 716.614C520.105 717.614 520.677 718.42 521.449 719.034C522.222 719.648 523.207 719.955 524.404 719.955ZM536.407 722V704.545H538.998V707.182H539.179C539.498 706.318 540.073 705.617 540.907 705.08C541.74 704.542 542.679 704.273 543.725 704.273C543.922 704.273 544.168 704.277 544.463 704.284C544.759 704.292 544.982 704.303 545.134 704.318V707.045C545.043 707.023 544.835 706.989 544.509 706.943C544.191 706.89 543.854 706.864 543.498 706.864C542.649 706.864 541.891 707.042 541.225 707.398C540.566 707.746 540.043 708.231 539.657 708.852C539.278 709.466 539.088 710.167 539.088 710.955V722H536.407ZM550.995 698.727V722H548.313V698.727H550.995ZM562.498 722.364C561.043 722.364 559.759 721.996 558.645 721.261C557.532 720.519 556.66 719.473 556.032 718.125C555.403 716.769 555.088 715.167 555.088 713.318C555.088 711.485 555.403 709.894 556.032 708.545C556.66 707.197 557.535 706.155 558.657 705.42C559.778 704.686 561.073 704.318 562.543 704.318C563.679 704.318 564.577 704.508 565.236 704.886C565.903 705.258 566.41 705.682 566.759 706.159C567.115 706.629 567.391 707.015 567.588 707.318H567.816V698.727H570.498V722H567.907V719.318H567.588C567.391 719.636 567.111 720.038 566.748 720.523C566.384 721 565.865 721.428 565.191 721.807C564.516 722.178 563.619 722.364 562.498 722.364ZM562.861 719.955C563.937 719.955 564.846 719.674 565.588 719.114C566.331 718.545 566.895 717.761 567.282 716.761C567.668 715.754 567.861 714.591 567.861 713.273C567.861 711.97 567.672 710.83 567.293 709.852C566.914 708.867 566.354 708.102 565.611 707.557C564.869 707.004 563.952 706.727 562.861 706.727C561.725 706.727 560.778 707.019 560.02 707.602C559.27 708.178 558.706 708.962 558.327 709.955C557.956 710.939 557.77 712.045 557.77 713.273C557.77 714.515 557.96 715.644 558.338 716.659C558.725 717.667 559.293 718.47 560.043 719.068C560.801 719.659 561.74 719.955 562.861 719.955ZM578.145 698.727V700.773C578.145 701.394 578.032 702.057 577.804 702.761C577.585 703.458 577.259 704.136 576.827 704.795C576.403 705.447 575.888 706.015 575.282 706.5L573.827 705.318C574.304 704.636 574.717 703.928 575.066 703.193C575.422 702.451 575.6 701.659 575.6 700.818V698.727H578.145ZM583.963 698.727V700.773C583.963 701.394 583.85 702.057 583.623 702.761C583.403 703.458 583.077 704.136 582.645 704.795C582.221 705.447 581.706 706.015 581.1 706.5L579.645 705.318C580.123 704.636 580.535 703.928 580.884 703.193C581.24 702.451 581.418 701.659 581.418 700.818V698.727H583.963Z" fill="white"/>
<line x1="489" y1="559" x2="489" y2="653" stroke="currentColor" stroke-width="4"/>
<rect x="645" y="231" width="155.697" height="116" fill="hsl(var(--nextra-primary-hue), var(--nextra-primary-saturation),20%)"/>
<path d="M687.513 299V275.727H690.195V284.318H690.423C690.62 284.015 690.892 283.629 691.241 283.159C691.597 282.682 692.104 282.258 692.763 281.886C693.43 281.508 694.332 281.318 695.468 281.318C696.938 281.318 698.233 281.686 699.354 282.42C700.476 283.155 701.351 284.197 701.979 285.545C702.608 286.894 702.923 288.485 702.923 290.318C702.923 292.167 702.608 293.769 701.979 295.125C701.351 296.473 700.479 297.519 699.366 298.261C698.252 298.996 696.968 299.364 695.513 299.364C694.392 299.364 693.495 299.178 692.82 298.807C692.146 298.428 691.627 298 691.263 297.523C690.9 297.038 690.62 296.636 690.423 296.318H690.104V299H687.513ZM690.15 290.273C690.15 291.591 690.343 292.754 690.729 293.761C691.116 294.761 691.68 295.545 692.423 296.114C693.165 296.674 694.074 296.955 695.15 296.955C696.271 296.955 697.207 296.659 697.957 296.068C698.714 295.47 699.282 294.667 699.661 293.659C700.048 292.644 700.241 291.515 700.241 290.273C700.241 289.045 700.051 287.939 699.673 286.955C699.301 285.962 698.737 285.178 697.979 284.602C697.229 284.019 696.286 283.727 695.15 283.727C694.059 283.727 693.142 284.004 692.4 284.557C691.657 285.102 691.097 285.867 690.718 286.852C690.339 287.83 690.15 288.97 690.15 290.273ZM714.116 299.364C712.54 299.364 711.157 298.989 709.968 298.239C708.786 297.489 707.862 296.439 707.195 295.091C706.536 293.742 706.207 292.167 706.207 290.364C706.207 288.545 706.536 286.958 707.195 285.602C707.862 284.246 708.786 283.193 709.968 282.443C711.157 281.693 712.54 281.318 714.116 281.318C715.692 281.318 717.07 281.693 718.252 282.443C719.442 283.193 720.366 284.246 721.025 285.602C721.692 286.958 722.025 288.545 722.025 290.364C722.025 292.167 721.692 293.742 721.025 295.091C720.366 296.439 719.442 297.489 718.252 298.239C717.07 298.989 715.692 299.364 714.116 299.364ZM714.116 296.955C715.313 296.955 716.298 296.648 717.07 296.034C717.843 295.42 718.415 294.614 718.786 293.614C719.157 292.614 719.343 291.53 719.343 290.364C719.343 289.197 719.157 288.11 718.786 287.102C718.415 286.095 717.843 285.28 717.07 284.659C716.298 284.038 715.313 283.727 714.116 283.727C712.919 283.727 711.934 284.038 711.161 284.659C710.388 285.28 709.817 286.095 709.445 287.102C709.074 288.11 708.888 289.197 708.888 290.364C708.888 291.53 709.074 292.614 709.445 293.614C709.817 294.614 710.388 295.42 711.161 296.034C711.934 296.648 712.919 296.955 714.116 296.955ZM732.71 299.364C731.255 299.364 729.971 298.996 728.857 298.261C727.744 297.519 726.872 296.473 726.244 295.125C725.615 293.769 725.3 292.167 725.3 290.318C725.3 288.485 725.615 286.894 726.244 285.545C726.872 284.197 727.747 283.155 728.869 282.42C729.99 281.686 731.285 281.318 732.755 281.318C733.891 281.318 734.789 281.508 735.448 281.886C736.115 282.258 736.622 282.682 736.971 283.159C737.327 283.629 737.603 284.015 737.8 284.318H738.028V275.727H740.71V299H738.119V296.318H737.8C737.603 296.636 737.323 297.038 736.96 297.523C736.596 298 736.077 298.428 735.403 298.807C734.728 299.178 733.831 299.364 732.71 299.364ZM733.073 296.955C734.149 296.955 735.058 296.674 735.8 296.114C736.543 295.545 737.107 294.761 737.494 293.761C737.88 292.754 738.073 291.591 738.073 290.273C738.073 288.97 737.884 287.83 737.505 286.852C737.126 285.867 736.566 285.102 735.823 284.557C735.081 284.004 734.164 283.727 733.073 283.727C731.937 283.727 730.99 284.019 730.232 284.602C729.482 285.178 728.918 285.962 728.539 286.955C728.168 287.939 727.982 289.045 727.982 290.273C727.982 291.515 728.172 292.644 728.55 293.659C728.937 294.667 729.505 295.47 730.255 296.068C731.013 296.659 731.952 296.955 733.073 296.955ZM747.721 305.545C747.266 305.545 746.861 305.508 746.505 305.432C746.149 305.364 745.903 305.295 745.766 305.227L746.448 302.864C747.1 303.03 747.675 303.091 748.175 303.045C748.675 303 749.119 302.777 749.505 302.375C749.899 301.981 750.259 301.341 750.585 300.455L751.085 299.091L744.63 281.545H747.539L752.357 295.455H752.539L757.357 281.545H760.266L752.857 301.545C752.524 302.447 752.111 303.193 751.619 303.784C751.126 304.383 750.554 304.826 749.903 305.114C749.259 305.402 748.531 305.545 747.721 305.545Z" fill="white"/>
<line x1="152" y1="342" x2="152.01" y2="447" stroke="currentColor" stroke-width="4"/>
<line x1="152" y1="558" x2="152.01" y2="663" stroke="currentColor" stroke-width="4"/>
<rect x="72" y="448" width="155.738" height="116" fill="hsl(var(--nextra-primary-hue), var(--nextra-primary-saturation),20%)"/>
<path d="M132.023 499.545V501.818H122.978V499.545H132.023ZM125.614 495.364H128.296V512C128.296 512.758 128.406 513.326 128.626 513.705C128.853 514.076 129.141 514.326 129.489 514.455C129.845 514.576 130.22 514.636 130.614 514.636C130.91 514.636 131.152 514.621 131.342 514.591C131.531 514.553 131.683 514.523 131.796 514.5L132.342 516.909C132.16 516.977 131.906 517.045 131.58 517.114C131.255 517.189 130.842 517.227 130.342 517.227C129.584 517.227 128.842 517.064 128.114 516.739C127.395 516.413 126.796 515.917 126.319 515.25C125.849 514.583 125.614 513.742 125.614 512.727V495.364ZM136.058 517V499.545H138.739V517H136.058ZM137.421 496.636C136.898 496.636 136.448 496.458 136.069 496.102C135.698 495.746 135.512 495.318 135.512 494.818C135.512 494.318 135.698 493.89 136.069 493.534C136.448 493.178 136.898 493 137.421 493C137.944 493 138.391 493.178 138.762 493.534C139.141 493.89 139.33 494.318 139.33 494.818C139.33 495.318 139.141 495.746 138.762 496.102C138.391 496.458 137.944 496.636 137.421 496.636ZM151.242 499.545V501.818H142.197V499.545H151.242ZM144.833 495.364H147.515V512C147.515 512.758 147.625 513.326 147.845 513.705C148.072 514.076 148.36 514.326 148.708 514.455C149.064 514.576 149.439 514.636 149.833 514.636C150.129 514.636 150.371 514.621 150.56 514.591C150.75 514.553 150.901 514.523 151.015 514.5L151.56 516.909C151.379 516.977 151.125 517.045 150.799 517.114C150.473 517.189 150.06 517.227 149.56 517.227C148.803 517.227 148.06 517.064 147.333 516.739C146.613 516.413 146.015 515.917 145.538 515.25C145.068 514.583 144.833 513.742 144.833 512.727V495.364ZM158.333 493.727V517H155.651V493.727H158.333ZM170.563 517.364C168.881 517.364 167.431 516.992 166.211 516.25C164.999 515.5 164.063 514.455 163.404 513.114C162.753 511.765 162.427 510.197 162.427 508.409C162.427 506.621 162.753 505.045 163.404 503.682C164.063 502.311 164.98 501.242 166.154 500.477C167.336 499.705 168.715 499.318 170.291 499.318C171.2 499.318 172.097 499.47 172.984 499.773C173.87 500.076 174.677 500.568 175.404 501.25C176.131 501.924 176.711 502.818 177.143 503.932C177.575 505.045 177.791 506.417 177.791 508.045V509.182H164.336V506.864H175.063C175.063 505.879 174.866 505 174.472 504.227C174.086 503.455 173.533 502.845 172.813 502.398C172.101 501.951 171.26 501.727 170.291 501.727C169.222 501.727 168.298 501.992 167.518 502.523C166.745 503.045 166.15 503.727 165.734 504.568C165.317 505.409 165.109 506.311 165.109 507.273V508.818C165.109 510.136 165.336 511.254 165.791 512.17C166.253 513.08 166.893 513.773 167.711 514.25C168.529 514.72 169.48 514.955 170.563 514.955C171.268 514.955 171.904 514.856 172.472 514.659C173.048 514.455 173.544 514.152 173.961 513.75C174.378 513.341 174.7 512.833 174.927 512.227L177.518 512.955C177.245 513.833 176.787 514.606 176.143 515.273C175.499 515.932 174.703 516.447 173.756 516.818C172.809 517.182 171.745 517.364 170.563 517.364Z" fill="white"/>
<rect y="658" width="300" height="116" fill="hsl(var(--nextra-primary-hue), var(--nextra-primary-saturation),20%)"/>
<path d="M40.6392 712V709.955C40.6392 709.333 40.7491 708.674 40.9688 707.977C41.196 707.273 41.5218 706.595 41.946 705.943C42.3778 705.284 42.8968 704.712 43.5028 704.227L44.9574 705.409C44.4801 706.091 44.0634 706.803 43.7074 707.545C43.3589 708.28 43.1847 709.068 43.1847 709.909V712H40.6392ZM46.4574 712V709.955C46.4574 709.333 46.5672 708.674 46.7869 707.977C47.0142 707.273 47.34 706.595 47.7642 705.943C48.196 705.284 48.715 704.712 49.321 704.227L50.7756 705.409C50.2983 706.091 49.8816 706.803 49.5256 707.545C49.1771 708.28 49.0028 709.068 49.0028 709.909V712H46.4574ZM66.8267 710.545C66.6903 709.394 66.1373 708.5 65.1676 707.864C64.1979 707.227 63.0085 706.909 61.5994 706.909C60.5691 706.909 59.6676 707.076 58.8949 707.409C58.1297 707.742 57.5313 708.201 57.0994 708.784C56.6752 709.367 56.4631 710.03 56.4631 710.773C56.4631 711.394 56.6108 711.928 56.9062 712.375C57.2093 712.814 57.5956 713.182 58.0653 713.477C58.535 713.765 59.0275 714.004 59.5426 714.193C60.0578 714.375 60.5312 714.523 60.9631 714.636L63.3267 715.273C63.9328 715.432 64.607 715.652 65.3494 715.932C66.0994 716.212 66.8153 716.595 67.4972 717.08C68.1866 717.557 68.7547 718.17 69.2017 718.92C69.6487 719.67 69.8722 720.591 69.8722 721.682C69.8722 722.939 69.5426 724.076 68.8835 725.091C68.232 726.106 67.2775 726.913 66.0199 727.511C64.7699 728.11 63.2509 728.409 61.4631 728.409C59.7964 728.409 58.3532 728.14 57.1335 727.602C55.9214 727.064 54.9669 726.314 54.2699 725.352C53.5805 724.39 53.1903 723.273 53.0994 722H56.0085C56.0843 722.879 56.3797 723.606 56.8949 724.182C57.4176 724.75 58.0767 725.174 58.8722 725.455C59.6752 725.727 60.5388 725.864 61.4631 725.864C62.5388 725.864 63.5047 725.689 64.3608 725.341C65.2169 724.985 65.8949 724.492 66.3949 723.864C66.8949 723.227 67.1449 722.485 67.1449 721.636C67.1449 720.864 66.929 720.235 66.4972 719.75C66.0653 719.265 65.4972 718.871 64.7926 718.568C64.0881 718.265 63.3267 718 62.5085 717.773L59.6449 716.955C57.8267 716.432 56.3873 715.686 55.3267 714.716C54.2661 713.746 53.7358 712.477 53.7358 710.909C53.7358 709.606 54.0881 708.47 54.7926 707.5C55.5047 706.523 56.4593 705.765 57.6562 705.227C58.8608 704.682 60.2055 704.409 61.6903 704.409C63.1903 704.409 64.5237 704.678 65.6903 705.216C66.857 705.746 67.7813 706.473 68.4631 707.398C69.1525 708.322 69.5161 709.371 69.554 710.545H66.8267ZM79.2784 728.409C78.1723 728.409 77.1686 728.201 76.267 727.784C75.3655 727.36 74.6496 726.75 74.1193 725.955C73.589 725.152 73.3239 724.182 73.3239 723.045C73.3239 722.045 73.5208 721.235 73.9148 720.614C74.3087 719.985 74.8352 719.492 75.4943 719.136C76.1534 718.78 76.8807 718.515 77.6761 718.341C78.4792 718.159 79.286 718.015 80.0966 717.909C81.1572 717.773 82.017 717.67 82.6761 717.602C83.3428 717.527 83.8277 717.402 84.1307 717.227C84.4413 717.053 84.5966 716.75 84.5966 716.318V716.227C84.5966 715.106 84.2898 714.235 83.6761 713.614C83.0701 712.992 82.1496 712.682 80.9148 712.682C79.6345 712.682 78.6307 712.962 77.9034 713.523C77.1761 714.083 76.6648 714.682 76.3693 715.318L73.8239 714.409C74.2784 713.348 74.8845 712.523 75.642 711.932C76.4072 711.333 77.2405 710.917 78.142 710.682C79.0511 710.439 79.9451 710.318 80.8239 710.318C81.3845 710.318 82.0284 710.386 82.7557 710.523C83.4905 710.652 84.1989 710.92 84.8807 711.33C85.5701 711.739 86.142 712.356 86.5966 713.182C87.0511 714.008 87.2784 715.114 87.2784 716.5V728H84.5966V725.636H84.4602C84.2784 726.015 83.9754 726.42 83.5511 726.852C83.1269 727.284 82.5625 727.652 81.858 727.955C81.1534 728.258 80.2936 728.409 79.2784 728.409ZM79.6875 726C80.7481 726 81.642 725.792 82.3693 725.375C83.1042 724.958 83.6572 724.42 84.0284 723.761C84.4072 723.102 84.5966 722.409 84.5966 721.682V719.227C84.483 719.364 84.233 719.489 83.8466 719.602C83.4678 719.708 83.0284 719.803 82.5284 719.886C82.036 719.962 81.5549 720.03 81.0852 720.091C80.6231 720.144 80.2481 720.189 79.9602 720.227C79.2633 720.318 78.6117 720.466 78.0057 720.67C77.4072 720.867 76.9223 721.167 76.5511 721.568C76.1875 721.962 76.0057 722.5 76.0057 723.182C76.0057 724.114 76.3504 724.818 77.0398 725.295C77.7367 725.765 78.6193 726 79.6875 726ZM92.1733 728V710.545H94.7642V713.273H94.9915C95.3551 712.341 95.9422 711.617 96.7528 711.102C97.5634 710.58 98.5369 710.318 99.6733 710.318C100.825 710.318 101.783 710.58 102.548 711.102C103.321 711.617 103.923 712.341 104.355 713.273H104.537C104.984 712.371 105.654 711.655 106.548 711.125C107.442 710.587 108.514 710.318 109.764 710.318C111.325 710.318 112.601 710.807 113.594 711.784C114.586 712.754 115.082 714.265 115.082 716.318V728H112.401V716.318C112.401 715.03 112.048 714.11 111.344 713.557C110.639 713.004 109.81 712.727 108.855 712.727C107.628 712.727 106.677 713.098 106.003 713.841C105.329 714.576 104.991 715.508 104.991 716.636V728H102.264V716.045C102.264 715.053 101.942 714.254 101.298 713.648C100.654 713.034 99.8248 712.727 98.8097 712.727C98.1127 712.727 97.4612 712.913 96.8551 713.284C96.2566 713.655 95.7718 714.17 95.4006 714.83C95.0369 715.481 94.8551 716.235 94.8551 717.091V728H92.1733ZM119.986 734.545V710.545H122.577V713.318H122.895C123.092 713.015 123.365 712.629 123.713 712.159C124.069 711.682 124.577 711.258 125.236 710.886C125.902 710.508 126.804 710.318 127.94 710.318C129.41 710.318 130.705 710.686 131.827 711.42C132.948 712.155 133.823 713.197 134.452 714.545C135.08 715.894 135.395 717.485 135.395 719.318C135.395 721.167 135.08 722.769 134.452 724.125C133.823 725.473 132.952 726.519 131.838 727.261C130.724 727.996 129.44 728.364 127.986 728.364C126.865 728.364 125.967 728.178 125.293 727.807C124.618 727.428 124.099 727 123.736 726.523C123.372 726.038 123.092 725.636 122.895 725.318H122.668V734.545H119.986ZM122.622 719.273C122.622 720.591 122.815 721.754 123.202 722.761C123.588 723.761 124.152 724.545 124.895 725.114C125.637 725.674 126.546 725.955 127.622 725.955C128.743 725.955 129.679 725.659 130.429 725.068C131.187 724.47 131.755 723.667 132.134 722.659C132.52 721.644 132.713 720.515 132.713 719.273C132.713 718.045 132.524 716.939 132.145 715.955C131.774 714.962 131.209 714.178 130.452 713.602C129.702 713.019 128.759 712.727 127.622 712.727C126.531 712.727 125.615 713.004 124.872 713.557C124.13 714.102 123.569 714.867 123.19 715.852C122.812 716.83 122.622 717.97 122.622 719.273ZM142.168 704.727V728H139.486V704.727H142.168ZM154.398 728.364C152.716 728.364 151.265 727.992 150.045 727.25C148.833 726.5 147.898 725.455 147.239 724.114C146.587 722.765 146.261 721.197 146.261 719.409C146.261 717.621 146.587 716.045 147.239 714.682C147.898 713.311 148.814 712.242 149.989 711.477C151.17 710.705 152.549 710.318 154.125 710.318C155.034 710.318 155.932 710.47 156.818 710.773C157.705 711.076 158.511 711.568 159.239 712.25C159.966 712.924 160.545 713.818 160.977 714.932C161.409 716.045 161.625 717.417 161.625 719.045V720.182H148.17V717.864H158.898C158.898 716.879 158.701 716 158.307 715.227C157.92 714.455 157.367 713.845 156.648 713.398C155.936 712.951 155.095 712.727 154.125 712.727C153.057 712.727 152.133 712.992 151.352 713.523C150.58 714.045 149.985 714.727 149.568 715.568C149.152 716.409 148.943 717.311 148.943 718.273V719.818C148.943 721.136 149.17 722.254 149.625 723.17C150.087 724.08 150.727 724.773 151.545 725.25C152.364 725.72 153.314 725.955 154.398 725.955C155.102 725.955 155.739 725.856 156.307 725.659C156.883 725.455 157.379 725.152 157.795 724.75C158.212 724.341 158.534 723.833 158.761 723.227L161.352 723.955C161.08 724.833 160.621 725.606 159.977 726.273C159.333 726.932 158.538 727.447 157.591 727.818C156.644 728.182 155.58 728.364 154.398 728.364ZM175.068 728V704.727H182.932C184.758 704.727 186.25 705.057 187.409 705.716C188.576 706.367 189.439 707.25 190 708.364C190.561 709.477 190.841 710.72 190.841 712.091C190.841 713.462 190.561 714.708 190 715.83C189.447 716.951 188.591 717.845 187.432 718.511C186.273 719.17 184.788 719.5 182.977 719.5H177.341V717H182.886C184.136 717 185.14 716.784 185.898 716.352C186.655 715.92 187.205 715.337 187.545 714.602C187.894 713.86 188.068 713.023 188.068 712.091C188.068 711.159 187.894 710.326 187.545 709.591C187.205 708.856 186.652 708.28 185.886 707.864C185.121 707.439 184.106 707.227 182.841 707.227H177.886V728H175.068ZM200.153 728.409C199.047 728.409 198.044 728.201 197.142 727.784C196.241 727.36 195.525 726.75 194.994 725.955C194.464 725.152 194.199 724.182 194.199 723.045C194.199 722.045 194.396 721.235 194.79 720.614C195.184 719.985 195.71 719.492 196.369 719.136C197.028 718.78 197.756 718.515 198.551 718.341C199.354 718.159 200.161 718.015 200.972 717.909C202.032 717.773 202.892 717.67 203.551 717.602C204.218 717.527 204.703 717.402 205.006 717.227C205.316 717.053 205.472 716.75 205.472 716.318V716.227C205.472 715.106 205.165 714.235 204.551 713.614C203.945 712.992 203.025 712.682 201.79 712.682C200.509 712.682 199.506 712.962 198.778 713.523C198.051 714.083 197.54 714.682 197.244 715.318L194.699 714.409C195.153 713.348 195.759 712.523 196.517 711.932C197.282 711.333 198.116 710.917 199.017 710.682C199.926 710.439 200.82 710.318 201.699 710.318C202.259 710.318 202.903 710.386 203.631 710.523C204.366 710.652 205.074 710.92 205.756 711.33C206.445 711.739 207.017 712.356 207.472 713.182C207.926 714.008 208.153 715.114 208.153 716.5V728H205.472V725.636H205.335C205.153 726.015 204.85 726.42 204.426 726.852C204.002 727.284 203.438 727.652 202.733 727.955C202.028 728.258 201.169 728.409 200.153 728.409ZM200.562 726C201.623 726 202.517 725.792 203.244 725.375C203.979 724.958 204.532 724.42 204.903 723.761C205.282 723.102 205.472 722.409 205.472 721.682V719.227C205.358 719.364 205.108 719.489 204.722 719.602C204.343 719.708 203.903 719.803 203.403 719.886C202.911 719.962 202.43 720.03 201.96 720.091C201.498 720.144 201.123 720.189 200.835 720.227C200.138 720.318 199.487 720.466 198.881 720.67C198.282 720.867 197.797 721.167 197.426 721.568C197.063 721.962 196.881 722.5 196.881 723.182C196.881 724.114 197.225 724.818 197.915 725.295C198.612 725.765 199.494 726 200.562 726ZM220.094 734.909C218.798 734.909 217.685 734.742 216.753 734.409C215.821 734.083 215.045 733.652 214.423 733.114C213.81 732.583 213.321 732.015 212.957 731.409L215.094 729.909C215.336 730.227 215.643 730.591 216.014 731C216.385 731.417 216.893 731.777 217.537 732.08C218.188 732.39 219.041 732.545 220.094 732.545C221.503 732.545 222.666 732.205 223.582 731.523C224.499 730.841 224.957 729.773 224.957 728.318V724.773H224.73C224.533 725.091 224.253 725.485 223.889 725.955C223.533 726.417 223.018 726.83 222.344 727.193C221.677 727.549 220.776 727.727 219.639 727.727C218.23 727.727 216.965 727.394 215.844 726.727C214.73 726.061 213.848 725.091 213.196 723.818C212.552 722.545 212.23 721 212.23 719.182C212.23 717.394 212.545 715.837 213.173 714.511C213.802 713.178 214.677 712.148 215.798 711.42C216.92 710.686 218.215 710.318 219.685 710.318C220.821 710.318 221.723 710.508 222.389 710.886C223.063 711.258 223.579 711.682 223.935 712.159C224.298 712.629 224.579 713.015 224.776 713.318H225.048V710.545H227.639V728.5C227.639 730 227.298 731.22 226.616 732.159C225.942 733.106 225.033 733.799 223.889 734.239C222.753 734.686 221.488 734.909 220.094 734.909ZM220.003 725.318C221.079 725.318 221.988 725.072 222.73 724.58C223.473 724.087 224.037 723.379 224.423 722.455C224.81 721.53 225.003 720.424 225.003 719.136C225.003 717.879 224.813 716.769 224.435 715.807C224.056 714.845 223.495 714.091 222.753 713.545C222.01 713 221.094 712.727 220.003 712.727C218.866 712.727 217.92 713.015 217.162 713.591C216.412 714.167 215.848 714.939 215.469 715.909C215.098 716.879 214.912 717.955 214.912 719.136C214.912 720.348 215.101 721.42 215.48 722.352C215.866 723.277 216.435 724.004 217.185 724.534C217.942 725.057 218.882 725.318 220.003 725.318ZM239.866 728.364C238.185 728.364 236.734 727.992 235.514 727.25C234.302 726.5 233.366 725.455 232.707 724.114C232.056 722.765 231.73 721.197 231.73 719.409C231.73 717.621 232.056 716.045 232.707 714.682C233.366 713.311 234.283 712.242 235.457 711.477C236.639 710.705 238.018 710.318 239.594 710.318C240.503 710.318 241.401 710.47 242.287 710.773C243.173 711.076 243.98 711.568 244.707 712.25C245.435 712.924 246.014 713.818 246.446 714.932C246.878 716.045 247.094 717.417 247.094 719.045V720.182H233.639V717.864H244.366C244.366 716.879 244.17 716 243.776 715.227C243.389 714.455 242.836 713.845 242.116 713.398C241.404 712.951 240.563 712.727 239.594 712.727C238.526 712.727 237.601 712.992 236.821 713.523C236.048 714.045 235.454 714.727 235.037 715.568C234.62 716.409 234.412 717.311 234.412 718.273V719.818C234.412 721.136 234.639 722.254 235.094 723.17C235.556 724.08 236.196 724.773 237.014 725.25C237.832 725.72 238.783 725.955 239.866 725.955C240.571 725.955 241.207 725.856 241.776 725.659C242.351 725.455 242.848 725.152 243.264 724.75C243.681 724.341 244.003 723.833 244.23 723.227L246.821 723.955C246.548 724.833 246.09 725.606 245.446 726.273C244.802 726.932 244.007 727.447 243.06 727.818C242.113 728.182 241.048 728.364 239.866 728.364ZM253.537 704.727V706.773C253.537 707.394 253.423 708.057 253.196 708.761C252.976 709.458 252.651 710.136 252.219 710.795C251.795 711.447 251.279 712.015 250.673 712.5L249.219 711.318C249.696 710.636 250.109 709.928 250.457 709.193C250.813 708.451 250.991 707.659 250.991 706.818V704.727H253.537ZM259.355 704.727V706.773C259.355 707.394 259.241 708.057 259.014 708.761C258.795 709.458 258.469 710.136 258.037 710.795C257.613 711.447 257.098 712.015 256.491 712.5L255.037 711.318C255.514 710.636 255.927 709.928 256.276 709.193C256.632 708.451 256.81 707.659 256.81 706.818V704.727H259.355Z" fill="white"/>
<rect x="72" y="232" width="156" height="116" fill="hsl(var(--nextra-primary-hue), var(--nextra-primary-saturation),20%)"/>
<path d="M117.593 289.5V300H114.911V276.727H117.593V285.273H117.82C118.229 284.371 118.843 283.655 119.661 283.125C120.487 282.587 121.586 282.318 122.957 282.318C124.146 282.318 125.188 282.557 126.082 283.034C126.976 283.504 127.669 284.227 128.161 285.205C128.661 286.174 128.911 287.409 128.911 288.909V300H126.229V289.091C126.229 287.705 125.87 286.633 125.15 285.875C124.438 285.11 123.449 284.727 122.184 284.727C121.305 284.727 120.517 284.913 119.82 285.284C119.131 285.655 118.586 286.197 118.184 286.909C117.79 287.621 117.593 288.485 117.593 289.5ZM141.136 300.364C139.454 300.364 138.003 299.992 136.783 299.25C135.571 298.5 134.636 297.455 133.977 296.114C133.325 294.765 132.999 293.197 132.999 291.409C132.999 289.621 133.325 288.045 133.977 286.682C134.636 285.311 135.552 284.242 136.727 283.477C137.908 282.705 139.287 282.318 140.863 282.318C141.772 282.318 142.67 282.47 143.556 282.773C144.443 283.076 145.249 283.568 145.977 284.25C146.704 284.924 147.283 285.818 147.715 286.932C148.147 288.045 148.363 289.417 148.363 291.045V292.182H134.908V289.864H145.636C145.636 288.879 145.439 288 145.045 287.227C144.658 286.455 144.105 285.845 143.386 285.398C142.674 284.951 141.833 284.727 140.863 284.727C139.795 284.727 138.871 284.992 138.09 285.523C137.318 286.045 136.723 286.727 136.306 287.568C135.89 288.409 135.681 289.311 135.681 290.273V291.818C135.681 293.136 135.908 294.254 136.363 295.17C136.825 296.08 137.465 296.773 138.283 297.25C139.102 297.72 140.052 297.955 141.136 297.955C141.84 297.955 142.477 297.856 143.045 297.659C143.621 297.455 144.117 297.152 144.533 296.75C144.95 296.341 145.272 295.833 145.499 295.227L148.09 295.955C147.818 296.833 147.359 297.606 146.715 298.273C146.071 298.932 145.276 299.447 144.329 299.818C143.382 300.182 142.318 300.364 141.136 300.364ZM157.579 300.409C156.473 300.409 155.469 300.201 154.568 299.784C153.666 299.36 152.95 298.75 152.42 297.955C151.89 297.152 151.624 296.182 151.624 295.045C151.624 294.045 151.821 293.235 152.215 292.614C152.609 291.985 153.136 291.492 153.795 291.136C154.454 290.78 155.181 290.515 155.977 290.341C156.78 290.159 157.587 290.015 158.397 289.909C159.458 289.773 160.318 289.67 160.977 289.602C161.643 289.527 162.128 289.402 162.431 289.227C162.742 289.053 162.897 288.75 162.897 288.318V288.227C162.897 287.106 162.59 286.235 161.977 285.614C161.371 284.992 160.45 284.682 159.215 284.682C157.935 284.682 156.931 284.962 156.204 285.523C155.477 286.083 154.965 286.682 154.67 287.318L152.124 286.409C152.579 285.348 153.185 284.523 153.943 283.932C154.708 283.333 155.541 282.917 156.443 282.682C157.352 282.439 158.246 282.318 159.124 282.318C159.685 282.318 160.329 282.386 161.056 282.523C161.791 282.652 162.499 282.92 163.181 283.33C163.871 283.739 164.443 284.356 164.897 285.182C165.352 286.008 165.579 287.114 165.579 288.5V300H162.897V297.636H162.761C162.579 298.015 162.276 298.42 161.852 298.852C161.427 299.284 160.863 299.652 160.158 299.955C159.454 300.258 158.594 300.409 157.579 300.409ZM157.988 298C159.049 298 159.943 297.792 160.67 297.375C161.405 296.958 161.958 296.42 162.329 295.761C162.708 295.102 162.897 294.409 162.897 293.682V291.227C162.783 291.364 162.533 291.489 162.147 291.602C161.768 291.708 161.329 291.803 160.829 291.886C160.337 291.962 159.855 292.03 159.386 292.091C158.924 292.144 158.549 292.189 158.261 292.227C157.564 292.318 156.912 292.466 156.306 292.67C155.708 292.867 155.223 293.167 154.852 293.568C154.488 293.962 154.306 294.5 154.306 295.182C154.306 296.114 154.651 296.818 155.34 297.295C156.037 297.765 156.92 298 157.988 298ZM177.065 300.364C175.61 300.364 174.326 299.996 173.212 299.261C172.099 298.519 171.228 297.473 170.599 296.125C169.97 294.769 169.656 293.167 169.656 291.318C169.656 289.485 169.97 287.894 170.599 286.545C171.228 285.197 172.103 284.155 173.224 283.42C174.345 282.686 175.64 282.318 177.11 282.318C178.247 282.318 179.144 282.508 179.803 282.886C180.47 283.258 180.978 283.682 181.326 284.159C181.682 284.629 181.959 285.015 182.156 285.318H182.383V276.727H185.065V300H182.474V297.318H182.156C181.959 297.636 181.678 298.038 181.315 298.523C180.951 299 180.432 299.428 179.758 299.807C179.084 300.178 178.186 300.364 177.065 300.364ZM177.428 297.955C178.504 297.955 179.413 297.674 180.156 297.114C180.898 296.545 181.462 295.761 181.849 294.761C182.235 293.754 182.428 292.591 182.428 291.273C182.428 289.97 182.239 288.83 181.86 287.852C181.481 286.867 180.921 286.102 180.178 285.557C179.436 285.004 178.519 284.727 177.428 284.727C176.292 284.727 175.345 285.019 174.587 285.602C173.837 286.178 173.273 286.962 172.894 287.955C172.523 288.939 172.337 290.045 172.337 291.273C172.337 292.515 172.527 293.644 172.906 294.659C173.292 295.667 173.86 296.47 174.61 297.068C175.368 297.659 176.307 297.955 177.428 297.955Z" fill="white"/>
</svg>
