<svg viewBox="0 0 1730 1117" fill="none" xmlns="http://www.w3.org/2000/svg">
<g clip-path="url(#clip0_9_9)">
<rect width="1728" height="1117" fill="var(--doc-bg)"/>
<rect width="1728" height="1117" fill="var(--doc-bg)"/>
<rect x="120" y="95" width="1488" height="928" fill="var(--doc-bg)" stroke="currentColor" stroke-width="2"/>
<path d="M268.227 164V129.091H280.432C282.864 129.091 284.869 129.511 286.449 130.352C288.028 131.182 289.205 132.301 289.977 133.71C290.75 135.108 291.136 136.659 291.136 138.364C291.136 139.864 290.869 141.102 290.335 142.08C289.813 143.057 289.119 143.83 288.256 144.398C287.403 144.966 286.477 145.386 285.477 145.659V146C286.545 146.068 287.619 146.443 288.699 147.125C289.778 147.807 290.682 148.784 291.409 150.057C292.136 151.33 292.5 152.886 292.5 154.727C292.5 156.477 292.102 158.051 291.307 159.449C290.511 160.847 289.256 161.955 287.54 162.773C285.824 163.591 283.591 164 280.841 164H268.227ZM272.455 160.25H280.841C283.602 160.25 285.563 159.716 286.722 158.648C287.892 157.568 288.477 156.261 288.477 154.727C288.477 153.545 288.176 152.455 287.574 151.455C286.972 150.443 286.114 149.636 285 149.034C283.886 148.42 282.568 148.114 281.045 148.114H272.455V160.25ZM272.455 144.432H280.295C281.568 144.432 282.716 144.182 283.739 143.682C284.773 143.182 285.591 142.477 286.193 141.568C286.807 140.659 287.114 139.591 287.114 138.364C287.114 136.83 286.58 135.528 285.511 134.46C284.443 133.381 282.75 132.841 280.432 132.841H272.455V144.432ZM309.537 164.545C307.173 164.545 305.099 163.983 303.315 162.858C301.543 161.733 300.156 160.159 299.156 158.136C298.168 156.114 297.673 153.75 297.673 151.045C297.673 148.318 298.168 145.937 299.156 143.903C300.156 141.869 301.543 140.29 303.315 139.165C305.099 138.04 307.173 137.477 309.537 137.477C311.901 137.477 313.969 138.04 315.741 139.165C317.526 140.29 318.912 141.869 319.901 143.903C320.901 145.937 321.401 148.318 321.401 151.045C321.401 153.75 320.901 156.114 319.901 158.136C318.912 160.159 317.526 161.733 315.741 162.858C313.969 163.983 311.901 164.545 309.537 164.545ZM309.537 160.932C311.332 160.932 312.81 160.472 313.969 159.551C315.128 158.631 315.986 157.42 316.543 155.92C317.099 154.42 317.378 152.795 317.378 151.045C317.378 149.295 317.099 147.665 316.543 146.153C315.986 144.642 315.128 143.42 313.969 142.489C312.81 141.557 311.332 141.091 309.537 141.091C307.741 141.091 306.264 141.557 305.105 142.489C303.946 143.42 303.088 144.642 302.531 146.153C301.974 147.665 301.696 149.295 301.696 151.045C301.696 152.795 301.974 154.42 302.531 155.92C303.088 157.42 303.946 158.631 305.105 159.551C306.264 160.472 307.741 160.932 309.537 160.932ZM327.541 164V137.818H331.428V141.773H331.7C332.178 140.477 333.041 139.426 334.291 138.619C335.541 137.812 336.95 137.409 338.518 137.409C338.814 137.409 339.183 137.415 339.626 137.426C340.07 137.437 340.405 137.455 340.632 137.477V141.568C340.496 141.534 340.183 141.483 339.695 141.415C339.217 141.335 338.712 141.295 338.178 141.295C336.905 141.295 335.768 141.562 334.768 142.097C333.78 142.619 332.996 143.347 332.416 144.278C331.848 145.199 331.564 146.25 331.564 147.432V164H327.541ZM354.49 164.545C352.308 164.545 350.382 163.994 348.712 162.892C347.041 161.778 345.734 160.21 344.791 158.188C343.848 156.153 343.376 153.75 343.376 150.977C343.376 148.227 343.848 145.841 344.791 143.818C345.734 141.795 347.047 140.233 348.729 139.131C350.411 138.028 352.354 137.477 354.558 137.477C356.263 137.477 357.609 137.761 358.598 138.33C359.598 138.886 360.359 139.523 360.882 140.239C361.416 140.943 361.831 141.523 362.126 141.977H362.467V129.091H366.49V164H362.604V159.977H362.126C361.831 160.455 361.411 161.057 360.865 161.784C360.32 162.5 359.541 163.142 358.53 163.71C357.518 164.267 356.172 164.545 354.49 164.545ZM355.036 160.932C356.649 160.932 358.013 160.511 359.126 159.67C360.24 158.818 361.087 157.642 361.666 156.142C362.246 154.631 362.536 152.886 362.536 150.909C362.536 148.955 362.251 147.244 361.683 145.778C361.115 144.301 360.274 143.153 359.161 142.335C358.047 141.506 356.672 141.091 355.036 141.091C353.331 141.091 351.911 141.528 350.774 142.403C349.649 143.267 348.803 144.443 348.234 145.932C347.678 147.409 347.399 149.068 347.399 150.909C347.399 152.773 347.683 154.466 348.251 155.989C348.831 157.5 349.683 158.705 350.808 159.602C351.945 160.489 353.354 160.932 355.036 160.932ZM385.393 164.545C382.871 164.545 380.695 163.989 378.865 162.875C377.047 161.75 375.643 160.182 374.655 158.17C373.678 156.148 373.189 153.795 373.189 151.114C373.189 148.432 373.678 146.068 374.655 144.023C375.643 141.966 377.018 140.364 378.78 139.216C380.553 138.057 382.621 137.477 384.984 137.477C386.348 137.477 387.695 137.705 389.024 138.159C390.354 138.614 391.564 139.352 392.655 140.375C393.746 141.386 394.615 142.727 395.263 144.398C395.911 146.068 396.234 148.125 396.234 150.568V152.273H376.053V148.795H392.143C392.143 147.318 391.848 146 391.257 144.841C390.678 143.682 389.848 142.767 388.768 142.097C387.7 141.426 386.439 141.091 384.984 141.091C383.382 141.091 381.996 141.489 380.825 142.284C379.666 143.068 378.774 144.091 378.149 145.352C377.524 146.614 377.212 147.966 377.212 149.409V151.727C377.212 153.705 377.553 155.381 378.234 156.756C378.928 158.119 379.888 159.159 381.115 159.875C382.342 160.58 383.768 160.932 385.393 160.932C386.45 160.932 387.405 160.784 388.257 160.489C389.121 160.182 389.865 159.727 390.49 159.125C391.115 158.511 391.598 157.75 391.939 156.841L395.825 157.932C395.416 159.25 394.729 160.409 393.763 161.409C392.797 162.398 391.604 163.17 390.183 163.727C388.763 164.273 387.166 164.545 385.393 164.545ZM402.354 164V137.818H406.24V141.773H406.513C406.99 140.477 407.854 139.426 409.104 138.619C410.354 137.812 411.763 137.409 413.331 137.409C413.626 137.409 413.996 137.415 414.439 137.426C414.882 137.437 415.217 137.455 415.445 137.477V141.568C415.308 141.534 414.996 141.483 414.507 141.415C414.03 141.335 413.524 141.295 412.99 141.295C411.717 141.295 410.581 141.562 409.581 142.097C408.592 142.619 407.808 143.347 407.229 144.278C406.661 145.199 406.376 146.25 406.376 147.432V164H402.354Z" fill="currentColor"/>
<rect x="265" y="225" width="1197" height="667" fill="var(--doc-bg)" stroke="currentColor" stroke-width="2" stroke-dasharray="10 10"/>
<path d="M435.227 320V285.091H447.023C449.761 285.091 452 285.585 453.739 286.574C455.489 287.551 456.784 288.875 457.625 290.545C458.466 292.216 458.886 294.08 458.886 296.136C458.886 298.193 458.466 300.062 457.625 301.744C456.795 303.426 455.511 304.767 453.773 305.767C452.034 306.756 449.807 307.25 447.091 307.25H438.636V303.5H446.955C448.83 303.5 450.335 303.176 451.472 302.528C452.608 301.881 453.432 301.006 453.943 299.903C454.466 298.79 454.727 297.534 454.727 296.136C454.727 294.739 454.466 293.489 453.943 292.386C453.432 291.284 452.602 290.42 451.455 289.795C450.307 289.159 448.784 288.841 446.886 288.841H439.455V320H435.227ZM472.855 320.614C471.196 320.614 469.69 320.301 468.338 319.676C466.986 319.04 465.912 318.125 465.116 316.932C464.321 315.727 463.923 314.273 463.923 312.568C463.923 311.068 464.219 309.852 464.81 308.92C465.401 307.977 466.19 307.239 467.179 306.705C468.168 306.17 469.259 305.773 470.452 305.511C471.656 305.239 472.866 305.023 474.082 304.864C475.673 304.659 476.963 304.506 477.952 304.403C478.952 304.29 479.679 304.102 480.134 303.841C480.599 303.58 480.832 303.125 480.832 302.477V302.341C480.832 300.659 480.372 299.352 479.452 298.42C478.543 297.489 477.162 297.023 475.31 297.023C473.389 297.023 471.884 297.443 470.793 298.284C469.702 299.125 468.935 300.023 468.491 300.977L464.673 299.614C465.355 298.023 466.264 296.784 467.401 295.898C468.548 295 469.798 294.375 471.151 294.023C472.514 293.659 473.855 293.477 475.173 293.477C476.014 293.477 476.98 293.58 478.071 293.784C479.173 293.977 480.236 294.381 481.259 294.994C482.293 295.608 483.151 296.534 483.832 297.773C484.514 299.011 484.855 300.67 484.855 302.75V320H480.832V316.455H480.628C480.355 317.023 479.901 317.631 479.264 318.278C478.628 318.926 477.781 319.477 476.724 319.932C475.668 320.386 474.378 320.614 472.855 320.614ZM473.469 317C475.06 317 476.401 316.688 477.491 316.062C478.594 315.438 479.423 314.631 479.98 313.642C480.548 312.653 480.832 311.614 480.832 310.523V306.841C480.662 307.045 480.287 307.233 479.707 307.403C479.139 307.562 478.48 307.705 477.73 307.83C476.991 307.943 476.27 308.045 475.565 308.136C474.872 308.216 474.31 308.284 473.878 308.341C472.832 308.477 471.855 308.699 470.946 309.006C470.048 309.301 469.321 309.75 468.764 310.352C468.219 310.943 467.946 311.75 467.946 312.773C467.946 314.17 468.463 315.227 469.497 315.943C470.543 316.648 471.866 317 473.469 317ZM502.084 320.545C499.902 320.545 497.976 319.994 496.305 318.892C494.635 317.778 493.328 316.21 492.385 314.188C491.442 312.153 490.97 309.75 490.97 306.977C490.97 304.227 491.442 301.841 492.385 299.818C493.328 297.795 494.641 296.233 496.322 295.131C498.004 294.028 499.947 293.477 502.152 293.477C503.857 293.477 505.203 293.761 506.192 294.33C507.192 294.886 507.953 295.523 508.476 296.239C509.01 296.943 509.425 297.523 509.72 297.977H510.061V285.091H514.084V320H510.197V315.977H509.72C509.425 316.455 509.004 317.057 508.459 317.784C507.913 318.5 507.135 319.142 506.124 319.71C505.112 320.267 503.766 320.545 502.084 320.545ZM502.629 316.932C504.243 316.932 505.607 316.511 506.72 315.67C507.834 314.818 508.68 313.642 509.26 312.142C509.839 310.631 510.129 308.886 510.129 306.909C510.129 304.955 509.845 303.244 509.277 301.778C508.709 300.301 507.868 299.153 506.754 298.335C505.641 297.506 504.266 297.091 502.629 297.091C500.925 297.091 499.504 297.528 498.368 298.403C497.243 299.267 496.396 300.443 495.828 301.932C495.271 303.409 494.993 305.068 494.993 306.909C494.993 308.773 495.277 310.466 495.845 311.989C496.425 313.5 497.277 314.705 498.402 315.602C499.538 316.489 500.947 316.932 502.629 316.932ZM531.896 320.545C529.714 320.545 527.788 319.994 526.118 318.892C524.447 317.778 523.141 316.21 522.197 314.188C521.254 312.153 520.783 309.75 520.783 306.977C520.783 304.227 521.254 301.841 522.197 299.818C523.141 297.795 524.453 296.233 526.135 295.131C527.817 294.028 529.76 293.477 531.964 293.477C533.669 293.477 535.016 293.761 536.004 294.33C537.004 294.886 537.766 295.523 538.288 296.239C538.822 296.943 539.237 297.523 539.533 297.977H539.874V285.091H543.896V320H540.01V315.977H539.533C539.237 316.455 538.817 317.057 538.271 317.784C537.726 318.5 536.947 319.142 535.936 319.71C534.925 320.267 533.578 320.545 531.896 320.545ZM532.442 316.932C534.055 316.932 535.419 316.511 536.533 315.67C537.646 314.818 538.493 313.642 539.072 312.142C539.652 310.631 539.942 308.886 539.942 306.909C539.942 304.955 539.658 303.244 539.089 301.778C538.521 300.301 537.68 299.153 536.567 298.335C535.453 297.506 534.078 297.091 532.442 297.091C530.737 297.091 529.317 297.528 528.18 298.403C527.055 299.267 526.209 300.443 525.641 301.932C525.084 303.409 524.805 305.068 524.805 306.909C524.805 308.773 525.089 310.466 525.658 311.989C526.237 313.5 527.089 314.705 528.214 315.602C529.351 316.489 530.76 316.932 532.442 316.932ZM551.822 320V293.818H555.845V320H551.822ZM553.868 289.455C553.084 289.455 552.408 289.188 551.839 288.653C551.283 288.119 551.004 287.477 551.004 286.727C551.004 285.977 551.283 285.335 551.839 284.801C552.408 284.267 553.084 284 553.868 284C554.652 284 555.322 284.267 555.879 284.801C556.447 285.335 556.732 285.977 556.732 286.727C556.732 287.477 556.447 288.119 555.879 288.653C555.322 289.188 554.652 289.455 553.868 289.455ZM567.236 304.25V320H563.213V293.818H567.099V297.909H567.44C568.054 296.58 568.986 295.511 570.236 294.705C571.486 293.886 573.099 293.477 575.077 293.477C576.849 293.477 578.401 293.841 579.73 294.568C581.06 295.284 582.094 296.375 582.832 297.841C583.571 299.295 583.94 301.136 583.94 303.364V320H579.918V303.636C579.918 301.58 579.384 299.977 578.315 298.83C577.247 297.67 575.781 297.091 573.918 297.091C572.634 297.091 571.486 297.369 570.474 297.926C569.474 298.483 568.685 299.295 568.105 300.364C567.526 301.432 567.236 302.727 567.236 304.25ZM601.859 330.364C599.916 330.364 598.246 330.114 596.848 329.614C595.45 329.125 594.286 328.477 593.354 327.67C592.433 326.875 591.7 326.023 591.155 325.114L594.359 322.864C594.723 323.341 595.183 323.886 595.74 324.5C596.297 325.125 597.058 325.665 598.024 326.119C599.001 326.585 600.28 326.818 601.859 326.818C603.973 326.818 605.717 326.307 607.092 325.284C608.467 324.261 609.155 322.659 609.155 320.477V315.159H608.814C608.518 315.636 608.098 316.227 607.553 316.932C607.018 317.625 606.246 318.244 605.234 318.79C604.234 319.324 602.882 319.591 601.178 319.591C599.064 319.591 597.166 319.091 595.484 318.091C593.814 317.091 592.49 315.636 591.513 313.727C590.547 311.818 590.064 309.5 590.064 306.773C590.064 304.091 590.536 301.756 591.479 299.767C592.422 297.767 593.734 296.222 595.416 295.131C597.098 294.028 599.041 293.477 601.246 293.477C602.95 293.477 604.303 293.761 605.303 294.33C606.314 294.886 607.087 295.523 607.621 296.239C608.166 296.943 608.587 297.523 608.882 297.977H609.291V293.818H613.178V320.75C613.178 323 612.666 324.83 611.643 326.239C610.632 327.659 609.268 328.699 607.553 329.358C605.848 330.028 603.95 330.364 601.859 330.364ZM601.723 315.977C603.337 315.977 604.7 315.608 605.814 314.869C606.928 314.131 607.774 313.068 608.354 311.682C608.933 310.295 609.223 308.636 609.223 306.705C609.223 304.818 608.939 303.153 608.371 301.71C607.803 300.267 606.962 299.136 605.848 298.318C604.734 297.5 603.359 297.091 601.723 297.091C600.018 297.091 598.598 297.523 597.462 298.386C596.337 299.25 595.49 300.409 594.922 301.864C594.365 303.318 594.087 304.932 594.087 306.705C594.087 308.523 594.371 310.131 594.939 311.528C595.518 312.915 596.371 314.006 597.496 314.801C598.632 315.585 600.041 315.977 601.723 315.977Z" fill="currentColor"/>
<rect x="432" y="404" width="864" height="310" fill="var(--doc-bg)" stroke="currentColor" stroke-width="2"/>
<path d="M804.693 552H800.466C800.216 550.784 799.778 549.716 799.153 548.795C798.54 547.875 797.79 547.102 796.903 546.477C796.028 545.841 795.057 545.364 793.989 545.045C792.92 544.727 791.807 544.568 790.648 544.568C788.534 544.568 786.619 545.102 784.903 546.17C783.199 547.239 781.841 548.812 780.83 550.892C779.83 552.972 779.33 555.523 779.33 558.545C779.33 561.568 779.83 564.119 780.83 566.199C781.841 568.278 783.199 569.852 784.903 570.92C786.619 571.989 788.534 572.523 790.648 572.523C791.807 572.523 792.92 572.364 793.989 572.045C795.057 571.727 796.028 571.256 796.903 570.631C797.79 569.994 798.54 569.216 799.153 568.295C799.778 567.364 800.216 566.295 800.466 565.091H804.693C804.375 566.875 803.795 568.472 802.955 569.881C802.114 571.29 801.068 572.489 799.818 573.477C798.568 574.455 797.165 575.199 795.608 575.71C794.063 576.222 792.409 576.477 790.648 576.477C787.67 576.477 785.023 575.75 782.705 574.295C780.386 572.841 778.563 570.773 777.233 568.091C775.903 565.409 775.239 562.227 775.239 558.545C775.239 554.864 775.903 551.682 777.233 549C778.563 546.318 780.386 544.25 782.705 542.795C785.023 541.341 787.67 540.614 790.648 540.614C792.409 540.614 794.063 540.869 795.608 541.381C797.165 541.892 798.568 542.642 799.818 543.631C801.068 544.608 802.114 545.801 802.955 547.21C803.795 548.608 804.375 550.205 804.693 552ZM821.615 576.545C819.251 576.545 817.178 575.983 815.393 574.858C813.621 573.733 812.234 572.159 811.234 570.136C810.246 568.114 809.751 565.75 809.751 563.045C809.751 560.318 810.246 557.937 811.234 555.903C812.234 553.869 813.621 552.29 815.393 551.165C817.178 550.04 819.251 549.477 821.615 549.477C823.979 549.477 826.047 550.04 827.82 551.165C829.604 552.29 830.99 553.869 831.979 555.903C832.979 557.937 833.479 560.318 833.479 563.045C833.479 565.75 832.979 568.114 831.979 570.136C830.99 572.159 829.604 573.733 827.82 574.858C826.047 575.983 823.979 576.545 821.615 576.545ZM821.615 572.932C823.411 572.932 824.888 572.472 826.047 571.551C827.206 570.631 828.064 569.42 828.621 567.92C829.178 566.42 829.456 564.795 829.456 563.045C829.456 561.295 829.178 559.665 828.621 558.153C828.064 556.642 827.206 555.42 826.047 554.489C824.888 553.557 823.411 553.091 821.615 553.091C819.82 553.091 818.342 553.557 817.183 554.489C816.024 555.42 815.166 556.642 814.609 558.153C814.053 559.665 813.774 561.295 813.774 563.045C813.774 564.795 814.053 566.42 814.609 567.92C815.166 569.42 816.024 570.631 817.183 571.551C818.342 572.472 819.82 572.932 821.615 572.932ZM843.642 560.25V576H839.619V549.818H843.506V553.909H843.847C844.46 552.58 845.392 551.511 846.642 550.705C847.892 549.886 849.506 549.477 851.483 549.477C853.256 549.477 854.807 549.841 856.136 550.568C857.466 551.284 858.5 552.375 859.239 553.841C859.977 555.295 860.347 557.136 860.347 559.364V576H856.324V559.636C856.324 557.58 855.79 555.977 854.722 554.83C853.653 553.67 852.188 553.091 850.324 553.091C849.04 553.091 847.892 553.369 846.881 553.926C845.881 554.483 845.091 555.295 844.511 556.364C843.932 557.432 843.642 558.727 843.642 560.25ZM879.084 549.818V553.227H865.516V549.818H879.084ZM869.47 543.545H873.493V568.5C873.493 569.636 873.658 570.489 873.987 571.057C874.328 571.614 874.76 571.989 875.283 572.182C875.817 572.364 876.379 572.455 876.97 572.455C877.413 572.455 877.777 572.432 878.061 572.386C878.345 572.33 878.572 572.284 878.743 572.25L879.561 575.864C879.288 575.966 878.908 576.068 878.419 576.17C877.93 576.284 877.311 576.341 876.561 576.341C875.425 576.341 874.311 576.097 873.22 575.608C872.141 575.119 871.243 574.375 870.527 573.375C869.822 572.375 869.47 571.114 869.47 569.591V543.545ZM895.831 576.545C893.308 576.545 891.132 575.989 889.303 574.875C887.484 573.75 886.081 572.182 885.092 570.17C884.115 568.148 883.626 565.795 883.626 563.114C883.626 560.432 884.115 558.068 885.092 556.023C886.081 553.966 887.456 552.364 889.217 551.216C890.99 550.057 893.058 549.477 895.422 549.477C896.786 549.477 898.132 549.705 899.462 550.159C900.791 550.614 902.001 551.352 903.092 552.375C904.183 553.386 905.053 554.727 905.7 556.398C906.348 558.068 906.672 560.125 906.672 562.568V564.273H886.49V560.795H902.581C902.581 559.318 902.286 558 901.695 556.841C901.115 555.682 900.286 554.767 899.206 554.097C898.138 553.426 896.876 553.091 895.422 553.091C893.82 553.091 892.433 553.489 891.263 554.284C890.104 555.068 889.212 556.091 888.587 557.352C887.962 558.614 887.649 559.966 887.649 561.409V563.727C887.649 565.705 887.99 567.381 888.672 568.756C889.365 570.119 890.325 571.159 891.553 571.875C892.78 572.58 894.206 572.932 895.831 572.932C896.888 572.932 897.842 572.784 898.695 572.489C899.558 572.182 900.303 571.727 900.928 571.125C901.553 570.511 902.036 569.75 902.376 568.841L906.263 569.932C905.854 571.25 905.166 572.409 904.2 573.409C903.234 574.398 902.041 575.17 900.621 575.727C899.2 576.273 897.604 576.545 895.831 576.545ZM916.814 560.25V576H912.791V549.818H916.678V553.909H917.018C917.632 552.58 918.564 551.511 919.814 550.705C921.064 549.886 922.678 549.477 924.655 549.477C926.428 549.477 927.979 549.841 929.308 550.568C930.638 551.284 931.672 552.375 932.411 553.841C933.149 555.295 933.518 557.136 933.518 559.364V576H929.496V559.636C929.496 557.58 928.962 555.977 927.893 554.83C926.825 553.67 925.359 553.091 923.496 553.091C922.212 553.091 921.064 553.369 920.053 553.926C919.053 554.483 918.263 555.295 917.683 556.364C917.104 557.432 916.814 558.727 916.814 560.25ZM952.256 549.818V553.227H938.688V549.818H952.256ZM942.642 543.545H946.665V568.5C946.665 569.636 946.83 570.489 947.159 571.057C947.5 571.614 947.932 571.989 948.455 572.182C948.989 572.364 949.551 572.455 950.142 572.455C950.585 572.455 950.949 572.432 951.233 572.386C951.517 572.33 951.744 572.284 951.915 572.25L952.733 575.864C952.46 575.966 952.08 576.068 951.591 576.17C951.102 576.284 950.483 576.341 949.733 576.341C948.597 576.341 947.483 576.097 946.392 575.608C945.313 575.119 944.415 574.375 943.699 573.375C942.994 572.375 942.642 571.114 942.642 569.591V543.545Z" fill="currentColor"/>
<path d="M123.227 28.0909H128.273L140.136 57.0682H140.545L152.409 28.0909H157.455V63H153.5V36.4773H153.159L142.25 63H138.432L127.523 36.4773H127.182V63H123.227V28.0909ZM173.089 63.6136C171.43 63.6136 169.925 63.3011 168.572 62.6761C167.22 62.0398 166.146 61.125 165.351 59.9318C164.555 58.7273 164.158 57.2727 164.158 55.5682C164.158 54.0682 164.453 52.8523 165.044 51.9205C165.635 50.9773 166.425 50.2386 167.413 49.7045C168.402 49.1705 169.493 48.7727 170.686 48.5114C171.891 48.2386 173.101 48.0227 174.317 47.8636C175.908 47.6591 177.197 47.5057 178.186 47.4034C179.186 47.2898 179.913 47.1023 180.368 46.8409C180.834 46.5795 181.067 46.125 181.067 45.4773V45.3409C181.067 43.6591 180.607 42.3523 179.686 41.4205C178.777 40.4886 177.396 40.0227 175.544 40.0227C173.624 40.0227 172.118 40.4432 171.027 41.2841C169.936 42.125 169.169 43.0227 168.726 43.9773L164.908 42.6136C165.589 41.0227 166.499 39.7841 167.635 38.8977C168.783 38 170.033 37.375 171.385 37.0227C172.749 36.6591 174.089 36.4773 175.408 36.4773C176.249 36.4773 177.214 36.5795 178.305 36.7841C179.408 36.9773 180.47 37.3807 181.493 37.9943C182.527 38.608 183.385 39.5341 184.067 40.7727C184.749 42.0114 185.089 43.6705 185.089 45.75V63H181.067V59.4545H180.862C180.589 60.0227 180.135 60.6307 179.499 61.2784C178.862 61.9261 178.016 62.4773 176.959 62.9318C175.902 63.3864 174.612 63.6136 173.089 63.6136ZM173.703 60C175.294 60 176.635 59.6875 177.726 59.0625C178.828 58.4375 179.658 57.6307 180.214 56.642C180.783 55.6534 181.067 54.6136 181.067 53.5227V49.8409C180.896 50.0455 180.521 50.233 179.942 50.4034C179.374 50.5625 178.714 50.7045 177.964 50.8295C177.226 50.9432 176.504 51.0455 175.8 51.1364C175.107 51.2159 174.544 51.2841 174.112 51.3409C173.067 51.4773 172.089 51.6989 171.18 52.0057C170.283 52.3011 169.555 52.75 168.999 53.3523C168.453 53.9432 168.18 54.75 168.18 55.7727C168.18 57.1705 168.697 58.2273 169.732 58.9432C170.777 59.6477 172.101 60 173.703 60ZM192.432 63V36.8182H196.318V40.7727H196.591C197.068 39.4773 197.932 38.4261 199.182 37.6193C200.432 36.8125 201.841 36.4091 203.409 36.4091C203.705 36.4091 204.074 36.4148 204.517 36.4261C204.96 36.4375 205.295 36.4545 205.523 36.4773V40.5682C205.386 40.5341 205.074 40.483 204.585 40.4148C204.108 40.3352 203.602 40.2955 203.068 40.2955C201.795 40.2955 200.659 40.5625 199.659 41.0966C198.67 41.6193 197.886 42.3466 197.307 43.2784C196.739 44.1989 196.455 45.25 196.455 46.4318V63H192.432ZM220.062 73.3636C218.119 73.3636 216.449 73.1136 215.051 72.6136C213.653 72.125 212.489 71.4773 211.557 70.6705C210.636 69.875 209.903 69.0227 209.358 68.1136L212.562 65.8636C212.926 66.3409 213.386 66.8864 213.943 67.5C214.5 68.125 215.261 68.6648 216.227 69.1193C217.205 69.5852 218.483 69.8182 220.062 69.8182C222.176 69.8182 223.92 69.3068 225.295 68.2841C226.67 67.2614 227.358 65.6591 227.358 63.4773V58.1591H227.017C226.722 58.6364 226.301 59.2273 225.756 59.9318C225.222 60.625 224.449 61.2443 223.438 61.7898C222.438 62.3239 221.085 62.5909 219.381 62.5909C217.267 62.5909 215.369 62.0909 213.688 61.0909C212.017 60.0909 210.693 58.6364 209.716 56.7273C208.75 54.8182 208.267 52.5 208.267 49.7727C208.267 47.0909 208.739 44.7557 209.682 42.767C210.625 40.767 211.938 39.2216 213.619 38.1307C215.301 37.0284 217.244 36.4773 219.449 36.4773C221.153 36.4773 222.506 36.7614 223.506 37.3295C224.517 37.8864 225.29 38.5227 225.824 39.2386C226.369 39.9432 226.79 40.5227 227.085 40.9773H227.494V36.8182H231.381V63.75C231.381 66 230.869 67.8295 229.847 69.2386C228.835 70.6591 227.472 71.6989 225.756 72.358C224.051 73.0284 222.153 73.3636 220.062 73.3636ZM219.926 58.9773C221.54 58.9773 222.903 58.608 224.017 57.8693C225.131 57.1307 225.977 56.0682 226.557 54.6818C227.136 53.2955 227.426 51.6364 227.426 49.7045C227.426 47.8182 227.142 46.1534 226.574 44.7102C226.006 43.267 225.165 42.1364 224.051 41.3182C222.938 40.5 221.563 40.0909 219.926 40.0909C218.222 40.0909 216.801 40.5227 215.665 41.3864C214.54 42.25 213.693 43.4091 213.125 44.8636C212.568 46.3182 212.29 47.9318 212.29 49.7045C212.29 51.5227 212.574 53.1307 213.142 54.5284C213.722 55.9148 214.574 57.0057 215.699 57.8011C216.835 58.5852 218.244 58.9773 219.926 58.9773ZM238.744 63V36.8182H242.767V63H238.744ZM240.79 32.4545C240.006 32.4545 239.33 32.1875 238.761 31.6534C238.205 31.1193 237.926 30.4773 237.926 29.7273C237.926 28.9773 238.205 28.3352 238.761 27.8011C239.33 27.267 240.006 27 240.79 27C241.574 27 242.244 27.267 242.801 27.8011C243.369 28.3352 243.653 28.9773 243.653 29.7273C243.653 30.4773 243.369 31.1193 242.801 31.6534C242.244 32.1875 241.574 32.4545 240.79 32.4545ZM254.158 47.25V63H250.135V36.8182H254.021V40.9091H254.362C254.976 39.5795 255.908 38.5114 257.158 37.7045C258.408 36.8864 260.021 36.4773 261.999 36.4773C263.771 36.4773 265.322 36.8409 266.652 37.5682C267.982 38.2841 269.016 39.375 269.754 40.8409C270.493 42.2955 270.862 44.1364 270.862 46.3636V63H266.839V46.6364C266.839 44.5795 266.305 42.9773 265.237 41.8295C264.169 40.6705 262.703 40.0909 260.839 40.0909C259.555 40.0909 258.408 40.3693 257.396 40.9261C256.396 41.483 255.607 42.2955 255.027 43.3636C254.447 44.4318 254.158 45.7273 254.158 47.25Z" fill="currentColor"/>
</g>
<rect x="1" y="1" width="1726" height="1115" stroke="currentColor" stroke-width="2" stroke-dasharray="10 10"/>
<defs>
<clipPath id="clip0_9_9">
<rect width="1728" height="1117" fill="var(--doc-bg)"/>
</clipPath>
</defs>
</svg>
