<svg viewBox="0 0 1728 1117" fill="none" xmlns="http://www.w3.org/2000/svg">
<rect fill="var(--doc-bg)"/>
<path d="M1657.71 1061.71C1658.1 1061.32 1658.1 1060.68 1657.71 1060.29L1651.34 1053.93C1650.95 1053.54 1650.32 1053.54 1649.93 1053.93C1649.54 1054.32 1649.54 1054.95 1649.93 1055.34L1655.59 1061L1649.93 1066.66C1649.54 1067.05 1649.54 1067.68 1649.93 1068.07C1650.32 1068.46 1650.95 1068.46 1651.34 1068.07L1657.71 1061.71ZM73 1061V1062H1657V1061V1060H73V1061Z" fill="currentColor"/>
<path d="M794.303 1010.73H797.666L805.575 1030.05H805.848L813.757 1010.73H817.121V1034H814.484V1016.32H814.257L806.984 1034H804.439L797.166 1016.32H796.939V1034H794.303V1010.73ZM827.544 1034.41C826.438 1034.41 825.434 1034.2 824.533 1033.78C823.631 1033.36 822.915 1032.75 822.385 1031.95C821.855 1031.15 821.589 1030.18 821.589 1029.05C821.589 1028.05 821.786 1027.23 822.18 1026.61C822.574 1025.98 823.101 1025.49 823.76 1025.14C824.419 1024.78 825.146 1024.52 825.942 1024.34C826.745 1024.16 827.552 1024.02 828.362 1023.91C829.423 1023.77 830.283 1023.67 830.942 1023.6C831.608 1023.53 832.093 1023.4 832.396 1023.23C832.707 1023.05 832.862 1022.75 832.862 1022.32V1022.23C832.862 1021.11 832.555 1020.23 831.942 1019.61C831.336 1018.99 830.415 1018.68 829.18 1018.68C827.9 1018.68 826.896 1018.96 826.169 1019.52C825.442 1020.08 824.93 1020.68 824.635 1021.32L822.089 1020.41C822.544 1019.35 823.15 1018.52 823.908 1017.93C824.673 1017.33 825.506 1016.92 826.408 1016.68C827.317 1016.44 828.211 1016.32 829.089 1016.32C829.65 1016.32 830.294 1016.39 831.021 1016.52C831.756 1016.65 832.464 1016.92 833.146 1017.33C833.836 1017.74 834.408 1018.36 834.862 1019.18C835.317 1020.01 835.544 1021.11 835.544 1022.5V1034H832.862V1031.64H832.726C832.544 1032.02 832.241 1032.42 831.817 1032.85C831.393 1033.28 830.828 1033.65 830.124 1033.95C829.419 1034.26 828.559 1034.41 827.544 1034.41ZM827.953 1032C829.014 1032 829.908 1031.79 830.635 1031.38C831.37 1030.96 831.923 1030.42 832.294 1029.76C832.673 1029.1 832.862 1028.41 832.862 1027.68V1025.23C832.749 1025.36 832.499 1025.49 832.112 1025.6C831.733 1025.71 831.294 1025.8 830.794 1025.89C830.302 1025.96 829.821 1026.03 829.351 1026.09C828.889 1026.14 828.514 1026.19 828.226 1026.23C827.529 1026.32 826.877 1026.47 826.271 1026.67C825.673 1026.87 825.188 1027.17 824.817 1027.57C824.453 1027.96 824.271 1028.5 824.271 1029.18C824.271 1030.11 824.616 1030.82 825.305 1031.3C826.002 1031.77 826.885 1032 827.953 1032ZM840.439 1034V1016.55H843.121V1034H840.439ZM841.803 1013.64C841.28 1013.64 840.829 1013.46 840.45 1013.1C840.079 1012.75 839.893 1012.32 839.893 1011.82C839.893 1011.32 840.079 1010.89 840.45 1010.53C840.829 1010.18 841.28 1010 841.803 1010C842.325 1010 842.772 1010.18 843.143 1010.53C843.522 1010.89 843.712 1011.32 843.712 1011.82C843.712 1012.32 843.522 1012.75 843.143 1013.1C842.772 1013.46 842.325 1013.64 841.803 1013.64ZM850.714 1023.5V1034H848.033V1016.55H850.624V1019.27H850.851C851.26 1018.39 851.881 1017.67 852.714 1017.14C853.548 1016.59 854.624 1016.32 855.942 1016.32C857.124 1016.32 858.158 1016.56 859.044 1017.05C859.93 1017.52 860.62 1018.25 861.112 1019.23C861.605 1020.2 861.851 1021.42 861.851 1022.91V1034H859.169V1023.09C859.169 1021.72 858.813 1020.65 858.101 1019.89C857.389 1019.11 856.411 1018.73 855.169 1018.73C854.313 1018.73 853.548 1018.91 852.874 1019.28C852.207 1019.66 851.68 1020.2 851.294 1020.91C850.908 1021.62 850.714 1022.48 850.714 1023.5ZM877.07 1034H874.115L882.661 1010.73H885.57L894.115 1034H891.161L884.206 1014.41H884.024L877.07 1034ZM878.161 1024.91H890.07V1027.41H878.161V1024.91ZM899.376 1016.55L903.558 1023.68L907.74 1016.55H910.831L905.195 1025.27L910.831 1034H907.74L903.558 1027.23L899.376 1034H896.286L901.831 1025.27L896.286 1016.55H899.376ZM914.658 1034V1016.55H917.339V1034H914.658ZM916.021 1013.64C915.499 1013.64 915.048 1013.46 914.669 1013.1C914.298 1012.75 914.112 1012.32 914.112 1011.82C914.112 1011.32 914.298 1010.89 914.669 1010.53C915.048 1010.18 915.499 1010 916.021 1010C916.544 1010 916.991 1010.18 917.362 1010.53C917.741 1010.89 917.93 1011.32 917.93 1011.82C917.93 1012.32 917.741 1012.75 917.362 1013.1C916.991 1013.46 916.544 1013.64 916.021 1013.64ZM934.615 1020.45L932.206 1021.14C932.054 1020.73 931.831 1020.34 931.536 1019.97C931.248 1019.58 930.854 1019.26 930.354 1019.01C929.854 1018.76 929.214 1018.64 928.433 1018.64C927.365 1018.64 926.475 1018.88 925.763 1019.38C925.058 1019.86 924.706 1020.48 924.706 1021.23C924.706 1021.89 924.948 1022.42 925.433 1022.81C925.918 1023.19 926.676 1023.52 927.706 1023.77L930.297 1024.41C931.857 1024.79 933.02 1025.37 933.786 1026.15C934.551 1026.92 934.933 1027.92 934.933 1029.14C934.933 1030.14 934.645 1031.03 934.07 1031.82C933.501 1032.61 932.706 1033.23 931.683 1033.68C930.661 1034.14 929.471 1034.36 928.115 1034.36C926.335 1034.36 924.861 1033.98 923.695 1033.2C922.528 1032.43 921.789 1031.3 921.479 1029.82L924.024 1029.18C924.267 1030.12 924.725 1030.83 925.399 1031.3C926.081 1031.77 926.971 1032 928.07 1032C929.32 1032 930.312 1031.73 931.047 1031.2C931.789 1030.67 932.161 1030.02 932.161 1029.27C932.161 1028.67 931.948 1028.16 931.524 1027.75C931.1 1027.33 930.448 1027.02 929.57 1026.82L926.661 1026.14C925.062 1025.76 923.888 1025.17 923.138 1024.38C922.395 1023.57 922.024 1022.57 922.024 1021.36C922.024 1020.38 922.301 1019.51 922.854 1018.75C923.414 1017.99 924.176 1017.4 925.138 1016.97C926.107 1016.53 927.206 1016.32 928.433 1016.32C930.161 1016.32 931.517 1016.7 932.501 1017.45C933.494 1018.21 934.198 1019.21 934.615 1020.45Z" fill="currentColor"/>
<path d="M73.2068 30.2923C72.816 29.902 72.1829 29.9023 71.7926 30.293L65.4317 36.66C65.0413 37.0508 65.0417 37.6839 65.4324 38.0743C65.8231 38.4646 66.4562 38.4643 66.8466 38.0736L72.5007 32.414L78.1603 38.0681C78.551 38.4584 79.1842 38.4581 79.5745 38.0674C79.9648 37.6767 79.9645 37.0435 79.5738 36.6532L73.2068 30.2923ZM73 1061L74 1061L73.5 30.9993L72.5 30.9998L71.5 31.0002L72 1061L73 1061Z" fill="currentColor"/>
<path d="M43 617.158V619.976C42.1894 620.143 41.4773 620.434 40.8636 620.851C40.25 621.26 39.7348 621.76 39.3182 622.351C38.8939 622.934 38.5758 623.582 38.3636 624.294C38.1515 625.006 38.0455 625.749 38.0455 626.521C38.0455 627.93 38.4015 629.207 39.1136 630.351C39.8258 631.487 40.875 632.393 42.2614 633.067C43.6477 633.733 45.3485 634.067 47.3636 634.067C49.3788 634.067 51.0795 633.733 52.4659 633.067C53.8523 632.393 54.9015 631.487 55.6136 630.351C56.3258 629.207 56.6818 627.93 56.6818 626.521C56.6818 625.749 56.5758 625.006 56.3636 624.294C56.1515 623.582 55.8371 622.934 55.4205 622.351C54.9962 621.76 54.4773 621.26 53.8636 620.851C53.2424 620.434 52.5303 620.143 51.7273 619.976V617.158C52.9167 617.37 53.9811 617.756 54.9205 618.317C55.8598 618.877 56.6591 619.574 57.3182 620.408C57.9697 621.241 58.4659 622.177 58.8068 623.214C59.1477 624.245 59.3182 625.347 59.3182 626.521C59.3182 628.506 58.8333 630.271 57.8636 631.817C56.8939 633.362 55.5152 634.578 53.7273 635.464C51.9394 636.351 49.8182 636.794 47.3636 636.794C44.9091 636.794 42.7879 636.351 41 635.464C39.2121 634.578 37.8333 633.362 36.8636 631.817C35.8939 630.271 35.4091 628.506 35.4091 626.521C35.4091 625.347 35.5795 624.245 35.9205 623.214C36.2614 622.177 36.7614 621.241 37.4205 620.408C38.072 619.574 38.8674 618.877 39.8068 618.317C40.7386 617.756 41.803 617.37 43 617.158ZM59 612.967H41.5455V610.376H44.1818V610.195C43.3182 609.876 42.6174 609.301 42.0795 608.467C41.5417 607.634 41.2727 606.695 41.2727 605.649C41.2727 605.452 41.2765 605.206 41.2841 604.911C41.2917 604.615 41.303 604.392 41.3182 604.24H44.0455C44.0227 604.331 43.9886 604.539 43.9432 604.865C43.8902 605.183 43.8636 605.52 43.8636 605.876C43.8636 606.725 44.0417 607.482 44.3977 608.149C44.7462 608.808 45.2311 609.331 45.8523 609.717C46.4659 610.096 47.1667 610.286 47.9545 610.286H59V612.967ZM59.3636 594.501C59.3636 596.077 58.9886 597.46 58.2386 598.649C57.4886 599.831 56.4394 600.755 55.0909 601.422C53.7424 602.081 52.1667 602.411 50.3636 602.411C48.5455 602.411 46.9583 602.081 45.6023 601.422C44.2462 600.755 43.1932 599.831 42.4432 598.649C41.6932 597.46 41.3182 596.077 41.3182 594.501C41.3182 592.926 41.6932 591.547 42.4432 590.365C43.1932 589.176 44.2462 588.251 45.6023 587.592C46.9583 586.926 48.5455 586.592 50.3636 586.592C52.1667 586.592 53.7424 586.926 55.0909 587.592C56.4394 588.251 57.4886 589.176 58.2386 590.365C58.9886 591.547 59.3636 592.926 59.3636 594.501ZM56.9545 594.501C56.9545 593.304 56.6477 592.32 56.0341 591.547C55.4205 590.774 54.6136 590.202 53.6136 589.831C52.6136 589.46 51.5303 589.274 50.3636 589.274C49.197 589.274 48.1098 589.46 47.1023 589.831C46.0947 590.202 45.2803 590.774 44.6591 591.547C44.0379 592.32 43.7273 593.304 43.7273 594.501C43.7273 595.698 44.0379 596.683 44.6591 597.456C45.2803 598.229 46.0947 598.801 47.1023 599.172C48.1098 599.543 49.197 599.729 50.3636 599.729C51.5303 599.729 52.6136 599.543 53.6136 599.172C54.6136 598.801 55.4205 598.229 56.0341 597.456C56.6477 596.683 56.9545 595.698 56.9545 594.501ZM45.4545 570.135L46.1364 572.544C45.7348 572.696 45.3447 572.919 44.9659 573.214C44.5795 573.502 44.2614 573.896 44.0114 574.396C43.7614 574.896 43.6364 575.536 43.6364 576.317C43.6364 577.385 43.8826 578.275 44.375 578.987C44.8598 579.692 45.4773 580.044 46.2273 580.044C46.8939 580.044 47.4205 579.802 47.8068 579.317C48.1932 578.832 48.5152 578.074 48.7727 577.044L49.4091 574.453C49.7879 572.893 50.3674 571.73 51.1477 570.964C51.9205 570.199 52.9167 569.817 54.1364 569.817C55.1364 569.817 56.0303 570.105 56.8182 570.68C57.6061 571.249 58.2273 572.044 58.6818 573.067C59.1364 574.089 59.3636 575.279 59.3636 576.635C59.3636 578.415 58.9773 579.889 58.2045 581.055C57.4318 582.222 56.303 582.961 54.8182 583.271L54.1818 580.726C55.1212 580.483 55.8258 580.025 56.2955 579.351C56.7652 578.669 57 577.779 57 576.68C57 575.43 56.7348 574.438 56.2045 573.703C55.6667 572.961 55.0227 572.589 54.2727 572.589C53.6667 572.589 53.1591 572.802 52.75 573.226C52.3333 573.65 52.0227 574.302 51.8182 575.18L51.1364 578.089C50.7576 579.688 50.1705 580.862 49.375 581.612C48.572 582.355 47.5682 582.726 46.3636 582.726C45.3788 582.726 44.5076 582.449 43.75 581.896C42.9924 581.336 42.3977 580.574 41.9659 579.612C41.5341 578.643 41.3182 577.544 41.3182 576.317C41.3182 574.589 41.697 573.233 42.4545 572.249C43.2121 571.256 44.2121 570.552 45.4545 570.135ZM45.4545 553.416L46.1364 555.825C45.7348 555.977 45.3447 556.2 44.9659 556.496C44.5795 556.784 44.2614 557.178 44.0114 557.678C43.7614 558.178 43.6364 558.818 43.6364 559.598C43.6364 560.666 43.8826 561.556 44.375 562.268C44.8598 562.973 45.4773 563.325 46.2273 563.325C46.8939 563.325 47.4205 563.083 47.8068 562.598C48.1932 562.113 48.5152 561.356 48.7727 560.325L49.4091 557.734C49.7879 556.174 50.3674 555.011 51.1477 554.246C51.9205 553.481 52.9167 553.098 54.1364 553.098C55.1364 553.098 56.0303 553.386 56.8182 553.962C57.6061 554.53 58.2273 555.325 58.6818 556.348C59.1364 557.371 59.3636 558.56 59.3636 559.916C59.3636 561.696 58.9773 563.17 58.2045 564.337C57.4318 565.503 56.303 566.242 54.8182 566.553L54.1818 564.007C55.1212 563.765 55.8258 563.306 56.2955 562.632C56.7652 561.95 57 561.06 57 559.962C57 558.712 56.7348 557.719 56.2045 556.984C55.6667 556.242 55.0227 555.871 54.2727 555.871C53.6667 555.871 53.1591 556.083 52.75 556.507C52.3333 556.931 52.0227 557.583 51.8182 558.462L51.1364 561.371C50.7576 562.969 50.1705 564.143 49.375 564.893C48.572 565.636 47.5682 566.007 46.3636 566.007C45.3788 566.007 44.5076 565.731 43.75 565.178C42.9924 564.617 42.3977 563.856 41.9659 562.893C41.5341 561.924 41.3182 560.825 41.3182 559.598C41.3182 557.871 41.697 556.515 42.4545 555.53C43.2121 554.537 44.2121 553.833 45.4545 553.416ZM59 538.743V541.697L35.7273 533.152V530.243L59 521.697V524.652L39.4091 531.607V531.788L59 538.743ZM49.9091 537.652V525.743H52.4091V537.652H49.9091ZM41.5455 516.436L48.6818 512.254L41.5455 508.072V504.982L50.2727 510.618L59 504.982V508.072L52.2273 512.254L59 516.436V519.527L50.2727 513.982L41.5455 519.527V516.436ZM59 501.155H41.5455V498.473H59V501.155ZM38.6364 499.791C38.6364 500.314 38.4583 500.765 38.1023 501.143C37.7462 501.515 37.3182 501.7 36.8182 501.7C36.3182 501.7 35.8902 501.515 35.5341 501.143C35.178 500.765 35 500.314 35 499.791C35 499.268 35.178 498.821 35.5341 498.45C35.8902 498.071 36.3182 497.882 36.8182 497.882C37.3182 497.882 37.7462 498.071 38.1023 498.45C38.4583 498.821 38.6364 499.268 38.6364 499.791ZM45.4545 481.197L46.1364 483.607C45.7348 483.758 45.3447 483.982 44.9659 484.277C44.5795 484.565 44.2614 484.959 44.0114 485.459C43.7614 485.959 43.6364 486.599 43.6364 487.379C43.6364 488.447 43.8826 489.338 44.375 490.05C44.8598 490.754 45.4773 491.107 46.2273 491.107C46.8939 491.107 47.4205 490.864 47.8068 490.379C48.1932 489.894 48.5152 489.137 48.7727 488.107L49.4091 485.516C49.7879 483.955 50.3674 482.792 51.1477 482.027C51.9205 481.262 52.9167 480.879 54.1364 480.879C55.1364 480.879 56.0303 481.167 56.8182 481.743C57.6061 482.311 58.2273 483.107 58.6818 484.129C59.1364 485.152 59.3636 486.341 59.3636 487.697C59.3636 489.478 58.9773 490.951 58.2045 492.118C57.4318 493.285 56.303 494.023 54.8182 494.334L54.1818 491.788C55.1212 491.546 55.8258 491.088 56.2955 490.413C56.7652 489.732 57 488.841 57 487.743C57 486.493 56.7348 485.5 56.2045 484.766C55.6667 484.023 55.0227 483.652 54.2727 483.652C53.6667 483.652 53.1591 483.864 52.75 484.288C52.3333 484.713 52.0227 485.364 51.8182 486.243L51.1364 489.152C50.7576 490.75 50.1705 491.925 49.375 492.675C48.572 493.417 47.5682 493.788 46.3636 493.788C45.3788 493.788 44.5076 493.512 43.75 492.959C42.9924 492.398 42.3977 491.637 41.9659 490.675C41.5341 489.705 41.3182 488.607 41.3182 487.379C41.3182 485.652 41.697 484.296 42.4545 483.311C43.2121 482.319 44.2121 481.614 45.4545 481.197Z" fill="currentColor"/>
<path d="M757.115 526V502.727H771.07V505.227H759.933V513.091H770.024V515.591H759.933V526H757.115ZM778.214 502.727V526H775.533V502.727H778.214ZM790.445 526.364C788.763 526.364 787.312 525.992 786.092 525.25C784.88 524.5 783.945 523.455 783.286 522.114C782.634 520.765 782.308 519.197 782.308 517.409C782.308 515.621 782.634 514.045 783.286 512.682C783.945 511.311 784.861 510.242 786.036 509.477C787.217 508.705 788.596 508.318 790.172 508.318C791.081 508.318 791.979 508.47 792.865 508.773C793.751 509.076 794.558 509.568 795.286 510.25C796.013 510.924 796.592 511.818 797.024 512.932C797.456 514.045 797.672 515.417 797.672 517.045V518.182H784.217V515.864H794.945C794.945 514.879 794.748 514 794.354 513.227C793.967 512.455 793.414 511.845 792.695 511.398C791.982 510.951 791.142 510.727 790.172 510.727C789.104 510.727 788.179 510.992 787.399 511.523C786.626 512.045 786.032 512.727 785.615 513.568C785.198 514.409 784.99 515.311 784.99 516.273V517.818C784.99 519.136 785.217 520.254 785.672 521.17C786.134 522.08 786.774 522.773 787.592 523.25C788.411 523.72 789.361 523.955 790.445 523.955C791.149 523.955 791.786 523.856 792.354 523.659C792.929 523.455 793.426 523.152 793.842 522.75C794.259 522.341 794.581 521.833 794.808 521.227L797.399 521.955C797.126 522.833 796.668 523.606 796.024 524.273C795.38 524.932 794.585 525.447 793.638 525.818C792.691 526.182 791.626 526.364 790.445 526.364ZM803.283 508.545L807.464 515.682L811.646 508.545H814.737L809.101 517.273L814.737 526H811.646L807.464 519.227L803.283 526H800.192L805.737 517.273L800.192 508.545H803.283ZM846.655 510H843.837C843.67 509.189 843.378 508.477 842.962 507.864C842.553 507.25 842.053 506.735 841.462 506.318C840.878 505.894 840.231 505.576 839.518 505.364C838.806 505.152 838.064 505.045 837.291 505.045C835.882 505.045 834.606 505.402 833.462 506.114C832.325 506.826 831.42 507.875 830.746 509.261C830.079 510.648 829.746 512.348 829.746 514.364C829.746 516.379 830.079 518.08 830.746 519.466C831.42 520.852 832.325 521.902 833.462 522.614C834.606 523.326 835.882 523.682 837.291 523.682C838.064 523.682 838.806 523.576 839.518 523.364C840.231 523.152 840.878 522.837 841.462 522.42C842.053 521.996 842.553 521.477 842.962 520.864C843.378 520.242 843.67 519.53 843.837 518.727H846.655C846.443 519.917 846.056 520.981 845.496 521.92C844.935 522.86 844.238 523.659 843.405 524.318C842.571 524.97 841.636 525.466 840.598 525.807C839.568 526.148 838.465 526.318 837.291 526.318C835.306 526.318 833.541 525.833 831.996 524.864C830.45 523.894 829.234 522.515 828.348 520.727C827.462 518.939 827.018 516.818 827.018 514.364C827.018 511.909 827.462 509.788 828.348 508C829.234 506.212 830.45 504.833 831.996 503.864C833.541 502.894 835.306 502.409 837.291 502.409C838.465 502.409 839.568 502.58 840.598 502.92C841.636 503.261 842.571 503.761 843.405 504.42C844.238 505.072 844.935 505.867 845.496 506.807C846.056 507.739 846.443 508.803 846.655 510ZM857.936 526.364C856.36 526.364 854.978 525.989 853.788 525.239C852.607 524.489 851.682 523.439 851.016 522.091C850.357 520.742 850.027 519.167 850.027 517.364C850.027 515.545 850.357 513.958 851.016 512.602C851.682 511.246 852.607 510.193 853.788 509.443C854.978 508.693 856.36 508.318 857.936 508.318C859.512 508.318 860.891 508.693 862.072 509.443C863.262 510.193 864.186 511.246 864.845 512.602C865.512 513.958 865.845 515.545 865.845 517.364C865.845 519.167 865.512 520.742 864.845 522.091C864.186 523.439 863.262 524.489 862.072 525.239C860.891 525.989 859.512 526.364 857.936 526.364ZM857.936 523.955C859.133 523.955 860.118 523.648 860.891 523.034C861.663 522.42 862.235 521.614 862.607 520.614C862.978 519.614 863.163 518.53 863.163 517.364C863.163 516.197 862.978 515.11 862.607 514.102C862.235 513.095 861.663 512.28 860.891 511.659C860.118 511.038 859.133 510.727 857.936 510.727C856.739 510.727 855.754 511.038 854.982 511.659C854.209 512.28 853.637 513.095 853.266 514.102C852.894 515.11 852.709 516.197 852.709 517.364C852.709 518.53 852.894 519.614 853.266 520.614C853.637 521.614 854.209 522.42 854.982 523.034C855.754 523.648 856.739 523.955 857.936 523.955ZM872.621 515.5V526H869.939V508.545H872.53V511.273H872.757C873.166 510.386 873.787 509.674 874.621 509.136C875.454 508.591 876.53 508.318 877.848 508.318C879.03 508.318 880.064 508.561 880.95 509.045C881.837 509.523 882.526 510.25 883.018 511.227C883.511 512.197 883.757 513.424 883.757 514.909V526H881.075V515.091C881.075 513.72 880.719 512.652 880.007 511.886C879.295 511.114 878.318 510.727 877.075 510.727C876.219 510.727 875.454 510.913 874.78 511.284C874.113 511.655 873.587 512.197 873.2 512.909C872.814 513.621 872.621 514.485 872.621 515.5ZM896.249 508.545V510.818H887.203V508.545H896.249ZM889.839 504.364H892.521V521C892.521 521.758 892.631 522.326 892.851 522.705C893.078 523.076 893.366 523.326 893.714 523.455C894.071 523.576 894.446 523.636 894.839 523.636C895.135 523.636 895.377 523.621 895.567 523.591C895.756 523.553 895.908 523.523 896.021 523.5L896.567 525.909C896.385 525.977 896.131 526.045 895.805 526.114C895.48 526.189 895.067 526.227 894.567 526.227C893.809 526.227 893.067 526.064 892.339 525.739C891.62 525.413 891.021 524.917 890.544 524.25C890.074 523.583 889.839 522.742 889.839 521.727V504.364ZM905.419 526.409C904.313 526.409 903.309 526.201 902.408 525.784C901.506 525.36 900.79 524.75 900.26 523.955C899.73 523.152 899.464 522.182 899.464 521.045C899.464 520.045 899.661 519.235 900.055 518.614C900.449 517.985 900.976 517.492 901.635 517.136C902.294 516.78 903.021 516.515 903.817 516.341C904.62 516.159 905.427 516.015 906.237 515.909C907.298 515.773 908.158 515.67 908.817 515.602C909.483 515.527 909.968 515.402 910.271 515.227C910.582 515.053 910.737 514.75 910.737 514.318V514.227C910.737 513.106 910.43 512.235 909.817 511.614C909.211 510.992 908.29 510.682 907.055 510.682C905.775 510.682 904.771 510.962 904.044 511.523C903.317 512.083 902.805 512.682 902.51 513.318L899.964 512.409C900.419 511.348 901.025 510.523 901.783 509.932C902.548 509.333 903.381 508.917 904.283 508.682C905.192 508.439 906.086 508.318 906.964 508.318C907.525 508.318 908.169 508.386 908.896 508.523C909.631 508.652 910.339 508.92 911.021 509.33C911.711 509.739 912.283 510.356 912.737 511.182C913.192 512.008 913.419 513.114 913.419 514.5V526H910.737V523.636H910.601C910.419 524.015 910.116 524.42 909.692 524.852C909.268 525.284 908.703 525.652 907.999 525.955C907.294 526.258 906.434 526.409 905.419 526.409ZM905.828 524C906.889 524 907.783 523.792 908.51 523.375C909.245 522.958 909.798 522.42 910.169 521.761C910.548 521.102 910.737 520.409 910.737 519.682V517.227C910.624 517.364 910.374 517.489 909.987 517.602C909.608 517.708 909.169 517.803 908.669 517.886C908.177 517.962 907.696 518.03 907.226 518.091C906.764 518.144 906.389 518.189 906.101 518.227C905.404 518.318 904.752 518.466 904.146 518.67C903.548 518.867 903.063 519.167 902.692 519.568C902.328 519.962 902.146 520.5 902.146 521.182C902.146 522.114 902.491 522.818 903.18 523.295C903.877 523.765 904.76 524 905.828 524ZM918.314 526V508.545H920.996V526H918.314ZM919.678 505.636C919.155 505.636 918.704 505.458 918.325 505.102C917.954 504.746 917.768 504.318 917.768 503.818C917.768 503.318 917.954 502.89 918.325 502.534C918.704 502.178 919.155 502 919.678 502C920.2 502 920.647 502.178 921.018 502.534C921.397 502.89 921.587 503.318 921.587 503.818C921.587 504.318 921.397 504.746 921.018 505.102C920.647 505.458 920.2 505.636 919.678 505.636ZM928.589 515.5V526H925.908V508.545H928.499V511.273H928.726C929.135 510.386 929.756 509.674 930.589 509.136C931.423 508.591 932.499 508.318 933.817 508.318C934.999 508.318 936.033 508.561 936.919 509.045C937.805 509.523 938.495 510.25 938.987 511.227C939.48 512.197 939.726 513.424 939.726 514.909V526H937.044V515.091C937.044 513.72 936.688 512.652 935.976 511.886C935.264 511.114 934.286 510.727 933.044 510.727C932.188 510.727 931.423 510.913 930.749 511.284C930.082 511.655 929.555 512.197 929.169 512.909C928.783 513.621 928.589 514.485 928.589 515.5ZM951.945 526.364C950.263 526.364 948.812 525.992 947.592 525.25C946.38 524.5 945.445 523.455 944.786 522.114C944.134 520.765 943.808 519.197 943.808 517.409C943.808 515.621 944.134 514.045 944.786 512.682C945.445 511.311 946.361 510.242 947.536 509.477C948.717 508.705 950.096 508.318 951.672 508.318C952.581 508.318 953.479 508.47 954.365 508.773C955.251 509.076 956.058 509.568 956.786 510.25C957.513 510.924 958.092 511.818 958.524 512.932C958.956 514.045 959.172 515.417 959.172 517.045V518.182H945.717V515.864H956.445C956.445 514.879 956.248 514 955.854 513.227C955.467 512.455 954.914 511.845 954.195 511.398C953.482 510.951 952.642 510.727 951.672 510.727C950.604 510.727 949.679 510.992 948.899 511.523C948.126 512.045 947.532 512.727 947.115 513.568C946.698 514.409 946.49 515.311 946.49 516.273V517.818C946.49 519.136 946.717 520.254 947.172 521.17C947.634 522.08 948.274 522.773 949.092 523.25C949.911 523.72 950.861 523.955 951.945 523.955C952.649 523.955 953.286 523.856 953.854 523.659C954.429 523.455 954.926 523.152 955.342 522.75C955.759 522.341 956.081 521.833 956.308 521.227L958.899 521.955C958.626 522.833 958.168 523.606 957.524 524.273C956.88 524.932 956.085 525.447 955.138 525.818C954.191 526.182 953.126 526.364 951.945 526.364ZM963.251 526V508.545H965.842V511.182H966.024C966.342 510.318 966.918 509.617 967.751 509.08C968.585 508.542 969.524 508.273 970.57 508.273C970.767 508.273 971.013 508.277 971.308 508.284C971.604 508.292 971.827 508.303 971.979 508.318V511.045C971.888 511.023 971.679 510.989 971.354 510.943C971.036 510.89 970.698 510.864 970.342 510.864C969.494 510.864 968.736 511.042 968.07 511.398C967.411 511.746 966.888 512.231 966.501 512.852C966.123 513.466 965.933 514.167 965.933 514.955V526H963.251Z" fill="currentColor" fill-opacity="0.5"/>
</svg>
