<svg viewBox="0 0 1728 1117" fill="none" xmlns="http://www.w3.org/2000/svg">
<rect width="1728" height="1117" fill="var(--doc-bg)"/>
<path d="M1657.71 1061.71C1658.1 1061.32 1658.1 1060.68 1657.71 1060.29L1651.34 1053.93C1650.95 1053.54 1650.32 1053.54 1649.93 1053.93C1649.54 1054.32 1649.54 1054.95 1649.93 1055.34L1655.59 1061L1649.93 1066.66C1649.54 1067.05 1649.54 1067.68 1649.93 1068.07C1650.32 1068.46 1650.95 1068.46 1651.34 1068.07L1657.71 1061.71ZM73 1061V1062H1657V1061V1060H73V1061Z" fill="currentColor"/>
<path d="M794.303 1010.73H797.666L805.575 1030.05H805.848L813.757 1010.73H817.121V1034H814.484V1016.32H814.257L806.984 1034H804.439L797.166 1016.32H796.939V1034H794.303V1010.73ZM827.544 1034.41C826.438 1034.41 825.434 1034.2 824.533 1033.78C823.631 1033.36 822.915 1032.75 822.385 1031.95C821.855 1031.15 821.589 1030.18 821.589 1029.05C821.589 1028.05 821.786 1027.23 822.18 1026.61C822.574 1025.98 823.101 1025.49 823.76 1025.14C824.419 1024.78 825.146 1024.52 825.942 1024.34C826.745 1024.16 827.552 1024.02 828.362 1023.91C829.423 1023.77 830.283 1023.67 830.942 1023.6C831.608 1023.53 832.093 1023.4 832.396 1023.23C832.707 1023.05 832.862 1022.75 832.862 1022.32V1022.23C832.862 1021.11 832.555 1020.23 831.942 1019.61C831.336 1018.99 830.415 1018.68 829.18 1018.68C827.9 1018.68 826.896 1018.96 826.169 1019.52C825.442 1020.08 824.93 1020.68 824.635 1021.32L822.089 1020.41C822.544 1019.35 823.15 1018.52 823.908 1017.93C824.673 1017.33 825.506 1016.92 826.408 1016.68C827.317 1016.44 828.211 1016.32 829.089 1016.32C829.65 1016.32 830.294 1016.39 831.021 1016.52C831.756 1016.65 832.464 1016.92 833.146 1017.33C833.836 1017.74 834.408 1018.36 834.862 1019.18C835.317 1020.01 835.544 1021.11 835.544 1022.5V1034H832.862V1031.64H832.726C832.544 1032.02 832.241 1032.42 831.817 1032.85C831.393 1033.28 830.828 1033.65 830.124 1033.95C829.419 1034.26 828.559 1034.41 827.544 1034.41ZM827.953 1032C829.014 1032 829.908 1031.79 830.635 1031.38C831.37 1030.96 831.923 1030.42 832.294 1029.76C832.673 1029.1 832.862 1028.41 832.862 1027.68V1025.23C832.749 1025.36 832.499 1025.49 832.112 1025.6C831.733 1025.71 831.294 1025.8 830.794 1025.89C830.302 1025.96 829.821 1026.03 829.351 1026.09C828.889 1026.14 828.514 1026.19 828.226 1026.23C827.529 1026.32 826.877 1026.47 826.271 1026.67C825.673 1026.87 825.188 1027.17 824.817 1027.57C824.453 1027.96 824.271 1028.5 824.271 1029.18C824.271 1030.11 824.616 1030.82 825.305 1031.3C826.002 1031.77 826.885 1032 827.953 1032ZM840.439 1034V1016.55H843.121V1034H840.439ZM841.803 1013.64C841.28 1013.64 840.829 1013.46 840.45 1013.1C840.079 1012.75 839.893 1012.32 839.893 1011.82C839.893 1011.32 840.079 1010.89 840.45 1010.53C840.829 1010.18 841.28 1010 841.803 1010C842.325 1010 842.772 1010.18 843.143 1010.53C843.522 1010.89 843.712 1011.32 843.712 1011.82C843.712 1012.32 843.522 1012.75 843.143 1013.1C842.772 1013.46 842.325 1013.64 841.803 1013.64ZM850.714 1023.5V1034H848.033V1016.55H850.624V1019.27H850.851C851.26 1018.39 851.881 1017.67 852.714 1017.14C853.548 1016.59 854.624 1016.32 855.942 1016.32C857.124 1016.32 858.158 1016.56 859.044 1017.05C859.93 1017.52 860.62 1018.25 861.112 1019.23C861.605 1020.2 861.851 1021.42 861.851 1022.91V1034H859.169V1023.09C859.169 1021.72 858.813 1020.65 858.101 1019.89C857.389 1019.11 856.411 1018.73 855.169 1018.73C854.313 1018.73 853.548 1018.91 852.874 1019.28C852.207 1019.66 851.68 1020.2 851.294 1020.91C850.908 1021.62 850.714 1022.48 850.714 1023.5ZM877.07 1034H874.115L882.661 1010.73H885.57L894.115 1034H891.161L884.206 1014.41H884.024L877.07 1034ZM878.161 1024.91H890.07V1027.41H878.161V1024.91ZM899.376 1016.55L903.558 1023.68L907.74 1016.55H910.831L905.195 1025.27L910.831 1034H907.74L903.558 1027.23L899.376 1034H896.286L901.831 1025.27L896.286 1016.55H899.376ZM914.658 1034V1016.55H917.339V1034H914.658ZM916.021 1013.64C915.499 1013.64 915.048 1013.46 914.669 1013.1C914.298 1012.75 914.112 1012.32 914.112 1011.82C914.112 1011.32 914.298 1010.89 914.669 1010.53C915.048 1010.18 915.499 1010 916.021 1010C916.544 1010 916.991 1010.18 917.362 1010.53C917.741 1010.89 917.93 1011.32 917.93 1011.82C917.93 1012.32 917.741 1012.75 917.362 1013.1C916.991 1013.46 916.544 1013.64 916.021 1013.64ZM934.615 1020.45L932.206 1021.14C932.054 1020.73 931.831 1020.34 931.536 1019.97C931.248 1019.58 930.854 1019.26 930.354 1019.01C929.854 1018.76 929.214 1018.64 928.433 1018.64C927.365 1018.64 926.475 1018.88 925.763 1019.38C925.058 1019.86 924.706 1020.48 924.706 1021.23C924.706 1021.89 924.948 1022.42 925.433 1022.81C925.918 1023.19 926.676 1023.52 927.706 1023.77L930.297 1024.41C931.857 1024.79 933.02 1025.37 933.786 1026.15C934.551 1026.92 934.933 1027.92 934.933 1029.14C934.933 1030.14 934.645 1031.03 934.07 1031.82C933.501 1032.61 932.706 1033.23 931.683 1033.68C930.661 1034.14 929.471 1034.36 928.115 1034.36C926.335 1034.36 924.861 1033.98 923.695 1033.2C922.528 1032.43 921.789 1031.3 921.479 1029.82L924.024 1029.18C924.267 1030.12 924.725 1030.83 925.399 1031.3C926.081 1031.77 926.971 1032 928.07 1032C929.32 1032 930.312 1031.73 931.047 1031.2C931.789 1030.67 932.161 1030.02 932.161 1029.27C932.161 1028.67 931.948 1028.16 931.524 1027.75C931.1 1027.33 930.448 1027.02 929.57 1026.82L926.661 1026.14C925.062 1025.76 923.888 1025.17 923.138 1024.38C922.395 1023.57 922.024 1022.57 922.024 1021.36C922.024 1020.38 922.301 1019.51 922.854 1018.75C923.414 1017.99 924.176 1017.4 925.138 1016.97C926.107 1016.53 927.206 1016.32 928.433 1016.32C930.161 1016.32 931.517 1016.7 932.501 1017.45C933.494 1018.21 934.198 1019.21 934.615 1020.45Z" fill="currentColor"/>
<path d="M73.2068 30.2923C72.816 29.9019 72.1829 29.9023 71.7926 30.2929L65.4317 36.66C65.0413 37.0507 65.0417 37.6839 65.4324 38.0742C65.8231 38.4646 66.4562 38.4643 66.8466 38.0735L72.5007 32.4139L78.1603 38.0681C78.551 38.4584 79.1842 38.4581 79.5745 38.0674C79.9648 37.6767 79.9645 37.0435 79.5738 36.6532L73.2068 30.2923ZM73 1061L74 1061L73.5 30.9993L72.5 30.9998L71.5 31.0002L72 1061L73 1061Z" fill="currentColor"/>
<path d="M43 617.158V619.976C42.1894 620.143 41.4773 620.434 40.8636 620.851C40.25 621.26 39.7348 621.76 39.3182 622.351C38.8939 622.934 38.5758 623.582 38.3636 624.294C38.1515 625.006 38.0455 625.749 38.0455 626.521C38.0455 627.93 38.4015 629.207 39.1136 630.351C39.8258 631.487 40.875 632.393 42.2614 633.067C43.6477 633.733 45.3485 634.067 47.3636 634.067C49.3788 634.067 51.0795 633.733 52.4659 633.067C53.8523 632.393 54.9015 631.487 55.6136 630.351C56.3258 629.207 56.6818 627.93 56.6818 626.521C56.6818 625.749 56.5758 625.006 56.3636 624.294C56.1515 623.582 55.8371 622.934 55.4205 622.351C54.9962 621.76 54.4773 621.26 53.8636 620.851C53.2424 620.434 52.5303 620.143 51.7273 619.976V617.158C52.9167 617.37 53.9811 617.756 54.9205 618.317C55.8598 618.877 56.6591 619.574 57.3182 620.408C57.9697 621.241 58.4659 622.177 58.8068 623.214C59.1477 624.245 59.3182 625.347 59.3182 626.521C59.3182 628.506 58.8333 630.271 57.8636 631.817C56.8939 633.362 55.5152 634.578 53.7273 635.464C51.9394 636.351 49.8182 636.794 47.3636 636.794C44.9091 636.794 42.7879 636.351 41 635.464C39.2121 634.578 37.8333 633.362 36.8636 631.817C35.8939 630.271 35.4091 628.506 35.4091 626.521C35.4091 625.347 35.5795 624.245 35.9205 623.214C36.2614 622.177 36.7614 621.241 37.4205 620.408C38.072 619.574 38.8674 618.877 39.8068 618.317C40.7386 617.756 41.803 617.37 43 617.158ZM59 612.967H41.5455V610.376H44.1818V610.195C43.3182 609.876 42.6174 609.301 42.0795 608.467C41.5417 607.634 41.2727 606.695 41.2727 605.649C41.2727 605.452 41.2765 605.206 41.2841 604.911C41.2917 604.615 41.303 604.392 41.3182 604.24H44.0455C44.0227 604.331 43.9886 604.539 43.9432 604.865C43.8902 605.183 43.8636 605.52 43.8636 605.876C43.8636 606.725 44.0417 607.482 44.3977 608.149C44.7462 608.808 45.2311 609.331 45.8523 609.717C46.4659 610.096 47.1667 610.286 47.9545 610.286H59V612.967ZM59.3636 594.501C59.3636 596.077 58.9886 597.46 58.2386 598.649C57.4886 599.831 56.4394 600.755 55.0909 601.422C53.7424 602.081 52.1667 602.411 50.3636 602.411C48.5455 602.411 46.9583 602.081 45.6023 601.422C44.2462 600.755 43.1932 599.831 42.4432 598.649C41.6932 597.46 41.3182 596.077 41.3182 594.501C41.3182 592.926 41.6932 591.547 42.4432 590.365C43.1932 589.176 44.2462 588.251 45.6023 587.592C46.9583 586.926 48.5455 586.592 50.3636 586.592C52.1667 586.592 53.7424 586.926 55.0909 587.592C56.4394 588.251 57.4886 589.176 58.2386 590.365C58.9886 591.547 59.3636 592.926 59.3636 594.501ZM56.9545 594.501C56.9545 593.304 56.6477 592.32 56.0341 591.547C55.4205 590.774 54.6136 590.202 53.6136 589.831C52.6136 589.46 51.5303 589.274 50.3636 589.274C49.197 589.274 48.1098 589.46 47.1023 589.831C46.0947 590.202 45.2803 590.774 44.6591 591.547C44.0379 592.32 43.7273 593.304 43.7273 594.501C43.7273 595.698 44.0379 596.683 44.6591 597.456C45.2803 598.229 46.0947 598.801 47.1023 599.172C48.1098 599.543 49.197 599.729 50.3636 599.729C51.5303 599.729 52.6136 599.543 53.6136 599.172C54.6136 598.801 55.4205 598.229 56.0341 597.456C56.6477 596.683 56.9545 595.698 56.9545 594.501ZM45.4545 570.135L46.1364 572.544C45.7348 572.696 45.3447 572.919 44.9659 573.214C44.5795 573.502 44.2614 573.896 44.0114 574.396C43.7614 574.896 43.6364 575.536 43.6364 576.317C43.6364 577.385 43.8826 578.275 44.375 578.987C44.8598 579.692 45.4773 580.044 46.2273 580.044C46.8939 580.044 47.4205 579.802 47.8068 579.317C48.1932 578.832 48.5152 578.074 48.7727 577.044L49.4091 574.453C49.7879 572.893 50.3674 571.73 51.1477 570.964C51.9205 570.199 52.9167 569.817 54.1364 569.817C55.1364 569.817 56.0303 570.105 56.8182 570.68C57.6061 571.249 58.2273 572.044 58.6818 573.067C59.1364 574.089 59.3636 575.279 59.3636 576.635C59.3636 578.415 58.9773 579.889 58.2045 581.055C57.4318 582.222 56.303 582.961 54.8182 583.271L54.1818 580.726C55.1212 580.483 55.8258 580.025 56.2955 579.351C56.7652 578.669 57 577.779 57 576.68C57 575.43 56.7348 574.438 56.2045 573.703C55.6667 572.961 55.0227 572.589 54.2727 572.589C53.6667 572.589 53.1591 572.802 52.75 573.226C52.3333 573.65 52.0227 574.302 51.8182 575.18L51.1364 578.089C50.7576 579.688 50.1705 580.862 49.375 581.612C48.572 582.355 47.5682 582.726 46.3636 582.726C45.3788 582.726 44.5076 582.449 43.75 581.896C42.9924 581.336 42.3977 580.574 41.9659 579.612C41.5341 578.643 41.3182 577.544 41.3182 576.317C41.3182 574.589 41.697 573.233 42.4545 572.249C43.2121 571.256 44.2121 570.552 45.4545 570.135ZM45.4545 553.416L46.1364 555.825C45.7348 555.977 45.3447 556.2 44.9659 556.496C44.5795 556.784 44.2614 557.178 44.0114 557.678C43.7614 558.178 43.6364 558.818 43.6364 559.598C43.6364 560.666 43.8826 561.556 44.375 562.268C44.8598 562.973 45.4773 563.325 46.2273 563.325C46.8939 563.325 47.4205 563.083 47.8068 562.598C48.1932 562.113 48.5152 561.356 48.7727 560.325L49.4091 557.734C49.7879 556.174 50.3674 555.011 51.1477 554.246C51.9205 553.481 52.9167 553.098 54.1364 553.098C55.1364 553.098 56.0303 553.386 56.8182 553.962C57.6061 554.53 58.2273 555.325 58.6818 556.348C59.1364 557.371 59.3636 558.56 59.3636 559.916C59.3636 561.696 58.9773 563.17 58.2045 564.337C57.4318 565.503 56.303 566.242 54.8182 566.553L54.1818 564.007C55.1212 563.765 55.8258 563.306 56.2955 562.632C56.7652 561.95 57 561.06 57 559.962C57 558.712 56.7348 557.719 56.2045 556.984C55.6667 556.242 55.0227 555.871 54.2727 555.871C53.6667 555.871 53.1591 556.083 52.75 556.507C52.3333 556.931 52.0227 557.583 51.8182 558.462L51.1364 561.371C50.7576 562.969 50.1705 564.143 49.375 564.893C48.572 565.636 47.5682 566.007 46.3636 566.007C45.3788 566.007 44.5076 565.731 43.75 565.178C42.9924 564.617 42.3977 563.856 41.9659 562.893C41.5341 561.924 41.3182 560.825 41.3182 559.598C41.3182 557.871 41.697 556.515 42.4545 555.53C43.2121 554.537 44.2121 553.833 45.4545 553.416ZM59 538.743V541.697L35.7273 533.152V530.243L59 521.697V524.652L39.4091 531.607V531.788L59 538.743ZM49.9091 537.652V525.743H52.4091V537.652H49.9091ZM41.5455 516.436L48.6818 512.254L41.5455 508.072V504.982L50.2727 510.618L59 504.982V508.072L52.2273 512.254L59 516.436V519.527L50.2727 513.982L41.5455 519.527V516.436ZM59 501.155H41.5455V498.473H59V501.155ZM38.6364 499.791C38.6364 500.314 38.4583 500.765 38.1023 501.143C37.7462 501.515 37.3182 501.7 36.8182 501.7C36.3182 501.7 35.8902 501.515 35.5341 501.143C35.178 500.765 35 500.314 35 499.791C35 499.268 35.178 498.821 35.5341 498.45C35.8902 498.071 36.3182 497.882 36.8182 497.882C37.3182 497.882 37.7462 498.071 38.1023 498.45C38.4583 498.821 38.6364 499.268 38.6364 499.791ZM45.4545 481.197L46.1364 483.607C45.7348 483.758 45.3447 483.982 44.9659 484.277C44.5795 484.565 44.2614 484.959 44.0114 485.459C43.7614 485.959 43.6364 486.599 43.6364 487.379C43.6364 488.447 43.8826 489.338 44.375 490.05C44.8598 490.754 45.4773 491.107 46.2273 491.107C46.8939 491.107 47.4205 490.864 47.8068 490.379C48.1932 489.894 48.5152 489.137 48.7727 488.107L49.4091 485.516C49.7879 483.955 50.3674 482.792 51.1477 482.027C51.9205 481.262 52.9167 480.879 54.1364 480.879C55.1364 480.879 56.0303 481.167 56.8182 481.743C57.6061 482.311 58.2273 483.107 58.6818 484.129C59.1364 485.152 59.3636 486.341 59.3636 487.697C59.3636 489.478 58.9773 490.951 58.2045 492.118C57.4318 493.285 56.303 494.023 54.8182 494.334L54.1818 491.788C55.1212 491.546 55.8258 491.088 56.2955 490.413C56.7652 489.732 57 488.841 57 487.743C57 486.493 56.7348 485.5 56.2045 484.766C55.6667 484.023 55.0227 483.652 54.2727 483.652C53.6667 483.652 53.1591 483.864 52.75 484.288C52.3333 484.713 52.0227 485.364 51.8182 486.243L51.1364 489.152C50.7576 490.75 50.1705 491.925 49.375 492.675C48.572 493.417 47.5682 493.788 46.3636 493.788C45.3788 493.788 44.5076 493.512 43.75 492.959C42.9924 492.398 42.3977 491.637 41.9659 490.675C41.5341 489.705 41.3182 488.607 41.3182 487.379C41.3182 485.652 41.697 484.296 42.4545 483.311C43.2121 482.319 44.2121 481.614 45.4545 481.197Z" fill="currentColor"/>
<path d="M757.115 490V466.727H771.07V469.227H759.933V477.091H770.024V479.591H759.933V490H757.115ZM778.214 466.727V490H775.533V466.727H778.214ZM790.445 490.364C788.763 490.364 787.312 489.992 786.092 489.25C784.88 488.5 783.945 487.455 783.286 486.114C782.634 484.765 782.308 483.197 782.308 481.409C782.308 479.621 782.634 478.045 783.286 476.682C783.945 475.311 784.861 474.242 786.036 473.477C787.217 472.705 788.596 472.318 790.172 472.318C791.081 472.318 791.979 472.47 792.865 472.773C793.751 473.076 794.558 473.568 795.286 474.25C796.013 474.924 796.592 475.818 797.024 476.932C797.456 478.045 797.672 479.417 797.672 481.045V482.182H784.217V479.864H794.945C794.945 478.879 794.748 478 794.354 477.227C793.967 476.455 793.414 475.845 792.695 475.398C791.982 474.951 791.142 474.727 790.172 474.727C789.104 474.727 788.179 474.992 787.399 475.523C786.626 476.045 786.032 476.727 785.615 477.568C785.198 478.409 784.99 479.311 784.99 480.273V481.818C784.99 483.136 785.217 484.254 785.672 485.17C786.134 486.08 786.774 486.773 787.592 487.25C788.411 487.72 789.361 487.955 790.445 487.955C791.149 487.955 791.786 487.856 792.354 487.659C792.929 487.455 793.426 487.152 793.842 486.75C794.259 486.341 794.581 485.833 794.808 485.227L797.399 485.955C797.126 486.833 796.668 487.606 796.024 488.273C795.38 488.932 794.585 489.447 793.638 489.818C792.691 490.182 791.626 490.364 790.445 490.364ZM803.283 472.545L807.464 479.682L811.646 472.545H814.737L809.101 481.273L814.737 490H811.646L807.464 483.227L803.283 490H800.192L805.737 481.273L800.192 472.545H803.283ZM846.655 474H843.837C843.67 473.189 843.378 472.477 842.962 471.864C842.553 471.25 842.053 470.735 841.462 470.318C840.878 469.894 840.231 469.576 839.518 469.364C838.806 469.152 838.064 469.045 837.291 469.045C835.882 469.045 834.606 469.402 833.462 470.114C832.325 470.826 831.42 471.875 830.746 473.261C830.079 474.648 829.746 476.348 829.746 478.364C829.746 480.379 830.079 482.08 830.746 483.466C831.42 484.852 832.325 485.902 833.462 486.614C834.606 487.326 835.882 487.682 837.291 487.682C838.064 487.682 838.806 487.576 839.518 487.364C840.231 487.152 840.878 486.837 841.462 486.42C842.053 485.996 842.553 485.477 842.962 484.864C843.378 484.242 843.67 483.53 843.837 482.727H846.655C846.443 483.917 846.056 484.981 845.496 485.92C844.935 486.86 844.238 487.659 843.405 488.318C842.571 488.97 841.636 489.466 840.598 489.807C839.568 490.148 838.465 490.318 837.291 490.318C835.306 490.318 833.541 489.833 831.996 488.864C830.45 487.894 829.234 486.515 828.348 484.727C827.462 482.939 827.018 480.818 827.018 478.364C827.018 475.909 827.462 473.788 828.348 472C829.234 470.212 830.45 468.833 831.996 467.864C833.541 466.894 835.306 466.409 837.291 466.409C838.465 466.409 839.568 466.58 840.598 466.92C841.636 467.261 842.571 467.761 843.405 468.42C844.238 469.072 844.935 469.867 845.496 470.807C846.056 471.739 846.443 472.803 846.655 474ZM857.936 490.364C856.36 490.364 854.978 489.989 853.788 489.239C852.607 488.489 851.682 487.439 851.016 486.091C850.357 484.742 850.027 483.167 850.027 481.364C850.027 479.545 850.357 477.958 851.016 476.602C851.682 475.246 852.607 474.193 853.788 473.443C854.978 472.693 856.36 472.318 857.936 472.318C859.512 472.318 860.891 472.693 862.072 473.443C863.262 474.193 864.186 475.246 864.845 476.602C865.512 477.958 865.845 479.545 865.845 481.364C865.845 483.167 865.512 484.742 864.845 486.091C864.186 487.439 863.262 488.489 862.072 489.239C860.891 489.989 859.512 490.364 857.936 490.364ZM857.936 487.955C859.133 487.955 860.118 487.648 860.891 487.034C861.663 486.42 862.235 485.614 862.607 484.614C862.978 483.614 863.163 482.53 863.163 481.364C863.163 480.197 862.978 479.11 862.607 478.102C862.235 477.095 861.663 476.28 860.891 475.659C860.118 475.038 859.133 474.727 857.936 474.727C856.739 474.727 855.754 475.038 854.982 475.659C854.209 476.28 853.637 477.095 853.266 478.102C852.894 479.11 852.709 480.197 852.709 481.364C852.709 482.53 852.894 483.614 853.266 484.614C853.637 485.614 854.209 486.42 854.982 487.034C855.754 487.648 856.739 487.955 857.936 487.955ZM872.621 479.5V490H869.939V472.545H872.53V475.273H872.757C873.166 474.386 873.787 473.674 874.621 473.136C875.454 472.591 876.53 472.318 877.848 472.318C879.03 472.318 880.064 472.561 880.95 473.045C881.837 473.523 882.526 474.25 883.018 475.227C883.511 476.197 883.757 477.424 883.757 478.909V490H881.075V479.091C881.075 477.72 880.719 476.652 880.007 475.886C879.295 475.114 878.318 474.727 877.075 474.727C876.219 474.727 875.454 474.913 874.78 475.284C874.113 475.655 873.587 476.197 873.2 476.909C872.814 477.621 872.621 478.485 872.621 479.5ZM896.249 472.545V474.818H887.203V472.545H896.249ZM889.839 468.364H892.521V485C892.521 485.758 892.631 486.326 892.851 486.705C893.078 487.076 893.366 487.326 893.714 487.455C894.071 487.576 894.446 487.636 894.839 487.636C895.135 487.636 895.377 487.621 895.567 487.591C895.756 487.553 895.908 487.523 896.021 487.5L896.567 489.909C896.385 489.977 896.131 490.045 895.805 490.114C895.48 490.189 895.067 490.227 894.567 490.227C893.809 490.227 893.067 490.064 892.339 489.739C891.62 489.413 891.021 488.917 890.544 488.25C890.074 487.583 889.839 486.742 889.839 485.727V468.364ZM905.419 490.409C904.313 490.409 903.309 490.201 902.408 489.784C901.506 489.36 900.79 488.75 900.26 487.955C899.73 487.152 899.464 486.182 899.464 485.045C899.464 484.045 899.661 483.235 900.055 482.614C900.449 481.985 900.976 481.492 901.635 481.136C902.294 480.78 903.021 480.515 903.817 480.341C904.62 480.159 905.427 480.015 906.237 479.909C907.298 479.773 908.158 479.67 908.817 479.602C909.483 479.527 909.968 479.402 910.271 479.227C910.582 479.053 910.737 478.75 910.737 478.318V478.227C910.737 477.106 910.43 476.235 909.817 475.614C909.211 474.992 908.29 474.682 907.055 474.682C905.775 474.682 904.771 474.962 904.044 475.523C903.317 476.083 902.805 476.682 902.51 477.318L899.964 476.409C900.419 475.348 901.025 474.523 901.783 473.932C902.548 473.333 903.381 472.917 904.283 472.682C905.192 472.439 906.086 472.318 906.964 472.318C907.525 472.318 908.169 472.386 908.896 472.523C909.631 472.652 910.339 472.92 911.021 473.33C911.711 473.739 912.283 474.356 912.737 475.182C913.192 476.008 913.419 477.114 913.419 478.5V490H910.737V487.636H910.601C910.419 488.015 910.116 488.42 909.692 488.852C909.268 489.284 908.703 489.652 907.999 489.955C907.294 490.258 906.434 490.409 905.419 490.409ZM905.828 488C906.889 488 907.783 487.792 908.51 487.375C909.245 486.958 909.798 486.42 910.169 485.761C910.548 485.102 910.737 484.409 910.737 483.682V481.227C910.624 481.364 910.374 481.489 909.987 481.602C909.608 481.708 909.169 481.803 908.669 481.886C908.177 481.962 907.696 482.03 907.226 482.091C906.764 482.144 906.389 482.189 906.101 482.227C905.404 482.318 904.752 482.466 904.146 482.67C903.548 482.867 903.063 483.167 902.692 483.568C902.328 483.962 902.146 484.5 902.146 485.182C902.146 486.114 902.491 486.818 903.18 487.295C903.877 487.765 904.76 488 905.828 488ZM918.314 490V472.545H920.996V490H918.314ZM919.678 469.636C919.155 469.636 918.704 469.458 918.325 469.102C917.954 468.746 917.768 468.318 917.768 467.818C917.768 467.318 917.954 466.89 918.325 466.534C918.704 466.178 919.155 466 919.678 466C920.2 466 920.647 466.178 921.018 466.534C921.397 466.89 921.587 467.318 921.587 467.818C921.587 468.318 921.397 468.746 921.018 469.102C920.647 469.458 920.2 469.636 919.678 469.636ZM928.589 479.5V490H925.908V472.545H928.499V475.273H928.726C929.135 474.386 929.756 473.674 930.589 473.136C931.423 472.591 932.499 472.318 933.817 472.318C934.999 472.318 936.033 472.561 936.919 473.045C937.805 473.523 938.495 474.25 938.987 475.227C939.48 476.197 939.726 477.424 939.726 478.909V490H937.044V479.091C937.044 477.72 936.688 476.652 935.976 475.886C935.264 475.114 934.286 474.727 933.044 474.727C932.188 474.727 931.423 474.913 930.749 475.284C930.082 475.655 929.555 476.197 929.169 476.909C928.783 477.621 928.589 478.485 928.589 479.5ZM951.945 490.364C950.263 490.364 948.812 489.992 947.592 489.25C946.38 488.5 945.445 487.455 944.786 486.114C944.134 484.765 943.808 483.197 943.808 481.409C943.808 479.621 944.134 478.045 944.786 476.682C945.445 475.311 946.361 474.242 947.536 473.477C948.717 472.705 950.096 472.318 951.672 472.318C952.581 472.318 953.479 472.47 954.365 472.773C955.251 473.076 956.058 473.568 956.786 474.25C957.513 474.924 958.092 475.818 958.524 476.932C958.956 478.045 959.172 479.417 959.172 481.045V482.182H945.717V479.864H956.445C956.445 478.879 956.248 478 955.854 477.227C955.467 476.455 954.914 475.845 954.195 475.398C953.482 474.951 952.642 474.727 951.672 474.727C950.604 474.727 949.679 474.992 948.899 475.523C948.126 476.045 947.532 476.727 947.115 477.568C946.698 478.409 946.49 479.311 946.49 480.273V481.818C946.49 483.136 946.717 484.254 947.172 485.17C947.634 486.08 948.274 486.773 949.092 487.25C949.911 487.72 950.861 487.955 951.945 487.955C952.649 487.955 953.286 487.856 953.854 487.659C954.429 487.455 954.926 487.152 955.342 486.75C955.759 486.341 956.081 485.833 956.308 485.227L958.899 485.955C958.626 486.833 958.168 487.606 957.524 488.273C956.88 488.932 956.085 489.447 955.138 489.818C954.191 490.182 953.126 490.364 951.945 490.364ZM963.251 490V472.545H965.842V475.182H966.024C966.342 474.318 966.918 473.617 967.751 473.08C968.585 472.542 969.524 472.273 970.57 472.273C970.767 472.273 971.013 472.277 971.308 472.284C971.604 472.292 971.827 472.303 971.979 472.318V475.045C971.888 475.023 971.679 474.989 971.354 474.943C971.036 474.89 970.698 474.864 970.342 474.864C969.494 474.864 968.736 475.042 968.07 475.398C967.411 475.746 966.888 476.231 966.501 476.852C966.123 477.466 965.933 478.167 965.933 478.955V490H963.251ZM708.684 550.2H705.516V548.376H708.684V547.16C708.684 545.859 708.908 544.792 709.356 543.96C709.825 543.128 710.465 542.52 711.276 542.136C712.087 541.731 713.015 541.528 714.06 541.528C714.977 541.528 715.831 541.699 716.62 542.04C717.431 542.36 718.103 542.861 718.636 543.544L717.42 545.24L717.228 545.496L717.036 545.368C717.015 545.197 716.972 545.027 716.908 544.856C716.844 544.685 716.695 544.472 716.46 544.216C716.119 543.917 715.777 543.704 715.436 543.576C715.095 543.448 714.657 543.384 714.124 543.384C713.505 543.384 712.951 543.512 712.46 543.768C711.969 544.003 711.585 544.397 711.308 544.952C711.031 545.485 710.892 546.221 710.892 547.16V548.376H715.692V550.2H710.892V563H708.684V550.2ZM722.028 563V561.144H726.348V543.576H722.22V541.72H728.684V561.144H732.972V563H722.028ZM744.204 563.32C743.137 563.32 742.167 563.16 741.292 562.84C740.417 562.499 739.66 562.008 739.02 561.368C738.401 560.728 737.921 559.939 737.58 559C737.239 558.04 737.068 556.952 737.068 555.736C737.068 554.499 737.239 553.4 737.58 552.44C737.943 551.48 738.423 550.68 739.02 550.04C739.639 549.379 740.353 548.877 741.164 548.536C741.996 548.195 742.871 548.024 743.788 548.024C744.62 548.024 745.399 548.163 746.124 548.44C746.849 548.717 747.479 549.144 748.012 549.72C748.545 550.275 748.961 550.989 749.26 551.864C749.58 552.739 749.74 553.773 749.74 554.968C749.74 555.139 749.729 555.32 749.708 555.512C749.708 555.683 749.697 555.853 749.676 556.024H739.276C739.319 556.963 739.479 557.784 739.756 558.488C740.033 559.171 740.396 559.736 740.844 560.184C741.292 560.611 741.804 560.931 742.38 561.144C742.977 561.357 743.607 561.464 744.268 561.464C744.78 561.464 745.26 561.411 745.708 561.304C746.156 561.176 746.572 560.995 746.956 560.76C747.361 560.504 747.724 560.195 748.044 559.832L749.324 561.08C748.919 561.571 748.449 561.987 747.916 562.328C747.404 562.669 746.839 562.915 746.22 563.064C745.601 563.235 744.929 563.32 744.204 563.32ZM739.372 554.232H747.404C747.404 553.549 747.308 552.941 747.116 552.408C746.945 551.853 746.689 551.384 746.348 551C746.028 550.595 745.633 550.296 745.164 550.104C744.716 549.891 744.204 549.784 743.628 549.784C743.116 549.784 742.625 549.869 742.156 550.04C741.708 550.211 741.292 550.488 740.908 550.872C740.524 551.235 740.193 551.693 739.916 552.248C739.66 552.803 739.479 553.464 739.372 554.232ZM753.004 563L758.156 555.576L753.1 548.376H755.628L759.436 553.784L763.084 548.376H765.452L760.716 555.48L766.092 563H763.468L759.436 557.304L755.628 563H753.004ZM771.052 554.008V551.864H780.012V554.008H771.052ZM790.988 563.32C790.241 563.32 789.505 563.16 788.78 562.84C788.076 562.52 787.425 562.04 786.828 561.4C786.252 560.76 785.793 559.949 785.452 558.968C785.111 557.987 784.94 556.845 784.94 555.544C784.94 554.2 785.121 553.059 785.484 552.12C785.847 551.16 786.327 550.381 786.924 549.784C787.521 549.165 788.183 548.717 788.908 548.44C789.633 548.141 790.369 547.992 791.116 547.992C791.799 547.992 792.407 548.099 792.94 548.312C793.495 548.525 793.975 548.824 794.38 549.208C794.807 549.571 795.137 550.008 795.372 550.52V541.72H797.484H797.804V541.944C797.676 542.072 797.591 542.211 797.548 542.36C797.527 542.509 797.516 542.765 797.516 543.128L797.548 560.728C797.548 561.112 797.559 561.496 797.58 561.88C797.623 562.243 797.719 562.616 797.868 563H795.596C795.489 562.744 795.415 562.488 795.372 562.232C795.329 561.976 795.297 561.731 795.276 561.496C795.276 561.24 795.276 560.984 795.276 560.728C794.977 561.24 794.615 561.699 794.188 562.104C793.761 562.488 793.281 562.787 792.748 563C792.215 563.213 791.628 563.32 790.988 563.32ZM791.34 561.304C792.044 561.304 792.641 561.165 793.132 560.888C793.623 560.589 794.017 560.184 794.316 559.672C794.615 559.139 794.828 558.531 794.956 557.848C795.105 557.144 795.18 556.397 795.18 555.608C795.18 554.52 795.041 553.549 794.764 552.696C794.487 551.821 794.049 551.139 793.452 550.648C792.855 550.136 792.087 549.88 791.148 549.88C790.508 549.88 789.932 550.008 789.42 550.264C788.929 550.499 788.513 550.851 788.172 551.32C787.852 551.789 787.607 552.355 787.436 553.016C787.265 553.656 787.18 554.381 787.18 555.192C787.18 556.408 787.34 557.475 787.66 558.392C787.98 559.309 788.449 560.024 789.068 560.536C789.687 561.048 790.444 561.304 791.34 561.304ZM802.7 563V561.144H806.444V550.232H802.892V548.376H808.748V561.144H812.172V563H802.7ZM807.468 545.304C807.02 545.304 806.636 545.144 806.316 544.824C805.996 544.504 805.836 544.12 805.836 543.672C805.836 543.203 805.985 542.808 806.284 542.488C806.604 542.168 806.999 542.008 807.468 542.008C807.916 542.008 808.3 542.179 808.62 542.52C808.961 542.84 809.132 543.224 809.132 543.672C809.132 544.12 808.961 544.504 808.62 544.824C808.3 545.144 807.916 545.304 807.468 545.304ZM819.308 548.376H821.708L821.612 552.632L821.324 552.152C821.452 551.491 821.676 550.904 821.996 550.392C822.316 549.88 822.7 549.453 823.148 549.112C823.596 548.749 824.087 548.483 824.62 548.312C825.153 548.12 825.708 548.024 826.284 548.024C827.052 548.024 827.756 548.163 828.396 548.44C829.057 548.696 829.644 549.091 830.156 549.624L829.132 551.416L829.004 551.704L828.78 551.576C828.737 551.405 828.673 551.245 828.588 551.096C828.503 550.947 828.321 550.765 828.044 550.552C827.703 550.339 827.383 550.2 827.084 550.136C826.807 550.051 826.487 550.008 826.124 550.008C825.591 550.008 825.057 550.115 824.524 550.328C823.991 550.52 823.5 550.829 823.052 551.256C822.625 551.683 822.284 552.227 822.028 552.888C821.772 553.549 821.644 554.339 821.644 555.256V563.032H819.308V548.376ZM840.204 563.32C839.137 563.32 838.167 563.16 837.292 562.84C836.417 562.499 835.66 562.008 835.02 561.368C834.401 560.728 833.921 559.939 833.58 559C833.239 558.04 833.068 556.952 833.068 555.736C833.068 554.499 833.239 553.4 833.58 552.44C833.943 551.48 834.423 550.68 835.02 550.04C835.639 549.379 836.353 548.877 837.164 548.536C837.996 548.195 838.871 548.024 839.788 548.024C840.62 548.024 841.399 548.163 842.124 548.44C842.849 548.717 843.479 549.144 844.012 549.72C844.545 550.275 844.961 550.989 845.26 551.864C845.58 552.739 845.74 553.773 845.74 554.968C845.74 555.139 845.729 555.32 845.708 555.512C845.708 555.683 845.697 555.853 845.676 556.024H835.276C835.319 556.963 835.479 557.784 835.756 558.488C836.033 559.171 836.396 559.736 836.844 560.184C837.292 560.611 837.804 560.931 838.38 561.144C838.977 561.357 839.607 561.464 840.268 561.464C840.78 561.464 841.26 561.411 841.708 561.304C842.156 561.176 842.572 560.995 842.956 560.76C843.361 560.504 843.724 560.195 844.044 559.832L845.324 561.08C844.919 561.571 844.449 561.987 843.916 562.328C843.404 562.669 842.839 562.915 842.22 563.064C841.601 563.235 840.929 563.32 840.204 563.32ZM835.372 554.232H843.404C843.404 553.549 843.308 552.941 843.116 552.408C842.945 551.853 842.689 551.384 842.348 551C842.028 550.595 841.633 550.296 841.164 550.104C840.716 549.891 840.204 549.784 839.628 549.784C839.116 549.784 838.625 549.869 838.156 550.04C837.708 550.211 837.292 550.488 836.908 550.872C836.524 551.235 836.193 551.693 835.916 552.248C835.66 552.803 835.479 553.464 835.372 554.232ZM856.62 563.352C855.553 563.352 854.572 563.16 853.676 562.776C852.78 562.392 852.001 561.859 851.34 561.176C850.7 560.493 850.199 559.693 849.836 558.776C849.473 557.837 849.292 556.813 849.292 555.704C849.292 554.616 849.473 553.613 849.836 552.696C850.199 551.757 850.7 550.947 851.34 550.264C852.001 549.581 852.78 549.048 853.676 548.664C854.572 548.28 855.543 548.088 856.588 548.088C857.783 548.088 858.849 548.333 859.788 548.824C860.748 549.293 861.527 549.955 862.124 550.808L860.684 552.216L860.46 552.44L860.3 552.28C860.3 552.109 860.257 551.949 860.172 551.8C860.108 551.651 859.948 551.448 859.692 551.192C859.223 550.765 858.721 550.467 858.188 550.296C857.655 550.125 857.036 550.04 856.332 550.04C855.713 550.04 855.127 550.168 854.572 550.424C854.017 550.68 853.516 551.053 853.068 551.544C852.641 552.013 852.3 552.589 852.044 553.272C851.788 553.955 851.66 554.712 851.66 555.544C851.66 556.376 851.788 557.144 852.044 557.848C852.3 558.531 852.652 559.128 853.1 559.64C853.548 560.152 854.081 560.557 854.7 560.856C855.34 561.133 856.023 561.272 856.748 561.272C857.239 561.272 857.708 561.208 858.156 561.08C858.604 560.931 859.031 560.728 859.436 560.472C859.841 560.195 860.215 559.864 860.556 559.48L861.9 561.048C861.175 561.816 860.364 562.392 859.468 562.776C858.593 563.16 857.644 563.352 856.62 563.352ZM873.068 563.224C872.129 563.224 871.361 563.064 870.764 562.744C870.167 562.424 869.708 561.933 869.388 561.272C869.068 560.589 868.855 559.736 868.748 558.712C868.663 557.688 868.641 556.472 868.684 555.064L869.068 544.632L871.468 544.344L871.788 544.312L871.82 544.536C871.713 544.685 871.617 544.835 871.532 544.984C871.468 545.133 871.415 545.389 871.372 545.752L871.084 549.368L871.18 549.944L870.956 555.224C870.892 556.845 870.935 558.104 871.084 559C871.233 559.875 871.5 560.483 871.884 560.824C872.268 561.144 872.78 561.304 873.42 561.304C874.124 561.304 874.743 561.165 875.276 560.888C875.831 560.611 876.407 560.259 877.004 559.832L877.708 561.656C876.983 562.189 876.236 562.584 875.468 562.84C874.7 563.096 873.9 563.224 873.068 563.224ZM865.74 548.376H876.268V550.264H865.74V548.376ZM882.7 563V561.144H886.444V550.232H882.892V548.376H888.748V561.144H892.172V563H882.7ZM887.468 545.304C887.02 545.304 886.636 545.144 886.316 544.824C885.996 544.504 885.836 544.12 885.836 543.672C885.836 543.203 885.985 542.808 886.284 542.488C886.604 542.168 886.999 542.008 887.468 542.008C887.916 542.008 888.3 542.179 888.62 542.52C888.961 542.84 889.132 543.224 889.132 543.672C889.132 544.12 888.961 544.504 888.62 544.824C888.3 545.144 887.916 545.304 887.468 545.304ZM903.5 563.256C902.177 563.256 901.004 562.936 899.98 562.296C898.977 561.635 898.188 560.739 897.612 559.608C897.036 558.456 896.748 557.144 896.748 555.672C896.748 554.179 897.036 552.867 897.612 551.736C898.188 550.584 898.977 549.688 899.98 549.048C901.004 548.387 902.177 548.056 903.5 548.056C904.823 548.056 905.985 548.387 906.988 549.048C908.012 549.688 908.812 550.584 909.388 551.736C909.964 552.867 910.252 554.179 910.252 555.672C910.252 557.144 909.964 558.456 909.388 559.608C908.812 560.739 908.012 561.635 906.988 562.296C905.985 562.936 904.823 563.256 903.5 563.256ZM903.5 561.336C904.353 561.336 905.1 561.091 905.74 560.6C906.38 560.109 906.881 559.437 907.244 558.584C907.628 557.731 907.82 556.749 907.82 555.64C907.82 554.531 907.628 553.549 907.244 552.696C906.881 551.843 906.38 551.181 905.74 550.712C905.1 550.221 904.353 549.976 903.5 549.976C902.668 549.976 901.921 550.221 901.26 550.712C900.62 551.181 900.108 551.843 899.724 552.696C899.361 553.549 899.18 554.531 899.18 555.64C899.18 556.749 899.361 557.731 899.724 558.584C900.108 559.437 900.62 560.109 901.26 560.6C901.921 561.091 902.668 561.336 903.5 561.336ZM913.804 563V548.376H916.044V550.968C916.428 550.371 916.876 549.859 917.388 549.432C917.9 548.984 918.465 548.643 919.084 548.408C919.703 548.152 920.343 548.024 921.004 548.024C921.815 548.024 922.54 548.227 923.18 548.632C923.82 549.037 924.332 549.688 924.716 550.584C925.1 551.48 925.292 552.664 925.292 554.136V563H923.052V554.2C923.052 553.176 922.935 552.365 922.7 551.768C922.465 551.149 922.145 550.712 921.74 550.456C921.335 550.179 920.876 550.04 920.364 550.04C919.873 550.04 919.372 550.147 918.86 550.36C918.369 550.573 917.911 550.883 917.484 551.288C917.057 551.672 916.705 552.141 916.428 552.696C916.172 553.251 916.044 553.88 916.044 554.584V563H913.804ZM935.116 553.144C934.625 553.144 934.188 552.963 933.804 552.6C933.42 552.237 933.228 551.811 933.228 551.32C933.228 550.808 933.42 550.371 933.804 550.008C934.188 549.645 934.625 549.464 935.116 549.464C935.607 549.464 936.044 549.645 936.428 550.008C936.833 550.371 937.036 550.808 937.036 551.32C937.036 551.811 936.844 552.237 936.46 552.6C936.076 552.963 935.628 553.144 935.116 553.144ZM935.116 563.352C934.583 563.352 934.135 563.181 933.772 562.84C933.409 562.477 933.228 562.04 933.228 561.528C933.228 561.016 933.42 560.579 933.804 560.216C934.188 559.853 934.625 559.672 935.116 559.672C935.607 559.672 936.044 559.853 936.428 560.216C936.833 560.579 937.036 561.016 937.036 561.528C937.036 562.019 936.844 562.445 936.46 562.808C936.097 563.171 935.649 563.352 935.116 563.352ZM963.308 548.376H965.708L965.612 552.632L965.324 552.152C965.452 551.491 965.676 550.904 965.996 550.392C966.316 549.88 966.7 549.453 967.148 549.112C967.596 548.749 968.087 548.483 968.62 548.312C969.153 548.12 969.708 548.024 970.284 548.024C971.052 548.024 971.756 548.163 972.396 548.44C973.057 548.696 973.644 549.091 974.156 549.624L973.132 551.416L973.004 551.704L972.78 551.576C972.737 551.405 972.673 551.245 972.588 551.096C972.503 550.947 972.321 550.765 972.044 550.552C971.703 550.339 971.383 550.2 971.084 550.136C970.807 550.051 970.487 550.008 970.124 550.008C969.591 550.008 969.057 550.115 968.524 550.328C967.991 550.52 967.5 550.829 967.052 551.256C966.625 551.683 966.284 552.227 966.028 552.888C965.772 553.549 965.644 554.339 965.644 555.256V563.032H963.308V548.376ZM983.5 563.256C982.177 563.256 981.004 562.936 979.98 562.296C978.977 561.635 978.188 560.739 977.612 559.608C977.036 558.456 976.748 557.144 976.748 555.672C976.748 554.179 977.036 552.867 977.612 551.736C978.188 550.584 978.977 549.688 979.98 549.048C981.004 548.387 982.177 548.056 983.5 548.056C984.823 548.056 985.985 548.387 986.988 549.048C988.012 549.688 988.812 550.584 989.388 551.736C989.964 552.867 990.252 554.179 990.252 555.672C990.252 557.144 989.964 558.456 989.388 559.608C988.812 560.739 988.012 561.635 986.988 562.296C985.985 562.936 984.823 563.256 983.5 563.256ZM983.5 561.336C984.353 561.336 985.1 561.091 985.74 560.6C986.38 560.109 986.881 559.437 987.244 558.584C987.628 557.731 987.82 556.749 987.82 555.64C987.82 554.531 987.628 553.549 987.244 552.696C986.881 551.843 986.38 551.181 985.74 550.712C985.1 550.221 984.353 549.976 983.5 549.976C982.668 549.976 981.921 550.221 981.26 550.712C980.62 551.181 980.108 551.843 979.724 552.696C979.361 553.549 979.18 554.531 979.18 555.64C979.18 556.749 979.361 557.731 979.724 558.584C980.108 559.437 980.62 560.109 981.26 560.6C981.921 561.091 982.668 561.336 983.5 561.336ZM994.956 563.032L992.012 548.376H994.028L996.396 560.12L998.892 549.752H1000.3L1003.4 560.088C1003.68 558.189 1003.91 556.632 1004.08 555.416C1004.27 554.2 1004.41 553.208 1004.49 552.44C1004.6 551.651 1004.66 550.989 1004.68 550.456C1004.73 549.923 1004.75 549.389 1004.75 548.856V548.376H1006.89C1006.68 550.019 1006.44 551.661 1006.19 553.304C1005.95 554.925 1005.69 556.547 1005.39 558.168C1005.11 559.789 1004.8 561.411 1004.46 563.032H1002.28L999.596 553.56L997.036 563.032H994.956ZM1013.87 568.376L1012.78 567.416C1013.38 566.861 1013.87 566.264 1014.25 565.624C1014.66 564.984 1014.86 564.461 1014.86 564.056C1014.86 563.843 1014.77 563.64 1014.6 563.448C1014.45 563.277 1014.26 563.107 1014.03 562.936C1013.81 562.765 1013.62 562.573 1013.45 562.36C1013.3 562.125 1013.23 561.869 1013.23 561.592C1013.23 561.229 1013.3 560.909 1013.45 560.632C1013.62 560.355 1013.85 560.131 1014.12 559.96C1014.42 559.789 1014.75 559.704 1015.12 559.704C1015.67 559.704 1016.17 559.949 1016.62 560.44C1017.07 560.931 1017.29 561.571 1017.29 562.36C1017.29 562.915 1017.16 563.512 1016.91 564.152C1016.65 564.792 1016.27 565.453 1015.76 566.136C1015.27 566.84 1014.64 567.587 1013.87 568.376ZM1015.12 553.144C1014.63 553.144 1014.19 552.963 1013.8 552.6C1013.42 552.237 1013.23 551.811 1013.23 551.32C1013.23 550.808 1013.42 550.371 1013.8 550.008C1014.19 549.645 1014.63 549.464 1015.12 549.464C1015.61 549.464 1016.04 549.645 1016.43 550.008C1016.83 550.371 1017.04 550.808 1017.04 551.32C1017.04 551.811 1016.84 552.237 1016.46 552.6C1016.08 552.963 1015.63 553.144 1015.12 553.144Z" fill="currentColor" fill-opacity="0.5"/>
</svg>
