<svg viewBox="0 0 1728 1117" fill="none" xmlns="http://www.w3.org/2000/svg">
<g clip-path="url(#clip0_32_2)">
<rect width="1728" height="1117" fill="transparent"/>
<line x1="897.986" y1="566" x2="1727.99" y2="560" stroke="currentColor" stroke-opacity="0.2" stroke-width="4"/>
<line x1="744" y1="566" x2="831" y2="566" stroke="currentColor" stroke-opacity="0.2" stroke-width="4"/>
<line y1="566" x2="527.009" y2="566" stroke="currentColor" stroke-opacity="0.2" stroke-width="4"/>
<path d="M1729.41 140.414C1730.2 139.633 1730.2 138.367 1729.41 137.586L1716.69 124.858C1715.91 124.077 1714.64 124.077 1713.86 124.858C1713.08 125.639 1713.08 126.905 1713.86 127.686L1725.17 139L1713.86 150.314C1713.08 151.095 1713.08 152.361 1713.86 153.142C1714.64 153.923 1715.91 153.923 1716.69 153.142L1729.41 140.414ZM1022 139V141L1728 141V139V137L1022 137V139Z" fill="currentColor"/>
<path d="M-1.41421 137.586C-2.19526 138.367 -2.19526 139.633 -1.41421 140.414L11.3137 153.142C12.0948 153.923 13.3611 153.923 14.1421 153.142C14.9232 152.361 14.9232 151.095 14.1421 150.314L2.82843 139L14.1421 127.686C14.9232 126.905 14.9232 125.639 14.1421 124.858C13.3611 124.077 12.0948 124.077 11.3137 124.858L-1.41421 137.586ZM721 139V137L0 137V139V141L721 141V139Z" fill="currentColor"/>
<path d="M788.905 134C788.593 133.044 788.181 132.187 787.669 131.429C787.167 130.662 786.566 130.009 785.865 129.469C785.174 128.929 784.388 128.517 783.507 128.233C782.627 127.949 781.661 127.807 780.61 127.807C778.886 127.807 777.319 128.252 775.908 129.142C774.497 130.032 773.375 131.344 772.542 133.077C771.708 134.81 771.292 136.936 771.292 139.455C771.292 141.973 771.713 144.099 772.556 145.832C773.399 147.565 774.54 148.877 775.979 149.767C777.418 150.657 779.038 151.102 780.837 151.102C782.504 151.102 783.971 150.747 785.24 150.037C786.519 149.317 787.513 148.304 788.223 146.997C788.943 145.681 789.303 144.133 789.303 142.352L790.382 142.58H781.632V139.455H792.712V142.58C792.712 144.975 792.201 147.059 791.178 148.83C790.165 150.6 788.763 151.973 786.973 152.949C785.193 153.915 783.148 154.398 780.837 154.398C778.261 154.398 775.998 153.792 774.047 152.58C772.106 151.367 770.591 149.644 769.502 147.409C768.422 145.174 767.882 142.523 767.882 139.455C767.882 137.153 768.19 135.084 768.806 133.247C769.431 131.401 770.311 129.829 771.448 128.531C772.584 127.234 773.929 126.24 775.482 125.548C777.035 124.857 778.744 124.511 780.61 124.511C782.144 124.511 783.574 124.743 784.9 125.207C786.235 125.662 787.423 126.311 788.465 127.153C789.516 127.987 790.392 128.986 791.093 130.151C791.793 131.306 792.276 132.589 792.542 134H788.905ZM798.745 154V124.909H808.575C810.848 124.909 812.713 125.297 814.172 126.074C815.63 126.841 816.709 127.897 817.41 129.241C818.111 130.586 818.461 132.116 818.461 133.83C818.461 135.544 818.111 137.063 817.41 138.389C816.709 139.715 815.635 140.757 814.186 141.514C812.737 142.262 810.886 142.636 808.632 142.636H800.677V139.455H808.518C810.071 139.455 811.321 139.227 812.268 138.773C813.225 138.318 813.916 137.674 814.342 136.841C814.778 135.998 814.995 134.994 814.995 133.83C814.995 132.665 814.778 131.647 814.342 130.776C813.906 129.904 813.21 129.232 812.254 128.759C811.297 128.276 810.033 128.034 808.461 128.034H802.268V154H798.745ZM812.439 140.932L819.598 154H815.507L808.461 140.932H812.439ZM827.854 124.909V154H824.331V124.909H827.854ZM843.895 154H834.917V124.909H844.292C847.114 124.909 849.529 125.491 851.537 126.656C853.544 127.812 855.083 129.473 856.153 131.642C857.223 133.801 857.758 136.386 857.758 139.398C857.758 142.428 857.218 145.037 856.139 147.224C855.059 149.402 853.487 151.079 851.423 152.253C849.359 153.418 846.849 154 843.895 154ZM838.44 150.875H843.667C846.073 150.875 848.066 150.411 849.647 149.483C851.229 148.555 852.408 147.234 853.184 145.52C853.961 143.806 854.349 141.765 854.349 139.398C854.349 137.049 853.966 135.027 853.199 133.332C852.431 131.628 851.286 130.321 849.761 129.412C848.236 128.493 846.338 128.034 844.065 128.034H838.44V150.875ZM873.326 128.034V124.909H895.145V128.034H885.997V154H882.474V128.034H873.326ZM900.581 154V124.909H910.411C912.684 124.909 914.549 125.297 916.007 126.074C917.466 126.841 918.545 127.897 919.246 129.241C919.947 130.586 920.297 132.116 920.297 133.83C920.297 135.544 919.947 137.063 919.246 138.389C918.545 139.715 917.471 140.757 916.022 141.514C914.573 142.262 912.721 142.636 910.468 142.636H902.513V139.455H910.354C911.907 139.455 913.157 139.227 914.104 138.773C915.06 138.318 915.752 137.674 916.178 136.841C916.614 135.998 916.831 134.994 916.831 133.83C916.831 132.665 916.614 131.647 916.178 130.776C915.742 129.904 915.046 129.232 914.09 128.759C913.133 128.276 911.869 128.034 910.297 128.034H904.104V154H900.581ZM914.275 140.932L921.434 154H917.343L910.297 140.932H914.275ZM927.36 154H923.667L934.349 124.909H937.985L948.667 154H944.974L936.281 129.511H936.054L927.36 154ZM928.724 142.636H943.61V145.761H928.724V142.636ZM975.24 134H971.718C971.509 132.987 971.145 132.097 970.624 131.33C970.113 130.562 969.488 129.919 968.749 129.398C968.02 128.867 967.21 128.47 966.32 128.205C965.43 127.939 964.502 127.807 963.536 127.807C961.775 127.807 960.179 128.252 958.749 129.142C957.328 130.032 956.197 131.344 955.354 133.077C954.521 134.81 954.104 136.936 954.104 139.455C954.104 141.973 954.521 144.099 955.354 145.832C956.197 147.565 957.328 148.877 958.749 149.767C960.179 150.657 961.775 151.102 963.536 151.102C964.502 151.102 965.43 150.97 966.32 150.705C967.21 150.439 968.02 150.046 968.749 149.526C969.488 148.995 970.113 148.347 970.624 147.58C971.145 146.803 971.509 145.913 971.718 144.909H975.24C974.975 146.396 974.492 147.726 973.792 148.901C973.091 150.075 972.22 151.074 971.178 151.898C970.136 152.712 968.967 153.332 967.669 153.759C966.382 154.185 965.004 154.398 963.536 154.398C961.055 154.398 958.848 153.792 956.917 152.58C954.985 151.367 953.465 149.644 952.357 147.409C951.249 145.174 950.695 142.523 950.695 139.455C950.695 136.386 951.249 133.735 952.357 131.5C953.465 129.265 954.985 127.542 956.917 126.33C958.848 125.117 961.055 124.511 963.536 124.511C965.004 124.511 966.382 124.724 967.669 125.151C968.967 125.577 970.136 126.202 971.178 127.026C972.22 127.84 973.091 128.834 973.792 130.009C974.492 131.173 974.975 132.504 975.24 134ZM980.933 154V124.909H984.456V139.341H984.797L997.865 124.909H1002.47L990.251 138.034L1002.47 154H998.206L988.092 140.477L984.456 144.568V154H980.933Z" fill="currentColor"/>
<path d="M209.586 1118.41C210.367 1119.2 211.633 1119.2 212.414 1118.41L225.142 1105.69C225.923 1104.91 225.923 1103.64 225.142 1102.86C224.361 1102.08 223.095 1102.08 222.314 1102.86L211 1114.17L199.686 1102.86C198.905 1102.08 197.639 1102.08 196.858 1102.86C196.077 1103.64 196.077 1104.91 196.858 1105.69L209.586 1118.41ZM211 629H209L209 1117H211H213L213 629H211Z" fill="currentColor"/>
<path d="M212.414 3.58579C211.633 2.80474 210.367 2.80474 209.586 3.58579L196.858 16.3137C196.077 17.0948 196.077 18.3611 196.858 19.1421C197.639 19.9232 198.905 19.9232 199.686 19.1421L211 7.82843L222.314 19.1421C223.095 19.9232 224.361 19.9232 225.142 19.1421C225.923 18.3611 225.923 17.0948 225.142 16.3137L212.414 3.58579ZM211 503H213L213 5H211H209L209 503H211Z" fill="currentColor"/>
<path d="M186.585 533C186.272 532.044 185.86 531.187 185.349 530.429C184.847 529.662 184.246 529.009 183.545 528.469C182.854 527.929 182.068 527.517 181.187 527.233C180.306 526.949 179.341 526.807 178.289 526.807C176.566 526.807 174.999 527.252 173.588 528.142C172.177 529.032 171.055 530.344 170.221 532.077C169.388 533.81 168.971 535.936 168.971 538.455C168.971 540.973 169.393 543.099 170.235 544.832C171.078 546.565 172.219 547.877 173.659 548.767C175.098 549.657 176.717 550.102 178.517 550.102C180.183 550.102 181.651 549.747 182.92 549.037C184.199 548.317 185.193 547.304 185.903 545.997C186.623 544.681 186.983 543.133 186.983 541.352L188.062 541.58H179.312V538.455H190.392V541.58C190.392 543.975 189.88 546.059 188.858 547.83C187.844 549.6 186.443 550.973 184.653 551.949C182.873 552.915 180.827 553.398 178.517 553.398C175.941 553.398 173.678 552.792 171.727 551.58C169.786 550.367 168.27 548.644 167.181 546.409C166.102 544.174 165.562 541.523 165.562 538.455C165.562 536.153 165.87 534.084 166.485 532.247C167.11 530.401 167.991 528.829 169.127 527.531C170.264 526.234 171.609 525.24 173.162 524.548C174.715 523.857 176.424 523.511 178.289 523.511C179.824 523.511 181.253 523.743 182.579 524.207C183.914 524.662 185.103 525.311 186.145 526.153C187.196 526.987 188.072 527.986 188.772 529.151C189.473 530.306 189.956 531.589 190.221 533H186.585ZM196.425 553V523.909H206.255C208.527 523.909 210.393 524.297 211.851 525.074C213.31 525.841 214.389 526.897 215.09 528.241C215.791 529.586 216.141 531.116 216.141 532.83C216.141 534.544 215.791 536.063 215.09 537.389C214.389 538.715 213.314 539.757 211.865 540.514C210.417 541.262 208.565 541.636 206.311 541.636H198.357V538.455H206.198C207.751 538.455 209.001 538.227 209.948 537.773C210.904 537.318 211.596 536.674 212.022 535.841C212.457 534.998 212.675 533.994 212.675 532.83C212.675 531.665 212.457 530.647 212.022 529.776C211.586 528.904 210.89 528.232 209.934 527.759C208.977 527.276 207.713 527.034 206.141 527.034H199.948V553H196.425ZM210.118 539.932L217.277 553H213.186L206.141 539.932H210.118ZM225.534 523.909V553H222.011V523.909H225.534ZM241.574 553H232.597V523.909H241.972C244.794 523.909 247.209 524.491 249.216 525.656C251.224 526.812 252.763 528.473 253.833 530.642C254.903 532.801 255.438 535.386 255.438 538.398C255.438 541.428 254.898 544.037 253.819 546.224C252.739 548.402 251.167 550.079 249.103 551.253C247.038 552.418 244.529 553 241.574 553ZM236.12 549.875H241.347C243.752 549.875 245.746 549.411 247.327 548.483C248.908 547.555 250.087 546.234 250.864 544.52C251.641 542.806 252.029 540.765 252.029 538.398C252.029 536.049 251.645 534.027 250.878 532.332C250.111 530.628 248.965 529.321 247.441 528.412C245.916 527.493 244.017 527.034 241.745 527.034H236.12V549.875ZM146.377 575.034V571.909H168.195V575.034H159.048V601H155.525V575.034H146.377ZM173.632 601V571.909H183.462C185.734 571.909 187.6 572.297 189.058 573.074C190.517 573.841 191.596 574.897 192.297 576.241C192.998 577.586 193.348 579.116 193.348 580.83C193.348 582.544 192.998 584.063 192.297 585.389C191.596 586.715 190.521 587.757 189.072 588.514C187.624 589.262 185.772 589.636 183.518 589.636H175.564V586.455H183.405C184.958 586.455 186.208 586.227 187.155 585.773C188.111 585.318 188.803 584.674 189.229 583.841C189.664 582.998 189.882 581.994 189.882 580.83C189.882 579.665 189.664 578.647 189.229 577.776C188.793 576.904 188.097 576.232 187.141 575.759C186.184 575.276 184.92 575.034 183.348 575.034H177.155V601H173.632ZM187.325 587.932L194.484 601H190.393L183.348 587.932H187.325ZM200.411 601H196.718L207.4 571.909H211.036L221.718 601H218.025L209.332 576.511H209.104L200.411 601ZM201.775 589.636H216.661V592.761H201.775V589.636ZM248.291 581H244.768C244.56 579.987 244.196 579.097 243.675 578.33C243.163 577.562 242.538 576.919 241.8 576.398C241.071 575.867 240.261 575.47 239.371 575.205C238.481 574.939 237.553 574.807 236.587 574.807C234.825 574.807 233.23 575.252 231.8 576.142C230.379 577.032 229.248 578.344 228.405 580.077C227.571 581.81 227.155 583.936 227.155 586.455C227.155 588.973 227.571 591.099 228.405 592.832C229.248 594.565 230.379 595.877 231.8 596.767C233.23 597.657 234.825 598.102 236.587 598.102C237.553 598.102 238.481 597.97 239.371 597.705C240.261 597.439 241.071 597.046 241.8 596.526C242.538 595.995 243.163 595.347 243.675 594.58C244.196 593.803 244.56 592.913 244.768 591.909H248.291C248.026 593.396 247.543 594.726 246.842 595.901C246.142 597.075 245.27 598.074 244.229 598.898C243.187 599.712 242.018 600.332 240.72 600.759C239.432 601.185 238.054 601.398 236.587 601.398C234.106 601.398 231.899 600.792 229.967 599.58C228.036 598.367 226.516 596.644 225.408 594.409C224.3 592.174 223.746 589.523 223.746 586.455C223.746 583.386 224.3 580.735 225.408 578.5C226.516 576.265 228.036 574.542 229.967 573.33C231.899 572.117 234.106 571.511 236.587 571.511C238.054 571.511 239.432 571.724 240.72 572.151C242.018 572.577 243.187 573.202 244.229 574.026C245.27 574.84 246.142 575.834 246.842 577.009C247.543 578.173 248.026 579.504 248.291 581ZM253.984 601V571.909H257.506V586.341H257.847L270.915 571.909H275.518L263.302 585.034L275.518 601H271.256L261.143 587.477L257.506 591.568V601H253.984Z" fill="currentColor"/>
<path d="M561.905 562C561.593 561.044 561.181 560.187 560.669 559.429C560.167 558.662 559.566 558.009 558.865 557.469C558.174 556.929 557.388 556.517 556.507 556.233C555.627 555.949 554.661 555.807 553.61 555.807C551.886 555.807 550.319 556.252 548.908 557.142C547.497 558.032 546.375 559.344 545.542 561.077C544.708 562.81 544.292 564.936 544.292 567.455C544.292 569.973 544.713 572.099 545.556 573.832C546.399 575.565 547.54 576.877 548.979 577.767C550.418 578.657 552.038 579.102 553.837 579.102C555.504 579.102 556.971 578.747 558.24 578.037C559.519 577.317 560.513 576.304 561.223 574.997C561.943 573.681 562.303 572.133 562.303 570.352L563.382 570.58H554.632V567.455H565.712V570.58C565.712 572.975 565.201 575.059 564.178 576.83C563.165 578.6 561.763 579.973 559.973 580.949C558.193 581.915 556.148 582.398 553.837 582.398C551.261 582.398 548.998 581.792 547.047 580.58C545.106 579.367 543.591 577.644 542.502 575.409C541.422 573.174 540.882 570.523 540.882 567.455C540.882 565.153 541.19 563.084 541.806 561.247C542.431 559.401 543.311 557.829 544.448 556.531C545.584 555.234 546.929 554.24 548.482 553.548C550.035 552.857 551.744 552.511 553.61 552.511C555.144 552.511 556.574 552.743 557.9 553.207C559.235 553.662 560.423 554.311 561.465 555.153C562.516 555.987 563.392 556.986 564.093 558.151C564.793 559.306 565.276 560.589 565.542 562H561.905ZM571.745 582V552.909H581.575C583.848 552.909 585.713 553.297 587.172 554.074C588.63 554.841 589.709 555.897 590.41 557.241C591.111 558.586 591.461 560.116 591.461 561.83C591.461 563.544 591.111 565.063 590.41 566.389C589.709 567.715 588.635 568.757 587.186 569.514C585.737 570.262 583.886 570.636 581.632 570.636H573.677V567.455H581.518C583.071 567.455 584.321 567.227 585.268 566.773C586.225 566.318 586.916 565.674 587.342 564.841C587.778 563.998 587.995 562.994 587.995 561.83C587.995 560.665 587.778 559.647 587.342 558.776C586.906 557.904 586.21 557.232 585.254 556.759C584.297 556.276 583.033 556.034 581.461 556.034H575.268V582H571.745ZM585.439 568.932L592.598 582H588.507L581.461 568.932H585.439ZM600.854 552.909V582H597.331V552.909H600.854ZM616.895 582H607.917V552.909H617.292C620.114 552.909 622.529 553.491 624.537 554.656C626.544 555.812 628.083 557.473 629.153 559.642C630.223 561.801 630.758 564.386 630.758 567.398C630.758 570.428 630.218 573.037 629.139 575.224C628.059 577.402 626.487 579.079 624.423 580.253C622.359 581.418 619.849 582 616.895 582ZM611.44 578.875H616.667C619.073 578.875 621.066 578.411 622.647 577.483C624.229 576.555 625.408 575.234 626.184 573.52C626.961 571.806 627.349 569.765 627.349 567.398C627.349 565.049 626.966 563.027 626.199 561.332C625.431 559.628 624.286 558.321 622.761 557.412C621.236 556.493 619.338 556.034 617.065 556.034H611.44V578.875ZM647.917 582V552.909H651.44V578.875H664.963V582H647.917ZM673.94 552.909V582H670.417V552.909H673.94ZM704.071 552.909V582H700.662L684.81 559.159H684.526V582H681.003V552.909H684.412L700.321 575.807H700.605V552.909H704.071ZM711.12 582V552.909H728.677V556.034H714.643V565.864H727.768V568.989H714.643V578.875H728.904V582H711.12Z" fill="currentColor" fill-opacity="0.2"/>
<path d="M858 641.095C857.044 641.407 856.187 641.819 855.429 642.331C854.662 642.833 854.009 643.434 853.469 644.135C852.929 644.826 852.517 645.612 852.233 646.493C851.949 647.373 851.807 648.339 851.807 649.39C851.807 651.114 852.252 652.681 853.142 654.092C854.032 655.503 855.344 656.625 857.077 657.458C858.81 658.292 860.936 658.708 863.455 658.708C865.973 658.708 868.099 658.287 869.832 657.444C871.565 656.601 872.877 655.46 873.767 654.021C874.657 652.582 875.102 650.962 875.102 649.163C875.102 647.496 874.747 646.029 874.037 644.76C873.317 643.481 872.304 642.487 870.997 641.777C869.681 641.057 868.133 640.697 866.352 640.697L866.58 639.618V648.368H863.455V637.288H866.58C868.975 637.288 871.059 637.799 872.83 638.822C874.6 639.835 875.973 641.237 876.949 643.027C877.915 644.807 878.398 646.852 878.398 649.163C878.398 651.739 877.792 654.002 876.58 655.953C875.367 657.894 873.644 659.409 871.409 660.498C869.174 661.578 866.523 662.118 863.455 662.118C861.153 662.118 859.084 661.81 857.247 661.194C855.401 660.569 853.829 659.689 852.531 658.552C851.234 657.416 850.24 656.071 849.548 654.518C848.857 652.965 848.511 651.256 848.511 649.39C848.511 647.856 848.743 646.426 849.207 645.1C849.662 643.765 850.311 642.577 851.153 641.535C851.987 640.484 852.986 639.608 854.151 638.907C855.306 638.207 856.589 637.724 858 637.458V641.095ZM878 631.255H848.909V621.425C848.909 619.152 849.297 617.287 850.074 615.828C850.841 614.37 851.897 613.291 853.241 612.59C854.586 611.889 856.116 611.539 857.83 611.539C859.544 611.539 861.063 611.889 862.389 612.59C863.715 613.291 864.757 614.365 865.514 615.814C866.262 617.263 866.636 619.114 866.636 621.368V629.323H863.455V621.482C863.455 619.929 863.227 618.679 862.773 617.732C862.318 616.775 861.674 616.084 860.841 615.658C859.998 615.222 858.994 615.005 857.83 615.005C856.665 615.005 855.647 615.222 854.776 615.658C853.904 616.094 853.232 616.79 852.759 617.746C852.276 618.703 852.034 619.967 852.034 621.539V627.732H878V631.255ZM864.932 617.561L878 610.402V614.493L864.932 621.539V617.561ZM848.909 602.146H878V605.669H848.909V602.146ZM878 586.105V595.083H848.909V585.708C848.909 582.886 849.491 580.471 850.656 578.463C851.812 576.456 853.473 574.917 855.642 573.847C857.801 572.777 860.386 572.242 863.398 572.242C866.428 572.242 869.037 572.782 871.224 573.861C873.402 574.941 875.079 576.513 876.253 578.577C877.418 580.641 878 583.151 878 586.105ZM874.875 591.56V586.333C874.875 583.927 874.411 581.934 873.483 580.353C872.555 578.771 871.234 577.592 869.52 576.816C867.806 576.039 865.765 575.651 863.398 575.651C861.049 575.651 859.027 576.034 857.332 576.801C855.628 577.569 854.321 578.714 853.412 580.239C852.493 581.764 852.034 583.662 852.034 585.935V591.56H874.875ZM878 555.083H848.909V551.56H874.875V538.037H878V555.083ZM848.909 529.06H878V532.583H848.909V529.06ZM848.909 498.929H878V502.338L855.159 518.19V518.474H878V521.997H848.909V518.588L871.807 502.679V502.395H848.909V498.929ZM878 491.88H848.909V474.323H852.034V488.357H861.864V475.232H864.989V488.357H874.875V474.096H878V491.88Z" fill="currentColor" fill-opacity="0.2"/>
<rect x="414" y="851" width="225" height="264" fill="currentColor" fill-opacity="0.2"/>
<path d="M446.956 978C446.643 977.044 446.232 976.187 445.72 975.429C445.218 974.662 444.617 974.009 443.916 973.469C443.225 972.929 442.439 972.517 441.558 972.233C440.678 971.949 439.712 971.807 438.661 971.807C436.937 971.807 435.37 972.252 433.959 973.142C432.548 974.032 431.426 975.344 430.592 977.077C429.759 978.81 429.342 980.936 429.342 983.455C429.342 985.973 429.764 988.099 430.607 989.832C431.449 991.565 432.59 992.877 434.03 993.767C435.469 994.657 437.089 995.102 438.888 995.102C440.554 995.102 442.022 994.747 443.291 994.037C444.57 993.317 445.564 992.304 446.274 990.997C446.994 989.681 447.354 988.133 447.354 986.352L448.433 986.58H439.683V983.455H450.763V986.58C450.763 988.975 450.251 991.059 449.229 992.83C448.215 994.6 446.814 995.973 445.024 996.949C443.244 997.915 441.198 998.398 438.888 998.398C436.312 998.398 434.049 997.792 432.098 996.58C430.157 995.367 428.642 993.644 427.553 991.409C426.473 989.174 425.933 986.523 425.933 983.455C425.933 981.153 426.241 979.084 426.857 977.247C427.482 975.401 428.362 973.829 429.499 972.531C430.635 971.234 431.98 970.24 433.533 969.548C435.086 968.857 436.795 968.511 438.661 968.511C440.195 968.511 441.625 968.743 442.95 969.207C444.286 969.662 445.474 970.311 446.516 971.153C447.567 971.987 448.443 972.986 449.143 974.151C449.844 975.306 450.327 976.589 450.592 978H446.956ZM456.796 998V968.909H466.626C468.898 968.909 470.764 969.297 472.222 970.074C473.681 970.841 474.76 971.897 475.461 973.241C476.162 974.586 476.512 976.116 476.512 977.83C476.512 979.544 476.162 981.063 475.461 982.389C474.76 983.715 473.685 984.757 472.237 985.514C470.788 986.262 468.936 986.636 466.683 986.636H458.728V983.455H466.569C468.122 983.455 469.372 983.227 470.319 982.773C471.275 982.318 471.967 981.674 472.393 980.841C472.828 979.998 473.046 978.994 473.046 977.83C473.046 976.665 472.828 975.647 472.393 974.776C471.957 973.904 471.261 973.232 470.305 972.759C469.348 972.276 468.084 972.034 466.512 972.034H460.319V998H456.796ZM470.489 984.932L477.648 998H473.558L466.512 984.932H470.489ZM485.905 968.909V998H482.382V968.909H485.905ZM501.945 998H492.968V968.909H502.343C505.165 968.909 507.58 969.491 509.587 970.656C511.595 971.812 513.134 973.473 514.204 975.642C515.274 977.801 515.809 980.386 515.809 983.398C515.809 986.428 515.269 989.037 514.19 991.224C513.11 993.402 511.538 995.079 509.474 996.253C507.409 997.418 504.9 998 501.945 998ZM496.491 994.875H501.718C504.123 994.875 506.117 994.411 507.698 993.483C509.28 992.555 510.459 991.234 511.235 989.52C512.012 987.806 512.4 985.765 512.4 983.398C512.4 981.049 512.016 979.027 511.249 977.332C510.482 975.628 509.336 974.321 507.812 973.412C506.287 972.493 504.388 972.034 502.116 972.034H496.491V994.875ZM556.377 978H552.854C552.646 976.987 552.281 976.097 551.761 975.33C551.249 974.562 550.624 973.919 549.886 973.398C549.156 972.867 548.347 972.47 547.457 972.205C546.567 971.939 545.638 971.807 544.673 971.807C542.911 971.807 541.316 972.252 539.886 973.142C538.465 974.032 537.334 975.344 536.491 977.077C535.657 978.81 535.241 980.936 535.241 983.455C535.241 985.973 535.657 988.099 536.491 989.832C537.334 991.565 538.465 992.877 539.886 993.767C541.316 994.657 542.911 995.102 544.673 995.102C545.638 995.102 546.567 994.97 547.457 994.705C548.347 994.439 549.156 994.046 549.886 993.526C550.624 992.995 551.249 992.347 551.761 991.58C552.281 990.803 552.646 989.913 552.854 988.909H556.377C556.112 990.396 555.629 991.726 554.928 992.901C554.228 994.075 553.356 995.074 552.315 995.898C551.273 996.712 550.103 997.332 548.806 997.759C547.518 998.185 546.14 998.398 544.673 998.398C542.192 998.398 539.985 997.792 538.053 996.58C536.121 995.367 534.602 993.644 533.494 991.409C532.386 989.174 531.832 986.523 531.832 983.455C531.832 980.386 532.386 977.735 533.494 975.5C534.602 973.265 536.121 971.542 538.053 970.33C539.985 969.117 542.192 968.511 544.673 968.511C546.14 968.511 547.518 968.724 548.806 969.151C550.103 969.577 551.273 970.202 552.315 971.026C553.356 971.84 554.228 972.834 554.928 974.009C555.629 975.173 556.112 976.504 556.377 978ZM562.07 998V968.909H579.626V972.034H565.592V981.864H578.717V984.989H565.592V994.875H579.854V998H562.07ZM585.976 998V968.909H589.499V994.875H603.021V998H585.976ZM608.476 998V968.909H611.999V994.875H625.521V998H608.476Z" fill="black"/>
<rect x="1072" y="562" width="653" height="555" fill="currentColor" fill-opacity="0.2"/>
<path d="M1169.59 848.577C1168.81 849.353 1168.8 850.619 1169.58 851.405L1182.22 864.214C1183 865 1184.27 865.009 1185.05 864.232C1185.84 863.456 1185.85 862.19 1185.07 861.404L1173.83 850.018L1185.21 838.777C1186 838.001 1186.01 836.735 1185.23 835.949C1184.46 835.163 1183.19 835.155 1182.4 835.931L1169.59 848.577ZM1327 851L1327.01 849L1171.01 848L1171 850L1170.99 852L1326.99 853L1327 851Z" fill="black"/>
<path d="M1662.41 852.414C1663.2 851.633 1663.2 850.367 1662.41 849.586L1649.69 836.858C1648.91 836.077 1647.64 836.077 1646.86 836.858C1646.08 837.639 1646.08 838.905 1646.86 839.686L1658.17 851L1646.86 862.314C1646.08 863.095 1646.08 864.361 1646.86 865.142C1647.64 865.923 1648.91 865.923 1649.69 865.142L1662.41 852.414ZM1480 851V853H1661V851V849H1480V851Z" fill="black"/>
<path d="M1400.59 1089.41C1401.37 1090.2 1402.63 1090.2 1403.41 1089.41L1416.14 1076.69C1416.92 1075.91 1416.92 1074.64 1416.14 1073.86C1415.36 1073.08 1414.09 1073.08 1413.31 1073.86L1402 1085.17L1390.69 1073.86C1389.91 1073.08 1388.64 1073.08 1387.86 1073.86C1387.08 1074.64 1387.08 1075.91 1387.86 1076.69L1400.59 1089.41ZM1402 907H1400V1088H1402H1404V907H1402Z" fill="black"/>
<path d="M1378.08 820C1377.77 819.044 1377.36 818.187 1376.85 817.429C1376.35 816.662 1375.75 816.009 1375.05 815.469C1374.35 814.929 1373.57 814.517 1372.69 814.233C1371.81 813.949 1370.84 813.807 1369.79 813.807C1368.07 813.807 1366.5 814.252 1365.09 815.142C1363.68 816.032 1362.55 817.344 1361.72 819.077C1360.89 820.81 1360.47 822.936 1360.47 825.455C1360.47 827.973 1360.89 830.099 1361.74 831.832C1362.58 833.565 1363.72 834.877 1365.16 835.767C1366.6 836.657 1368.22 837.102 1370.02 837.102C1371.68 837.102 1373.15 836.747 1374.42 836.037C1375.7 835.317 1376.69 834.304 1377.4 832.997C1378.12 831.681 1378.48 830.133 1378.48 828.352L1379.56 828.58H1370.81V825.455H1381.89V828.58C1381.89 830.975 1381.38 833.059 1380.36 834.83C1379.34 836.6 1377.94 837.973 1376.15 838.949C1374.37 839.915 1372.33 840.398 1370.02 840.398C1367.44 840.398 1365.18 839.792 1363.23 838.58C1361.29 837.367 1359.77 835.644 1358.68 833.409C1357.6 831.174 1357.06 828.523 1357.06 825.455C1357.06 823.153 1357.37 821.084 1357.99 819.247C1358.61 817.401 1359.49 815.829 1360.63 814.531C1361.76 813.234 1363.11 812.24 1364.66 811.548C1366.21 810.857 1367.92 810.511 1369.79 810.511C1371.32 810.511 1372.75 810.743 1374.08 811.207C1375.41 811.662 1376.6 812.311 1377.64 813.153C1378.7 813.987 1379.57 814.986 1380.27 816.151C1380.97 817.306 1381.46 818.589 1381.72 820H1378.08ZM1387.93 840V810.909H1397.75C1400.03 810.909 1401.89 811.297 1403.35 812.074C1404.81 812.841 1405.89 813.897 1406.59 815.241C1407.29 816.586 1407.64 818.116 1407.64 819.83C1407.64 821.544 1407.29 823.063 1406.59 824.389C1405.89 825.715 1404.81 826.757 1403.37 827.514C1401.92 828.262 1400.07 828.636 1397.81 828.636H1389.86V825.455H1397.7C1399.25 825.455 1400.5 825.227 1401.45 824.773C1402.4 824.318 1403.1 823.674 1403.52 822.841C1403.96 821.998 1404.18 820.994 1404.18 819.83C1404.18 818.665 1403.96 817.647 1403.52 816.776C1403.09 815.904 1402.39 815.232 1401.43 814.759C1400.48 814.276 1399.21 814.034 1397.64 814.034H1391.45V840H1387.93ZM1401.62 826.932L1408.78 840H1404.69L1397.64 826.932H1401.62ZM1417.03 810.909V840H1413.51V810.909H1417.03ZM1433.07 840H1424.1V810.909H1433.47C1436.29 810.909 1438.71 811.491 1440.72 812.656C1442.72 813.812 1444.26 815.473 1445.33 817.642C1446.4 819.801 1446.94 822.386 1446.94 825.398C1446.94 828.428 1446.4 831.037 1445.32 833.224C1444.24 835.402 1442.67 837.079 1440.6 838.253C1438.54 839.418 1436.03 840 1433.07 840ZM1427.62 836.875H1432.85C1435.25 836.875 1437.25 836.411 1438.83 835.483C1440.41 834.555 1441.59 833.234 1442.36 831.52C1443.14 829.806 1443.53 827.765 1443.53 825.398C1443.53 823.049 1443.15 821.027 1442.38 819.332C1441.61 817.628 1440.47 816.321 1438.94 815.412C1437.42 814.493 1435.52 814.034 1433.24 814.034H1427.62V836.875ZM1354.94 888H1351.25L1361.93 858.909H1365.56L1376.25 888H1372.55L1363.86 863.511H1363.63L1354.94 888ZM1356.3 876.636H1371.19V879.761H1356.3V876.636ZM1380.78 888V858.909H1390.61C1392.88 858.909 1394.74 859.297 1396.2 860.074C1397.66 860.841 1398.74 861.897 1399.44 863.241C1400.14 864.586 1400.49 866.116 1400.49 867.83C1400.49 869.544 1400.14 871.063 1399.44 872.389C1398.74 873.715 1397.67 874.757 1396.22 875.514C1394.77 876.262 1392.92 876.636 1390.66 876.636H1382.71V873.455H1390.55C1392.1 873.455 1393.35 873.227 1394.3 872.773C1395.26 872.318 1395.95 871.674 1396.37 870.841C1396.81 869.998 1397.03 868.994 1397.03 867.83C1397.03 866.665 1396.81 865.647 1396.37 864.776C1395.94 863.904 1395.24 863.232 1394.29 862.759C1393.33 862.276 1392.06 862.034 1390.49 862.034H1384.3V888H1380.78ZM1394.47 874.932L1401.63 888H1397.54L1390.49 874.932H1394.47ZM1406.36 888V858.909H1423.92V862.034H1409.89V871.864H1423.01V874.989H1409.89V884.875H1424.15V888H1406.36ZM1431.46 888H1427.77L1438.45 858.909H1442.09L1452.77 888H1449.08L1440.38 863.511H1440.16L1431.46 888ZM1432.83 876.636H1447.71V879.761H1432.83V876.636Z" fill="black"/>
<line x1="-26" y1="849" x2="1327" y2="849" stroke="currentColor" stroke-opacity="0.2" stroke-width="4"/>
<path d="M1403.41 599.586C1402.63 598.805 1401.37 598.805 1400.59 599.586L1387.86 612.314C1387.08 613.095 1387.08 614.361 1387.86 615.142C1388.64 615.923 1389.91 615.923 1390.69 615.142L1402 603.828L1413.31 615.142C1414.09 615.923 1415.36 615.923 1416.14 615.142C1416.92 614.361 1416.92 613.095 1416.14 612.314L1403.41 599.586ZM1402 782L1404 782L1404 601L1402 601L1400 601L1400 782L1402 782Z" fill="black"/>
<line x1="1480" y1="849" x2="1728" y2="849" stroke="currentColor" stroke-opacity="0.2" stroke-width="4"/>
<line x1="866" x2="866" y2="461" stroke="currentColor" stroke-opacity="0.2" stroke-width="4"/>
<line x1="866" y1="675" x2="866" y2="1115" stroke="currentColor" stroke-opacity="0.2" stroke-width="4"/>
<line x1="640.027" y1="-0.00195313" x2="640.027" y2="539.002" stroke="currentColor" stroke-opacity="0.2" stroke-width="4"/>
<line x1="639" y1="601" x2="639" y2="1117" stroke="currentColor" stroke-opacity="0.2" stroke-width="4"/>
<line x1="1073" x2="1073" y2="1135.02" stroke="currentColor" stroke-opacity="0.2" stroke-width="4"/>
<line x1="1512" y1="8" x2="1512" y2="1143.02" stroke="currentColor" stroke-opacity="0.2" stroke-width="4"/>
<line x1="1282" x2="1282" y2="1117" stroke="currentColor" stroke-opacity="0.2" stroke-width="4"/>
<line x1="415" y1="-18" x2="415" y2="1117.02" stroke="currentColor" stroke-opacity="0.2" stroke-width="4"/>
<line x1="-42" y1="267" x2="1728" y2="267" stroke="currentColor" stroke-opacity="0.2" stroke-width="4"/>
</g>
<rect x="2" y="2" width="1724" height="1113" stroke="currentColor" stroke-opacity="0.2" stroke-width="4"/>
<defs>
<clipPath id="clip0_32_2">
<rect width="1728" height="1117" fill="white"/>
</clipPath>
</defs>
</svg>
