<svg viewBox="0 0 1012 225" fill="none" xmlns="http://www.w3.org/2000/svg">
<path d="M26.128 83.744L5.68 71.792V69.488L25.984 58.784V62.192L9.328 70.688L26.128 80.096V83.744ZM32.8 86V83.216H38.416V66.848H33.088V64.064H41.872V83.216H47.008V86H32.8ZM39.952 59.456C39.28 59.456 38.704 59.216 38.224 58.736C37.744 58.256 37.504 57.68 37.504 57.008C37.504 56.304 37.728 55.712 38.176 55.232C38.656 54.752 39.248 54.512 39.952 54.512C40.624 54.512 41.2 54.768 41.68 55.28C42.192 55.76 42.448 56.336 42.448 57.008C42.448 57.68 42.192 58.256 41.68 58.736C41.2 59.216 40.624 59.456 39.952 59.456ZM55.456 86V64.064H58.816V67.952C59.392 67.056 60.064 66.288 60.832 65.648C61.6 64.976 62.448 64.464 63.376 64.112C64.304 63.728 65.264 63.536 66.256 63.536C67.472 63.536 68.56 63.84 69.52 64.448C70.48 65.056 71.248 66.032 71.824 67.376C72.4 68.72 72.688 70.496 72.688 72.704V86H69.328V72.8C69.328 71.264 69.152 70.048 68.8 69.152C68.448 68.224 67.968 67.568 67.36 67.184C66.752 66.768 66.064 66.56 65.296 66.56C64.56 66.56 63.808 66.72 63.04 67.04C62.304 67.36 61.616 67.824 60.976 68.432C60.336 69.008 59.808 69.712 59.392 70.544C59.008 71.376 58.816 72.32 58.816 73.376V86H55.456ZM78.88 94.016V64.064H82.384V68.384C82.736 67.264 83.232 66.352 83.872 65.648C84.544 64.944 85.312 64.432 86.176 64.112C87.072 63.76 88.032 63.584 89.056 63.584C90.272 63.584 91.424 63.824 92.512 64.304C93.632 64.752 94.608 65.44 95.44 66.368C96.304 67.296 96.976 68.464 97.456 69.872C97.968 71.28 98.224 72.944 98.224 74.864C98.224 76.784 97.952 78.48 97.408 79.952C96.896 81.424 96.192 82.656 95.296 83.648C94.432 84.608 93.44 85.344 92.32 85.856C91.232 86.336 90.112 86.576 88.96 86.576C88.096 86.576 87.248 86.432 86.416 86.144C85.616 85.888 84.88 85.504 84.208 84.992C83.536 84.448 82.944 83.824 82.432 83.12V94.016H78.88ZM88.384 83.504C89.152 83.504 89.904 83.376 90.64 83.12C91.376 82.832 92.048 82.368 92.656 81.728C93.264 81.088 93.744 80.224 94.096 79.136C94.448 78.016 94.624 76.64 94.624 75.008C94.624 73.248 94.4 71.76 93.952 70.544C93.504 69.296 92.848 68.336 91.984 67.664C91.152 66.992 90.128 66.624 88.912 66.56C88.016 66.496 87.168 66.624 86.368 66.944C85.6 67.264 84.912 67.792 84.304 68.528C83.696 69.264 83.216 70.24 82.864 71.456C82.544 72.64 82.384 74.08 82.384 75.776C82.416 76.8 82.528 77.728 82.72 78.56C82.912 79.392 83.184 80.128 83.536 80.768C83.888 81.376 84.304 81.888 84.784 82.304C85.264 82.688 85.808 82.992 86.416 83.216C87.024 83.408 87.68 83.504 88.384 83.504ZM110.608 86.528C109.744 86.528 108.928 86.4 108.16 86.144C107.392 85.888 106.688 85.504 106.048 84.992C105.44 84.448 104.912 83.776 104.464 82.976C104.016 82.176 103.664 81.216 103.408 80.096C103.184 78.976 103.072 77.712 103.072 76.304L103.12 64.064H106.48V76.304C106.48 77.68 106.608 78.848 106.864 79.808C107.12 80.768 107.472 81.536 107.92 82.112C108.4 82.688 108.944 83.104 109.552 83.36C110.16 83.616 110.8 83.744 111.472 83.744C112.24 83.744 112.976 83.6 113.68 83.312C114.384 82.992 115.008 82.528 115.552 81.92C116.128 81.312 116.576 80.528 116.896 79.568C117.216 78.608 117.376 77.472 117.376 76.16V64.064H120.736V82.592C120.736 83.168 120.752 83.744 120.784 84.32C120.848 84.864 120.992 85.424 121.216 86H117.904C117.744 85.616 117.632 85.248 117.568 84.896C117.504 84.512 117.456 84.128 117.424 83.744C117.424 83.36 117.424 82.992 117.424 82.64C117.072 83.248 116.656 83.792 116.176 84.272C115.696 84.752 115.152 85.168 114.544 85.52C113.968 85.84 113.344 86.08 112.672 86.24C112.032 86.432 111.344 86.528 110.608 86.528ZM138.352 86.336C136.944 86.336 135.792 86.096 134.896 85.616C134 85.136 133.312 84.4 132.832 83.408C132.352 82.384 132.032 81.104 131.872 79.568C131.744 78.032 131.712 76.208 131.776 74.096L132.352 58.448L135.952 58.016L136.432 57.968L136.48 58.304C136.32 58.528 136.176 58.752 136.048 58.976C135.952 59.2 135.872 59.584 135.808 60.128L135.376 65.552L135.52 66.416L135.184 74.336C135.088 76.768 135.152 78.656 135.376 80C135.6 81.312 136 82.224 136.576 82.736C137.152 83.216 137.92 83.456 138.88 83.456C139.936 83.456 140.864 83.248 141.664 82.832C142.496 82.416 143.36 81.888 144.256 81.248L145.312 83.984C144.224 84.784 143.104 85.376 141.952 85.76C140.8 86.144 139.6 86.336 138.352 86.336ZM127.36 64.064H143.152V66.896H127.36V64.064ZM185.68 86.528C184.08 86.528 182.608 86.24 181.264 85.664C179.92 85.088 178.752 84.288 177.76 83.264C176.8 82.24 176.048 81.04 175.504 79.664C174.96 78.256 174.688 76.72 174.688 75.056C174.688 73.424 174.96 71.92 175.504 70.544C176.048 69.136 176.8 67.92 177.76 66.896C178.752 65.872 179.92 65.072 181.264 64.496C182.608 63.92 184.064 63.632 185.632 63.632C187.424 63.632 189.024 64 190.432 64.736C191.872 65.44 193.04 66.432 193.936 67.712L191.776 69.824L191.44 70.16L191.2 69.92C191.2 69.664 191.136 69.424 191.008 69.2C190.912 68.976 190.672 68.672 190.288 68.288C189.584 67.648 188.832 67.2 188.032 66.944C187.232 66.688 186.304 66.56 185.248 66.56C184.32 66.56 183.44 66.752 182.608 67.136C181.776 67.52 181.024 68.08 180.352 68.816C179.712 69.52 179.2 70.384 178.816 71.408C178.432 72.432 178.24 73.568 178.24 74.816C178.24 76.064 178.432 77.216 178.816 78.272C179.2 79.296 179.728 80.192 180.4 80.96C181.072 81.728 181.872 82.336 182.8 82.784C183.76 83.2 184.784 83.408 185.872 83.408C186.608 83.408 187.312 83.312 187.984 83.12C188.656 82.896 189.296 82.592 189.904 82.208C190.512 81.792 191.072 81.296 191.584 80.72L193.6 83.072C192.512 84.224 191.296 85.088 189.952 85.664C188.64 86.24 187.216 86.528 185.68 86.528ZM199.792 86V83.216H206.272V56.864H200.08V54.08H209.776V83.216H216.208V86H199.792ZM230.128 86.528C227.632 86.528 225.712 85.968 224.368 84.848C223.024 83.696 222.352 82.24 222.352 80.48C222.352 79.296 222.64 78.24 223.216 77.312C223.792 76.352 224.576 75.552 225.568 74.912C226.592 74.24 227.776 73.728 229.12 73.376C230.464 73.024 231.888 72.848 233.392 72.848C233.936 72.848 234.48 72.864 235.024 72.896C235.6 72.896 236.192 72.928 236.8 72.992C237.44 73.024 238.096 73.088 238.768 73.184L238.864 75.824C238.288 75.728 237.696 75.664 237.088 75.632C236.512 75.568 235.936 75.52 235.36 75.488C234.784 75.456 234.224 75.44 233.68 75.44C232.528 75.44 231.472 75.536 230.512 75.728C229.552 75.92 228.72 76.208 228.016 76.592C227.312 76.976 226.768 77.472 226.384 78.08C226 78.688 225.808 79.424 225.808 80.288C225.808 80.96 225.92 81.536 226.144 82.016C226.4 82.464 226.736 82.832 227.152 83.12C227.568 83.376 228.048 83.568 228.592 83.696C229.168 83.824 229.792 83.888 230.464 83.888C231.712 83.888 232.816 83.696 233.776 83.312C234.768 82.896 235.6 82.304 236.272 81.536C236.976 80.768 237.504 79.824 237.856 78.704C238.208 77.584 238.384 76.304 238.384 74.864C238.384 72.688 238.128 70.992 237.616 69.776C237.104 68.56 236.336 67.696 235.312 67.184C234.32 66.672 233.04 66.416 231.472 66.416C230.416 66.416 229.376 66.624 228.352 67.04C227.328 67.424 226.4 68.032 225.568 68.864L223.888 66.656C224.912 65.632 226.096 64.864 227.44 64.352C228.784 63.84 230.208 63.584 231.712 63.584C233.152 63.584 234.464 63.76 235.648 64.112C236.832 64.464 237.84 65.056 238.672 65.888C239.536 66.688 240.192 67.776 240.64 69.152C241.12 70.528 241.36 72.256 241.36 74.336V86H237.616V82.64C237.2 83.44 236.688 84.096 236.08 84.608C235.504 85.12 234.88 85.52 234.208 85.808C233.536 86.064 232.848 86.24 232.144 86.336C231.44 86.464 230.768 86.528 230.128 86.528ZM256.048 86.48C254.832 86.48 253.664 86.352 252.544 86.096C251.456 85.84 250.416 85.456 249.424 84.944C248.464 84.432 247.568 83.792 246.736 83.024L248.656 79.76L248.944 79.328L249.232 79.52C249.296 79.776 249.36 80.048 249.424 80.336C249.52 80.592 249.744 80.912 250.096 81.296C250.768 81.968 251.568 82.528 252.496 82.976C253.456 83.392 254.672 83.6 256.144 83.6C257.328 83.6 258.32 83.456 259.12 83.168C259.952 82.88 260.592 82.48 261.04 81.968C261.488 81.424 261.712 80.8 261.712 80.096C261.712 79.616 261.616 79.2 261.424 78.848C261.232 78.464 260.912 78.112 260.464 77.792C260.048 77.472 259.488 77.152 258.784 76.832C258.08 76.512 257.216 76.192 256.192 75.872C254.528 75.392 253.072 74.832 251.824 74.192C250.576 73.552 249.616 72.816 248.944 71.984C248.272 71.12 247.936 70.144 247.936 69.056C247.936 67.936 248.24 66.976 248.848 66.176C249.456 65.344 250.352 64.704 251.536 64.256C252.752 63.776 254.24 63.536 256 63.536C257.024 63.536 257.952 63.616 258.784 63.776C259.616 63.904 260.384 64.112 261.088 64.4C261.792 64.688 262.432 65.056 263.008 65.504C263.616 65.92 264.192 66.416 264.736 66.992L262.768 69.392L262.432 69.776L262.192 69.536C262.16 69.28 262.08 69.04 261.952 68.816C261.856 68.56 261.632 68.256 261.28 67.904C260.544 67.328 259.712 66.896 258.784 66.608C257.856 66.288 256.96 66.128 256.096 66.128C254.816 66.128 253.712 66.352 252.784 66.8C251.856 67.248 251.392 67.936 251.392 68.864C251.392 69.344 251.552 69.824 251.872 70.304C252.224 70.752 252.848 71.216 253.744 71.696C254.64 72.144 255.92 72.608 257.584 73.088C259.408 73.664 260.864 74.256 261.952 74.864C263.072 75.44 263.872 76.112 264.352 76.88C264.864 77.648 265.12 78.56 265.12 79.616C265.12 80.832 264.784 81.968 264.112 83.024C263.472 84.08 262.48 84.928 261.136 85.568C259.792 86.176 258.096 86.48 256.048 86.48ZM280.048 86.48C278.832 86.48 277.664 86.352 276.544 86.096C275.456 85.84 274.416 85.456 273.424 84.944C272.464 84.432 271.568 83.792 270.736 83.024L272.656 79.76L272.944 79.328L273.232 79.52C273.296 79.776 273.36 80.048 273.424 80.336C273.52 80.592 273.744 80.912 274.096 81.296C274.768 81.968 275.568 82.528 276.496 82.976C277.456 83.392 278.672 83.6 280.144 83.6C281.328 83.6 282.32 83.456 283.12 83.168C283.952 82.88 284.592 82.48 285.04 81.968C285.488 81.424 285.712 80.8 285.712 80.096C285.712 79.616 285.616 79.2 285.424 78.848C285.232 78.464 284.912 78.112 284.464 77.792C284.048 77.472 283.488 77.152 282.784 76.832C282.08 76.512 281.216 76.192 280.192 75.872C278.528 75.392 277.072 74.832 275.824 74.192C274.576 73.552 273.616 72.816 272.944 71.984C272.272 71.12 271.936 70.144 271.936 69.056C271.936 67.936 272.24 66.976 272.848 66.176C273.456 65.344 274.352 64.704 275.536 64.256C276.752 63.776 278.24 63.536 280 63.536C281.024 63.536 281.952 63.616 282.784 63.776C283.616 63.904 284.384 64.112 285.088 64.4C285.792 64.688 286.432 65.056 287.008 65.504C287.616 65.92 288.192 66.416 288.736 66.992L286.768 69.392L286.432 69.776L286.192 69.536C286.16 69.28 286.08 69.04 285.952 68.816C285.856 68.56 285.632 68.256 285.28 67.904C284.544 67.328 283.712 66.896 282.784 66.608C281.856 66.288 280.96 66.128 280.096 66.128C278.816 66.128 277.712 66.352 276.784 66.8C275.856 67.248 275.392 67.936 275.392 68.864C275.392 69.344 275.552 69.824 275.872 70.304C276.224 70.752 276.848 71.216 277.744 71.696C278.64 72.144 279.92 72.608 281.584 73.088C283.408 73.664 284.864 74.256 285.952 74.864C287.072 75.44 287.872 76.112 288.352 76.88C288.864 77.648 289.12 78.56 289.12 79.616C289.12 80.832 288.784 81.968 288.112 83.024C287.472 84.08 286.48 84.928 285.136 85.568C283.792 86.176 282.096 86.48 280.048 86.48ZM294.16 67.328V64.4H313.888V67.328H294.16ZM294.16 77.264V74.336H313.888V77.264H294.16ZM331.408 68.384L329.776 66.944C330.384 66.368 330.912 65.776 331.36 65.168C331.84 64.528 332.208 63.92 332.464 63.344C332.752 62.768 332.896 62.288 332.896 61.904C332.896 61.552 332.768 61.248 332.512 60.992C332.288 60.704 332 60.432 331.648 60.176C331.328 59.92 331.04 59.632 330.784 59.312C330.56 58.992 330.448 58.624 330.448 58.208C330.448 57.408 330.704 56.736 331.216 56.192C331.76 55.648 332.448 55.376 333.28 55.376C334.112 55.376 334.864 55.744 335.536 56.48C336.208 57.216 336.544 58.176 336.544 59.36C336.544 60.192 336.352 61.088 335.968 62.048C335.584 63.008 335.008 64.016 334.24 65.072C333.504 66.096 332.56 67.2 331.408 68.384ZM321.568 68.384L319.936 66.944C320.544 66.368 321.072 65.776 321.52 65.168C322 64.528 322.368 63.92 322.624 63.344C322.912 62.768 323.056 62.288 323.056 61.904C323.056 61.552 322.928 61.248 322.672 60.992C322.448 60.704 322.16 60.432 321.808 60.176C321.488 59.92 321.2 59.632 320.944 59.312C320.72 58.992 320.608 58.624 320.608 58.208C320.608 57.408 320.864 56.736 321.376 56.192C321.92 55.648 322.608 55.376 323.44 55.376C324.272 55.376 325.024 55.744 325.696 56.48C326.368 57.216 326.704 58.176 326.704 59.36C326.704 60.192 326.512 61.088 326.128 62.048C325.744 63.008 325.168 64.016 324.4 65.072C323.664 66.096 322.72 67.2 321.568 68.384ZM353.68 86.528C352.08 86.528 350.608 86.24 349.264 85.664C347.92 85.088 346.752 84.288 345.76 83.264C344.8 82.24 344.048 81.04 343.504 79.664C342.96 78.256 342.688 76.72 342.688 75.056C342.688 73.424 342.96 71.92 343.504 70.544C344.048 69.136 344.8 67.92 345.76 66.896C346.752 65.872 347.92 65.072 349.264 64.496C350.608 63.92 352.064 63.632 353.632 63.632C355.424 63.632 357.024 64 358.432 64.736C359.872 65.44 361.04 66.432 361.936 67.712L359.776 69.824L359.44 70.16L359.2 69.92C359.2 69.664 359.136 69.424 359.008 69.2C358.912 68.976 358.672 68.672 358.288 68.288C357.584 67.648 356.832 67.2 356.032 66.944C355.232 66.688 354.304 66.56 353.248 66.56C352.32 66.56 351.44 66.752 350.608 67.136C349.776 67.52 349.024 68.08 348.352 68.816C347.712 69.52 347.2 70.384 346.816 71.408C346.432 72.432 346.24 73.568 346.24 74.816C346.24 76.064 346.432 77.216 346.816 78.272C347.2 79.296 347.728 80.192 348.4 80.96C349.072 81.728 349.872 82.336 350.8 82.784C351.76 83.2 352.784 83.408 353.872 83.408C354.608 83.408 355.312 83.312 355.984 83.12C356.656 82.896 357.296 82.592 357.904 82.208C358.512 81.792 359.072 81.296 359.584 80.72L361.6 83.072C360.512 84.224 359.296 85.088 357.952 85.664C356.64 86.24 355.216 86.528 353.68 86.528ZM374.608 86.528C373.744 86.528 372.928 86.4 372.16 86.144C371.392 85.888 370.688 85.504 370.048 84.992C369.44 84.448 368.912 83.776 368.464 82.976C368.016 82.176 367.664 81.216 367.408 80.096C367.184 78.976 367.072 77.712 367.072 76.304L367.12 64.064H370.48V76.304C370.48 77.68 370.608 78.848 370.864 79.808C371.12 80.768 371.472 81.536 371.92 82.112C372.4 82.688 372.944 83.104 373.552 83.36C374.16 83.616 374.8 83.744 375.472 83.744C376.24 83.744 376.976 83.6 377.68 83.312C378.384 82.992 379.008 82.528 379.552 81.92C380.128 81.312 380.576 80.528 380.896 79.568C381.216 78.608 381.376 77.472 381.376 76.16V64.064H384.736V82.592C384.736 83.168 384.752 83.744 384.784 84.32C384.848 84.864 384.992 85.424 385.216 86H381.904C381.744 85.616 381.632 85.248 381.568 84.896C381.504 84.512 381.456 84.128 381.424 83.744C381.424 83.36 381.424 82.992 381.424 82.64C381.072 83.248 380.656 83.792 380.176 84.272C379.696 84.752 379.152 85.168 378.544 85.52C377.968 85.84 377.344 86.08 376.672 86.24C376.032 86.432 375.344 86.528 374.608 86.528ZM400.048 86.48C398.832 86.48 397.664 86.352 396.544 86.096C395.456 85.84 394.416 85.456 393.424 84.944C392.464 84.432 391.568 83.792 390.736 83.024L392.656 79.76L392.944 79.328L393.232 79.52C393.296 79.776 393.36 80.048 393.424 80.336C393.52 80.592 393.744 80.912 394.096 81.296C394.768 81.968 395.568 82.528 396.496 82.976C397.456 83.392 398.672 83.6 400.144 83.6C401.328 83.6 402.32 83.456 403.12 83.168C403.952 82.88 404.592 82.48 405.04 81.968C405.488 81.424 405.712 80.8 405.712 80.096C405.712 79.616 405.616 79.2 405.424 78.848C405.232 78.464 404.912 78.112 404.464 77.792C404.048 77.472 403.488 77.152 402.784 76.832C402.08 76.512 401.216 76.192 400.192 75.872C398.528 75.392 397.072 74.832 395.824 74.192C394.576 73.552 393.616 72.816 392.944 71.984C392.272 71.12 391.936 70.144 391.936 69.056C391.936 67.936 392.24 66.976 392.848 66.176C393.456 65.344 394.352 64.704 395.536 64.256C396.752 63.776 398.24 63.536 400 63.536C401.024 63.536 401.952 63.616 402.784 63.776C403.616 63.904 404.384 64.112 405.088 64.4C405.792 64.688 406.432 65.056 407.008 65.504C407.616 65.92 408.192 66.416 408.736 66.992L406.768 69.392L406.432 69.776L406.192 69.536C406.16 69.28 406.08 69.04 405.952 68.816C405.856 68.56 405.632 68.256 405.28 67.904C404.544 67.328 403.712 66.896 402.784 66.608C401.856 66.288 400.96 66.128 400.096 66.128C398.816 66.128 397.712 66.352 396.784 66.8C395.856 67.248 395.392 67.936 395.392 68.864C395.392 69.344 395.552 69.824 395.872 70.304C396.224 70.752 396.848 71.216 397.744 71.696C398.64 72.144 399.92 72.608 401.584 73.088C403.408 73.664 404.864 74.256 405.952 74.864C407.072 75.44 407.872 76.112 408.352 76.88C408.864 77.648 409.12 78.56 409.12 79.616C409.12 80.832 408.784 81.968 408.112 83.024C407.472 84.08 406.48 84.928 405.136 85.568C403.792 86.176 402.096 86.48 400.048 86.48ZM426.352 86.336C424.944 86.336 423.792 86.096 422.896 85.616C422 85.136 421.312 84.4 420.832 83.408C420.352 82.384 420.032 81.104 419.872 79.568C419.744 78.032 419.712 76.208 419.776 74.096L420.352 58.448L423.952 58.016L424.432 57.968L424.48 58.304C424.32 58.528 424.176 58.752 424.048 58.976C423.952 59.2 423.872 59.584 423.808 60.128L423.376 65.552L423.52 66.416L423.184 74.336C423.088 76.768 423.152 78.656 423.376 80C423.6 81.312 424 82.224 424.576 82.736C425.152 83.216 425.92 83.456 426.88 83.456C427.936 83.456 428.864 83.248 429.664 82.832C430.496 82.416 431.36 81.888 432.256 81.248L433.312 83.984C432.224 84.784 431.104 85.376 429.952 85.76C428.8 86.144 427.6 86.336 426.352 86.336ZM415.36 64.064H431.152V66.896H415.36V64.064ZM448 86.384C446.016 86.384 444.256 85.904 442.72 84.944C441.216 83.952 440.032 82.608 439.168 80.912C438.304 79.184 437.872 77.216 437.872 75.008C437.872 72.768 438.304 70.8 439.168 69.104C440.032 67.376 441.216 66.032 442.72 65.072C444.256 64.08 446.016 63.584 448 63.584C449.984 63.584 451.728 64.08 453.232 65.072C454.768 66.032 455.968 67.376 456.832 69.104C457.696 70.8 458.128 72.768 458.128 75.008C458.128 77.216 457.696 79.184 456.832 80.912C455.968 82.608 454.768 83.952 453.232 84.944C451.728 85.904 449.984 86.384 448 86.384ZM448 83.504C449.28 83.504 450.4 83.136 451.36 82.4C452.32 81.664 453.072 80.656 453.616 79.376C454.192 78.096 454.48 76.624 454.48 74.96C454.48 73.296 454.192 71.824 453.616 70.544C453.072 69.264 452.32 68.272 451.36 67.568C450.4 66.832 449.28 66.464 448 66.464C446.752 66.464 445.632 66.832 444.64 67.568C443.68 68.272 442.912 69.264 442.336 70.544C441.792 71.824 441.52 73.296 441.52 74.96C441.52 76.624 441.792 78.096 442.336 79.376C442.912 80.656 443.68 81.664 444.64 82.4C445.632 83.136 446.752 83.504 448 83.504ZM461.824 86V64.064H464.992V66.224C465.344 65.68 465.744 65.216 466.192 64.832C466.672 64.416 467.184 64.096 467.728 63.872C468.304 63.648 468.88 63.536 469.456 63.536C470.096 63.536 470.688 63.68 471.232 63.968C471.776 64.224 472.224 64.592 472.576 65.072C472.96 65.552 473.216 66.112 473.344 66.752C473.632 66.112 474.016 65.552 474.496 65.072C475.008 64.592 475.584 64.224 476.224 63.968C476.896 63.68 477.584 63.536 478.288 63.536C479.024 63.536 479.664 63.68 480.208 63.968C480.752 64.256 481.2 64.656 481.552 65.168C481.904 65.648 482.16 66.24 482.32 66.944C482.48 67.616 482.544 68.352 482.512 69.152V86H479.344V70.448C479.344 69.104 479.248 68.128 479.056 67.52C478.896 66.912 478.656 66.528 478.336 66.368C478.016 66.176 477.664 66.08 477.28 66.08C476.672 66.08 476.096 66.368 475.552 66.944C475.04 67.488 474.608 68.176 474.256 69.008C473.936 69.84 473.776 70.672 473.776 71.504V86H470.56V70.736C470.56 68.912 470.384 67.696 470.032 67.088C469.712 66.48 469.088 66.176 468.16 66.176C467.808 66.176 467.44 66.304 467.056 66.56C466.704 66.784 466.368 67.12 466.048 67.568C465.728 67.984 465.472 68.512 465.28 69.152C465.088 69.792 464.992 70.528 464.992 71.36V86H461.824ZM489.328 72.512V69.296H502.768V72.512H489.328ZM512.8 86V83.216H518.416V66.848H513.088V64.064H521.872V83.216H527.008V86H512.8ZM519.952 59.456C519.28 59.456 518.704 59.216 518.224 58.736C517.744 58.256 517.504 57.68 517.504 57.008C517.504 56.304 517.728 55.712 518.176 55.232C518.656 54.752 519.248 54.512 519.952 54.512C520.624 54.512 521.2 54.768 521.68 55.28C522.192 55.76 522.448 56.336 522.448 57.008C522.448 57.68 522.192 58.256 521.68 58.736C521.2 59.216 520.624 59.456 519.952 59.456ZM535.456 86V64.064H538.816V67.952C539.392 67.056 540.064 66.288 540.832 65.648C541.6 64.976 542.448 64.464 543.376 64.112C544.304 63.728 545.264 63.536 546.256 63.536C547.472 63.536 548.56 63.84 549.52 64.448C550.48 65.056 551.248 66.032 551.824 67.376C552.4 68.72 552.688 70.496 552.688 72.704V86H549.328V72.8C549.328 71.264 549.152 70.048 548.8 69.152C548.448 68.224 547.968 67.568 547.36 67.184C546.752 66.768 546.064 66.56 545.296 66.56C544.56 66.56 543.808 66.72 543.04 67.04C542.304 67.36 541.616 67.824 540.976 68.432C540.336 69.008 539.808 69.712 539.392 70.544C539.008 71.376 538.816 72.32 538.816 73.376V86H535.456ZM558.88 94.016V64.064H562.384V68.384C562.736 67.264 563.232 66.352 563.872 65.648C564.544 64.944 565.312 64.432 566.176 64.112C567.072 63.76 568.032 63.584 569.056 63.584C570.272 63.584 571.424 63.824 572.512 64.304C573.632 64.752 574.608 65.44 575.44 66.368C576.304 67.296 576.976 68.464 577.456 69.872C577.968 71.28 578.224 72.944 578.224 74.864C578.224 76.784 577.952 78.48 577.408 79.952C576.896 81.424 576.192 82.656 575.296 83.648C574.432 84.608 573.44 85.344 572.32 85.856C571.232 86.336 570.112 86.576 568.96 86.576C568.096 86.576 567.248 86.432 566.416 86.144C565.616 85.888 564.88 85.504 564.208 84.992C563.536 84.448 562.944 83.824 562.432 83.12V94.016H558.88ZM568.384 83.504C569.152 83.504 569.904 83.376 570.64 83.12C571.376 82.832 572.048 82.368 572.656 81.728C573.264 81.088 573.744 80.224 574.096 79.136C574.448 78.016 574.624 76.64 574.624 75.008C574.624 73.248 574.4 71.76 573.952 70.544C573.504 69.296 572.848 68.336 571.984 67.664C571.152 66.992 570.128 66.624 568.912 66.56C568.016 66.496 567.168 66.624 566.368 66.944C565.6 67.264 564.912 67.792 564.304 68.528C563.696 69.264 563.216 70.24 562.864 71.456C562.544 72.64 562.384 74.08 562.384 75.776C562.416 76.8 562.528 77.728 562.72 78.56C562.912 79.392 563.184 80.128 563.536 80.768C563.888 81.376 564.304 81.888 564.784 82.304C565.264 82.688 565.808 82.992 566.416 83.216C567.024 83.408 567.68 83.504 568.384 83.504ZM590.608 86.528C589.744 86.528 588.928 86.4 588.16 86.144C587.392 85.888 586.688 85.504 586.048 84.992C585.44 84.448 584.912 83.776 584.464 82.976C584.016 82.176 583.664 81.216 583.408 80.096C583.184 78.976 583.072 77.712 583.072 76.304L583.12 64.064H586.48V76.304C586.48 77.68 586.608 78.848 586.864 79.808C587.12 80.768 587.472 81.536 587.92 82.112C588.4 82.688 588.944 83.104 589.552 83.36C590.16 83.616 590.8 83.744 591.472 83.744C592.24 83.744 592.976 83.6 593.68 83.312C594.384 82.992 595.008 82.528 595.552 81.92C596.128 81.312 596.576 80.528 596.896 79.568C597.216 78.608 597.376 77.472 597.376 76.16V64.064H600.736V82.592C600.736 83.168 600.752 83.744 600.784 84.32C600.848 84.864 600.992 85.424 601.216 86H597.904C597.744 85.616 597.632 85.248 597.568 84.896C597.504 84.512 597.456 84.128 597.424 83.744C597.424 83.36 597.424 82.992 597.424 82.64C597.072 83.248 596.656 83.792 596.176 84.272C595.696 84.752 595.152 85.168 594.544 85.52C593.968 85.84 593.344 86.08 592.672 86.24C592.032 86.432 591.344 86.528 590.608 86.528ZM618.352 86.336C616.944 86.336 615.792 86.096 614.896 85.616C614 85.136 613.312 84.4 612.832 83.408C612.352 82.384 612.032 81.104 611.872 79.568C611.744 78.032 611.712 76.208 611.776 74.096L612.352 58.448L615.952 58.016L616.432 57.968L616.48 58.304C616.32 58.528 616.176 58.752 616.048 58.976C615.952 59.2 615.872 59.584 615.808 60.128L615.376 65.552L615.52 66.416L615.184 74.336C615.088 76.768 615.152 78.656 615.376 80C615.6 81.312 616 82.224 616.576 82.736C617.152 83.216 617.92 83.456 618.88 83.456C619.936 83.456 620.864 83.248 621.664 82.832C622.496 82.416 623.36 81.888 624.256 81.248L625.312 83.984C624.224 84.784 623.104 85.376 621.952 85.76C620.8 86.144 619.6 86.336 618.352 86.336ZM607.36 64.064H623.152V66.896H607.36V64.064ZM643.408 68.384L641.776 66.944C642.384 66.368 642.912 65.776 643.36 65.168C643.84 64.528 644.208 63.92 644.464 63.344C644.752 62.768 644.896 62.288 644.896 61.904C644.896 61.552 644.768 61.248 644.512 60.992C644.288 60.704 644 60.432 643.648 60.176C643.328 59.92 643.04 59.632 642.784 59.312C642.56 58.992 642.448 58.624 642.448 58.208C642.448 57.408 642.704 56.736 643.216 56.192C643.76 55.648 644.448 55.376 645.28 55.376C646.112 55.376 646.864 55.744 647.536 56.48C648.208 57.216 648.544 58.176 648.544 59.36C648.544 60.192 648.352 61.088 647.968 62.048C647.584 63.008 647.008 64.016 646.24 65.072C645.504 66.096 644.56 67.2 643.408 68.384ZM633.568 68.384L631.936 66.944C632.544 66.368 633.072 65.776 633.52 65.168C634 64.528 634.368 63.92 634.624 63.344C634.912 62.768 635.056 62.288 635.056 61.904C635.056 61.552 634.928 61.248 634.672 60.992C634.448 60.704 634.16 60.432 633.808 60.176C633.488 59.92 633.2 59.632 632.944 59.312C632.72 58.992 632.608 58.624 632.608 58.208C632.608 57.408 632.864 56.736 633.376 56.192C633.92 55.648 634.608 55.376 635.44 55.376C636.272 55.376 637.024 55.744 637.696 56.48C638.368 57.216 638.704 58.176 638.704 59.36C638.704 60.192 638.512 61.088 638.128 62.048C637.744 63.008 637.168 64.016 636.4 65.072C635.664 66.096 634.72 67.2 633.568 68.384ZM690.352 86.336C688.944 86.336 687.792 86.096 686.896 85.616C686 85.136 685.312 84.4 684.832 83.408C684.352 82.384 684.032 81.104 683.872 79.568C683.744 78.032 683.712 76.208 683.776 74.096L684.352 58.448L687.952 58.016L688.432 57.968L688.48 58.304C688.32 58.528 688.176 58.752 688.048 58.976C687.952 59.2 687.872 59.584 687.808 60.128L687.376 65.552L687.52 66.416L687.184 74.336C687.088 76.768 687.152 78.656 687.376 80C687.6 81.312 688 82.224 688.576 82.736C689.152 83.216 689.92 83.456 690.88 83.456C691.936 83.456 692.864 83.248 693.664 82.832C694.496 82.416 695.36 81.888 696.256 81.248L697.312 83.984C696.224 84.784 695.104 85.376 693.952 85.76C692.8 86.144 691.6 86.336 690.352 86.336ZM679.36 64.064H695.152V66.896H679.36V64.064ZM706.096 94.352C705.072 94.352 704.128 94.192 703.264 93.872C702.432 93.552 701.696 93.088 701.056 92.48L702.544 90.128L702.832 89.696L703.12 89.888C703.184 90.144 703.296 90.352 703.456 90.512C703.616 90.704 703.92 90.944 704.368 91.232C704.656 91.328 704.96 91.392 705.28 91.424C705.6 91.488 705.936 91.52 706.288 91.52C707.152 91.52 707.872 91.312 708.448 90.896C709.056 90.48 709.584 89.84 710.032 88.976C710.48 88.112 710.912 87.024 711.328 85.712L715.504 72.8C715.984 71.328 716.448 69.872 716.896 68.432C717.344 66.992 717.648 65.536 717.808 64.064H721.264C721.04 65.536 720.688 67.024 720.208 68.528C719.728 70.032 719.216 71.536 718.672 73.04L713.2 88.496C712.432 90.64 711.44 92.144 710.224 93.008C709.04 93.904 707.664 94.352 706.096 94.352ZM702.208 64.064H705.808L712.912 82.352L711.376 86.624L702.208 64.064ZM726.88 94.016V64.064H730.384V68.384C730.736 67.264 731.232 66.352 731.872 65.648C732.544 64.944 733.312 64.432 734.176 64.112C735.072 63.76 736.032 63.584 737.056 63.584C738.272 63.584 739.424 63.824 740.512 64.304C741.632 64.752 742.608 65.44 743.44 66.368C744.304 67.296 744.976 68.464 745.456 69.872C745.968 71.28 746.224 72.944 746.224 74.864C746.224 76.784 745.952 78.48 745.408 79.952C744.896 81.424 744.192 82.656 743.296 83.648C742.432 84.608 741.44 85.344 740.32 85.856C739.232 86.336 738.112 86.576 736.96 86.576C736.096 86.576 735.248 86.432 734.416 86.144C733.616 85.888 732.88 85.504 732.208 84.992C731.536 84.448 730.944 83.824 730.432 83.12V94.016H726.88ZM736.384 83.504C737.152 83.504 737.904 83.376 738.64 83.12C739.376 82.832 740.048 82.368 740.656 81.728C741.264 81.088 741.744 80.224 742.096 79.136C742.448 78.016 742.624 76.64 742.624 75.008C742.624 73.248 742.4 71.76 741.952 70.544C741.504 69.296 740.848 68.336 739.984 67.664C739.152 66.992 738.128 66.624 736.912 66.56C736.016 66.496 735.168 66.624 734.368 66.944C733.6 67.264 732.912 67.792 732.304 68.528C731.696 69.264 731.216 70.24 730.864 71.456C730.544 72.64 730.384 74.08 730.384 75.776C730.416 76.8 730.528 77.728 730.72 78.56C730.912 79.392 731.184 80.128 731.536 80.768C731.888 81.376 732.304 81.888 732.784 82.304C733.264 82.688 733.808 82.992 734.416 83.216C735.024 83.408 735.68 83.504 736.384 83.504ZM761.056 86.48C759.456 86.48 758 86.24 756.688 85.76C755.376 85.248 754.24 84.512 753.28 83.552C752.352 82.592 751.632 81.408 751.12 80C750.608 78.56 750.352 76.928 750.352 75.104C750.352 73.248 750.608 71.6 751.12 70.16C751.664 68.72 752.384 67.52 753.28 66.56C754.208 65.568 755.28 64.816 756.496 64.304C757.744 63.792 759.056 63.536 760.432 63.536C761.68 63.536 762.848 63.744 763.936 64.16C765.024 64.576 765.968 65.216 766.768 66.08C767.568 66.912 768.192 67.984 768.64 69.296C769.12 70.608 769.36 72.16 769.36 73.952C769.36 74.208 769.344 74.48 769.312 74.768C769.312 75.024 769.296 75.28 769.264 75.536H753.664C753.728 76.944 753.968 78.176 754.384 79.232C754.8 80.256 755.344 81.104 756.016 81.776C756.688 82.416 757.456 82.896 758.32 83.216C759.216 83.536 760.16 83.696 761.152 83.696C761.92 83.696 762.64 83.616 763.312 83.456C763.984 83.264 764.608 82.992 765.184 82.64C765.792 82.256 766.336 81.792 766.816 81.248L768.736 83.12C768.128 83.856 767.424 84.48 766.624 84.992C765.856 85.504 765.008 85.872 764.08 86.096C763.152 86.352 762.144 86.48 761.056 86.48ZM753.808 72.848H765.856C765.856 71.824 765.712 70.912 765.424 70.112C765.168 69.28 764.784 68.576 764.272 68C763.792 67.392 763.2 66.944 762.496 66.656C761.824 66.336 761.056 66.176 760.192 66.176C759.424 66.176 758.688 66.304 757.984 66.56C757.312 66.816 756.688 67.232 756.112 67.808C755.536 68.352 755.04 69.04 754.624 69.872C754.24 70.704 753.968 71.696 753.808 72.848ZM774.16 67.328V64.4H793.888V67.328H774.16ZM774.16 77.264V74.336H793.888V77.264H774.16ZM811.408 68.384L809.776 66.944C810.384 66.368 810.912 65.776 811.36 65.168C811.84 64.528 812.208 63.92 812.464 63.344C812.752 62.768 812.896 62.288 812.896 61.904C812.896 61.552 812.768 61.248 812.512 60.992C812.288 60.704 812 60.432 811.648 60.176C811.328 59.92 811.04 59.632 810.784 59.312C810.56 58.992 810.448 58.624 810.448 58.208C810.448 57.408 810.704 56.736 811.216 56.192C811.76 55.648 812.448 55.376 813.28 55.376C814.112 55.376 814.864 55.744 815.536 56.48C816.208 57.216 816.544 58.176 816.544 59.36C816.544 60.192 816.352 61.088 815.968 62.048C815.584 63.008 815.008 64.016 814.24 65.072C813.504 66.096 812.56 67.2 811.408 68.384ZM801.568 68.384L799.936 66.944C800.544 66.368 801.072 65.776 801.52 65.168C802 64.528 802.368 63.92 802.624 63.344C802.912 62.768 803.056 62.288 803.056 61.904C803.056 61.552 802.928 61.248 802.672 60.992C802.448 60.704 802.16 60.432 801.808 60.176C801.488 59.92 801.2 59.632 800.944 59.312C800.72 58.992 800.608 58.624 800.608 58.208C800.608 57.408 800.864 56.736 801.376 56.192C801.92 55.648 802.608 55.376 803.44 55.376C804.272 55.376 805.024 55.744 805.696 56.48C806.368 57.216 806.704 58.176 806.704 59.36C806.704 60.192 806.512 61.088 806.128 62.048C805.744 63.008 805.168 64.016 804.4 65.072C803.664 66.096 802.72 67.2 801.568 68.384ZM834.352 86.336C832.944 86.336 831.792 86.096 830.896 85.616C830 85.136 829.312 84.4 828.832 83.408C828.352 82.384 828.032 81.104 827.872 79.568C827.744 78.032 827.712 76.208 827.776 74.096L828.352 58.448L831.952 58.016L832.432 57.968L832.48 58.304C832.32 58.528 832.176 58.752 832.048 58.976C831.952 59.2 831.872 59.584 831.808 60.128L831.376 65.552L831.52 66.416L831.184 74.336C831.088 76.768 831.152 78.656 831.376 80C831.6 81.312 832 82.224 832.576 82.736C833.152 83.216 833.92 83.456 834.88 83.456C835.936 83.456 836.864 83.248 837.664 82.832C838.496 82.416 839.36 81.888 840.256 81.248L841.312 83.984C840.224 84.784 839.104 85.376 837.952 85.76C836.8 86.144 835.6 86.336 834.352 86.336ZM823.36 64.064H839.152V66.896H823.36V64.064ZM857.056 86.48C855.456 86.48 854 86.24 852.688 85.76C851.376 85.248 850.24 84.512 849.28 83.552C848.352 82.592 847.632 81.408 847.12 80C846.608 78.56 846.352 76.928 846.352 75.104C846.352 73.248 846.608 71.6 847.12 70.16C847.664 68.72 848.384 67.52 849.28 66.56C850.208 65.568 851.28 64.816 852.496 64.304C853.744 63.792 855.056 63.536 856.432 63.536C857.68 63.536 858.848 63.744 859.936 64.16C861.024 64.576 861.968 65.216 862.768 66.08C863.568 66.912 864.192 67.984 864.64 69.296C865.12 70.608 865.36 72.16 865.36 73.952C865.36 74.208 865.344 74.48 865.312 74.768C865.312 75.024 865.296 75.28 865.264 75.536H849.664C849.728 76.944 849.968 78.176 850.384 79.232C850.8 80.256 851.344 81.104 852.016 81.776C852.688 82.416 853.456 82.896 854.32 83.216C855.216 83.536 856.16 83.696 857.152 83.696C857.92 83.696 858.64 83.616 859.312 83.456C859.984 83.264 860.608 82.992 861.184 82.64C861.792 82.256 862.336 81.792 862.816 81.248L864.736 83.12C864.128 83.856 863.424 84.48 862.624 84.992C861.856 85.504 861.008 85.872 860.08 86.096C859.152 86.352 858.144 86.48 857.056 86.48ZM849.808 72.848H861.856C861.856 71.824 861.712 70.912 861.424 70.112C861.168 69.28 860.784 68.576 860.272 68C859.792 67.392 859.2 66.944 858.496 66.656C857.824 66.336 857.056 66.176 856.192 66.176C855.424 66.176 854.688 66.304 853.984 66.56C853.312 66.816 852.688 67.232 852.112 67.808C851.536 68.352 851.04 69.04 850.624 69.872C850.24 70.704 849.968 71.696 849.808 72.848ZM870.256 86L877.984 74.864L870.4 64.064H874.192L879.904 72.176L885.376 64.064H888.928L881.824 74.72L889.888 86H885.952L879.904 77.456L874.192 86H870.256ZM906.352 86.336C904.944 86.336 903.792 86.096 902.896 85.616C902 85.136 901.312 84.4 900.832 83.408C900.352 82.384 900.032 81.104 899.872 79.568C899.744 78.032 899.712 76.208 899.776 74.096L900.352 58.448L903.952 58.016L904.432 57.968L904.48 58.304C904.32 58.528 904.176 58.752 904.048 58.976C903.952 59.2 903.872 59.584 903.808 60.128L903.376 65.552L903.52 66.416L903.184 74.336C903.088 76.768 903.152 78.656 903.376 80C903.6 81.312 904 82.224 904.576 82.736C905.152 83.216 905.92 83.456 906.88 83.456C907.936 83.456 908.864 83.248 909.664 82.832C910.496 82.416 911.36 81.888 912.256 81.248L913.312 83.984C912.224 84.784 911.104 85.376 909.952 85.76C908.8 86.144 907.6 86.336 906.352 86.336ZM895.36 64.064H911.152V66.896H895.36V64.064ZM931.408 68.384L929.776 66.944C930.384 66.368 930.912 65.776 931.36 65.168C931.84 64.528 932.208 63.92 932.464 63.344C932.752 62.768 932.896 62.288 932.896 61.904C932.896 61.552 932.768 61.248 932.512 60.992C932.288 60.704 932 60.432 931.648 60.176C931.328 59.92 931.04 59.632 930.784 59.312C930.56 58.992 930.448 58.624 930.448 58.208C930.448 57.408 930.704 56.736 931.216 56.192C931.76 55.648 932.448 55.376 933.28 55.376C934.112 55.376 934.864 55.744 935.536 56.48C936.208 57.216 936.544 58.176 936.544 59.36C936.544 60.192 936.352 61.088 935.968 62.048C935.584 63.008 935.008 64.016 934.24 65.072C933.504 66.096 932.56 67.2 931.408 68.384ZM921.568 68.384L919.936 66.944C920.544 66.368 921.072 65.776 921.52 65.168C922 64.528 922.368 63.92 922.624 63.344C922.912 62.768 923.056 62.288 923.056 61.904C923.056 61.552 922.928 61.248 922.672 60.992C922.448 60.704 922.16 60.432 921.808 60.176C921.488 59.92 921.2 59.632 920.944 59.312C920.72 58.992 920.608 58.624 920.608 58.208C920.608 57.408 920.864 56.736 921.376 56.192C921.92 55.648 922.608 55.376 923.44 55.376C924.272 55.376 925.024 55.744 925.696 56.48C926.368 57.216 926.704 58.176 926.704 59.36C926.704 60.192 926.512 61.088 926.128 62.048C925.744 63.008 925.168 64.016 924.4 65.072C923.664 66.096 922.72 67.2 921.568 68.384ZM969.904 88.016L967.072 86.624L982.096 54.08L984.976 55.568L969.904 88.016ZM989.92 83.744V80.096L1006.67 70.688L990.016 62.192V58.784L1010.37 69.488V71.792L989.92 83.744Z" fill="currentColor"/>
<line x1="1012" y1="156.894" x2="4" y2="156.894" stroke="currentColor" stroke-width="4"/>
<line x1="2" y1="155.875" x2="2" y2="119.981" stroke="currentColor" stroke-width="4"/>
<line x1="1010" y1="154.894" x2="1010" y2="119" stroke="currentColor" stroke-width="4"/>
<path d="M389.932 190.034V186.909H411.75V190.034H402.602V216H399.08V190.034H389.932ZM420.184 216.511C418.801 216.511 417.547 216.251 416.42 215.73C415.293 215.2 414.398 214.438 413.735 213.443C413.072 212.439 412.741 211.227 412.741 209.807C412.741 208.557 412.987 207.544 413.479 206.767C413.972 205.981 414.63 205.366 415.454 204.92C416.278 204.475 417.187 204.144 418.181 203.926C419.185 203.699 420.193 203.519 421.207 203.386C422.532 203.216 423.607 203.088 424.431 203.003C425.264 202.908 425.871 202.752 426.249 202.534C426.638 202.316 426.832 201.937 426.832 201.398V201.284C426.832 199.883 426.448 198.794 425.681 198.017C424.924 197.241 423.773 196.852 422.229 196.852C420.629 196.852 419.374 197.203 418.465 197.903C417.556 198.604 416.917 199.352 416.548 200.148L413.366 199.011C413.934 197.686 414.692 196.653 415.638 195.915C416.595 195.167 417.637 194.646 418.763 194.352C419.9 194.049 421.017 193.898 422.116 193.898C422.817 193.898 423.621 193.983 424.531 194.153C425.449 194.314 426.335 194.651 427.187 195.162C428.049 195.673 428.763 196.445 429.332 197.477C429.9 198.509 430.184 199.892 430.184 201.625V216H426.832V213.045H426.661C426.434 213.519 426.055 214.026 425.525 214.565C424.995 215.105 424.289 215.564 423.408 215.943C422.528 216.322 421.453 216.511 420.184 216.511ZM420.695 213.5C422.021 213.5 423.138 213.24 424.048 212.719C424.966 212.198 425.657 211.526 426.121 210.702C426.595 209.878 426.832 209.011 426.832 208.102V205.034C426.69 205.205 426.377 205.361 425.894 205.503C425.421 205.635 424.871 205.754 424.246 205.858C423.631 205.953 423.03 206.038 422.442 206.114C421.865 206.18 421.396 206.237 421.036 206.284C420.165 206.398 419.351 206.582 418.593 206.838C417.845 207.084 417.239 207.458 416.775 207.96C416.32 208.453 416.093 209.125 416.093 209.977C416.093 211.142 416.524 212.023 417.386 212.619C418.257 213.206 419.36 213.5 420.695 213.5ZM445.109 224.636C443.49 224.636 442.098 224.428 440.933 224.011C439.768 223.604 438.798 223.064 438.021 222.392C437.254 221.729 436.643 221.019 436.189 220.261L438.859 218.386C439.162 218.784 439.546 219.239 440.01 219.75C440.474 220.271 441.108 220.721 441.913 221.099C442.728 221.488 443.793 221.682 445.109 221.682C446.871 221.682 448.324 221.256 449.47 220.403C450.616 219.551 451.189 218.216 451.189 216.398V211.966H450.905C450.659 212.364 450.308 212.856 449.854 213.443C449.409 214.021 448.765 214.537 447.922 214.991C447.089 215.437 445.962 215.659 444.541 215.659C442.78 215.659 441.198 215.242 439.797 214.409C438.405 213.576 437.302 212.364 436.487 210.773C435.682 209.182 435.28 207.25 435.28 204.977C435.28 202.742 435.673 200.796 436.459 199.139C437.245 197.473 438.339 196.185 439.74 195.276C441.142 194.357 442.761 193.898 444.598 193.898C446.018 193.898 447.145 194.134 447.979 194.608C448.821 195.072 449.465 195.602 449.911 196.199C450.365 196.786 450.715 197.269 450.962 197.648H451.303V194.182H454.541V216.625C454.541 218.5 454.115 220.025 453.263 221.199C452.42 222.383 451.284 223.249 449.854 223.798C448.433 224.357 446.852 224.636 445.109 224.636ZM444.996 212.648C446.34 212.648 447.477 212.34 448.405 211.724C449.333 211.109 450.038 210.223 450.521 209.068C451.004 207.913 451.246 206.53 451.246 204.92C451.246 203.348 451.009 201.961 450.536 200.759C450.062 199.556 449.361 198.614 448.433 197.932C447.505 197.25 446.359 196.909 444.996 196.909C443.575 196.909 442.392 197.269 441.445 197.989C440.507 198.708 439.802 199.674 439.328 200.886C438.864 202.098 438.632 203.443 438.632 204.92C438.632 206.436 438.869 207.776 439.342 208.94C439.825 210.096 440.536 211.005 441.473 211.668C442.42 212.321 443.594 212.648 444.996 212.648Z" fill="currentColor"/>
<line x1="262" y1="19" x2="355" y2="19" stroke="currentColor" stroke-width="4"/>
<line x1="264" y1="17" x2="264" y2="45" stroke="currentColor" stroke-width="4"/>
<line x1="732.705" y1="17" x2="732.705" y2="45" stroke="currentColor" stroke-width="4"/>
<line x1="607" y1="19" x2="732" y2="19" stroke="currentColor" stroke-width="4"/>
<path d="M361.452 31H358.497L367.042 7.72727H369.952L378.497 31H375.542L368.588 11.4091H368.406L361.452 31ZM362.542 21.9091H374.452V24.4091H362.542V21.9091ZM388.256 13.5455V15.8182H379.21V13.5455H388.256ZM381.846 9.36364H384.528V26C384.528 26.7576 384.638 27.3258 384.858 27.7045C385.085 28.0758 385.373 28.3258 385.721 28.4545C386.077 28.5758 386.452 28.6364 386.846 28.6364C387.142 28.6364 387.384 28.6212 387.574 28.5909C387.763 28.553 387.915 28.5227 388.028 28.5L388.574 30.9091C388.392 30.9773 388.138 31.0455 387.812 31.1136C387.487 31.1894 387.074 31.2273 386.574 31.2273C385.816 31.2273 385.074 31.0644 384.346 30.7386C383.627 30.4129 383.028 29.9167 382.551 29.25C382.081 28.5833 381.846 27.7424 381.846 26.7273V9.36364ZM399.881 13.5455V15.8182H390.835V13.5455H399.881ZM393.471 9.36364H396.153V26C396.153 26.7576 396.263 27.3258 396.483 27.7045C396.71 28.0758 396.998 28.3258 397.346 28.4545C397.702 28.5758 398.077 28.6364 398.471 28.6364C398.767 28.6364 399.009 28.6212 399.199 28.5909C399.388 28.553 399.54 28.5227 399.653 28.5L400.199 30.9091C400.017 30.9773 399.763 31.0455 399.437 31.1136C399.112 31.1894 398.699 31.2273 398.199 31.2273C397.441 31.2273 396.699 31.0644 395.971 30.7386C395.252 30.4129 394.653 29.9167 394.176 29.25C393.706 28.5833 393.471 27.7424 393.471 26.7273V9.36364ZM403.915 31V13.5455H406.506V16.1818H406.687C407.006 15.3182 407.581 14.6174 408.415 14.0795C409.248 13.5417 410.187 13.2727 411.233 13.2727C411.43 13.2727 411.676 13.2765 411.971 13.2841C412.267 13.2917 412.49 13.303 412.642 13.3182V16.0455C412.551 16.0227 412.343 15.9886 412.017 15.9432C411.699 15.8902 411.362 15.8636 411.006 15.8636C410.157 15.8636 409.399 16.0417 408.733 16.3977C408.074 16.7462 407.551 17.2311 407.165 17.8523C406.786 18.4659 406.596 19.1667 406.596 19.9545V31H403.915ZM415.821 31V13.5455H418.503V31H415.821ZM417.184 10.6364C416.662 10.6364 416.211 10.4583 415.832 10.1023C415.461 9.74621 415.275 9.31818 415.275 8.81818C415.275 8.31818 415.461 7.89015 415.832 7.53409C416.211 7.17803 416.662 7 417.184 7C417.707 7 418.154 7.17803 418.525 7.53409C418.904 7.89015 419.094 8.31818 419.094 8.81818C419.094 9.31818 418.904 9.74621 418.525 10.1023C418.154 10.4583 417.707 10.6364 417.184 10.6364ZM423.778 31V7.72727H426.46V16.3182H426.687C426.884 16.0152 427.157 15.6288 427.506 15.1591C427.862 14.6818 428.369 14.2576 429.028 13.8864C429.695 13.5076 430.596 13.3182 431.733 13.3182C433.202 13.3182 434.498 13.6856 435.619 14.4205C436.74 15.1553 437.615 16.197 438.244 17.5455C438.873 18.8939 439.187 20.4848 439.187 22.3182C439.187 24.1667 438.873 25.7689 438.244 27.125C437.615 28.4735 436.744 29.5189 435.631 30.2614C434.517 30.9962 433.233 31.3636 431.778 31.3636C430.657 31.3636 429.759 31.178 429.085 30.8068C428.411 30.428 427.892 30 427.528 29.5227C427.165 29.0379 426.884 28.6364 426.687 28.3182H426.369V31H423.778ZM426.415 22.2727C426.415 23.5909 426.608 24.7538 426.994 25.7614C427.381 26.7614 427.945 27.5455 428.687 28.1136C429.43 28.6742 430.339 28.9545 431.415 28.9545C432.536 28.9545 433.471 28.6591 434.221 28.0682C434.979 27.4697 435.547 26.6667 435.926 25.6591C436.312 24.6439 436.506 23.5152 436.506 22.2727C436.506 21.0455 436.316 19.9394 435.937 18.9545C435.566 17.9621 435.002 17.178 434.244 16.6023C433.494 16.0189 432.551 15.7273 431.415 15.7273C430.324 15.7273 429.407 16.0038 428.665 16.5568C427.922 17.1023 427.362 17.8674 426.983 18.8523C426.604 19.8295 426.415 20.9697 426.415 22.2727ZM454.29 23.8636V13.5455H456.971V31H454.29V28.0455H454.108C453.699 28.9318 453.062 29.6856 452.199 30.3068C451.335 30.9205 450.244 31.2273 448.926 31.2273C447.835 31.2273 446.865 30.9886 446.017 30.5114C445.168 30.0265 444.502 29.2992 444.017 28.3295C443.532 27.3523 443.29 26.1212 443.29 24.6364V13.5455H445.971V24.4545C445.971 25.7273 446.327 26.7424 447.04 27.5C447.759 28.2576 448.676 28.6364 449.79 28.6364C450.456 28.6364 451.134 28.4659 451.824 28.125C452.521 27.7841 453.104 27.2614 453.574 26.5568C454.051 25.8523 454.29 24.9545 454.29 23.8636ZM469.474 13.5455V15.8182H460.429V13.5455H469.474ZM463.065 9.36364H465.747V26C465.747 26.7576 465.857 27.3258 466.077 27.7045C466.304 28.0758 466.592 28.3258 466.94 28.4545C467.296 28.5758 467.671 28.6364 468.065 28.6364C468.361 28.6364 468.603 28.6212 468.792 28.5909C468.982 28.553 469.133 28.5227 469.247 28.5L469.792 30.9091C469.611 30.9773 469.357 31.0455 469.031 31.1136C468.705 31.1894 468.292 31.2273 467.792 31.2273C467.035 31.2273 466.292 31.0644 465.565 30.7386C464.845 30.4129 464.247 29.9167 463.77 29.25C463.3 28.5833 463.065 27.7424 463.065 26.7273V9.36364ZM480.639 31.3636C478.957 31.3636 477.506 30.9924 476.287 30.25C475.075 29.5 474.139 28.4545 473.48 27.1136C472.828 25.7652 472.503 24.197 472.503 22.4091C472.503 20.6212 472.828 19.0455 473.48 17.6818C474.139 16.3106 475.056 15.2424 476.23 14.4773C477.412 13.7045 478.791 13.3182 480.366 13.3182C481.275 13.3182 482.173 13.4697 483.059 13.7727C483.946 14.0758 484.753 14.5682 485.48 15.25C486.207 15.9242 486.787 16.8182 487.219 17.9318C487.65 19.0455 487.866 20.4167 487.866 22.0455V23.1818H474.412V20.8636H485.139C485.139 19.8788 484.942 19 484.548 18.2273C484.162 17.4545 483.609 16.8447 482.889 16.3977C482.177 15.9508 481.336 15.7273 480.366 15.7273C479.298 15.7273 478.374 15.9924 477.594 16.5227C476.821 17.0455 476.226 17.7273 475.809 18.5682C475.393 19.4091 475.184 20.3106 475.184 21.2727V22.8182C475.184 24.1364 475.412 25.2538 475.866 26.1705C476.328 27.0795 476.969 27.7727 477.787 28.25C478.605 28.7197 479.556 28.9545 480.639 28.9545C481.344 28.9545 481.98 28.8561 482.548 28.6591C483.124 28.4545 483.62 28.1515 484.037 27.75C484.453 27.3409 484.775 26.8333 485.003 26.2273L487.594 26.9545C487.321 27.8333 486.863 28.6061 486.219 29.2727C485.575 29.9318 484.779 30.447 483.832 30.8182C482.885 31.1818 481.821 31.3636 480.639 31.3636ZM519.764 7.72727V31H517.037L504.355 12.7273H504.128V31H501.309V7.72727H504.037L516.764 26.0455H516.991V7.72727H519.764ZM530.176 31.4091C529.07 31.4091 528.066 31.2008 527.165 30.7841C526.263 30.3598 525.547 29.75 525.017 28.9545C524.487 28.1515 524.221 27.1818 524.221 26.0455C524.221 25.0455 524.418 24.2348 524.812 23.6136C525.206 22.9848 525.733 22.4924 526.392 22.1364C527.051 21.7803 527.778 21.5152 528.574 21.3409C529.377 21.1591 530.184 21.0152 530.994 20.9091C532.055 20.7727 532.915 20.6705 533.574 20.6023C534.24 20.5265 534.725 20.4015 535.028 20.2273C535.339 20.053 535.494 19.75 535.494 19.3182V19.2273C535.494 18.1061 535.187 17.2348 534.574 16.6136C533.968 15.9924 533.047 15.6818 531.812 15.6818C530.532 15.6818 529.528 15.9621 528.801 16.5227C528.074 17.0833 527.562 17.6818 527.267 18.3182L524.721 17.4091C525.176 16.3485 525.782 15.5227 526.54 14.9318C527.305 14.3333 528.138 13.9167 529.04 13.6818C529.949 13.4394 530.843 13.3182 531.721 13.3182C532.282 13.3182 532.926 13.3864 533.653 13.5227C534.388 13.6515 535.096 13.9205 535.778 14.3295C536.468 14.7386 537.04 15.3561 537.494 16.1818C537.949 17.0076 538.176 18.1136 538.176 19.5V31H535.494V28.6364H535.358C535.176 29.0152 534.873 29.4205 534.449 29.8523C534.024 30.2841 533.46 30.6515 532.756 30.9545C532.051 31.2576 531.191 31.4091 530.176 31.4091ZM530.585 29C531.646 29 532.54 28.7917 533.267 28.375C534.002 27.9583 534.555 27.4205 534.926 26.7614C535.305 26.1023 535.494 25.4091 535.494 24.6818V22.2273C535.381 22.3636 535.131 22.4886 534.744 22.6023C534.365 22.7083 533.926 22.803 533.426 22.8864C532.934 22.9621 532.452 23.0303 531.983 23.0909C531.521 23.1439 531.146 23.1894 530.858 23.2273C530.161 23.3182 529.509 23.4659 528.903 23.6705C528.305 23.8674 527.82 24.1667 527.449 24.5682C527.085 24.9621 526.903 25.5 526.903 26.1818C526.903 27.1136 527.248 27.8182 527.937 28.2955C528.634 28.7652 529.517 29 530.585 29ZM543.071 31V13.5455H545.662V16.2727H545.889C546.253 15.3409 546.84 14.6174 547.65 14.1023C548.461 13.5795 549.434 13.3182 550.571 13.3182C551.722 13.3182 552.681 13.5795 553.446 14.1023C554.219 14.6174 554.821 15.3409 555.253 16.2727H555.434C555.881 15.3712 556.552 14.6553 557.446 14.125C558.34 13.5871 559.412 13.3182 560.662 13.3182C562.222 13.3182 563.499 13.8068 564.491 14.7841C565.484 15.7538 565.98 17.2652 565.98 19.3182V31H563.298V19.3182C563.298 18.0303 562.946 17.1098 562.241 16.5568C561.537 16.0038 560.707 15.7273 559.753 15.7273C558.525 15.7273 557.575 16.0985 556.9 16.8409C556.226 17.5758 555.889 18.5076 555.889 19.6364V31H553.162V19.0455C553.162 18.053 552.84 17.2538 552.196 16.6477C551.552 16.0341 550.722 15.7273 549.707 15.7273C549.01 15.7273 548.359 15.9129 547.753 16.2841C547.154 16.6553 546.669 17.1705 546.298 17.8295C545.934 18.4811 545.753 19.2348 545.753 20.0909V31H543.071ZM578.202 31.3636C576.52 31.3636 575.069 30.9924 573.849 30.25C572.637 29.5 571.702 28.4545 571.042 27.1136C570.391 25.7652 570.065 24.197 570.065 22.4091C570.065 20.6212 570.391 19.0455 571.042 17.6818C571.702 16.3106 572.618 15.2424 573.792 14.4773C574.974 13.7045 576.353 13.3182 577.929 13.3182C578.838 13.3182 579.736 13.4697 580.622 13.7727C581.508 14.0758 582.315 14.5682 583.042 15.25C583.77 15.9242 584.349 16.8182 584.781 17.9318C585.213 19.0455 585.429 20.4167 585.429 22.0455V23.1818H571.974V20.8636H582.702C582.702 19.8788 582.505 19 582.111 18.2273C581.724 17.4545 581.171 16.8447 580.452 16.3977C579.739 15.9508 578.898 15.7273 577.929 15.7273C576.861 15.7273 575.936 15.9924 575.156 16.5227C574.383 17.0455 573.789 17.7273 573.372 18.5682C572.955 19.4091 572.747 20.3106 572.747 21.2727V22.8182C572.747 24.1364 572.974 25.2538 573.429 26.1705C573.891 27.0795 574.531 27.7727 575.349 28.25C576.167 28.7197 577.118 28.9545 578.202 28.9545C578.906 28.9545 579.542 28.8561 580.111 28.6591C580.686 28.4545 581.183 28.1515 581.599 27.75C582.016 27.3409 582.338 26.8333 582.565 26.2273L585.156 26.9545C584.883 27.8333 584.425 28.6061 583.781 29.2727C583.137 29.9318 582.342 30.447 581.395 30.8182C580.448 31.1818 579.383 31.3636 578.202 31.3636ZM601.872 17.4545L599.463 18.1364C599.311 17.7348 599.088 17.3447 598.792 16.9659C598.505 16.5795 598.111 16.2614 597.611 16.0114C597.111 15.7614 596.47 15.6364 595.69 15.6364C594.622 15.6364 593.732 15.8826 593.02 16.375C592.315 16.8598 591.963 17.4773 591.963 18.2273C591.963 18.8939 592.205 19.4205 592.69 19.8068C593.175 20.1932 593.933 20.5152 594.963 20.7727L597.554 21.4091C599.114 21.7879 600.277 22.3674 601.042 23.1477C601.808 23.9205 602.19 24.9167 602.19 26.1364C602.19 27.1364 601.902 28.0303 601.327 28.8182C600.758 29.6061 599.963 30.2273 598.94 30.6818C597.917 31.1364 596.728 31.3636 595.372 31.3636C593.592 31.3636 592.118 30.9773 590.952 30.2045C589.785 29.4318 589.046 28.303 588.736 26.8182L591.281 26.1818C591.523 27.1212 591.982 27.8258 592.656 28.2955C593.338 28.7652 594.228 29 595.327 29C596.577 29 597.569 28.7348 598.304 28.2045C599.046 27.6667 599.417 27.0227 599.417 26.2727C599.417 25.6667 599.205 25.1591 598.781 24.75C598.357 24.3333 597.705 24.0227 596.827 23.8182L593.917 23.1364C592.319 22.7576 591.145 22.1705 590.395 21.375C589.652 20.572 589.281 19.5682 589.281 18.3636C589.281 17.3788 589.558 16.5076 590.111 15.75C590.671 14.9924 591.433 14.3977 592.395 13.9659C593.364 13.5341 594.463 13.3182 595.69 13.3182C597.417 13.3182 598.773 13.697 599.758 14.4545C600.751 15.2121 601.455 16.2121 601.872 17.4545Z" fill="currentColor"/>
<line x1="370.42" y1="123" x2="370.42" y2="95" stroke="currentColor" stroke-width="4"/>
<line x1="508" y1="121" x2="371" y2="121" stroke="currentColor" stroke-width="4"/>
<line x1="861" y1="117" x2="768" y2="117" stroke="currentColor" stroke-width="4"/>
<line x1="859" y1="119" x2="859" y2="91" stroke="currentColor" stroke-width="4"/>
<path d="M528.311 126H525.356L533.902 102.727H536.811L545.356 126H542.402L535.447 106.409H535.265L528.311 126ZM529.402 116.909H541.311V119.409H529.402V116.909ZM555.115 108.545V110.818H546.069V108.545H555.115ZM548.706 104.364H551.388V121C551.388 121.758 551.497 122.326 551.717 122.705C551.944 123.076 552.232 123.326 552.581 123.455C552.937 123.576 553.312 123.636 553.706 123.636C554.001 123.636 554.244 123.621 554.433 123.591C554.622 123.553 554.774 123.523 554.888 123.5L555.433 125.909C555.251 125.977 554.997 126.045 554.672 126.114C554.346 126.189 553.933 126.227 553.433 126.227C552.675 126.227 551.933 126.064 551.206 125.739C550.486 125.413 549.888 124.917 549.41 124.25C548.941 123.583 548.706 122.742 548.706 121.727V104.364ZM566.74 108.545V110.818H557.694V108.545H566.74ZM560.331 104.364H563.013V121C563.013 121.758 563.122 122.326 563.342 122.705C563.569 123.076 563.857 123.326 564.206 123.455C564.562 123.576 564.937 123.636 565.331 123.636C565.626 123.636 565.869 123.621 566.058 123.591C566.247 123.553 566.399 123.523 566.513 123.5L567.058 125.909C566.876 125.977 566.622 126.045 566.297 126.114C565.971 126.189 565.558 126.227 565.058 126.227C564.3 126.227 563.558 126.064 562.831 125.739C562.111 125.413 561.513 124.917 561.035 124.25C560.566 123.583 560.331 122.742 560.331 121.727V104.364ZM570.774 126V108.545H573.365V111.182H573.547C573.865 110.318 574.441 109.617 575.274 109.08C576.107 108.542 577.047 108.273 578.092 108.273C578.289 108.273 578.535 108.277 578.831 108.284C579.126 108.292 579.35 108.303 579.501 108.318V111.045C579.41 111.023 579.202 110.989 578.876 110.943C578.558 110.89 578.221 110.864 577.865 110.864C577.016 110.864 576.259 111.042 575.592 111.398C574.933 111.746 574.41 112.231 574.024 112.852C573.645 113.466 573.456 114.167 573.456 114.955V126H570.774ZM582.68 126V108.545H585.362V126H582.68ZM584.044 105.636C583.521 105.636 583.07 105.458 582.692 105.102C582.32 104.746 582.135 104.318 582.135 103.818C582.135 103.318 582.32 102.89 582.692 102.534C583.07 102.178 583.521 102 584.044 102C584.567 102 585.014 102.178 585.385 102.534C585.764 102.89 585.953 103.318 585.953 103.818C585.953 104.318 585.764 104.746 585.385 105.102C585.014 105.458 584.567 105.636 584.044 105.636ZM590.638 126V102.727H593.319V111.318H593.547C593.744 111.015 594.016 110.629 594.365 110.159C594.721 109.682 595.229 109.258 595.888 108.886C596.554 108.508 597.456 108.318 598.592 108.318C600.062 108.318 601.357 108.686 602.479 109.42C603.6 110.155 604.475 111.197 605.104 112.545C605.732 113.894 606.047 115.485 606.047 117.318C606.047 119.167 605.732 120.769 605.104 122.125C604.475 123.473 603.604 124.519 602.49 125.261C601.376 125.996 600.092 126.364 598.638 126.364C597.516 126.364 596.619 126.178 595.944 125.807C595.27 125.428 594.751 125 594.388 124.523C594.024 124.038 593.744 123.636 593.547 123.318H593.229V126H590.638ZM593.274 117.273C593.274 118.591 593.467 119.754 593.854 120.761C594.24 121.761 594.804 122.545 595.547 123.114C596.289 123.674 597.198 123.955 598.274 123.955C599.395 123.955 600.331 123.659 601.081 123.068C601.838 122.47 602.407 121.667 602.785 120.659C603.172 119.644 603.365 118.515 603.365 117.273C603.365 116.045 603.175 114.939 602.797 113.955C602.425 112.962 601.861 112.178 601.104 111.602C600.354 111.019 599.41 110.727 598.274 110.727C597.183 110.727 596.266 111.004 595.524 111.557C594.782 112.102 594.221 112.867 593.842 113.852C593.463 114.83 593.274 115.97 593.274 117.273ZM621.149 118.864V108.545H623.831V126H621.149V123.045H620.967C620.558 123.932 619.922 124.686 619.058 125.307C618.194 125.92 617.104 126.227 615.785 126.227C614.694 126.227 613.725 125.989 612.876 125.511C612.028 125.027 611.361 124.299 610.876 123.33C610.391 122.352 610.149 121.121 610.149 119.636V108.545H612.831V119.455C612.831 120.727 613.187 121.742 613.899 122.5C614.619 123.258 615.535 123.636 616.649 123.636C617.316 123.636 617.994 123.466 618.683 123.125C619.38 122.784 619.963 122.261 620.433 121.557C620.91 120.852 621.149 119.955 621.149 118.864ZM636.334 108.545V110.818H627.288V108.545H636.334ZM629.925 104.364H632.606V121C632.606 121.758 632.716 122.326 632.936 122.705C633.163 123.076 633.451 123.326 633.8 123.455C634.156 123.576 634.531 123.636 634.925 123.636C635.22 123.636 635.462 123.621 635.652 123.591C635.841 123.553 635.993 123.523 636.106 123.5L636.652 125.909C636.47 125.977 636.216 126.045 635.89 126.114C635.565 126.189 635.152 126.227 634.652 126.227C633.894 126.227 633.152 126.064 632.425 125.739C631.705 125.413 631.106 124.917 630.629 124.25C630.159 123.583 629.925 122.742 629.925 121.727V104.364ZM647.498 126.364C645.817 126.364 644.366 125.992 643.146 125.25C641.934 124.5 640.998 123.455 640.339 122.114C639.688 120.765 639.362 119.197 639.362 117.409C639.362 115.621 639.688 114.045 640.339 112.682C640.998 111.311 641.915 110.242 643.089 109.477C644.271 108.705 645.65 108.318 647.226 108.318C648.135 108.318 649.032 108.47 649.919 108.773C650.805 109.076 651.612 109.568 652.339 110.25C653.067 110.924 653.646 111.818 654.078 112.932C654.51 114.045 654.726 115.417 654.726 117.045V118.182H641.271V115.864H651.998C651.998 114.879 651.801 114 651.407 113.227C651.021 112.455 650.468 111.845 649.748 111.398C649.036 110.951 648.195 110.727 647.226 110.727C646.157 110.727 645.233 110.992 644.453 111.523C643.68 112.045 643.086 112.727 642.669 113.568C642.252 114.409 642.044 115.311 642.044 116.273V117.818C642.044 119.136 642.271 120.254 642.726 121.17C643.188 122.08 643.828 122.773 644.646 123.25C645.464 123.72 646.415 123.955 647.498 123.955C648.203 123.955 648.839 123.856 649.407 123.659C649.983 123.455 650.479 123.152 650.896 122.75C651.313 122.341 651.635 121.833 651.862 121.227L654.453 121.955C654.18 122.833 653.722 123.606 653.078 124.273C652.434 124.932 651.639 125.447 650.692 125.818C649.745 126.182 648.68 126.364 647.498 126.364ZM669.123 102.727L676.032 122.318H676.305L683.214 102.727H686.169L677.623 126H674.714L666.169 102.727H669.123ZM692.942 126.409C691.836 126.409 690.832 126.201 689.93 125.784C689.029 125.36 688.313 124.75 687.782 123.955C687.252 123.152 686.987 122.182 686.987 121.045C686.987 120.045 687.184 119.235 687.578 118.614C687.972 117.985 688.498 117.492 689.157 117.136C689.817 116.78 690.544 116.515 691.339 116.341C692.142 116.159 692.949 116.015 693.76 115.909C694.82 115.773 695.68 115.67 696.339 115.602C697.006 115.527 697.491 115.402 697.794 115.227C698.104 115.053 698.26 114.75 698.26 114.318V114.227C698.26 113.106 697.953 112.235 697.339 111.614C696.733 110.992 695.813 110.682 694.578 110.682C693.298 110.682 692.294 110.962 691.567 111.523C690.839 112.083 690.328 112.682 690.032 113.318L687.487 112.409C687.942 111.348 688.548 110.523 689.305 109.932C690.07 109.333 690.904 108.917 691.805 108.682C692.714 108.439 693.608 108.318 694.487 108.318C695.048 108.318 695.692 108.386 696.419 108.523C697.154 108.652 697.862 108.92 698.544 109.33C699.233 109.739 699.805 110.356 700.26 111.182C700.714 112.008 700.942 113.114 700.942 114.5V126H698.26V123.636H698.123C697.942 124.015 697.639 124.42 697.214 124.852C696.79 125.284 696.226 125.652 695.521 125.955C694.817 126.258 693.957 126.409 692.942 126.409ZM693.351 124C694.411 124 695.305 123.792 696.032 123.375C696.767 122.958 697.32 122.42 697.692 121.761C698.07 121.102 698.26 120.409 698.26 119.682V117.227C698.146 117.364 697.896 117.489 697.51 117.602C697.131 117.708 696.692 117.803 696.192 117.886C695.699 117.962 695.218 118.03 694.748 118.091C694.286 118.144 693.911 118.189 693.623 118.227C692.926 118.318 692.275 118.466 691.669 118.67C691.07 118.867 690.586 119.167 690.214 119.568C689.851 119.962 689.669 120.5 689.669 121.182C689.669 122.114 690.014 122.818 690.703 123.295C691.4 123.765 692.282 124 693.351 124ZM708.518 102.727V126H705.836V102.727H708.518ZM724.43 118.864V108.545H727.112V126H724.43V123.045H724.248C723.839 123.932 723.203 124.686 722.339 125.307C721.476 125.92 720.385 126.227 719.067 126.227C717.976 126.227 717.006 125.989 716.157 125.511C715.309 125.027 714.642 124.299 714.157 123.33C713.673 122.352 713.43 121.121 713.43 119.636V108.545H716.112V119.455C716.112 120.727 716.468 121.742 717.18 122.5C717.9 123.258 718.817 123.636 719.93 123.636C720.597 123.636 721.275 123.466 721.964 123.125C722.661 122.784 723.245 122.261 723.714 121.557C724.192 120.852 724.43 119.955 724.43 118.864ZM739.342 126.364C737.66 126.364 736.21 125.992 734.99 125.25C733.778 124.5 732.842 123.455 732.183 122.114C731.532 120.765 731.206 119.197 731.206 117.409C731.206 115.621 731.532 114.045 732.183 112.682C732.842 111.311 733.759 110.242 734.933 109.477C736.115 108.705 737.494 108.318 739.069 108.318C739.979 108.318 740.876 108.47 741.763 108.773C742.649 109.076 743.456 109.568 744.183 110.25C744.91 110.924 745.49 111.818 745.922 112.932C746.354 114.045 746.569 115.417 746.569 117.045V118.182H733.115V115.864H743.842C743.842 114.879 743.645 114 743.251 113.227C742.865 112.455 742.312 111.845 741.592 111.398C740.88 110.951 740.039 110.727 739.069 110.727C738.001 110.727 737.077 110.992 736.297 111.523C735.524 112.045 734.929 112.727 734.513 113.568C734.096 114.409 733.888 115.311 733.888 116.273V117.818C733.888 119.136 734.115 120.254 734.569 121.17C735.032 122.08 735.672 122.773 736.49 123.25C737.308 123.72 738.259 123.955 739.342 123.955C740.047 123.955 740.683 123.856 741.251 123.659C741.827 123.455 742.323 123.152 742.74 122.75C743.157 122.341 743.479 121.833 743.706 121.227L746.297 121.955C746.024 122.833 745.566 123.606 744.922 124.273C744.278 124.932 743.482 125.447 742.535 125.818C741.588 126.182 740.524 126.364 739.342 126.364ZM763.013 112.455L760.604 113.136C760.452 112.735 760.229 112.345 759.933 111.966C759.645 111.58 759.251 111.261 758.751 111.011C758.251 110.761 757.611 110.636 756.831 110.636C755.763 110.636 754.872 110.883 754.16 111.375C753.456 111.86 753.104 112.477 753.104 113.227C753.104 113.894 753.346 114.42 753.831 114.807C754.316 115.193 755.073 115.515 756.104 115.773L758.694 116.409C760.255 116.788 761.418 117.367 762.183 118.148C762.948 118.92 763.331 119.917 763.331 121.136C763.331 122.136 763.043 123.03 762.467 123.818C761.899 124.606 761.104 125.227 760.081 125.682C759.058 126.136 757.869 126.364 756.513 126.364C754.732 126.364 753.259 125.977 752.092 125.205C750.925 124.432 750.187 123.303 749.876 121.818L752.422 121.182C752.664 122.121 753.122 122.826 753.797 123.295C754.479 123.765 755.369 124 756.467 124C757.717 124 758.71 123.735 759.444 123.205C760.187 122.667 760.558 122.023 760.558 121.273C760.558 120.667 760.346 120.159 759.922 119.75C759.497 119.333 758.846 119.023 757.967 118.818L755.058 118.136C753.46 117.758 752.285 117.17 751.535 116.375C750.793 115.572 750.422 114.568 750.422 113.364C750.422 112.379 750.698 111.508 751.251 110.75C751.812 109.992 752.573 109.398 753.535 108.966C754.505 108.534 755.604 108.318 756.831 108.318C758.558 108.318 759.914 108.697 760.899 109.455C761.891 110.212 762.596 111.212 763.013 112.455Z" fill="currentColor"/>
</svg>
