<svg viewBox="0 0 1211 979" fill="none" xmlns="http://www.w3.org/2000/svg">
<line x1="337.853" y1="313.532" x2="121.286" y2="495.254" stroke="currentColor" stroke-width="4"/>
<line x1="583.064" y1="317.528" x2="729.507" y2="440.408" stroke="currentColor" stroke-width="4"/>
<line x1="704.258" y1="548.689" x2="487.412" y2="649.806" stroke="currentColor" stroke-width="4"/>
<line x1="766.845" y1="550.187" x2="989.845" y2="654.187" stroke="currentColor" stroke-width="4"/>
<rect x="236" y="205" width="445" height="116" fill="hsl(var(--nextra-primary-hue), var(--nextra-primary-saturation),20%)"/>
<path d="M416.474 274V250.727H419.293V261.091H431.702V250.727H434.52V274H431.702V263.591H419.293V274H416.474ZM438.889 253.227V250.727H456.344V253.227H449.026V274H446.207V253.227H438.889ZM460.693 250.727H464.057L471.966 270.045H472.239L480.148 250.727H483.511V274H480.875V256.318H480.648L473.375 274H470.83L463.557 256.318H463.33V274H460.693V250.727ZM489.162 274V250.727H491.98V271.5H502.798V274H489.162Z" fill="white"/>
<rect x="766" y="863" width="445" height="116" fill="hsl(var(--nextra-primary-hue), var(--nextra-primary-saturation),20%)"/>
<path d="M775.014 915V912.955C775.014 912.333 775.124 911.674 775.344 910.977C775.571 910.273 775.897 909.595 776.321 908.943C776.753 908.284 777.272 907.712 777.878 907.227L779.332 908.409C778.855 909.091 778.438 909.803 778.082 910.545C777.734 911.28 777.56 912.068 777.56 912.909V915H775.014ZM780.832 915V912.955C780.832 912.333 780.942 911.674 781.162 910.977C781.389 910.273 781.715 909.595 782.139 908.943C782.571 908.284 783.09 907.712 783.696 907.227L785.151 908.409C784.673 909.091 784.257 909.803 783.901 910.545C783.552 911.28 783.378 912.068 783.378 912.909V915H780.832ZM787.202 910.227V907.727H804.656V910.227H797.338V931H794.52V910.227H787.202ZM811.324 920.5V931H808.642V907.727H811.324V916.273H811.551C811.96 915.371 812.574 914.655 813.392 914.125C814.218 913.587 815.316 913.318 816.688 913.318C817.877 913.318 818.919 913.557 819.812 914.034C820.706 914.504 821.4 915.227 821.892 916.205C822.392 917.174 822.642 918.409 822.642 919.909V931H819.96V920.091C819.96 918.705 819.6 917.633 818.881 916.875C818.169 916.11 817.18 915.727 815.915 915.727C815.036 915.727 814.248 915.913 813.551 916.284C812.862 916.655 812.316 917.197 811.915 917.909C811.521 918.621 811.324 919.485 811.324 920.5ZM827.548 931V913.545H830.23V931H827.548ZM828.912 910.636C828.389 910.636 827.938 910.458 827.56 910.102C827.188 909.746 827.003 909.318 827.003 908.818C827.003 908.318 827.188 907.89 827.56 907.534C827.938 907.178 828.389 907 828.912 907C829.435 907 829.882 907.178 830.253 907.534C830.632 907.89 830.821 908.318 830.821 908.818C830.821 909.318 830.632 909.746 830.253 910.102C829.882 910.458 829.435 910.636 828.912 910.636ZM847.506 917.455L845.097 918.136C844.945 917.735 844.722 917.345 844.426 916.966C844.138 916.58 843.744 916.261 843.244 916.011C842.744 915.761 842.104 915.636 841.324 915.636C840.256 915.636 839.366 915.883 838.653 916.375C837.949 916.86 837.597 917.477 837.597 918.227C837.597 918.894 837.839 919.42 838.324 919.807C838.809 920.193 839.566 920.515 840.597 920.773L843.188 921.409C844.748 921.788 845.911 922.367 846.676 923.148C847.441 923.92 847.824 924.917 847.824 926.136C847.824 927.136 847.536 928.03 846.96 928.818C846.392 929.606 845.597 930.227 844.574 930.682C843.551 931.136 842.362 931.364 841.006 931.364C839.225 931.364 837.752 930.977 836.585 930.205C835.419 929.432 834.68 928.303 834.369 926.818L836.915 926.182C837.157 927.121 837.616 927.826 838.29 928.295C838.972 928.765 839.862 929 840.96 929C842.21 929 843.203 928.735 843.938 928.205C844.68 927.667 845.051 927.023 845.051 926.273C845.051 925.667 844.839 925.159 844.415 924.75C843.991 924.333 843.339 924.023 842.46 923.818L839.551 923.136C837.953 922.758 836.778 922.17 836.028 921.375C835.286 920.572 834.915 919.568 834.915 918.364C834.915 917.379 835.191 916.508 835.744 915.75C836.305 914.992 837.066 914.398 838.028 913.966C838.998 913.534 840.097 913.318 841.324 913.318C843.051 913.318 844.407 913.697 845.392 914.455C846.384 915.212 847.089 916.212 847.506 917.455ZM860.861 931V913.545H863.543V931H860.861ZM862.224 910.636C861.702 910.636 861.251 910.458 860.872 910.102C860.501 909.746 860.315 909.318 860.315 908.818C860.315 908.318 860.501 907.89 860.872 907.534C861.251 907.178 861.702 907 862.224 907C862.747 907 863.194 907.178 863.565 907.534C863.944 907.89 864.134 908.318 864.134 908.818C864.134 909.318 863.944 909.746 863.565 910.102C863.194 910.458 862.747 910.636 862.224 910.636ZM880.818 917.455L878.409 918.136C878.258 917.735 878.034 917.345 877.739 916.966C877.451 916.58 877.057 916.261 876.557 916.011C876.057 915.761 875.417 915.636 874.636 915.636C873.568 915.636 872.678 915.883 871.966 916.375C871.261 916.86 870.909 917.477 870.909 918.227C870.909 918.894 871.152 919.42 871.636 919.807C872.121 920.193 872.879 920.515 873.909 920.773L876.5 921.409C878.061 921.788 879.223 922.367 879.989 923.148C880.754 923.92 881.136 924.917 881.136 926.136C881.136 927.136 880.848 928.03 880.273 928.818C879.705 929.606 878.909 930.227 877.886 930.682C876.864 931.136 875.674 931.364 874.318 931.364C872.538 931.364 871.064 930.977 869.898 930.205C868.731 929.432 867.992 928.303 867.682 926.818L870.227 926.182C870.47 927.121 870.928 927.826 871.602 928.295C872.284 928.765 873.174 929 874.273 929C875.523 929 876.515 928.735 877.25 928.205C877.992 927.667 878.364 927.023 878.364 926.273C878.364 925.667 878.152 925.159 877.727 924.75C877.303 924.333 876.652 924.023 875.773 923.818L872.864 923.136C871.265 922.758 870.091 922.17 869.341 921.375C868.598 920.572 868.227 919.568 868.227 918.364C868.227 917.379 868.504 916.508 869.057 915.75C869.617 914.992 870.379 914.398 871.341 913.966C872.311 913.534 873.409 913.318 874.636 913.318C876.364 913.318 877.72 913.697 878.705 914.455C879.697 915.212 880.402 916.212 880.818 917.455ZM899.31 931.409C898.204 931.409 897.2 931.201 896.298 930.784C895.397 930.36 894.681 929.75 894.151 928.955C893.62 928.152 893.355 927.182 893.355 926.045C893.355 925.045 893.552 924.235 893.946 923.614C894.34 922.985 894.866 922.492 895.526 922.136C896.185 921.78 896.912 921.515 897.707 921.341C898.51 921.159 899.317 921.015 900.128 920.909C901.188 920.773 902.048 920.67 902.707 920.602C903.374 920.527 903.859 920.402 904.162 920.227C904.473 920.053 904.628 919.75 904.628 919.318V919.227C904.628 918.106 904.321 917.235 903.707 916.614C903.101 915.992 902.181 915.682 900.946 915.682C899.666 915.682 898.662 915.962 897.935 916.523C897.207 917.083 896.696 917.682 896.401 918.318L893.855 917.409C894.31 916.348 894.916 915.523 895.673 914.932C896.438 914.333 897.272 913.917 898.173 913.682C899.082 913.439 899.976 913.318 900.855 913.318C901.416 913.318 902.06 913.386 902.787 913.523C903.522 913.652 904.23 913.92 904.912 914.33C905.601 914.739 906.173 915.356 906.628 916.182C907.082 917.008 907.31 918.114 907.31 919.5V931H904.628V928.636H904.491C904.31 929.015 904.007 929.42 903.582 929.852C903.158 930.284 902.594 930.652 901.889 930.955C901.185 931.258 900.325 931.409 899.31 931.409ZM899.719 929C900.779 929 901.673 928.792 902.401 928.375C903.135 927.958 903.688 927.42 904.06 926.761C904.438 926.102 904.628 925.409 904.628 924.682V922.227C904.514 922.364 904.264 922.489 903.878 922.602C903.499 922.708 903.06 922.803 902.56 922.886C902.067 922.962 901.586 923.03 901.116 923.091C900.654 923.144 900.279 923.189 899.991 923.227C899.295 923.318 898.643 923.466 898.037 923.67C897.438 923.867 896.954 924.167 896.582 924.568C896.219 924.962 896.037 925.5 896.037 926.182C896.037 927.114 896.382 927.818 897.071 928.295C897.768 928.765 898.651 929 899.719 929ZM933.568 917.455L931.159 918.136C931.008 917.735 930.784 917.345 930.489 916.966C930.201 916.58 929.807 916.261 929.307 916.011C928.807 915.761 928.167 915.636 927.386 915.636C926.318 915.636 925.428 915.883 924.716 916.375C924.011 916.86 923.659 917.477 923.659 918.227C923.659 918.894 923.902 919.42 924.386 919.807C924.871 920.193 925.629 920.515 926.659 920.773L929.25 921.409C930.811 921.788 931.973 922.367 932.739 923.148C933.504 923.92 933.886 924.917 933.886 926.136C933.886 927.136 933.598 928.03 933.023 928.818C932.455 929.606 931.659 930.227 930.636 930.682C929.614 931.136 928.424 931.364 927.068 931.364C925.288 931.364 923.814 930.977 922.648 930.205C921.481 929.432 920.742 928.303 920.432 926.818L922.977 926.182C923.22 927.121 923.678 927.826 924.352 928.295C925.034 928.765 925.924 929 927.023 929C928.273 929 929.265 928.735 930 928.205C930.742 927.667 931.114 927.023 931.114 926.273C931.114 925.667 930.902 925.159 930.477 924.75C930.053 924.333 929.402 924.023 928.523 923.818L925.614 923.136C924.015 922.758 922.841 922.17 922.091 921.375C921.348 920.572 920.977 919.568 920.977 918.364C920.977 917.379 921.254 916.508 921.807 915.75C922.367 914.992 923.129 914.398 924.091 913.966C925.061 913.534 926.159 913.318 927.386 913.318C929.114 913.318 930.47 913.697 931.455 914.455C932.447 915.212 933.152 916.212 933.568 917.455ZM943.06 931.409C941.954 931.409 940.95 931.201 940.048 930.784C939.147 930.36 938.431 929.75 937.901 928.955C937.37 928.152 937.105 927.182 937.105 926.045C937.105 925.045 937.302 924.235 937.696 923.614C938.09 922.985 938.616 922.492 939.276 922.136C939.935 921.78 940.662 921.515 941.457 921.341C942.26 921.159 943.067 921.015 943.878 920.909C944.938 920.773 945.798 920.67 946.457 920.602C947.124 920.527 947.609 920.402 947.912 920.227C948.223 920.053 948.378 919.75 948.378 919.318V919.227C948.378 918.106 948.071 917.235 947.457 916.614C946.851 915.992 945.931 915.682 944.696 915.682C943.416 915.682 942.412 915.962 941.685 916.523C940.957 917.083 940.446 917.682 940.151 918.318L937.605 917.409C938.06 916.348 938.666 915.523 939.423 914.932C940.188 914.333 941.022 913.917 941.923 913.682C942.832 913.439 943.726 913.318 944.605 913.318C945.166 913.318 945.81 913.386 946.537 913.523C947.272 913.652 947.98 913.92 948.662 914.33C949.351 914.739 949.923 915.356 950.378 916.182C950.832 917.008 951.06 918.114 951.06 919.5V931H948.378V928.636H948.241C948.06 929.015 947.757 929.42 947.332 929.852C946.908 930.284 946.344 930.652 945.639 930.955C944.935 931.258 944.075 931.409 943.06 931.409ZM943.469 929C944.529 929 945.423 928.792 946.151 928.375C946.885 927.958 947.438 927.42 947.81 926.761C948.188 926.102 948.378 925.409 948.378 924.682V922.227C948.264 922.364 948.014 922.489 947.628 922.602C947.249 922.708 946.81 922.803 946.31 922.886C945.817 922.962 945.336 923.03 944.866 923.091C944.404 923.144 944.029 923.189 943.741 923.227C943.045 923.318 942.393 923.466 941.787 923.67C941.188 923.867 940.704 924.167 940.332 924.568C939.969 924.962 939.787 925.5 939.787 926.182C939.787 927.114 940.132 927.818 940.821 928.295C941.518 928.765 942.401 929 943.469 929ZM955.955 931V913.545H958.545V916.273H958.773C959.136 915.341 959.723 914.617 960.534 914.102C961.345 913.58 962.318 913.318 963.455 913.318C964.606 913.318 965.564 913.58 966.33 914.102C967.102 914.617 967.705 915.341 968.136 916.273H968.318C968.765 915.371 969.436 914.655 970.33 914.125C971.223 913.587 972.295 913.318 973.545 913.318C975.106 913.318 976.383 913.807 977.375 914.784C978.367 915.754 978.864 917.265 978.864 919.318V931H976.182V919.318C976.182 918.03 975.83 917.11 975.125 916.557C974.42 916.004 973.591 915.727 972.636 915.727C971.409 915.727 970.458 916.098 969.784 916.841C969.11 917.576 968.773 918.508 968.773 919.636V931H966.045V919.045C966.045 918.053 965.723 917.254 965.08 916.648C964.436 916.034 963.606 915.727 962.591 915.727C961.894 915.727 961.242 915.913 960.636 916.284C960.038 916.655 959.553 917.17 959.182 917.83C958.818 918.481 958.636 919.235 958.636 920.091V931H955.955ZM983.767 937.545V913.545H986.358V916.318H986.676C986.873 916.015 987.146 915.629 987.494 915.159C987.85 914.682 988.358 914.258 989.017 913.886C989.684 913.508 990.585 913.318 991.722 913.318C993.191 913.318 994.487 913.686 995.608 914.42C996.729 915.155 997.604 916.197 998.233 917.545C998.862 918.894 999.176 920.485 999.176 922.318C999.176 924.167 998.862 925.769 998.233 927.125C997.604 928.473 996.733 929.519 995.619 930.261C994.506 930.996 993.222 931.364 991.767 931.364C990.646 931.364 989.748 931.178 989.074 930.807C988.4 930.428 987.881 930 987.517 929.523C987.153 929.038 986.873 928.636 986.676 928.318H986.449V937.545H983.767ZM986.403 922.273C986.403 923.591 986.597 924.754 986.983 925.761C987.369 926.761 987.934 927.545 988.676 928.114C989.419 928.674 990.328 928.955 991.403 928.955C992.525 928.955 993.46 928.659 994.21 928.068C994.968 927.47 995.536 926.667 995.915 925.659C996.301 924.644 996.494 923.515 996.494 922.273C996.494 921.045 996.305 919.939 995.926 918.955C995.555 917.962 994.991 917.178 994.233 916.602C993.483 916.019 992.54 915.727 991.403 915.727C990.313 915.727 989.396 916.004 988.653 916.557C987.911 917.102 987.35 917.867 986.972 918.852C986.593 919.83 986.403 920.97 986.403 922.273ZM1005.95 907.727V931H1003.27V907.727H1005.95ZM1018.18 931.364C1016.5 931.364 1015.05 930.992 1013.83 930.25C1012.61 929.5 1011.68 928.455 1011.02 927.114C1010.37 925.765 1010.04 924.197 1010.04 922.409C1010.04 920.621 1010.37 919.045 1011.02 917.682C1011.68 916.311 1012.6 915.242 1013.77 914.477C1014.95 913.705 1016.33 913.318 1017.91 913.318C1018.82 913.318 1019.71 913.47 1020.6 913.773C1021.49 914.076 1022.29 914.568 1023.02 915.25C1023.75 915.924 1024.33 916.818 1024.76 917.932C1025.19 919.045 1025.41 920.417 1025.41 922.045V923.182H1011.95V920.864H1022.68C1022.68 919.879 1022.48 919 1022.09 918.227C1021.7 917.455 1021.15 916.845 1020.43 916.398C1019.72 915.951 1018.88 915.727 1017.91 915.727C1016.84 915.727 1015.91 915.992 1015.13 916.523C1014.36 917.045 1013.77 917.727 1013.35 918.568C1012.93 919.409 1012.72 920.311 1012.72 921.273V922.818C1012.72 924.136 1012.95 925.254 1013.41 926.17C1013.87 927.08 1014.51 927.773 1015.33 928.25C1016.14 928.72 1017.1 928.955 1018.18 928.955C1018.88 928.955 1019.52 928.856 1020.09 928.659C1020.66 928.455 1021.16 928.152 1021.58 927.75C1021.99 927.341 1022.32 926.833 1022.54 926.227L1025.13 926.955C1024.86 927.833 1024.4 928.606 1023.76 929.273C1023.11 929.932 1022.32 930.447 1021.37 930.818C1020.43 931.182 1019.36 931.364 1018.18 931.364ZM1038.49 937.545V913.545H1041.08V916.318H1041.39C1041.59 916.015 1041.86 915.629 1042.21 915.159C1042.57 914.682 1043.08 914.258 1043.74 913.886C1044.4 913.508 1045.3 913.318 1046.44 913.318C1047.91 913.318 1049.21 913.686 1050.33 914.42C1051.45 915.155 1052.32 916.197 1052.95 917.545C1053.58 918.894 1053.89 920.485 1053.89 922.318C1053.89 924.167 1053.58 925.769 1052.95 927.125C1052.32 928.473 1051.45 929.519 1050.34 930.261C1049.22 930.996 1047.94 931.364 1046.49 931.364C1045.36 931.364 1044.47 931.178 1043.79 930.807C1043.12 930.428 1042.6 930 1042.24 929.523C1041.87 929.038 1041.59 928.636 1041.39 928.318H1041.17V937.545H1038.49ZM1041.12 922.273C1041.12 923.591 1041.32 924.754 1041.7 925.761C1042.09 926.761 1042.65 927.545 1043.39 928.114C1044.14 928.674 1045.05 928.955 1046.12 928.955C1047.24 928.955 1048.18 928.659 1048.93 928.068C1049.69 927.47 1050.25 926.667 1050.63 925.659C1051.02 924.644 1051.21 923.515 1051.21 922.273C1051.21 921.045 1051.02 919.939 1050.64 918.955C1050.27 917.962 1049.71 917.178 1048.95 916.602C1048.2 916.019 1047.26 915.727 1046.12 915.727C1045.03 915.727 1044.11 916.004 1043.37 916.557C1042.63 917.102 1042.07 917.867 1041.69 918.852C1041.31 919.83 1041.12 920.97 1041.12 922.273ZM1063.12 931.409C1062.02 931.409 1061.01 931.201 1060.11 930.784C1059.21 930.36 1058.49 929.75 1057.96 928.955C1057.43 928.152 1057.17 927.182 1057.17 926.045C1057.17 925.045 1057.36 924.235 1057.76 923.614C1058.15 922.985 1058.68 922.492 1059.34 922.136C1060 921.78 1060.72 921.515 1061.52 921.341C1062.32 921.159 1063.13 921.015 1063.94 920.909C1065 920.773 1065.86 920.67 1066.52 920.602C1067.19 920.527 1067.67 920.402 1067.97 920.227C1068.29 920.053 1068.44 919.75 1068.44 919.318V919.227C1068.44 918.106 1068.13 917.235 1067.52 916.614C1066.91 915.992 1065.99 915.682 1064.76 915.682C1063.48 915.682 1062.47 915.962 1061.75 916.523C1061.02 917.083 1060.51 917.682 1060.21 918.318L1057.67 917.409C1058.12 916.348 1058.73 915.523 1059.49 914.932C1060.25 914.333 1061.08 913.917 1061.99 913.682C1062.89 913.439 1063.79 913.318 1064.67 913.318C1065.23 913.318 1065.87 913.386 1066.6 913.523C1067.33 913.652 1068.04 913.92 1068.72 914.33C1069.41 914.739 1069.99 915.356 1070.44 916.182C1070.89 917.008 1071.12 918.114 1071.12 919.5V931H1068.44V928.636H1068.3C1068.12 929.015 1067.82 929.42 1067.39 929.852C1066.97 930.284 1066.41 930.652 1065.7 930.955C1065 931.258 1064.14 931.409 1063.12 931.409ZM1063.53 929C1064.59 929 1065.49 928.792 1066.21 928.375C1066.95 927.958 1067.5 927.42 1067.87 926.761C1068.25 926.102 1068.44 925.409 1068.44 924.682V922.227C1068.33 922.364 1068.08 922.489 1067.69 922.602C1067.31 922.708 1066.87 922.803 1066.37 922.886C1065.88 922.962 1065.4 923.03 1064.93 923.091C1064.47 923.144 1064.09 923.189 1063.8 923.227C1063.11 923.318 1062.46 923.466 1061.85 923.67C1061.25 923.867 1060.77 924.167 1060.39 924.568C1060.03 924.962 1059.85 925.5 1059.85 926.182C1059.85 927.114 1060.19 927.818 1060.88 928.295C1061.58 928.765 1062.46 929 1063.53 929ZM1076.02 931V913.545H1078.61V916.182H1078.79C1079.11 915.318 1079.68 914.617 1080.52 914.08C1081.35 913.542 1082.29 913.273 1083.34 913.273C1083.53 913.273 1083.78 913.277 1084.07 913.284C1084.37 913.292 1084.59 913.303 1084.74 913.318V916.045C1084.65 916.023 1084.45 915.989 1084.12 915.943C1083.8 915.89 1083.46 915.864 1083.11 915.864C1082.26 915.864 1081.5 916.042 1080.84 916.398C1080.18 916.746 1079.65 917.231 1079.27 917.852C1078.89 918.466 1078.7 919.167 1078.7 919.955V931H1076.02ZM1093.06 931.409C1091.95 931.409 1090.95 931.201 1090.05 930.784C1089.15 930.36 1088.43 929.75 1087.9 928.955C1087.37 928.152 1087.11 927.182 1087.11 926.045C1087.11 925.045 1087.3 924.235 1087.7 923.614C1088.09 922.985 1088.62 922.492 1089.28 922.136C1089.93 921.78 1090.66 921.515 1091.46 921.341C1092.26 921.159 1093.07 921.015 1093.88 920.909C1094.94 920.773 1095.8 920.67 1096.46 920.602C1097.12 920.527 1097.61 920.402 1097.91 920.227C1098.22 920.053 1098.38 919.75 1098.38 919.318V919.227C1098.38 918.106 1098.07 917.235 1097.46 916.614C1096.85 915.992 1095.93 915.682 1094.7 915.682C1093.42 915.682 1092.41 915.962 1091.68 916.523C1090.96 917.083 1090.45 917.682 1090.15 918.318L1087.61 917.409C1088.06 916.348 1088.67 915.523 1089.42 914.932C1090.19 914.333 1091.02 913.917 1091.92 913.682C1092.83 913.439 1093.73 913.318 1094.61 913.318C1095.17 913.318 1095.81 913.386 1096.54 913.523C1097.27 913.652 1097.98 913.92 1098.66 914.33C1099.35 914.739 1099.92 915.356 1100.38 916.182C1100.83 917.008 1101.06 918.114 1101.06 919.5V931H1098.38V928.636H1098.24C1098.06 929.015 1097.76 929.42 1097.33 929.852C1096.91 930.284 1096.34 930.652 1095.64 930.955C1094.93 931.258 1094.07 931.409 1093.06 931.409ZM1093.47 929C1094.53 929 1095.42 928.792 1096.15 928.375C1096.89 927.958 1097.44 927.42 1097.81 926.761C1098.19 926.102 1098.38 925.409 1098.38 924.682V922.227C1098.26 922.364 1098.01 922.489 1097.63 922.602C1097.25 922.708 1096.81 922.803 1096.31 922.886C1095.82 922.962 1095.34 923.03 1094.87 923.091C1094.4 923.144 1094.03 923.189 1093.74 923.227C1093.04 923.318 1092.39 923.466 1091.79 923.67C1091.19 923.867 1090.7 924.167 1090.33 924.568C1089.97 924.962 1089.79 925.5 1089.79 926.182C1089.79 927.114 1090.13 927.818 1090.82 928.295C1091.52 928.765 1092.4 929 1093.47 929ZM1113 937.909C1111.7 937.909 1110.59 937.742 1109.66 937.409C1108.73 937.083 1107.95 936.652 1107.33 936.114C1106.72 935.583 1106.23 935.015 1105.86 934.409L1108 932.909C1108.24 933.227 1108.55 933.591 1108.92 934C1109.29 934.417 1109.8 934.777 1110.44 935.08C1111.09 935.39 1111.95 935.545 1113 935.545C1114.41 935.545 1115.57 935.205 1116.49 934.523C1117.41 933.841 1117.86 932.773 1117.86 931.318V927.773H1117.64C1117.44 928.091 1117.16 928.485 1116.8 928.955C1116.44 929.417 1115.92 929.83 1115.25 930.193C1114.58 930.549 1113.68 930.727 1112.55 930.727C1111.14 930.727 1109.87 930.394 1108.75 929.727C1107.64 929.061 1106.75 928.091 1106.1 926.818C1105.46 925.545 1105.14 924 1105.14 922.182C1105.14 920.394 1105.45 918.837 1106.08 917.511C1106.71 916.178 1107.58 915.148 1108.7 914.42C1109.83 913.686 1111.12 913.318 1112.59 913.318C1113.73 913.318 1114.63 913.508 1115.3 913.886C1115.97 914.258 1116.48 914.682 1116.84 915.159C1117.2 915.629 1117.48 916.015 1117.68 916.318H1117.95V913.545H1120.55V931.5C1120.55 933 1120.2 934.22 1119.52 935.159C1118.85 936.106 1117.94 936.799 1116.8 937.239C1115.66 937.686 1114.39 937.909 1113 937.909ZM1112.91 928.318C1113.98 928.318 1114.89 928.072 1115.64 927.58C1116.38 927.087 1116.94 926.379 1117.33 925.455C1117.72 924.53 1117.91 923.424 1117.91 922.136C1117.91 920.879 1117.72 919.769 1117.34 918.807C1116.96 917.845 1116.4 917.091 1115.66 916.545C1114.92 916 1114 915.727 1112.91 915.727C1111.77 915.727 1110.83 916.015 1110.07 916.591C1109.32 917.167 1108.75 917.939 1108.38 918.909C1108 919.879 1107.82 920.955 1107.82 922.136C1107.82 923.348 1108.01 924.42 1108.39 925.352C1108.77 926.277 1109.34 927.004 1110.09 927.534C1110.85 928.057 1111.79 928.318 1112.91 928.318ZM1125.45 931V913.545H1128.05V916.182H1128.23C1128.55 915.318 1129.12 914.617 1129.95 914.08C1130.79 913.542 1131.73 913.273 1132.77 913.273C1132.97 913.273 1133.22 913.277 1133.51 913.284C1133.81 913.292 1134.03 913.303 1134.18 913.318V916.045C1134.09 916.023 1133.88 915.989 1133.56 915.943C1133.24 915.89 1132.9 915.864 1132.55 915.864C1131.7 915.864 1130.94 916.042 1130.27 916.398C1129.61 916.746 1129.09 917.231 1128.7 917.852C1128.33 918.466 1128.14 919.167 1128.14 919.955V931H1125.45ZM1142.5 931.409C1141.39 931.409 1140.39 931.201 1139.49 930.784C1138.58 930.36 1137.87 929.75 1137.34 928.955C1136.81 928.152 1136.54 927.182 1136.54 926.045C1136.54 925.045 1136.74 924.235 1137.13 923.614C1137.53 922.985 1138.05 922.492 1138.71 922.136C1139.37 921.78 1140.1 921.515 1140.89 921.341C1141.7 921.159 1142.5 921.015 1143.32 920.909C1144.38 920.773 1145.24 920.67 1145.89 920.602C1146.56 920.527 1147.05 920.402 1147.35 920.227C1147.66 920.053 1147.82 919.75 1147.82 919.318V919.227C1147.82 918.106 1147.51 917.235 1146.89 916.614C1146.29 915.992 1145.37 915.682 1144.13 915.682C1142.85 915.682 1141.85 915.962 1141.12 916.523C1140.39 917.083 1139.88 917.682 1139.59 918.318L1137.04 917.409C1137.5 916.348 1138.1 915.523 1138.86 914.932C1139.63 914.333 1140.46 913.917 1141.36 913.682C1142.27 913.439 1143.16 913.318 1144.04 913.318C1144.6 913.318 1145.25 913.386 1145.97 913.523C1146.71 913.652 1147.42 913.92 1148.1 914.33C1148.79 914.739 1149.36 915.356 1149.82 916.182C1150.27 917.008 1150.5 918.114 1150.5 919.5V931H1147.82V928.636H1147.68C1147.5 929.015 1147.19 929.42 1146.77 929.852C1146.35 930.284 1145.78 930.652 1145.08 930.955C1144.37 931.258 1143.51 931.409 1142.5 931.409ZM1142.91 929C1143.97 929 1144.86 928.792 1145.59 928.375C1146.32 927.958 1146.88 927.42 1147.25 926.761C1147.63 926.102 1147.82 925.409 1147.82 924.682V922.227C1147.7 922.364 1147.45 922.489 1147.07 922.602C1146.69 922.708 1146.25 922.803 1145.75 922.886C1145.25 922.962 1144.77 923.03 1144.3 923.091C1143.84 923.144 1143.47 923.189 1143.18 923.227C1142.48 923.318 1141.83 923.466 1141.22 923.67C1140.63 923.867 1140.14 924.167 1139.77 924.568C1139.41 924.962 1139.22 925.5 1139.22 926.182C1139.22 927.114 1139.57 927.818 1140.26 928.295C1140.96 928.765 1141.84 929 1142.91 929ZM1155.39 937.545V913.545H1157.98V916.318H1158.3C1158.5 916.015 1158.77 915.629 1159.12 915.159C1159.48 914.682 1159.98 914.258 1160.64 913.886C1161.31 913.508 1162.21 913.318 1163.35 913.318C1164.82 913.318 1166.11 913.686 1167.23 914.42C1168.35 915.155 1169.23 916.197 1169.86 917.545C1170.49 918.894 1170.8 920.485 1170.8 922.318C1170.8 924.167 1170.49 925.769 1169.86 927.125C1169.23 928.473 1168.36 929.519 1167.24 930.261C1166.13 930.996 1164.85 931.364 1163.39 931.364C1162.27 931.364 1161.37 931.178 1160.7 930.807C1160.02 930.428 1159.51 930 1159.14 929.523C1158.78 929.038 1158.5 928.636 1158.3 928.318H1158.07V937.545H1155.39ZM1158.03 922.273C1158.03 923.591 1158.22 924.754 1158.61 925.761C1158.99 926.761 1159.56 927.545 1160.3 928.114C1161.04 928.674 1161.95 928.955 1163.03 928.955C1164.15 928.955 1165.09 928.659 1165.84 928.068C1166.59 927.47 1167.16 926.667 1167.54 925.659C1167.93 924.644 1168.12 923.515 1168.12 922.273C1168.12 921.045 1167.93 919.939 1167.55 918.955C1167.18 917.962 1166.62 917.178 1165.86 916.602C1165.11 916.019 1164.16 915.727 1163.03 915.727C1161.94 915.727 1161.02 916.004 1160.28 916.557C1159.54 917.102 1158.98 917.867 1158.6 918.852C1158.22 919.83 1158.03 920.97 1158.03 922.273ZM1177.57 920.5V931H1174.89V907.727H1177.57V916.273H1177.8C1178.21 915.371 1178.82 914.655 1179.64 914.125C1180.47 913.587 1181.57 913.318 1182.94 913.318C1184.13 913.318 1185.17 913.557 1186.06 914.034C1186.96 914.504 1187.65 915.227 1188.14 916.205C1188.64 917.174 1188.89 918.409 1188.89 919.909V931H1186.21V920.091C1186.21 918.705 1185.85 917.633 1185.13 916.875C1184.42 916.11 1183.43 915.727 1182.16 915.727C1181.29 915.727 1180.5 915.913 1179.8 916.284C1179.11 916.655 1178.57 917.197 1178.16 917.909C1177.77 918.621 1177.57 919.485 1177.57 920.5ZM1196.16 907.727V909.773C1196.16 910.394 1196.05 911.057 1195.82 911.761C1195.6 912.458 1195.28 913.136 1194.84 913.795C1194.42 914.447 1193.9 915.015 1193.3 915.5L1191.84 914.318C1192.32 913.636 1192.73 912.928 1193.08 912.193C1193.44 911.451 1193.62 910.659 1193.62 909.818V907.727H1196.16ZM1201.98 907.727V909.773C1201.98 910.394 1201.87 911.057 1201.64 911.761C1201.42 912.458 1201.09 913.136 1200.66 913.795C1200.24 914.447 1199.72 915.015 1199.12 915.5L1197.66 914.318C1198.14 913.636 1198.55 912.928 1198.9 912.193C1199.26 911.451 1199.43 910.659 1199.43 909.818V907.727H1201.98Z" fill="white"/>
<rect x="911" y="652" width="156.088" height="116" fill="hsl(var(--nextra-primary-hue), var(--nextra-primary-saturation),20%)"/>
<path d="M981.924 726.545V702.545H984.515V705.318H984.833C985.03 705.015 985.303 704.629 985.651 704.159C986.007 703.682 986.515 703.258 987.174 702.886C987.841 702.508 988.742 702.318 989.878 702.318C991.348 702.318 992.644 702.686 993.765 703.42C994.886 704.155 995.761 705.197 996.39 706.545C997.019 707.894 997.333 709.485 997.333 711.318C997.333 713.167 997.019 714.769 996.39 716.125C995.761 717.473 994.89 718.519 993.776 719.261C992.663 719.996 991.378 720.364 989.924 720.364C988.803 720.364 987.905 720.178 987.231 719.807C986.557 719.428 986.038 719 985.674 718.523C985.31 718.038 985.03 717.636 984.833 717.318H984.606V726.545H981.924ZM984.56 711.273C984.56 712.591 984.753 713.754 985.14 714.761C985.526 715.761 986.091 716.545 986.833 717.114C987.575 717.674 988.485 717.955 989.56 717.955C990.682 717.955 991.617 717.659 992.367 717.068C993.125 716.47 993.693 715.667 994.072 714.659C994.458 713.644 994.651 712.515 994.651 711.273C994.651 710.045 994.462 708.939 994.083 707.955C993.712 706.962 993.147 706.178 992.39 705.602C991.64 705.019 990.697 704.727 989.56 704.727C988.469 704.727 987.553 705.004 986.81 705.557C986.068 706.102 985.507 706.867 985.128 707.852C984.75 708.83 984.56 709.97 984.56 711.273Z" fill="white"/>
<line x1="991" y1="769" x2="991" y2="863" stroke="currentColor" stroke-width="4"/>
<rect x="410" y="648" width="154.754" height="116" fill="hsl(var(--nextra-primary-hue), var(--nextra-primary-saturation),20%)"/>
<path d="M476.437 705.5V716H473.756V692.727H476.437V701.273H476.665C477.074 700.371 477.687 699.655 478.506 699.125C479.331 698.587 480.43 698.318 481.801 698.318C482.99 698.318 484.032 698.557 484.926 699.034C485.82 699.504 486.513 700.227 487.006 701.205C487.506 702.174 487.756 703.409 487.756 704.909V716H485.074V705.091C485.074 703.705 484.714 702.633 483.994 701.875C483.282 701.11 482.293 700.727 481.028 700.727C480.15 700.727 479.362 700.913 478.665 701.284C477.975 701.655 477.43 702.197 477.028 702.909C476.634 703.621 476.437 704.485 476.437 705.5ZM499.517 692.727V716H496.699V695.682H496.562L490.881 699.455V696.591L496.699 692.727H499.517Z" fill="white"/>
<rect x="337" y="859" width="300" height="116" fill="hsl(var(--nextra-primary-hue), var(--nextra-primary-saturation),20%)"/>
<path d="M389.873 911V908.955C389.873 908.333 389.982 907.674 390.202 906.977C390.429 906.273 390.755 905.595 391.179 904.943C391.611 904.284 392.13 903.712 392.736 903.227L394.191 904.409C393.713 905.091 393.297 905.803 392.941 906.545C392.592 907.28 392.418 908.068 392.418 908.909V911H389.873ZM395.691 911V908.955C395.691 908.333 395.801 907.674 396.02 906.977C396.248 906.273 396.573 905.595 396.998 904.943C397.429 904.284 397.948 903.712 398.554 903.227L400.009 904.409C399.532 905.091 399.115 905.803 398.759 906.545C398.41 907.28 398.236 908.068 398.236 908.909V911H395.691ZM403.333 927V903.727H406.151V914.091H418.56V903.727H421.378V927H418.56V916.591H406.151V927H403.333ZM433.975 927.364C432.293 927.364 430.842 926.992 429.623 926.25C428.41 925.5 427.475 924.455 426.816 923.114C426.164 921.765 425.838 920.197 425.838 918.409C425.838 916.621 426.164 915.045 426.816 913.682C427.475 912.311 428.391 911.242 429.566 910.477C430.748 909.705 432.126 909.318 433.702 909.318C434.611 909.318 435.509 909.47 436.395 909.773C437.282 910.076 438.088 910.568 438.816 911.25C439.543 911.924 440.123 912.818 440.554 913.932C440.986 915.045 441.202 916.417 441.202 918.045V919.182H427.748V916.864H438.475C438.475 915.879 438.278 915 437.884 914.227C437.498 913.455 436.945 912.845 436.225 912.398C435.513 911.951 434.672 911.727 433.702 911.727C432.634 911.727 431.71 911.992 430.929 912.523C430.157 913.045 429.562 913.727 429.145 914.568C428.729 915.409 428.52 916.311 428.52 917.273V918.818C428.52 920.136 428.748 921.254 429.202 922.17C429.664 923.08 430.304 923.773 431.123 924.25C431.941 924.72 432.891 924.955 433.975 924.955C434.679 924.955 435.316 924.856 435.884 924.659C436.46 924.455 436.956 924.152 437.373 923.75C437.789 923.341 438.111 922.833 438.338 922.227L440.929 922.955C440.657 923.833 440.198 924.606 439.554 925.273C438.91 925.932 438.115 926.447 437.168 926.818C436.221 927.182 435.157 927.364 433.975 927.364ZM447.963 903.727V927H445.282V903.727H447.963ZM455.557 903.727V927H452.875V903.727H455.557ZM467.56 927.364C465.984 927.364 464.602 926.989 463.412 926.239C462.23 925.489 461.306 924.439 460.64 923.091C459.98 921.742 459.651 920.167 459.651 918.364C459.651 916.545 459.98 914.958 460.64 913.602C461.306 912.246 462.23 911.193 463.412 910.443C464.602 909.693 465.984 909.318 467.56 909.318C469.136 909.318 470.515 909.693 471.696 910.443C472.886 911.193 473.81 912.246 474.469 913.602C475.136 914.958 475.469 916.545 475.469 918.364C475.469 920.167 475.136 921.742 474.469 923.091C473.81 924.439 472.886 925.489 471.696 926.239C470.515 926.989 469.136 927.364 467.56 927.364ZM467.56 924.955C468.757 924.955 469.742 924.648 470.515 924.034C471.287 923.42 471.859 922.614 472.23 921.614C472.602 920.614 472.787 919.53 472.787 918.364C472.787 917.197 472.602 916.11 472.23 915.102C471.859 914.095 471.287 913.28 470.515 912.659C469.742 912.038 468.757 911.727 467.56 911.727C466.363 911.727 465.378 912.038 464.605 912.659C463.833 913.28 463.261 914.095 462.89 915.102C462.518 916.11 462.333 917.197 462.333 918.364C462.333 919.53 462.518 920.614 462.89 921.614C463.261 922.614 463.833 923.42 464.605 924.034C465.378 924.648 466.363 924.955 467.56 924.955ZM493.154 927L486.79 903.727H489.654L494.517 922.682H494.745L499.699 903.727H502.881L507.836 922.682H508.063L512.927 903.727H515.79L509.427 927H506.517L501.381 908.455H501.199L496.063 927H493.154ZM524.404 927.364C522.828 927.364 521.445 926.989 520.256 926.239C519.074 925.489 518.15 924.439 517.483 923.091C516.824 921.742 516.495 920.167 516.495 918.364C516.495 916.545 516.824 914.958 517.483 913.602C518.15 912.246 519.074 911.193 520.256 910.443C521.445 909.693 522.828 909.318 524.404 909.318C525.98 909.318 527.358 909.693 528.54 910.443C529.73 911.193 530.654 912.246 531.313 913.602C531.98 914.958 532.313 916.545 532.313 918.364C532.313 920.167 531.98 921.742 531.313 923.091C530.654 924.439 529.73 925.489 528.54 926.239C527.358 926.989 525.98 927.364 524.404 927.364ZM524.404 924.955C525.601 924.955 526.586 924.648 527.358 924.034C528.131 923.42 528.703 922.614 529.074 921.614C529.445 920.614 529.631 919.53 529.631 918.364C529.631 917.197 529.445 916.11 529.074 915.102C528.703 914.095 528.131 913.28 527.358 912.659C526.586 912.038 525.601 911.727 524.404 911.727C523.207 911.727 522.222 912.038 521.449 912.659C520.677 913.28 520.105 914.095 519.733 915.102C519.362 916.11 519.177 917.197 519.177 918.364C519.177 919.53 519.362 920.614 519.733 921.614C520.105 922.614 520.677 923.42 521.449 924.034C522.222 924.648 523.207 924.955 524.404 924.955ZM536.407 927V909.545H538.998V912.182H539.179C539.498 911.318 540.073 910.617 540.907 910.08C541.74 909.542 542.679 909.273 543.725 909.273C543.922 909.273 544.168 909.277 544.463 909.284C544.759 909.292 544.982 909.303 545.134 909.318V912.045C545.043 912.023 544.835 911.989 544.509 911.943C544.191 911.89 543.854 911.864 543.498 911.864C542.649 911.864 541.891 912.042 541.225 912.398C540.566 912.746 540.043 913.231 539.657 913.852C539.278 914.466 539.088 915.167 539.088 915.955V927H536.407ZM550.995 903.727V927H548.313V903.727H550.995ZM562.498 927.364C561.043 927.364 559.759 926.996 558.645 926.261C557.532 925.519 556.66 924.473 556.032 923.125C555.403 921.769 555.088 920.167 555.088 918.318C555.088 916.485 555.403 914.894 556.032 913.545C556.66 912.197 557.535 911.155 558.657 910.42C559.778 909.686 561.073 909.318 562.543 909.318C563.679 909.318 564.577 909.508 565.236 909.886C565.903 910.258 566.41 910.682 566.759 911.159C567.115 911.629 567.391 912.015 567.588 912.318H567.816V903.727H570.498V927H567.907V924.318H567.588C567.391 924.636 567.111 925.038 566.748 925.523C566.384 926 565.865 926.428 565.191 926.807C564.516 927.178 563.619 927.364 562.498 927.364ZM562.861 924.955C563.937 924.955 564.846 924.674 565.588 924.114C566.331 923.545 566.895 922.761 567.282 921.761C567.668 920.754 567.861 919.591 567.861 918.273C567.861 916.97 567.672 915.83 567.293 914.852C566.914 913.867 566.354 913.102 565.611 912.557C564.869 912.004 563.952 911.727 562.861 911.727C561.725 911.727 560.778 912.019 560.02 912.602C559.27 913.178 558.706 913.962 558.327 914.955C557.956 915.939 557.77 917.045 557.77 918.273C557.77 919.515 557.96 920.644 558.338 921.659C558.725 922.667 559.293 923.47 560.043 924.068C560.801 924.659 561.74 924.955 562.861 924.955ZM578.145 903.727V905.773C578.145 906.394 578.032 907.057 577.804 907.761C577.585 908.458 577.259 909.136 576.827 909.795C576.403 910.447 575.888 911.015 575.282 911.5L573.827 910.318C574.304 909.636 574.717 908.928 575.066 908.193C575.422 907.451 575.6 906.659 575.6 905.818V903.727H578.145ZM583.963 903.727V905.773C583.963 906.394 583.85 907.057 583.623 907.761C583.403 908.458 583.077 909.136 582.645 909.795C582.221 910.447 581.706 911.015 581.1 911.5L579.645 910.318C580.123 909.636 580.535 908.928 580.884 908.193C581.24 907.451 581.418 906.659 581.418 905.818V903.727H583.963Z" fill="white"/>
<line x1="489" y1="764" x2="489" y2="858" stroke="currentColor" stroke-width="4"/>
<rect x="645" y="436" width="155.697" height="116" fill="hsl(var(--nextra-primary-hue), var(--nextra-primary-saturation),20%)"/>
<path d="M687.513 504V480.727H690.195V489.318H690.423C690.62 489.015 690.892 488.629 691.241 488.159C691.597 487.682 692.104 487.258 692.763 486.886C693.43 486.508 694.332 486.318 695.468 486.318C696.938 486.318 698.233 486.686 699.354 487.42C700.476 488.155 701.351 489.197 701.979 490.545C702.608 491.894 702.923 493.485 702.923 495.318C702.923 497.167 702.608 498.769 701.979 500.125C701.351 501.473 700.479 502.519 699.366 503.261C698.252 503.996 696.968 504.364 695.513 504.364C694.392 504.364 693.495 504.178 692.82 503.807C692.146 503.428 691.627 503 691.263 502.523C690.9 502.038 690.62 501.636 690.423 501.318H690.104V504H687.513ZM690.15 495.273C690.15 496.591 690.343 497.754 690.729 498.761C691.116 499.761 691.68 500.545 692.423 501.114C693.165 501.674 694.074 501.955 695.15 501.955C696.271 501.955 697.207 501.659 697.957 501.068C698.714 500.47 699.282 499.667 699.661 498.659C700.048 497.644 700.241 496.515 700.241 495.273C700.241 494.045 700.051 492.939 699.673 491.955C699.301 490.962 698.737 490.178 697.979 489.602C697.229 489.019 696.286 488.727 695.15 488.727C694.059 488.727 693.142 489.004 692.4 489.557C691.657 490.102 691.097 490.867 690.718 491.852C690.339 492.83 690.15 493.97 690.15 495.273ZM714.116 504.364C712.54 504.364 711.157 503.989 709.968 503.239C708.786 502.489 707.862 501.439 707.195 500.091C706.536 498.742 706.207 497.167 706.207 495.364C706.207 493.545 706.536 491.958 707.195 490.602C707.862 489.246 708.786 488.193 709.968 487.443C711.157 486.693 712.54 486.318 714.116 486.318C715.692 486.318 717.07 486.693 718.252 487.443C719.442 488.193 720.366 489.246 721.025 490.602C721.692 491.958 722.025 493.545 722.025 495.364C722.025 497.167 721.692 498.742 721.025 500.091C720.366 501.439 719.442 502.489 718.252 503.239C717.07 503.989 715.692 504.364 714.116 504.364ZM714.116 501.955C715.313 501.955 716.298 501.648 717.07 501.034C717.843 500.42 718.415 499.614 718.786 498.614C719.157 497.614 719.343 496.53 719.343 495.364C719.343 494.197 719.157 493.11 718.786 492.102C718.415 491.095 717.843 490.28 717.07 489.659C716.298 489.038 715.313 488.727 714.116 488.727C712.919 488.727 711.934 489.038 711.161 489.659C710.388 490.28 709.817 491.095 709.445 492.102C709.074 493.11 708.888 494.197 708.888 495.364C708.888 496.53 709.074 497.614 709.445 498.614C709.817 499.614 710.388 500.42 711.161 501.034C711.934 501.648 712.919 501.955 714.116 501.955ZM732.71 504.364C731.255 504.364 729.971 503.996 728.857 503.261C727.744 502.519 726.872 501.473 726.244 500.125C725.615 498.769 725.3 497.167 725.3 495.318C725.3 493.485 725.615 491.894 726.244 490.545C726.872 489.197 727.747 488.155 728.869 487.42C729.99 486.686 731.285 486.318 732.755 486.318C733.891 486.318 734.789 486.508 735.448 486.886C736.115 487.258 736.622 487.682 736.971 488.159C737.327 488.629 737.603 489.015 737.8 489.318H738.028V480.727H740.71V504H738.119V501.318H737.8C737.603 501.636 737.323 502.038 736.96 502.523C736.596 503 736.077 503.428 735.403 503.807C734.728 504.178 733.831 504.364 732.71 504.364ZM733.073 501.955C734.149 501.955 735.058 501.674 735.8 501.114C736.543 500.545 737.107 499.761 737.494 498.761C737.88 497.754 738.073 496.591 738.073 495.273C738.073 493.97 737.884 492.83 737.505 491.852C737.126 490.867 736.566 490.102 735.823 489.557C735.081 489.004 734.164 488.727 733.073 488.727C731.937 488.727 730.99 489.019 730.232 489.602C729.482 490.178 728.918 490.962 728.539 491.955C728.168 492.939 727.982 494.045 727.982 495.273C727.982 496.515 728.172 497.644 728.55 498.659C728.937 499.667 729.505 500.47 730.255 501.068C731.013 501.659 731.952 501.955 733.073 501.955ZM747.721 510.545C747.266 510.545 746.861 510.508 746.505 510.432C746.149 510.364 745.903 510.295 745.766 510.227L746.448 507.864C747.1 508.03 747.675 508.091 748.175 508.045C748.675 508 749.119 507.777 749.505 507.375C749.899 506.981 750.259 506.341 750.585 505.455L751.085 504.091L744.63 486.545H747.539L752.357 500.455H752.539L757.357 486.545H760.266L752.857 506.545C752.524 507.447 752.111 508.193 751.619 508.784C751.126 509.383 750.554 509.826 749.903 510.114C749.259 510.402 748.531 510.545 747.721 510.545Z" fill="white"/>
<line x1="152" y1="547" x2="152.01" y2="652" stroke="currentColor" stroke-width="4"/>
<line x1="152" y1="763" x2="152.01" y2="868" stroke="currentColor" stroke-width="4"/>
<rect x="72" y="653" width="155.738" height="116" fill="hsl(var(--nextra-primary-hue), var(--nextra-primary-saturation),20%)"/>
<path d="M132.023 704.545V706.818H122.978V704.545H132.023ZM125.614 700.364H128.296V717C128.296 717.758 128.406 718.326 128.626 718.705C128.853 719.076 129.141 719.326 129.489 719.455C129.845 719.576 130.22 719.636 130.614 719.636C130.91 719.636 131.152 719.621 131.342 719.591C131.531 719.553 131.683 719.523 131.796 719.5L132.342 721.909C132.16 721.977 131.906 722.045 131.58 722.114C131.255 722.189 130.842 722.227 130.342 722.227C129.584 722.227 128.842 722.064 128.114 721.739C127.395 721.413 126.796 720.917 126.319 720.25C125.849 719.583 125.614 718.742 125.614 717.727V700.364ZM136.058 722V704.545H138.739V722H136.058ZM137.421 701.636C136.898 701.636 136.448 701.458 136.069 701.102C135.698 700.746 135.512 700.318 135.512 699.818C135.512 699.318 135.698 698.89 136.069 698.534C136.448 698.178 136.898 698 137.421 698C137.944 698 138.391 698.178 138.762 698.534C139.141 698.89 139.33 699.318 139.33 699.818C139.33 700.318 139.141 700.746 138.762 701.102C138.391 701.458 137.944 701.636 137.421 701.636ZM151.242 704.545V706.818H142.197V704.545H151.242ZM144.833 700.364H147.515V717C147.515 717.758 147.625 718.326 147.845 718.705C148.072 719.076 148.36 719.326 148.708 719.455C149.064 719.576 149.439 719.636 149.833 719.636C150.129 719.636 150.371 719.621 150.56 719.591C150.75 719.553 150.901 719.523 151.015 719.5L151.56 721.909C151.379 721.977 151.125 722.045 150.799 722.114C150.473 722.189 150.06 722.227 149.56 722.227C148.803 722.227 148.06 722.064 147.333 721.739C146.613 721.413 146.015 720.917 145.538 720.25C145.068 719.583 144.833 718.742 144.833 717.727V700.364ZM158.333 698.727V722H155.651V698.727H158.333ZM170.563 722.364C168.881 722.364 167.431 721.992 166.211 721.25C164.999 720.5 164.063 719.455 163.404 718.114C162.753 716.765 162.427 715.197 162.427 713.409C162.427 711.621 162.753 710.045 163.404 708.682C164.063 707.311 164.98 706.242 166.154 705.477C167.336 704.705 168.715 704.318 170.291 704.318C171.2 704.318 172.097 704.47 172.984 704.773C173.87 705.076 174.677 705.568 175.404 706.25C176.131 706.924 176.711 707.818 177.143 708.932C177.575 710.045 177.791 711.417 177.791 713.045V714.182H164.336V711.864H175.063C175.063 710.879 174.866 710 174.472 709.227C174.086 708.455 173.533 707.845 172.813 707.398C172.101 706.951 171.26 706.727 170.291 706.727C169.222 706.727 168.298 706.992 167.518 707.523C166.745 708.045 166.15 708.727 165.734 709.568C165.317 710.409 165.109 711.311 165.109 712.273V713.818C165.109 715.136 165.336 716.254 165.791 717.17C166.253 718.08 166.893 718.773 167.711 719.25C168.529 719.72 169.48 719.955 170.563 719.955C171.268 719.955 171.904 719.856 172.472 719.659C173.048 719.455 173.544 719.152 173.961 718.75C174.378 718.341 174.7 717.833 174.927 717.227L177.518 717.955C177.245 718.833 176.787 719.606 176.143 720.273C175.499 720.932 174.703 721.447 173.756 721.818C172.809 722.182 171.745 722.364 170.563 722.364Z" fill="white"/>
<rect y="863" width="300" height="116" fill="hsl(var(--nextra-primary-hue), var(--nextra-primary-saturation),20%)"/>
<path d="M40.6392 917V914.955C40.6392 914.333 40.7491 913.674 40.9688 912.977C41.196 912.273 41.5218 911.595 41.946 910.943C42.3778 910.284 42.8968 909.712 43.5028 909.227L44.9574 910.409C44.4801 911.091 44.0634 911.803 43.7074 912.545C43.3589 913.28 43.1847 914.068 43.1847 914.909V917H40.6392ZM46.4574 917V914.955C46.4574 914.333 46.5672 913.674 46.7869 912.977C47.0142 912.273 47.34 911.595 47.7642 910.943C48.196 910.284 48.715 909.712 49.321 909.227L50.7756 910.409C50.2983 911.091 49.8816 911.803 49.5256 912.545C49.1771 913.28 49.0028 914.068 49.0028 914.909V917H46.4574ZM66.8267 915.545C66.6903 914.394 66.1373 913.5 65.1676 912.864C64.1979 912.227 63.0085 911.909 61.5994 911.909C60.5691 911.909 59.6676 912.076 58.8949 912.409C58.1297 912.742 57.5313 913.201 57.0994 913.784C56.6752 914.367 56.4631 915.03 56.4631 915.773C56.4631 916.394 56.6108 916.928 56.9062 917.375C57.2093 917.814 57.5956 918.182 58.0653 918.477C58.535 918.765 59.0275 919.004 59.5426 919.193C60.0578 919.375 60.5312 919.523 60.9631 919.636L63.3267 920.273C63.9328 920.432 64.607 920.652 65.3494 920.932C66.0994 921.212 66.8153 921.595 67.4972 922.08C68.1866 922.557 68.7547 923.17 69.2017 923.92C69.6487 924.67 69.8722 925.591 69.8722 926.682C69.8722 927.939 69.5426 929.076 68.8835 930.091C68.232 931.106 67.2775 931.913 66.0199 932.511C64.7699 933.11 63.2509 933.409 61.4631 933.409C59.7964 933.409 58.3532 933.14 57.1335 932.602C55.9214 932.064 54.9669 931.314 54.2699 930.352C53.5805 929.39 53.1903 928.273 53.0994 927H56.0085C56.0843 927.879 56.3797 928.606 56.8949 929.182C57.4176 929.75 58.0767 930.174 58.8722 930.455C59.6752 930.727 60.5388 930.864 61.4631 930.864C62.5388 930.864 63.5047 930.689 64.3608 930.341C65.2169 929.985 65.8949 929.492 66.3949 928.864C66.8949 928.227 67.1449 927.485 67.1449 926.636C67.1449 925.864 66.929 925.235 66.4972 924.75C66.0653 924.265 65.4972 923.871 64.7926 923.568C64.0881 923.265 63.3267 923 62.5085 922.773L59.6449 921.955C57.8267 921.432 56.3873 920.686 55.3267 919.716C54.2661 918.746 53.7358 917.477 53.7358 915.909C53.7358 914.606 54.0881 913.47 54.7926 912.5C55.5047 911.523 56.4593 910.765 57.6562 910.227C58.8608 909.682 60.2055 909.409 61.6903 909.409C63.1903 909.409 64.5237 909.678 65.6903 910.216C66.857 910.746 67.7813 911.473 68.4631 912.398C69.1525 913.322 69.5161 914.371 69.554 915.545H66.8267ZM79.2784 933.409C78.1723 933.409 77.1686 933.201 76.267 932.784C75.3655 932.36 74.6496 931.75 74.1193 930.955C73.589 930.152 73.3239 929.182 73.3239 928.045C73.3239 927.045 73.5208 926.235 73.9148 925.614C74.3087 924.985 74.8352 924.492 75.4943 924.136C76.1534 923.78 76.8807 923.515 77.6761 923.341C78.4792 923.159 79.286 923.015 80.0966 922.909C81.1572 922.773 82.017 922.67 82.6761 922.602C83.3428 922.527 83.8277 922.402 84.1307 922.227C84.4413 922.053 84.5966 921.75 84.5966 921.318V921.227C84.5966 920.106 84.2898 919.235 83.6761 918.614C83.0701 917.992 82.1496 917.682 80.9148 917.682C79.6345 917.682 78.6307 917.962 77.9034 918.523C77.1761 919.083 76.6648 919.682 76.3693 920.318L73.8239 919.409C74.2784 918.348 74.8845 917.523 75.642 916.932C76.4072 916.333 77.2405 915.917 78.142 915.682C79.0511 915.439 79.9451 915.318 80.8239 915.318C81.3845 915.318 82.0284 915.386 82.7557 915.523C83.4905 915.652 84.1989 915.92 84.8807 916.33C85.5701 916.739 86.142 917.356 86.5966 918.182C87.0511 919.008 87.2784 920.114 87.2784 921.5V933H84.5966V930.636H84.4602C84.2784 931.015 83.9754 931.42 83.5511 931.852C83.1269 932.284 82.5625 932.652 81.858 932.955C81.1534 933.258 80.2936 933.409 79.2784 933.409ZM79.6875 931C80.7481 931 81.642 930.792 82.3693 930.375C83.1042 929.958 83.6572 929.42 84.0284 928.761C84.4072 928.102 84.5966 927.409 84.5966 926.682V924.227C84.483 924.364 84.233 924.489 83.8466 924.602C83.4678 924.708 83.0284 924.803 82.5284 924.886C82.036 924.962 81.5549 925.03 81.0852 925.091C80.6231 925.144 80.2481 925.189 79.9602 925.227C79.2633 925.318 78.6117 925.466 78.0057 925.67C77.4072 925.867 76.9223 926.167 76.5511 926.568C76.1875 926.962 76.0057 927.5 76.0057 928.182C76.0057 929.114 76.3504 929.818 77.0398 930.295C77.7367 930.765 78.6193 931 79.6875 931ZM92.1733 933V915.545H94.7642V918.273H94.9915C95.3551 917.341 95.9422 916.617 96.7528 916.102C97.5634 915.58 98.5369 915.318 99.6733 915.318C100.825 915.318 101.783 915.58 102.548 916.102C103.321 916.617 103.923 917.341 104.355 918.273H104.537C104.984 917.371 105.654 916.655 106.548 916.125C107.442 915.587 108.514 915.318 109.764 915.318C111.325 915.318 112.601 915.807 113.594 916.784C114.586 917.754 115.082 919.265 115.082 921.318V933H112.401V921.318C112.401 920.03 112.048 919.11 111.344 918.557C110.639 918.004 109.81 917.727 108.855 917.727C107.628 917.727 106.677 918.098 106.003 918.841C105.329 919.576 104.991 920.508 104.991 921.636V933H102.264V921.045C102.264 920.053 101.942 919.254 101.298 918.648C100.654 918.034 99.8248 917.727 98.8097 917.727C98.1127 917.727 97.4612 917.913 96.8551 918.284C96.2566 918.655 95.7718 919.17 95.4006 919.83C95.0369 920.481 94.8551 921.235 94.8551 922.091V933H92.1733ZM119.986 939.545V915.545H122.577V918.318H122.895C123.092 918.015 123.365 917.629 123.713 917.159C124.069 916.682 124.577 916.258 125.236 915.886C125.902 915.508 126.804 915.318 127.94 915.318C129.41 915.318 130.705 915.686 131.827 916.42C132.948 917.155 133.823 918.197 134.452 919.545C135.08 920.894 135.395 922.485 135.395 924.318C135.395 926.167 135.08 927.769 134.452 929.125C133.823 930.473 132.952 931.519 131.838 932.261C130.724 932.996 129.44 933.364 127.986 933.364C126.865 933.364 125.967 933.178 125.293 932.807C124.618 932.428 124.099 932 123.736 931.523C123.372 931.038 123.092 930.636 122.895 930.318H122.668V939.545H119.986ZM122.622 924.273C122.622 925.591 122.815 926.754 123.202 927.761C123.588 928.761 124.152 929.545 124.895 930.114C125.637 930.674 126.546 930.955 127.622 930.955C128.743 930.955 129.679 930.659 130.429 930.068C131.187 929.47 131.755 928.667 132.134 927.659C132.52 926.644 132.713 925.515 132.713 924.273C132.713 923.045 132.524 921.939 132.145 920.955C131.774 919.962 131.209 919.178 130.452 918.602C129.702 918.019 128.759 917.727 127.622 917.727C126.531 917.727 125.615 918.004 124.872 918.557C124.13 919.102 123.569 919.867 123.19 920.852C122.812 921.83 122.622 922.97 122.622 924.273ZM142.168 909.727V933H139.486V909.727H142.168ZM154.398 933.364C152.716 933.364 151.265 932.992 150.045 932.25C148.833 931.5 147.898 930.455 147.239 929.114C146.587 927.765 146.261 926.197 146.261 924.409C146.261 922.621 146.587 921.045 147.239 919.682C147.898 918.311 148.814 917.242 149.989 916.477C151.17 915.705 152.549 915.318 154.125 915.318C155.034 915.318 155.932 915.47 156.818 915.773C157.705 916.076 158.511 916.568 159.239 917.25C159.966 917.924 160.545 918.818 160.977 919.932C161.409 921.045 161.625 922.417 161.625 924.045V925.182H148.17V922.864H158.898C158.898 921.879 158.701 921 158.307 920.227C157.92 919.455 157.367 918.845 156.648 918.398C155.936 917.951 155.095 917.727 154.125 917.727C153.057 917.727 152.133 917.992 151.352 918.523C150.58 919.045 149.985 919.727 149.568 920.568C149.152 921.409 148.943 922.311 148.943 923.273V924.818C148.943 926.136 149.17 927.254 149.625 928.17C150.087 929.08 150.727 929.773 151.545 930.25C152.364 930.72 153.314 930.955 154.398 930.955C155.102 930.955 155.739 930.856 156.307 930.659C156.883 930.455 157.379 930.152 157.795 929.75C158.212 929.341 158.534 928.833 158.761 928.227L161.352 928.955C161.08 929.833 160.621 930.606 159.977 931.273C159.333 931.932 158.538 932.447 157.591 932.818C156.644 933.182 155.58 933.364 154.398 933.364ZM175.068 933V909.727H182.932C184.758 909.727 186.25 910.057 187.409 910.716C188.576 911.367 189.439 912.25 190 913.364C190.561 914.477 190.841 915.72 190.841 917.091C190.841 918.462 190.561 919.708 190 920.83C189.447 921.951 188.591 922.845 187.432 923.511C186.273 924.17 184.788 924.5 182.977 924.5H177.341V922H182.886C184.136 922 185.14 921.784 185.898 921.352C186.655 920.92 187.205 920.337 187.545 919.602C187.894 918.86 188.068 918.023 188.068 917.091C188.068 916.159 187.894 915.326 187.545 914.591C187.205 913.856 186.652 913.28 185.886 912.864C185.121 912.439 184.106 912.227 182.841 912.227H177.886V933H175.068ZM200.153 933.409C199.047 933.409 198.044 933.201 197.142 932.784C196.241 932.36 195.525 931.75 194.994 930.955C194.464 930.152 194.199 929.182 194.199 928.045C194.199 927.045 194.396 926.235 194.79 925.614C195.184 924.985 195.71 924.492 196.369 924.136C197.028 923.78 197.756 923.515 198.551 923.341C199.354 923.159 200.161 923.015 200.972 922.909C202.032 922.773 202.892 922.67 203.551 922.602C204.218 922.527 204.703 922.402 205.006 922.227C205.316 922.053 205.472 921.75 205.472 921.318V921.227C205.472 920.106 205.165 919.235 204.551 918.614C203.945 917.992 203.025 917.682 201.79 917.682C200.509 917.682 199.506 917.962 198.778 918.523C198.051 919.083 197.54 919.682 197.244 920.318L194.699 919.409C195.153 918.348 195.759 917.523 196.517 916.932C197.282 916.333 198.116 915.917 199.017 915.682C199.926 915.439 200.82 915.318 201.699 915.318C202.259 915.318 202.903 915.386 203.631 915.523C204.366 915.652 205.074 915.92 205.756 916.33C206.445 916.739 207.017 917.356 207.472 918.182C207.926 919.008 208.153 920.114 208.153 921.5V933H205.472V930.636H205.335C205.153 931.015 204.85 931.42 204.426 931.852C204.002 932.284 203.438 932.652 202.733 932.955C202.028 933.258 201.169 933.409 200.153 933.409ZM200.562 931C201.623 931 202.517 930.792 203.244 930.375C203.979 929.958 204.532 929.42 204.903 928.761C205.282 928.102 205.472 927.409 205.472 926.682V924.227C205.358 924.364 205.108 924.489 204.722 924.602C204.343 924.708 203.903 924.803 203.403 924.886C202.911 924.962 202.43 925.03 201.96 925.091C201.498 925.144 201.123 925.189 200.835 925.227C200.138 925.318 199.487 925.466 198.881 925.67C198.282 925.867 197.797 926.167 197.426 926.568C197.063 926.962 196.881 927.5 196.881 928.182C196.881 929.114 197.225 929.818 197.915 930.295C198.612 930.765 199.494 931 200.562 931ZM220.094 939.909C218.798 939.909 217.685 939.742 216.753 939.409C215.821 939.083 215.045 938.652 214.423 938.114C213.81 937.583 213.321 937.015 212.957 936.409L215.094 934.909C215.336 935.227 215.643 935.591 216.014 936C216.385 936.417 216.893 936.777 217.537 937.08C218.188 937.39 219.041 937.545 220.094 937.545C221.503 937.545 222.666 937.205 223.582 936.523C224.499 935.841 224.957 934.773 224.957 933.318V929.773H224.73C224.533 930.091 224.253 930.485 223.889 930.955C223.533 931.417 223.018 931.83 222.344 932.193C221.677 932.549 220.776 932.727 219.639 932.727C218.23 932.727 216.965 932.394 215.844 931.727C214.73 931.061 213.848 930.091 213.196 928.818C212.552 927.545 212.23 926 212.23 924.182C212.23 922.394 212.545 920.837 213.173 919.511C213.802 918.178 214.677 917.148 215.798 916.42C216.92 915.686 218.215 915.318 219.685 915.318C220.821 915.318 221.723 915.508 222.389 915.886C223.063 916.258 223.579 916.682 223.935 917.159C224.298 917.629 224.579 918.015 224.776 918.318H225.048V915.545H227.639V933.5C227.639 935 227.298 936.22 226.616 937.159C225.942 938.106 225.033 938.799 223.889 939.239C222.753 939.686 221.488 939.909 220.094 939.909ZM220.003 930.318C221.079 930.318 221.988 930.072 222.73 929.58C223.473 929.087 224.037 928.379 224.423 927.455C224.81 926.53 225.003 925.424 225.003 924.136C225.003 922.879 224.813 921.769 224.435 920.807C224.056 919.845 223.495 919.091 222.753 918.545C222.01 918 221.094 917.727 220.003 917.727C218.866 917.727 217.92 918.015 217.162 918.591C216.412 919.167 215.848 919.939 215.469 920.909C215.098 921.879 214.912 922.955 214.912 924.136C214.912 925.348 215.101 926.42 215.48 927.352C215.866 928.277 216.435 929.004 217.185 929.534C217.942 930.057 218.882 930.318 220.003 930.318ZM239.866 933.364C238.185 933.364 236.734 932.992 235.514 932.25C234.302 931.5 233.366 930.455 232.707 929.114C232.056 927.765 231.73 926.197 231.73 924.409C231.73 922.621 232.056 921.045 232.707 919.682C233.366 918.311 234.283 917.242 235.457 916.477C236.639 915.705 238.018 915.318 239.594 915.318C240.503 915.318 241.401 915.47 242.287 915.773C243.173 916.076 243.98 916.568 244.707 917.25C245.435 917.924 246.014 918.818 246.446 919.932C246.878 921.045 247.094 922.417 247.094 924.045V925.182H233.639V922.864H244.366C244.366 921.879 244.17 921 243.776 920.227C243.389 919.455 242.836 918.845 242.116 918.398C241.404 917.951 240.563 917.727 239.594 917.727C238.526 917.727 237.601 917.992 236.821 918.523C236.048 919.045 235.454 919.727 235.037 920.568C234.62 921.409 234.412 922.311 234.412 923.273V924.818C234.412 926.136 234.639 927.254 235.094 928.17C235.556 929.08 236.196 929.773 237.014 930.25C237.832 930.72 238.783 930.955 239.866 930.955C240.571 930.955 241.207 930.856 241.776 930.659C242.351 930.455 242.848 930.152 243.264 929.75C243.681 929.341 244.003 928.833 244.23 928.227L246.821 928.955C246.548 929.833 246.09 930.606 245.446 931.273C244.802 931.932 244.007 932.447 243.06 932.818C242.113 933.182 241.048 933.364 239.866 933.364ZM253.537 909.727V911.773C253.537 912.394 253.423 913.057 253.196 913.761C252.976 914.458 252.651 915.136 252.219 915.795C251.795 916.447 251.279 917.015 250.673 917.5L249.219 916.318C249.696 915.636 250.109 914.928 250.457 914.193C250.813 913.451 250.991 912.659 250.991 911.818V909.727H253.537ZM259.355 909.727V911.773C259.355 912.394 259.241 913.057 259.014 913.761C258.795 914.458 258.469 915.136 258.037 915.795C257.613 916.447 257.098 917.015 256.491 917.5L255.037 916.318C255.514 915.636 255.927 914.928 256.276 914.193C256.632 913.451 256.81 912.659 256.81 911.818V909.727H259.355Z" fill="white"/>
<rect x="72" y="437" width="156" height="116" fill="hsl(var(--nextra-primary-hue), var(--nextra-primary-saturation),20%)"/>
<path d="M117.593 494.5V505H114.911V481.727H117.593V490.273H117.82C118.229 489.371 118.843 488.655 119.661 488.125C120.487 487.587 121.586 487.318 122.957 487.318C124.146 487.318 125.188 487.557 126.082 488.034C126.976 488.504 127.669 489.227 128.161 490.205C128.661 491.174 128.911 492.409 128.911 493.909V505H126.229V494.091C126.229 492.705 125.87 491.633 125.15 490.875C124.438 490.11 123.449 489.727 122.184 489.727C121.305 489.727 120.517 489.913 119.82 490.284C119.131 490.655 118.586 491.197 118.184 491.909C117.79 492.621 117.593 493.485 117.593 494.5ZM141.136 505.364C139.454 505.364 138.003 504.992 136.783 504.25C135.571 503.5 134.636 502.455 133.977 501.114C133.325 499.765 132.999 498.197 132.999 496.409C132.999 494.621 133.325 493.045 133.977 491.682C134.636 490.311 135.552 489.242 136.727 488.477C137.908 487.705 139.287 487.318 140.863 487.318C141.772 487.318 142.67 487.47 143.556 487.773C144.443 488.076 145.249 488.568 145.977 489.25C146.704 489.924 147.283 490.818 147.715 491.932C148.147 493.045 148.363 494.417 148.363 496.045V497.182H134.908V494.864H145.636C145.636 493.879 145.439 493 145.045 492.227C144.658 491.455 144.105 490.845 143.386 490.398C142.674 489.951 141.833 489.727 140.863 489.727C139.795 489.727 138.871 489.992 138.09 490.523C137.318 491.045 136.723 491.727 136.306 492.568C135.89 493.409 135.681 494.311 135.681 495.273V496.818C135.681 498.136 135.908 499.254 136.363 500.17C136.825 501.08 137.465 501.773 138.283 502.25C139.102 502.72 140.052 502.955 141.136 502.955C141.84 502.955 142.477 502.856 143.045 502.659C143.621 502.455 144.117 502.152 144.533 501.75C144.95 501.341 145.272 500.833 145.499 500.227L148.09 500.955C147.818 501.833 147.359 502.606 146.715 503.273C146.071 503.932 145.276 504.447 144.329 504.818C143.382 505.182 142.318 505.364 141.136 505.364ZM157.579 505.409C156.473 505.409 155.469 505.201 154.568 504.784C153.666 504.36 152.95 503.75 152.42 502.955C151.89 502.152 151.624 501.182 151.624 500.045C151.624 499.045 151.821 498.235 152.215 497.614C152.609 496.985 153.136 496.492 153.795 496.136C154.454 495.78 155.181 495.515 155.977 495.341C156.78 495.159 157.587 495.015 158.397 494.909C159.458 494.773 160.318 494.67 160.977 494.602C161.643 494.527 162.128 494.402 162.431 494.227C162.742 494.053 162.897 493.75 162.897 493.318V493.227C162.897 492.106 162.59 491.235 161.977 490.614C161.371 489.992 160.45 489.682 159.215 489.682C157.935 489.682 156.931 489.962 156.204 490.523C155.477 491.083 154.965 491.682 154.67 492.318L152.124 491.409C152.579 490.348 153.185 489.523 153.943 488.932C154.708 488.333 155.541 487.917 156.443 487.682C157.352 487.439 158.246 487.318 159.124 487.318C159.685 487.318 160.329 487.386 161.056 487.523C161.791 487.652 162.499 487.92 163.181 488.33C163.871 488.739 164.443 489.356 164.897 490.182C165.352 491.008 165.579 492.114 165.579 493.5V505H162.897V502.636H162.761C162.579 503.015 162.276 503.42 161.852 503.852C161.427 504.284 160.863 504.652 160.158 504.955C159.454 505.258 158.594 505.409 157.579 505.409ZM157.988 503C159.049 503 159.943 502.792 160.67 502.375C161.405 501.958 161.958 501.42 162.329 500.761C162.708 500.102 162.897 499.409 162.897 498.682V496.227C162.783 496.364 162.533 496.489 162.147 496.602C161.768 496.708 161.329 496.803 160.829 496.886C160.337 496.962 159.855 497.03 159.386 497.091C158.924 497.144 158.549 497.189 158.261 497.227C157.564 497.318 156.912 497.466 156.306 497.67C155.708 497.867 155.223 498.167 154.852 498.568C154.488 498.962 154.306 499.5 154.306 500.182C154.306 501.114 154.651 501.818 155.34 502.295C156.037 502.765 156.92 503 157.988 503ZM177.065 505.364C175.61 505.364 174.326 504.996 173.212 504.261C172.099 503.519 171.228 502.473 170.599 501.125C169.97 499.769 169.656 498.167 169.656 496.318C169.656 494.485 169.97 492.894 170.599 491.545C171.228 490.197 172.103 489.155 173.224 488.42C174.345 487.686 175.64 487.318 177.11 487.318C178.247 487.318 179.144 487.508 179.803 487.886C180.47 488.258 180.978 488.682 181.326 489.159C181.682 489.629 181.959 490.015 182.156 490.318H182.383V481.727H185.065V505H182.474V502.318H182.156C181.959 502.636 181.678 503.038 181.315 503.523C180.951 504 180.432 504.428 179.758 504.807C179.084 505.178 178.186 505.364 177.065 505.364ZM177.428 502.955C178.504 502.955 179.413 502.674 180.156 502.114C180.898 501.545 181.462 500.761 181.849 499.761C182.235 498.754 182.428 497.591 182.428 496.273C182.428 494.97 182.239 493.83 181.86 492.852C181.481 491.867 180.921 491.102 180.178 490.557C179.436 490.004 178.519 489.727 177.428 489.727C176.292 489.727 175.345 490.019 174.587 490.602C173.837 491.178 173.273 491.962 172.894 492.955C172.523 493.939 172.337 495.045 172.337 496.273C172.337 497.515 172.527 498.644 172.906 499.659C173.292 500.667 173.86 501.47 174.61 502.068C175.368 502.659 176.307 502.955 177.428 502.955Z" fill="white"/>
<rect x="235" width="445" height="116" fill="hsl(var(--nextra-primary-hue), var(--nextra-primary-saturation),20%)"/>
<path d="M390.936 69.3636C389.482 69.3636 388.197 68.9962 387.084 68.2614C385.97 67.5189 385.099 66.4735 384.47 65.125C383.841 63.7689 383.527 62.1667 383.527 60.3182C383.527 58.4848 383.841 56.8939 384.47 55.5455C385.099 54.197 385.974 53.1553 387.095 52.4205C388.216 51.6856 389.512 51.3182 390.982 51.3182C392.118 51.3182 393.016 51.5076 393.675 51.8864C394.341 52.2576 394.849 52.6818 395.197 53.1591C395.554 53.6288 395.83 54.0152 396.027 54.3182H396.254V45.7273H398.936V69H396.345V66.3182H396.027C395.83 66.6364 395.55 67.0379 395.186 67.5227C394.822 68 394.304 68.428 393.629 68.8068C392.955 69.178 392.057 69.3636 390.936 69.3636ZM391.3 66.9545C392.375 66.9545 393.285 66.6742 394.027 66.1136C394.769 65.5455 395.334 64.7614 395.72 63.7614C396.107 62.7538 396.3 61.5909 396.3 60.2727C396.3 58.9697 396.11 57.8295 395.732 56.8523C395.353 55.8674 394.792 55.1023 394.05 54.5568C393.307 54.0038 392.391 53.7273 391.3 53.7273C390.163 53.7273 389.216 54.0189 388.459 54.6023C387.709 55.178 387.144 55.9621 386.766 56.9545C386.394 57.9394 386.209 59.0455 386.209 60.2727C386.209 61.5152 386.398 62.6439 386.777 63.6591C387.163 64.6667 387.732 65.4697 388.482 66.0682C389.239 66.6591 390.179 66.9545 391.3 66.9545ZM411.311 69.3636C409.735 69.3636 408.353 68.9886 407.163 68.2386C405.982 67.4886 405.057 66.4394 404.391 65.0909C403.732 63.7424 403.402 62.1667 403.402 60.3636C403.402 58.5455 403.732 56.9583 404.391 55.6023C405.057 54.2462 405.982 53.1932 407.163 52.4432C408.353 51.6932 409.735 51.3182 411.311 51.3182C412.887 51.3182 414.266 51.6932 415.447 52.4432C416.637 53.1932 417.561 54.2462 418.22 55.6023C418.887 56.9583 419.22 58.5455 419.22 60.3636C419.22 62.1667 418.887 63.7424 418.22 65.0909C417.561 66.4394 416.637 67.4886 415.447 68.2386C414.266 68.9886 412.887 69.3636 411.311 69.3636ZM411.311 66.9545C412.508 66.9545 413.493 66.6477 414.266 66.0341C415.038 65.4205 415.61 64.6136 415.982 63.6136C416.353 62.6136 416.538 61.5303 416.538 60.3636C416.538 59.197 416.353 58.1098 415.982 57.1023C415.61 56.0947 415.038 55.2803 414.266 54.6591C413.493 54.0379 412.508 53.7273 411.311 53.7273C410.114 53.7273 409.129 54.0379 408.357 54.6591C407.584 55.2803 407.012 56.0947 406.641 57.1023C406.269 58.1098 406.084 59.197 406.084 60.3636C406.084 61.5303 406.269 62.6136 406.641 63.6136C407.012 64.6136 407.584 65.4205 408.357 66.0341C409.129 66.6477 410.114 66.9545 411.311 66.9545ZM430.405 69.3636C428.768 69.3636 427.359 68.9773 426.178 68.2045C424.996 67.4318 424.087 66.3674 423.45 65.0114C422.814 63.6553 422.496 62.1061 422.496 60.3636C422.496 58.5909 422.821 57.0265 423.473 55.6705C424.132 54.3068 425.049 53.2424 426.223 52.4773C427.405 51.7045 428.784 51.3182 430.359 51.3182C431.587 51.3182 432.693 51.5455 433.678 52C434.662 52.4545 435.469 53.0909 436.098 53.9091C436.727 54.7273 437.117 55.6818 437.268 56.7727H434.587C434.382 55.9773 433.928 55.2727 433.223 54.6591C432.526 54.0379 431.587 53.7273 430.405 53.7273C429.359 53.7273 428.443 54 427.655 54.5455C426.875 55.0833 426.265 55.8447 425.825 56.8295C425.393 57.8068 425.178 58.9545 425.178 60.2727C425.178 61.6212 425.39 62.7955 425.814 63.7955C426.246 64.7955 426.852 65.572 427.632 66.125C428.42 66.678 429.344 66.9545 430.405 66.9545C431.102 66.9545 431.734 66.8333 432.303 66.5909C432.871 66.3485 433.352 66 433.746 65.5455C434.14 65.0909 434.42 64.5455 434.587 63.9091H437.268C437.117 64.9394 436.742 65.8674 436.143 66.6932C435.553 67.5114 434.768 68.1629 433.791 68.6477C432.821 69.125 431.693 69.3636 430.405 69.3636ZM452.189 61.8636V51.5455H454.871V69H452.189V66.0455H452.007C451.598 66.9318 450.962 67.6856 450.098 68.3068C449.234 68.9205 448.143 69.2273 446.825 69.2273C445.734 69.2273 444.765 68.9886 443.916 68.5114C443.068 68.0265 442.401 67.2992 441.916 66.3295C441.431 65.3523 441.189 64.1212 441.189 62.6364V51.5455H443.871V62.4545C443.871 63.7273 444.227 64.7424 444.939 65.5C445.659 66.2576 446.575 66.6364 447.689 66.6364C448.356 66.6364 449.034 66.4659 449.723 66.125C450.42 65.7841 451.003 65.2614 451.473 64.5568C451.95 63.8523 452.189 62.9545 452.189 61.8636ZM459.783 69V51.5455H462.374V54.2727H462.601C462.964 53.3409 463.552 52.6174 464.362 52.1023C465.173 51.5795 466.146 51.3182 467.283 51.3182C468.434 51.3182 469.393 51.5795 470.158 52.1023C470.93 52.6174 471.533 53.3409 471.964 54.2727H472.146C472.593 53.3712 473.264 52.6553 474.158 52.125C475.052 51.5871 476.124 51.3182 477.374 51.3182C478.934 51.3182 480.211 51.8068 481.203 52.7841C482.196 53.7538 482.692 55.2652 482.692 57.3182V69H480.01V57.3182C480.01 56.0303 479.658 55.1098 478.953 54.5568C478.249 54.0038 477.419 53.7273 476.464 53.7273C475.237 53.7273 474.286 54.0985 473.612 54.8409C472.938 55.5758 472.601 56.5076 472.601 57.6364V69H469.874V57.0455C469.874 56.053 469.552 55.2538 468.908 54.6477C468.264 54.0341 467.434 53.7273 466.419 53.7273C465.722 53.7273 465.071 53.9129 464.464 54.2841C463.866 54.6553 463.381 55.1705 463.01 55.8295C462.646 56.4811 462.464 57.2348 462.464 58.0909V69H459.783ZM494.913 69.3636C493.232 69.3636 491.781 68.9924 490.561 68.25C489.349 67.5 488.413 66.4545 487.754 65.1136C487.103 63.7652 486.777 62.197 486.777 60.4091C486.777 58.6212 487.103 57.0455 487.754 55.6818C488.413 54.3106 489.33 53.2424 490.504 52.4773C491.686 51.7045 493.065 51.3182 494.641 51.3182C495.55 51.3182 496.447 51.4697 497.334 51.7727C498.22 52.0758 499.027 52.5682 499.754 53.25C500.482 53.9242 501.061 54.8182 501.493 55.9318C501.925 57.0455 502.141 58.4167 502.141 60.0455V61.1818H488.686V58.8636H499.413C499.413 57.8788 499.216 57 498.822 56.2273C498.436 55.4545 497.883 54.8447 497.163 54.3977C496.451 53.9508 495.61 53.7273 494.641 53.7273C493.572 53.7273 492.648 53.9924 491.868 54.5227C491.095 55.0455 490.5 55.7273 490.084 56.5682C489.667 57.4091 489.459 58.3106 489.459 59.2727V60.8182C489.459 62.1364 489.686 63.2538 490.141 64.1705C490.603 65.0795 491.243 65.7727 492.061 66.25C492.879 66.7197 493.83 66.9545 494.913 66.9545C495.618 66.9545 496.254 66.8561 496.822 66.6591C497.398 66.4545 497.894 66.1515 498.311 65.75C498.728 65.3409 499.05 64.8333 499.277 64.2273L501.868 64.9545C501.595 65.8333 501.137 66.6061 500.493 67.2727C499.849 67.9318 499.054 68.447 498.107 68.8182C497.16 69.1818 496.095 69.3636 494.913 69.3636ZM508.902 58.5V69H506.22V51.5455H508.811V54.2727H509.038C509.447 53.3864 510.069 52.6742 510.902 52.1364C511.735 51.5909 512.811 51.3182 514.129 51.3182C515.311 51.3182 516.345 51.5606 517.232 52.0455C518.118 52.5227 518.807 53.25 519.3 54.2273C519.792 55.197 520.038 56.4242 520.038 57.9091V69H517.357V58.0909C517.357 56.7197 517 55.6515 516.288 54.8864C515.576 54.1136 514.599 53.7273 513.357 53.7273C512.5 53.7273 511.735 53.9129 511.061 54.2841C510.394 54.6553 509.868 55.197 509.482 55.9091C509.095 56.6212 508.902 57.4848 508.902 58.5ZM532.53 51.5455V53.8182H523.484V51.5455H532.53ZM526.121 47.3636H528.803V64C528.803 64.7576 528.912 65.3258 529.132 65.7045C529.359 66.0758 529.647 66.3258 529.996 66.4545C530.352 66.5758 530.727 66.6364 531.121 66.6364C531.416 66.6364 531.659 66.6212 531.848 66.5909C532.037 66.553 532.189 66.5227 532.303 66.5L532.848 68.9091C532.666 68.9773 532.412 69.0455 532.087 69.1136C531.761 69.1894 531.348 69.2273 530.848 69.2273C530.09 69.2273 529.348 69.0644 528.621 68.7386C527.901 68.4129 527.303 67.9167 526.825 67.25C526.356 66.5833 526.121 65.7424 526.121 64.7273V47.3636Z" fill="white"/>
<line x1="460" y1="116" x2="460" y2="205" stroke="currentColor" stroke-width="4"/>
</svg>
